<?xml version="1.0" encoding="utf-8"?>
<!-- Generator: Adobe Illustrator 19.2.1, SVG Export Plug-In . SVG Version: 6.00 Build 0)  -->
<svg version="1.1" id="Layer_1" xmlns="http://www.w3.org/2000/svg" xmlns:xlink="http://www.w3.org/1999/xlink" x="0px" y="0px"
	 viewBox="0 0 720 200" style="enable-background:new 0 0 720 200;" xml:space="preserve">
<style type="text/css">
	.teamscar-st0{fill:none;stroke:#FFFFFF;stroke-width:4.961;stroke-linejoin:round;stroke-miterlimit:10;}
	.teamscar-st1{fill:none;stroke:#FFFFFF;stroke-miterlimit:10;}
</style>
<g>
	<circle class="teamscar-st0" cx="579.3" cy="126.9" r="41.8"/>
	<path class="teamscar-st0" d="M466.3,97.1c0,0-49.2-12.1-80.8-15.7c-27.8-3.2-10.2,15.3-45.9,13.6s-40-5.9-107.3-5.9
		c-11.9,0-25.2,0.5-39.2,1.2"/>
	<path class="teamscar-st0" d="M163.4,92.3c-6.5,0.5-15,1.1-21.4,1.7c-18.9,1.8-37,3.9-52.1,6c-23.9,3.4-40.2,6.9-40.2,9.5
		c0,0,22.4,6.9,33.5,11.4"/>
	<path class="teamscar-st0" d="M227.1,143.7c17.6,7,21.7,12.5,21.7,12.5l-6.1,6h274"/>
	<path class="teamscar-st0" d="M545,87.5l-14.1,1.7c0,0-68.8-21.3-79.9-27.1s-21.3-20.6-24.7-20.6s-11.8,0-19.5,0s-0.9,13.6-0.1,20.4
		c0.4,3.4-0.7,6-1.8,9"/>
	<circle class="teamscar-st0" cx="181.7" cy="129.9" r="41.8"/>
	<circle class="teamscar-st1" cx="181.7" cy="128.9" r="27.4"/>
	<circle class="teamscar-st1" cx="579.3" cy="126.9" r="29.4"/>
	<path class="teamscar-st0" d="M73.7,159.2c-4.8,0-8.4-5-7.3-10.2c7.5-34.4,63.4-52.2,69.4-52.2c-19.6,34.7-2,62.4-2,62.4H73.7z"/>
	<polygon class="teamscar-st0" points="612.1,86.6 627.4,101.9 627.4,134 633.5,140.2 657.3,129.7 657.3,107.2 652,101.9 664.4,81.6 
		664.4,60 609.6,60 	"/>
	<path class="teamscar-st1" d="M313.6,104.4c0,5.2,9,5.1,9,5.1h41.2c2.9,0,3.4-3.5,0.6-4.1c0,0-19-6.6-39.9-6.6
		C320.5,98.8,313.6,99.2,313.6,104.4z"/>
</g>
</svg>
