<svg id="car" xmlns="http://www.w3.org/2000/svg" xmlns:xlink="http://www.w3.org/1999/xlink" viewBox="0 0 412.4 161.16">
  <title>car_top</title>
  <g id="car_ill" data-name="car">
    <path d="M345.62,38.11s-0.12.72-23,.72-23-.72-23-0.72A3.09,3.09,0,0,1,296.52,35V20.09A3.09,3.09,0,0,1,299.62,17s0-.72,23-0.72,23,0.72,23,.72a3.09,3.09,0,0,1,3.09,3.09V35A3.09,3.09,0,0,1,345.62,38.11Z" transform="translate(-0.5 -4.46)" style="fill: none;stroke: #fff;stroke-linejoin: round;stroke-width: 4px"/>
    <path d="M47.47,33.11v1.39a3.23,3.23,0,0,0,3.23,3.23s0.13,0.75,24,.75,24-.75,24-0.75A3.23,3.23,0,0,0,102,34.49v-17a3.23,3.23,0,0,0-3.23-3.23s0-.75-24-0.75-24,.75-24,0.75a3.23,3.23,0,0,0-3.23,3.23v1.39" transform="translate(-0.5 -4.46)" style="fill: none;stroke: #fff;stroke-linejoin: round;stroke-width: 4px"/>
    <path d="M356.56,17.69l32.65,8.6a2.54,2.54,0,0,1,0,4.9l-6.95,1.94a99.18,99.18,0,0,1-21.35,3.51l-4.83.26a2.3,2.3,0,0,1-2.4-2.3V19.92A2.3,2.3,0,0,1,356.56,17.69Z" transform="translate(-0.5 -4.46)" style="fill: none;stroke: #fff;stroke-linejoin: round;stroke-width: 4px"/>
    <line x1="388.75" y1="26.73" x2="388.75" y2="72.1" style="fill: none;stroke: #fff;stroke-linejoin: round;stroke-width: 4px"/>
    <line x1="369.65" y1="49.42" x2="369.65" y2="71.79" style="fill: none;stroke: #fff;stroke-linejoin: round;stroke-width: 4px"/>
    <polyline points="360.36 32.36 360.36 49.41 373.04 49.41 373.04 30.69" style="fill: none;stroke: #fff;stroke-linejoin: round;stroke-width: 4px"/>
    <path d="M210.67,56.49L206.89,32a2.49,2.49,0,0,1,2.46-2.87h15.33a10.59,10.59,0,0,1,10,7.08L244,62.89" transform="translate(-0.5 -4.46)" style="fill: none;stroke: #fff;stroke-linejoin: round;stroke-width: 4px"/>
    <path d="M250.75,59.65h0a4.89,4.89,0,0,0,1.17-8.21l-3.74-3.16a1.63,1.63,0,0,0-2.67,1.24v13.8" transform="translate(-0.5 -4.46)" style="fill: none;stroke: #fff;stroke-linejoin: round;stroke-width: 4px"/>
    <path d="M250.75,110.56h0a4.89,4.89,0,0,1,1.17,8.21l-3.74,3.16a1.63,1.63,0,0,1-2.67-1.24v-13.8" transform="translate(-0.5 -4.46)" style="fill: none;stroke: #fff;stroke-linejoin: round;stroke-width: 4px"/>
    <polyline points="10.4 80.41 10.4 74.04 20.77 73.57" style="fill: none;stroke: #fff;stroke-linejoin: round;stroke-width: 4px"/>
    <path d="M207.82,55.35a251.58,251.58,0,0,0-60.48-7.45c-15,0-33.43,7.71-43.65,13.61S79.24,78,55.26,78" transform="translate(-0.5 -4.46)" style="fill: none;stroke: #fff;stroke-linejoin: round;stroke-width: 4px"/>
    <path d="M47.87,33.11l-19.93-2a2.21,2.21,0,0,1-2-2.2V23.06a2.21,2.21,0,0,1,2-2.2l19.93-2A2.21,2.21,0,0,1,50.26,21v9.87A2.21,2.21,0,0,1,47.87,33.11Z" transform="translate(-0.5 -4.46)" style="fill: none;stroke: #fff;stroke-linejoin: round;stroke-width: 4px"/>
    <path d="M183.84,84.92a6.27,6.27,0,0,1-6.27,6.27c-3.46,0-13.42-2.8-13.42-6.27s10-6.27,13.42-6.27A6.27,6.27,0,0,1,183.84,84.92Z" transform="translate(-0.5 -4.46)" style="fill: none;stroke: #fff;stroke-linejoin: round;stroke-width: 4px"/>
    <path d="M32.07,41.68a9.13,9.13,0,0,1,9.13-9.13" transform="translate(-0.5 -4.46)" style="fill: none;stroke: #fff;stroke-linejoin: round;stroke-width: 4px"/>
    <path d="M47.47,43.21a118.86,118.86,0,0,1,8.08,41.47V85.4a118.86,118.86,0,0,1-8.08,41.47" transform="translate(-0.5 -4.46)" style="fill: none;stroke: #fff;stroke-linejoin: round;stroke-width: 4px"/>
    <path d="M108.71,153.09c42.9,0,48.36-4.22,66.14-8.81,10.44-2.7,19.53-9,22.24-19.46a13.8,13.8,0,0,1,10.73-10.09A821.5,821.5,0,0,1,393.34,93.51h11a6.58,6.58,0,0,0,6.58-6.58V83.16a6.58,6.58,0,0,0-6.58-6.58h-11A821.55,821.55,0,0,1,207.82,55.35a13.8,13.8,0,0,1-10.73-10.09c-2.71-10.44-11.8-16.76-22.24-19.46C157.07,21.21,151.6,17,108.71,17" transform="translate(-0.5 -4.46)" style="fill: none;stroke: #fff;stroke-linejoin: round;stroke-width: 4px"/>
    <path d="M345.62,132s-0.12-.71-23-0.71-23,.71-23,0.71a3.09,3.09,0,0,0-3.09,3.09V150a3.09,3.09,0,0,0,3.09,3.09s0,0.71,23,.71,23-.71,23-0.71a3.09,3.09,0,0,0,3.09-3.09V135.06A3.09,3.09,0,0,0,345.62,132Z" transform="translate(-0.5 -4.46)" style="fill: none;stroke: #fff;stroke-linejoin: round;stroke-width: 4px"/>
    <path d="M47.47,137v-1.38a3.23,3.23,0,0,1,3.23-3.23s0.13-.75,24-0.75,24,0.75,24,.75a3.23,3.23,0,0,1,3.23,3.23v17a3.23,3.23,0,0,1-3.23,3.23s0,0.75-24,.75-24-.75-24-0.75a3.23,3.23,0,0,1-3.23-3.23v-1.39" transform="translate(-0.5 -4.46)" style="fill: none;stroke: #fff;stroke-linejoin: round;stroke-width: 4px"/>
    <path d="M324.63,131.26l7.3-23.14a23.89,23.89,0,0,1,9.65-12.77l0.36-.23" transform="translate(-0.5 -4.46)" style="fill: none;stroke: #fff;stroke-linejoin: round;stroke-width: 4px"/>
    <path d="M313.86,131.33L302,110.16a23.88,23.88,0,0,0-10.66-9.94" transform="translate(-0.5 -4.46)" style="fill: none;stroke: #fff;stroke-linejoin: round;stroke-width: 4px"/>
    <line x1="322.12" y1="126.8" x2="322.12" y2="92.09" style="fill: none;stroke: #fff;stroke-linejoin: round;stroke-width: 4px"/>
    <path d="M324.63,38.46l7.3,23.14a23.89,23.89,0,0,0,9.65,12.77l0.36,0.23" transform="translate(-0.5 -4.46)" style="fill: none;stroke: #fff;stroke-linejoin: round;stroke-width: 4px"/>
    <path d="M313.86,38.38L302,59.55a23.88,23.88,0,0,1-10.66,9.94" transform="translate(-0.5 -4.46)" style="fill: none;stroke: #fff;stroke-linejoin: round;stroke-width: 4px"/>
    <line x1="322.12" y1="34" x2="322.12" y2="68.7" style="fill: none;stroke: #fff;stroke-linejoin: round;stroke-width: 4px"/>
    <path d="M356.56,152.39l32.65-8.6a2.54,2.54,0,0,0,0-4.9l-6.95-1.94a99.24,99.24,0,0,0-21.35-3.51l-4.83-.26a2.3,2.3,0,0,0-2.4,2.3v14.68A2.3,2.3,0,0,0,356.56,152.39Z" transform="translate(-0.5 -4.46)" style="fill: none;stroke: #fff;stroke-linejoin: round;stroke-width: 4px"/>
    <line x1="388.75" y1="134.43" x2="388.75" y2="89.06" style="fill: none;stroke: #fff;stroke-linejoin: round;stroke-width: 4px"/>
    <line x1="369.65" y1="111.74" x2="369.65" y2="89.37" style="fill: none;stroke: #fff;stroke-linejoin: round;stroke-width: 4px"/>
    <polyline points="360.36 128.8 360.36 111.74 373.04 111.74 373.04 130.47" style="fill: none;stroke: #fff;stroke-linejoin: round;stroke-width: 4px"/>
    <path d="M210.67,113.59L206.89,138a2.49,2.49,0,0,0,2.46,2.87h15.33a10.59,10.59,0,0,0,10-7.08L244,107.19" transform="translate(-0.5 -4.46)" style="fill: none;stroke: #fff;stroke-linejoin: round;stroke-width: 4px"/>
    <polygon points="20.77 37.22 20.77 80.75 20.77 87.59 20.77 123.94 41.15 123.94 41.15 87.59 41.15 80.75 41.15 37.22 20.77 37.22" style="fill: none;stroke: #fff;stroke-linejoin: round;stroke-width: 4px"/>
    <polyline points="10.4 80.27 10.4 86.64 20.77 87.12" style="fill: none;stroke: #fff;stroke-linejoin: round;stroke-width: 4px"/>
    <path d="M207.82,114.73a251.57,251.57,0,0,1-60.48,7.45c-15,0-33.43-7.71-43.65-13.61S79.24,92.05,55.26,92.05" transform="translate(-0.5 -4.46)" style="fill: none;stroke: #fff;stroke-linejoin: round;stroke-width: 4px"/>
    <path d="M103.69,85.34h0a5.16,5.16,0,0,0,3,4.71c9.64,4.34,40.63,17.15,70,17.15,35.39,0,58.27-5.25,58.27-5.25l-2.6-1.9a12.33,12.33,0,0,0-7.29-2.38H198.73a7,7,0,0,1-6.95-7V79.38a7,7,0,0,1,6.95-6.95h26.42A12.33,12.33,0,0,0,232.44,70l2.6-1.9s-22.88-5.25-58.27-5.25c-29.4,0-60.39,12.81-70,17.15a5.16,5.16,0,0,0-3,4.71v0.59Z" transform="translate(-0.5 -4.46)" style="fill: none;stroke: #fff;stroke-linejoin: round;stroke-width: 4px"/>
    <path d="M235,101.94l14-2.06a7.4,7.4,0,0,0,6.32-7.32V77.51a7.4,7.4,0,0,0-6.32-7.32l-14-2.06" transform="translate(-0.5 -4.46)" style="fill: none;stroke: #fff;stroke-linejoin: round;stroke-width: 4px"/>
    <path d="M47.87,137l-19.93,2a2.21,2.21,0,0,0-2,2.2V147a2.21,2.21,0,0,0,2,2.2l19.93,2a2.21,2.21,0,0,0,2.38-2.2v-9.87A2.21,2.21,0,0,0,47.87,137Z" transform="translate(-0.5 -4.46)" style="fill: none;stroke: #fff;stroke-linejoin: round;stroke-width: 4px"/>
    <path d="M32.07,128.4a9.13,9.13,0,0,0,9.13,9.13" transform="translate(-0.5 -4.46)" style="fill: none;stroke: #fff;stroke-linejoin: round;stroke-width: 4px"/>
  </g>
  <g id="car_tyres_ill" data-name="tyres">
    <path d="M345.62,38.11s-0.12.72-23,.72-23-.72-23-0.72A3.09,3.09,0,0,1,296.52,35V20.09A3.09,3.09,0,0,1,299.62,17s0-.72,23-0.72,23,0.72,23,.72a3.09,3.09,0,0,1,3.09,3.09V35A3.09,3.09,0,0,1,345.62,38.11Z" transform="translate(-0.5 -4.46)" style="fill: none;stroke: #fff;stroke-linejoin: round;stroke-width: 4px"/>
    <path d="M47.47,33.11v1.39a3.23,3.23,0,0,0,3.23,3.23s0.13,0.75,24,.75,24-.75,24-0.75A3.23,3.23,0,0,0,102,34.49v-17a3.23,3.23,0,0,0-3.23-3.23s0-.75-24-0.75-24,.75-24,0.75a3.23,3.23,0,0,0-3.23,3.23V33.11Z" transform="translate(-0.5 -4.46)" style="fill: none;stroke: #fff;stroke-linejoin: round;stroke-width: 4px"/>
    <path d="M345.62,132s-0.12-.71-23-0.71-23,.71-23,0.71a3.09,3.09,0,0,0-3.09,3.09V150a3.09,3.09,0,0,0,3.09,3.09s0,0.71,23,.71,23-.71,23-0.71a3.09,3.09,0,0,0,3.09-3.09V135.06A3.09,3.09,0,0,0,345.62,132Z" transform="translate(-0.5 -4.46)" style="fill: none;stroke: #fff;stroke-linejoin: round;stroke-width: 4px"/>
    <path d="M47.47,151.24v1.39a3.23,3.23,0,0,0,3.23,3.23s0,0.75,24,.75,24-.75,24-0.75a3.23,3.23,0,0,0,3.23-3.23v-17a3.23,3.23,0,0,0-3.23-3.23s-0.13-.75-24-0.75-24,.75-24,0.75a3.23,3.23,0,0,0-3.23,3.23v15.65Z" transform="translate(-0.5 -4.46)" style="fill: none;stroke: #fff;stroke-linejoin: round;stroke-width: 4px"/>
  </g>
  <g id="car_sound_ill" data-name="sound">
    <path d="M103.7,103.63a26.29,26.29,0,0,1,0-37.18" transform="translate(-0.5 -4.46)" style="fill: none;stroke: #fff;stroke-linejoin: round;stroke-width: 4px"/>
    <path d="M83.93,50.82a48.39,48.39,0,0,0,0,68.43" transform="translate(-0.5 -4.46)" style="fill: none;stroke: #fff;stroke-linejoin: round;stroke-width: 4px"/>
    <path d="M63.48,139.7a77.31,77.31,0,0,1,0-109.33" transform="translate(-0.5 -4.46)" style="fill: none;stroke: #fff;stroke-linejoin: round;stroke-width: 4px"/>
    <path d="M39,5.87a112,112,0,0,0,0,158.33" transform="translate(-0.5 -4.46)" style="fill: none;stroke: #fff;stroke-linejoin: round;stroke-width: 4px"/>
  </g>
  <g id="car_engine_ill" data-name="engine">
  <path d="M139.36,66l-24.22-7.15a7.44,7.44,0,0,0-7.37,1.88l-0.89.9a7.44,7.44,0,0,1-5.26,2.18H91.05l-12.71-25H71.66L59.76,72.95a36.72,36.72,0,0,0,0,24.18l11.9,34.13h6.67l12.71-25h10.57a7.44,7.44,0,0,1,5.26,2.18l0.89,0.9a7.44,7.44,0,0,0,7.37,1.88l24.22-7.15a4.55,4.55,0,0,0,3.26-4.36V70.35A4.55,4.55,0,0,0,139.36,66Z" transform="translate(-0.5 -4.46)" style="fill: none;stroke: #fff;stroke-linejoin: round;stroke-width: 4px"/>
  </g>
</svg>
