<svg id="circuit_electricity" xmlns="http://www.w3.org/2000/svg" viewBox="0 0 755 451.04">
  <title>circuit_buenosaires_electricity</title>
  <path class="electricity" id="circuit_electricity-2" d="M327.5,90.18l0.5-.35a45.71,45.71,0,0,1,16.19-7.1l0.13,0a33.46,33.46,0,0,1,6.93-.8l25.27-.28a5.12,5.12,0,0,0,4-2L434.64,8.78a5.4,5.4,0,0,1,5.5-2L626.33,51.13A4.52,4.52,0,0,1,629.79,56l-0.8,8.4A2.48,2.48,0,0,0,630.84,67L741.47,95.33,743.24,96a6.9,6.9,0,0,1,3.73,9.52,6.6,6.6,0,0,1-3,2.83l-13.12,7.59-201,118.18h0a9.26,9.26,0,0,1-9.51-.19l-0.8-.5-76-77.69a19.3,19.3,0,0,0-5.2-3.78L438,151.8a7,7,0,0,0-10,6.74v0.17a9.9,9.9,0,0,0,1.29,4.22c8.21,14.26,58.38,101.51,58.38,101.51,1.28,2.22.49,7.12-1.75,8.36l-18.44,9.82a8,8,0,0,0-1.57,1.1L311.36,422l-2.28,1.73a100.63,100.63,0,0,1-96.31,14.08l-8.24-3.1L59.39,374.06a14,14,0,0,0-11.83.5l-19.28,10-0.58.32C14.33,392.2,1,375.33,11.1,364h0Z" style="fill:none;stroke:#e61400;stroke-linejoin:round;stroke-width:11.6056853497116px"/>
 </svg>