<svg xmlns="http://www.w3.org/2000/svg" viewBox="0 0 755 451.04">
  <title>circuit_mexicocity01</title>
  <g id="circuit">
    <path d="M180.65,395.68c-82.22,0-151.49-53.51-172.5-128.88a32.54,32.54,0,0,1,0-17.17l.32-1.2,15-7.07a7.13,7.13,0,0,0,1.21-12.18l-10.5-7.78A15.36,15.36,0,0,1,8,208.4q.34-6.4,1-12.68A178.56,178.56,0,0,1,66.34,84.24C80.66,69.91,105.5,60,123.74,60c0,0,379.06-4.73,441.18-5.56a44.75,44.75,0,0,1,17.84,3.45l35.58,14.84a12.1,12.1,0,0,0,13-2.4L644.3,58a11.53,11.53,0,0,1,12.56-.9C711.62,87.62,747,145.22,747,212.51a179,179,0,0,1-179,179h0l-10.19.33a11.72,11.72,0,0,1-12-9.82l-4-24.34a9.38,9.38,0,0,0-15.94-5.07l-22.35,22.68s-17.92,17.23-34.46,17.23c-14.54,0-159.29-.27-194.09-.33a9.46,9.46,0,0,1-9.2-7.33L236.61,259.54a115,115,0,0,0-7.67-22.28l-17.57-37.89a12.51,12.51,0,0,0-9.27-7.07l-39.47-6.64c-3.77-.63-9.61,3.15-11.61,6.41L125.7,237.94c-7,11.45-.19,26,13.21,25l47.86-3.48a8.13,8.13,0,0,1,6.56,2.59l32.28,35a12.21,12.21,0,0,1,3.24,8.46l-1,69.21L225.3,387l-11.72,5.69A210,210,0,0,1,180.65,395.68Z" style="fill: none;stroke: #fff;stroke-linejoin: round;stroke-width: 11.605685234069824px"/>
    <path d="M24.76,140.32S47.16,92.25,120.55,83H644.66s58.41-1.21,87.7,57.37" style="fill: none;stroke: #fff;stroke-miterlimit: 10;stroke-width: 4.414578437805176px;opacity: 0.4000000059604645;isolation: isolate"/>
    <polygon points="400.18 57.22 392.73 61.32 392.9 52.81 400.18 57.22" style="fill: #ff1d25"/>
  </g>
  <g id="building">
    <path id="building_media" data-name="building media" d="M368.62,240.22h-42V187h42Zm61.08-37H391.33v37.23H429.7Zm-41.93,22.95H371.43v12.58h16.35Z" style="fill: #420000;opacity: 0.08"/>
    <polygon id="building_facilities" data-name="building facilities" points="225 102.67 225 118.67 225 131 265.67 131 265.67 124.19 275.5 124.19 275.5 136 283 136 283 124.19 332.5 124.19 332.5 136 340 136 340 124.19 389.5 124.19 389.5 136 397 136 397 124.19 446.5 124.19 446.5 136 454 136 454 124.19 503.5 124.19 503.5 136 511 136 511 124.19 559.87 124.19 559.87 148.02 582.73 148.02 582.73 124.19 582.73 122.5 582.73 102.67 225 102.67" style="fill: #420000;opacity: 0.08"/>
    <path d="M74.5,202.29l-29-.58,1-51.16a42.39,42.39,0,0,1,35.74-41L206.72,89.68l4.56,28.64L86.84,138.15a13.41,13.41,0,0,0-11.31,13Z" style="fill: #420000;opacity: 0.08"/>
    <path d="M213.71,343.39,87.33,327.64a45.67,45.67,0,0,1-40.06-43.25L45,236.68l29-1.37L76.24,283a16.73,16.73,0,0,0,14.67,15.85l126.38,15.75Z" style="fill: #420000;opacity: 0.08"/>
    <path id="building_fans" data-name="building fans" d="M593,233.33H516.33V151.67H593Zm108.31,15.21h-98V141.67h98Zm-187-15.21H457.81V151.67h56.52ZM593,320.42H457.61V235.67H593ZM466.67,360.73h-9.06v-40.4h49.65Z" style="fill: #420000;opacity: 0.08"/>
    <rect id="building_paddock" data-name="building paddock" x="266.67" y="93.8" width="313.33" height="8.53" style="fill: #420000;opacity: 0.08"/>
  </g>
</svg>
