<svg id="buildings" xmlns="http://www.w3.org/2000/svg" viewBox="0 0 755 451.04">
  <title>circuit_mexicocity_buildings</title>
  <path id="building_paddock" data-name="building paddock" d="M539.33,103a4,4,0,1,1,4-4A4,4,0,0,1,539.33,103Zm-14.67-4a4,4,0,1,0-4,4A4,4,0,0,0,524.67,99ZM506,99a4,4,0,1,0-4,4A4,4,0,0,0,506,99Zm-18.67,0a4,4,0,1,0-4,4A4,4,0,0,0,487.33,99Zm-18.67,0a4,4,0,1,0-4,4A4,4,0,0,0,468.67,99ZM450,99a4,4,0,1,0-4,4A4,4,0,0,0,450,99Zm-18.67,0a4,4,0,1,0-4,4A4,4,0,0,0,431.33,99Zm-18.67,0a4,4,0,1,0-4,4A4,4,0,0,0,412.67,99ZM394,99a4,4,0,1,0-4,4A4,4,0,0,0,394,99Zm-18.67,0a4,4,0,1,0-4,4A4,4,0,0,0,375.33,99ZM360.67,88.33H550v18H358.67Z" style="fill: none;stroke: #fff;stroke-miterlimit: 10;stroke-width: 2px"/>
  <path id="building_fans" data-name="building fans" d="M548,189.67a4,4,0,1,1,4-4A4,4,0,0,1,548,189.67ZM568.67,195a4,4,0,1,0-4,4A4,4,0,0,0,568.67,195Zm-96,29.19a4,4,0,1,0-4,4A4,4,0,0,0,472.68,224.19ZM472,203.67a4,4,0,1,0-4,4A4,4,0,0,0,472,203.67Zm-1.33-18a4,4,0,1,0-4,4A4,4,0,0,0,470.67,185.67Zm54.67,92.67a4.67,4.67,0,1,0-4.67,4.67A4.67,4.67,0,0,0,525.33,278.33Zm-48,60a4.67,4.67,0,1,0-4.67,4.67A4.67,4.67,0,0,0,477.33,338.33Zm63.33-224.67a4.67,4.67,0,1,0-4.67,4.67A4.67,4.67,0,0,0,540.67,113.67Zm112.67,80a4.67,4.67,0,1,0-4.67,4.67A4.67,4.67,0,0,0,653.33,193.67Zm-126-62,.67-27.33,16.67.67v56.67L661.33,165v50.67L544.67,264.33l-2,46.67L476,360.33l-21.33,2L454,163h69.33Z" style="fill: none;stroke: #fff;stroke-miterlimit: 10;stroke-width: 2px"/>
  <path id="building_facilities" data-name="building facilities" d="M236,119.67a4,4,0,1,1,4-4A4,4,0,0,1,236,119.67Zm52.67-5.33a4,4,0,1,0-4,4A4,4,0,0,0,288.67,114.33ZM337.33,113a4,4,0,1,0-4,4A4,4,0,0,0,337.33,113Zm159.33,2.67a4,4,0,1,0-4,4A4,4,0,0,0,496.67,115.67Zm78.67,24a4,4,0,1,0-4,4A4,4,0,0,0,575.33,139.67Zm0-23.33a4,4,0,1,0-4,4A4,4,0,0,0,575.33,116.33Zm-352-10-2,16.67L562,124.33v23.33l16.67.67L578,103.67Z" style="fill: none;stroke: #fff;stroke-miterlimit: 10;stroke-width: 2px"/>
  <path id="building_media" data-name="building media" d="M351.33,200a3.67,3.67,0,1,1-3.67-3.67A3.67,3.67,0,0,1,351.33,200Zm7.33-3.67a3.67,3.67,0,1,0,3.67,3.67A3.67,3.67,0,0,0,358.67,196.33Zm3,21.67a3.67,3.67,0,1,0,3.67,3.67A3.67,3.67,0,0,0,361.67,218Zm25,16.33H333.33V185h53.33Z" style="fill: none;stroke: #fff;stroke-miterlimit: 10;stroke-width: 2px"/>
</svg>
