<svg id="Layer_1" data-name="Layer 1" xmlns="http://www.w3.org/2000/svg" viewBox="0 0 48.54 52.4">
  <title>icon_teams_helmet</title>
  <path d="M31.94,51.52c-0.64-.27-19.4-8-26-10.61" transform="translate(0 -0.5)" style="fill: none;stroke: #fff;stroke-miterlimit: 10;stroke-width: 3px"/>
  <path d="M43.87,22.22L47,39.35c0,2.81-4.92,8.78-8.08,7.73,0,0-28.79-11.69-31.84-13s-3.51-2.24-4.1-4A26.11,26.11,0,0,1,1.5,22c0.12-5.6,4-20,21.42-20,12.76,0,18.27,8.31,20.35,12.65,0.82,1.87-.24,2.46-1.29,2.46-2.57.11-7.14,0.35-11.47,0.7a4.42,4.42,0,0,1-1.64-.12l-1.93-.62a4.57,4.57,0,0,0-3.1.09h0A4.4,4.4,0,0,0,21.06,21h0A6.3,6.3,0,0,0,22,24.72l1.72,2.77c0.54,0.46,17.39,7.58,17.39,7.58" transform="translate(0 -0.5)" style="fill: none;stroke: #fff;stroke-miterlimit: 10;stroke-width: 3px"/>
</svg>
