<svg id="Layer_1" data-name="Layer 1" xmlns="http://www.w3.org/2000/svg" viewBox="0 0 72.2 72.2"><title>icon_smartgrid_race_buenosaires</title><path d="M51.15,17.18l-14.26-2a1,1,0,0,0-1,.58L32.8,22.12a1,1,0,0,1-.7.55l-3.31.77a1,1,0,0,0-.59.38l-22.3,29h0a3.39,3.39,0,0,0,3.77,5.28l7.23-2.4a1,1,0,0,1,.52,0L22,56.51l2.16,0.33c3.8,0.68,5.33.46,8.57-2.12l11.9-13.53a1,1,0,0,0,0-1.31L37.18,31a2.19,2.19,0,0,1,2.89-3.24L49.37,34a1,1,0,0,0,1.26-.09L65.52,20.74a1,1,0,0,0-.6-1.81l-9.68-1.32" style="fill:none;stroke:#fff;stroke-linejoin:round;stroke-width:3.6176284699546843px"/></svg>