<svg id="Layer_1" data-name="Layer 1" xmlns="http://www.w3.org/2000/svg" viewBox="0 0 42 39.17">
  <title>icon_car_model</title>
  <path d="M512.46,203.8a4.5,4.5,0,1,1-4,2.25l-8.16-4.71,0-8.39a19.47,19.47,0,0,1,4.74-2.73l7.28,4.16,7.28-4.17a19.29,19.29,0,0,1,4.74,2.74l0,8.39,7.25,4.22a19.47,19.47,0,0,1,0,5.47l-7.25,4.23,0,8.39a19.46,19.46,0,0,1-4.74,2.73l-7.28-4.16-7.28,4.17a19.3,19.3,0,0,1-4.74-2.74l0-8.39L493.07,211a19.47,19.47,0,0,1,0-5.47l3.19-1.86" transform="translate(-491.38 -188.71)" style="fill: none;stroke: #fff;stroke-linejoin: round;stroke-width: 3px"/>
</svg>
