<svg id="Layer_7" data-name="Layer 7" xmlns="http://www.w3.org/2000/svg" viewBox="0 0 1024 415">
  <title>illustration_car_top</title>
  <g id="car_ill">
    <path d="M400,279.39h0a89.76,89.76,0,0,0,10.94,43l1.28,2.36,0.61,0.59q2.44-.22,4.89-0.36l6.36-.34a3,3,0,0,1,3.16,3v19.32a3,3,0,0,1-3.75,2.94l-43-11.31a3.34,3.34,0,0,1,0-6.45v-59.7" style="fill: none;stroke: #fff;stroke-linejoin: round;stroke-width: 4px"/>
    <path d="M400,243.57h0a89.76,89.76,0,0,1,10.94-43l1.28-2.36,0.61-.59q2.44,0.22,4.89.36l6.36,0.34a3,3,0,0,0,3.16-3V176a3,3,0,0,0-3.75-2.94l-43,11.31a3.34,3.34,0,0,0,0,6.45v59.7" style="fill: none;stroke: #fff;stroke-linejoin: round;stroke-width: 4px"/>
    <path d="M830.22,316.3A156.06,156.06,0,0,1,820,270.49h0c-31.55,0-50.28,14-63.72,21.72s-37.67,17.91-57.42,17.91a331,331,0,0,1-79.57-9.8" style="fill: none;stroke: #fff;stroke-linejoin: round;stroke-width: 4px"/>
    <g>
      <path d="M464.52,316.3l-5.75-24.19a31.43,31.43,0,0,0-12.69-16.8l-0.47-.31" style="fill: none;stroke: #fff;stroke-linejoin: round;stroke-width: 4px"/>
      <path d="M758.43,345.22V327.77a4.25,4.25,0,0,1,4.25-4.25s0.17-1,31.64-1,31.64,1,31.64,1a4.25,4.25,0,0,1,4.25,4.25v22.42a4.25,4.25,0,0,1-4.25,4.25s0,1-31.64,1-31.64-1-31.64-1a4.25,4.25,0,0,1-4.25-4.25s-5.12.6-8.78,0.6c-56.44,0-63.63-5.55-87-11.6-13.74-3.55-25.7-11.86-29.26-25.6h0a18.16,18.16,0,0,0-14.12-13.27,1080.87,1080.87,0,0,0-107-19.19h-0.07a32.75,32.75,0,0,0-14,13.67l-19.07,27.3c22.08,0.15,22.21.92,22.21,0.92a4.07,4.07,0,0,1,4.07,4.07v19.64a4.07,4.07,0,0,1-4.07,4.07s0,0.94-30.26.94-30.26-.94-30.26-0.94a4.07,4.07,0,0,1-4.07-4.07V327.08a4.07,4.07,0,0,1,4.07-4.07s0.16-.94,30.26-0.94V281.58" style="fill: none;stroke: #fff;stroke-linejoin: round;stroke-width: 4px"/>
    </g>
    <g>
      <path d="M464.52,206.16l-5.75,24.19A33.16,33.16,0,0,1,446,247.79l-0.32,0q-35.17,2.3-70.48,2.3h-7.88a8.66,8.66,0,0,0-8.66,8.66v5a8.66,8.66,0,0,0,8.66,8.66h7.88A1080.87,1080.87,0,0,1,503.37,280" style="fill: none;stroke: #fff;stroke-linejoin: round;stroke-width: 4px"/>
      <path d="M503.37,234.82a36.33,36.33,0,0,1-5.24-7.16l-19.07-27.3c22.08-.15,22.21-0.92,22.21-0.92a4.07,4.07,0,0,0,4.07-4.07V175.73a4.07,4.07,0,0,0-4.07-4.07s0-.94-30.26-0.94-30.26.94-30.26,0.94a4.07,4.07,0,0,0-4.07,4.07v19.64a4.07,4.07,0,0,0,4.07,4.07s0.16,0.94,30.26.94v40.49s-0.16,5,0,5A1079.4,1079.4,0,0,0,619.25,222.2a18.16,18.16,0,0,0,14.12-13.27h0c3.56-13.74,15.52-22.05,29.26-25.6,23.39-6,30.58-11.6,87-11.6" style="fill: none;stroke: #fff;stroke-linejoin: round;stroke-width: 4px"/>
    </g>
    <path d="M615.5,218.07l5-26.54a3.28,3.28,0,0,0-3.24-3.78H597.06a13.93,13.93,0,0,0-13.14,9.31l-12.31,35-0.08-17.75a2.14,2.14,0,0,0-3.52-1.64l-4.92,4.16a6.43,6.43,0,0,0,1.55,10.8h0" style="fill: none;stroke: #fff;stroke-linejoin: round;stroke-width: 4px"/>
    <path d="M615.5,304.57l5,26.54a3.28,3.28,0,0,1-3.24,3.78H597.06a13.93,13.93,0,0,1-13.14-9.31l-12.31-35-0.08,17.75a2.14,2.14,0,0,1-3.52,1.64l-4.92-4.16a6.43,6.43,0,0,1,1.55-10.8h0" style="fill: none;stroke: #fff;stroke-linejoin: round;stroke-width: 4px"/>
    <polyline points="864.69 247.34 864.69 204.22 837.88 204.22 837.88 252.03 837.88 261.04 837.88 318.3 843.3 318.3" style="fill: none;stroke: #fff;stroke-linejoin: round;stroke-width: 4px"/>
    <path d="M838.46,330.32a12,12,0,0,0,12-12h14.21V270.49l13.64-.63V253.29l-13.64-.63v12" style="fill: none;stroke: #fff;stroke-linejoin: round;stroke-width: 4px"/>
    <path d="M619.25,222.2a331,331,0,0,1,79.57-9.8c19.75,0,44,10.14,57.42,17.91S788.41,252,820,252h0a156.06,156.06,0,0,1,10.26-45.81" style="fill: none;stroke: #fff;stroke-linejoin: round;stroke-width: 4px"/>
    <path d="M652.23,256.76a8.24,8.24,0,0,1,6.8-3.59c4.55,0,17.65,3.69,17.65,8.24s-13.1,8.24-17.65,8.24a8.24,8.24,0,0,1-8.24-8.24" style="fill: none;stroke: #fff;stroke-linejoin: round;stroke-width: 4px"/>
    <path d="M577.36,239.77l-12.4,2a9.73,9.73,0,0,0-8.32,9.63v19.8a9.73,9.73,0,0,0,8.32,9.63l18.47,2.71,3.42-2.51a16.22,16.22,0,0,1,9.59-3.14H631.2a9.14,9.14,0,0,0,9.14-9.14V253.81a9.14,9.14,0,0,0-9.14-9.14H596.44a16.22,16.22,0,0,1-9.59-3.14L583.43,239s30.1-6.9,76.66-6.9c38.69,0,79.46,16.86,92.15,22.56a6.79,6.79,0,0,1,4,6.19h0v0.78h0a6.79,6.79,0,0,1-4,6.19c-12.69,5.7-53.46,22.56-92.15,22.56a414.73,414.73,0,0,1-69-5.42" style="fill: none;stroke: #fff;stroke-linejoin: round;stroke-width: 4px"/>
    <path d="M848.25,197.25a12,12,0,0,0-9.79-5.05l-8.24.19v2.36A4.25,4.25,0,0,1,826,199s-0.17,1-31.64,1-31.64-1-31.64-1a4.25,4.25,0,0,1-4.25-4.25V172.33a4.25,4.25,0,0,1,4.25-4.25s0-1,31.64-1,31.64,1,31.64,1a4.25,4.25,0,0,1,4.25,4.25v14.55" style="fill: none;stroke: #fff;stroke-linejoin: round;stroke-width: 4px"/>
  </g>
  <path id="car_engine_ill" d="M713.36,286.34L745,295.69a9.73,9.73,0,0,0,9.64-2.45l1.17-1.17a9.73,9.73,0,0,1,6.88-2.85h13.81l16.62,32.63h8.73l15.56-44.61a48,48,0,0,0,0-31.61L801.87,201h-8.73l-16.62,32.63H762.7a9.73,9.73,0,0,1-6.88-2.85l-1.17-1.17a9.73,9.73,0,0,0-9.64-2.45l-31.66,9.35a6,6,0,0,0-4.26,5.7v38.4A6,6,0,0,0,713.36,286.34Z" style="fill: none;stroke: #fff;stroke-linejoin: round;stroke-width: 4px"/>
  <g id="car_engine_air">
    <path class="invert" d="M794.23,249.36c-16.86-2.63-28.69-7.37-38-10.43-13.44-4.42-37.67-10.19-57.42-10.19a569,569,0,0,0-79.57,5.58" style="fill: none;stroke: #fff;stroke-linecap: round;stroke-linejoin: round;stroke-width: 4px"/>
    <path class="invert" d="M739.65,155.43c-56.44,0-63.63,6.39-87,13.35-13.74,4.09-25.7,13.66-29.26,29.48h0c-1.76,7.8-7.25,13.75-14.12,15.28q-29.35,7.84-59,13.77" style="fill: none;stroke: #fff;stroke-linecap: round;stroke-linejoin: round;stroke-width: 4px"/>
    <path class="straight" d="M351.31,261.43h0A18.59,18.59,0,0,0,369.9,280l92.55,1" style="fill: none;stroke: #fff;stroke-linejoin: round;stroke-width: 4px"/>
    <path class="invert" d="M794.23,272.41c-16.86,2.63-28.69,7.37-38,10.43C742.8,287.27,718.57,293,698.82,293a569,569,0,0,1-79.57-5.58" style="fill: none;stroke: #fff;stroke-linecap: round;stroke-linejoin: round;stroke-width: 4px"/>
    <path class="invert" d="M739.65,366.34c-56.44,0-63.63-6.39-87-13.35-13.74-4.09-25.7-13.66-29.26-29.48h0c-1.76-7.8-7.25-13.75-14.12-15.28q-29.35-7.84-59-13.77" style="fill: none;stroke: #fff;stroke-linecap: round;stroke-linejoin: round;stroke-width: 4px"/>
    <path class="straight" d="M351.31,260.34h0a18.59,18.59,0,0,1,18.59-18.59l92.55-1" style="fill: none;stroke: #fff;stroke-linejoin: round;stroke-width: 4px"/>
    <line class="straight" x1="398.11" y1="260.34" x2="556.65" y2="260.34" style="fill: none;stroke: #fff;stroke-linejoin: round;stroke-width: 4px"/>
  </g>
  <g id="car_tyres_ill">
    <g>
      <path d="M479.06,322.09c22.08,0.15,22.21.92,22.21,0.92a4.07,4.07,0,0,1,4.07,4.07v19.64a4.07,4.07,0,0,1-4.07,4.07s0,0.94-30.26.94-30.26-.94-30.26-0.94a4.07,4.07,0,0,1-4.07-4.07V327.08a4.07,4.07,0,0,1,4.07-4.07s0.16-.94,30.26-0.94" style="fill: none;stroke: #fff;stroke-linecap: round;stroke-linejoin: round;stroke-width: 4px"/>
      <path d="M758.43,345.22V327.77a4.25,4.25,0,0,1,4.25-4.25s0.17-1,31.64-1,31.64,1,31.64,1a4.25,4.25,0,0,1,4.25,4.25v22.42a4.25,4.25,0,0,1-4.25,4.25s0,1-31.64,1-31.64-1-31.64-1a4.25,4.25,0,0,1-4.25-4.25" style="fill: none;stroke: #fff;stroke-linecap: round;stroke-linejoin: round;stroke-width: 4px"/>
    </g>
    <path d="M479.06,200.36c22.08-.15,22.21-0.92,22.21-0.92a4.07,4.07,0,0,0,4.07-4.07V175.73a4.07,4.07,0,0,0-4.07-4.07s0-.94-30.26-0.94-30.26.94-30.26,0.94a4.07,4.07,0,0,0-4.07,4.07v19.64a4.07,4.07,0,0,0,4.07,4.07s0.16,0.94,30.26.94" style="fill: none;stroke: #fff;stroke-linecap: round;stroke-linejoin: round;stroke-width: 4px"/>
    <path d="M830.22,192.39v2.36A4.25,4.25,0,0,1,826,199s-0.17,1-31.64,1-31.64-1-31.64-1a4.25,4.25,0,0,1-4.25-4.25V172.33a4.25,4.25,0,0,1,4.25-4.25s0-1,31.64-1,31.64,1,31.64,1a4.25,4.25,0,0,1,4.25,4.25v14.55" style="fill: none;stroke: #fff;stroke-linecap: round;stroke-linejoin: round;stroke-width: 4px"/>
  </g>
  <g id="car_tyres_lines">
    <line x1="435.79" y1="180.58" x2="505.12" y2="180.58" style="fill: none;stroke: #fff;stroke-linejoin: round;stroke-width: 4px"/>
    <line x1="435.79" y1="190.58" x2="505.12" y2="190.58" style="fill: none;stroke: #fff;stroke-linejoin: round;stroke-width: 4px"/>
    <line x1="761.12" y1="178.58" x2="830.46" y2="178.58" style="fill: none;stroke: #fff;stroke-linejoin: round;stroke-width: 4px"/>
    <line x1="761.12" y1="188.58" x2="830.46" y2="188.58" style="fill: none;stroke: #fff;stroke-linejoin: round;stroke-width: 4px"/>
    <line x1="435.79" y1="331.16" x2="505.12" y2="331.16" style="fill: none;stroke: #fff;stroke-linejoin: round;stroke-width: 4px"/>
    <line x1="435.79" y1="341.16" x2="505.12" y2="341.16" style="fill: none;stroke: #fff;stroke-linejoin: round;stroke-width: 4px"/>
    <line x1="761.12" y1="333.16" x2="830.46" y2="333.16" style="fill: none;stroke: #fff;stroke-linejoin: round;stroke-width: 4px"/>
    <line x1="761.12" y1="343.16" x2="830.46" y2="343.16" style="fill: none;stroke: #fff;stroke-linejoin: round;stroke-width: 4px"/>
  </g>
  <g id="car_sound2">
    <path d="M761,225.29a50.87,50.87,0,0,1,0,71.95" style="fill: none;stroke: #fff;stroke-linejoin: round;stroke-width: 4px"/>
    <path d="M788.39,206.59a77.31,77.31,0,0,1,0,109.33" style="fill: none;stroke: #fff;stroke-linejoin: round;stroke-width: 4px"/>
    <path d="M812.9,340.42a112,112,0,0,0,0-158.33" style="fill: none;stroke: #fff;stroke-linejoin: round;stroke-width: 4px"/>
    
  </g>
  <g id="car_sound1">
    <path d="M685.8,297.23a50.87,50.87,0,0,1,0-71.95" style="fill: none;stroke: #fff;stroke-linejoin: round;stroke-width: 4px"/>
    <path d="M658.4,315.92a77.31,77.31,0,0,1,0-109.33" style="fill: none;stroke: #fff;stroke-linejoin: round;stroke-width: 4px"/>
    <path d="M633.89,182.09a112,112,0,0,0,0,158.33" style="fill: none;stroke: #fff;stroke-linejoin: round;stroke-width: 4px"/>
    
  </g>
</svg>
