<svg id="Layer_7" data-name="Layer 7" xmlns="http://www.w3.org/2000/svg" viewBox="0 0 1024 415">
  <title>illustration_microgrid_urban_electricity</title>
  <path class="electricity" d="M656.8,309.9a69.71,69.71,0,0,0-80.8,0" style="fill: none;stroke: #fff;stroke-miterlimit: 10;stroke-width: 6px"/>
  <path class="electricity" d="M576,309.8a69.58,69.58,0,0,0-57.1-57.1" style="fill: none;stroke: #fff;stroke-miterlimit: 10;stroke-width: 6px"/>
  <path class="electricity" d="M518.9,252.6a69.71,69.71,0,0,0,0-80.8" style="fill: none;stroke: #fff;stroke-miterlimit: 10;stroke-width: 6px"/>
  <path class="electricity" d="M518.9,171.8A69.58,69.58,0,0,0,576,114.7" style="fill: none;stroke: #fff;stroke-miterlimit: 10;stroke-width: 6px"/>
  <path class="electricity" d="M576.1,114.7a69.71,69.71,0,0,0,80.8,0" style="fill: none;stroke: #fff;stroke-miterlimit: 10;stroke-width: 6px"/>
  <path class="electricity" d="M656.9,114.7A69.58,69.58,0,0,0,714,171.8" style="fill: none;stroke: #fff;stroke-miterlimit: 10;stroke-width: 6px"/>
  <path class="electricity" d="M714.1,171.9a69.71,69.71,0,0,0,0,80.8" style="fill: none;stroke: #fff;stroke-miterlimit: 10;stroke-width: 6px"/>
  <path class="electricity" d="M714,252.7a69.58,69.58,0,0,0-57.1,57.1" style="fill: none;stroke: #fff;stroke-miterlimit: 10;stroke-width: 6px"/>
  <path class="electricity" d="M713.9,252.8a253.5,253.5,0,0,0-195,0" style="fill: none;stroke: #fff;stroke-miterlimit: 10;stroke-width: 6px"/>
  <path class="electricity" d="M519,171.7a252.84,252.84,0,0,0,97.5,19.5A251,251,0,0,0,714,171.7" style="fill: none;stroke: #fff;stroke-miterlimit: 10;stroke-width: 6px"/>
  <path class="electricity" d="M657,114.8a253.5,253.5,0,0,0,0,195" style="fill: none;stroke: #fff;stroke-miterlimit: 10;stroke-width: 6px"/>
  <path class="electricity" d="M576,114.7a128.39,128.39,0,0,0,109,60.5,125.78,125.78,0,0,0,29-3.3h0" style="fill: none;stroke: #fff;stroke-miterlimit: 10;stroke-width: 6px"/>
  <path class="electricity" d="M714.1,171.8h0a253.71,253.71,0,0,0-138,138h0" style="fill: none;stroke: #fff;stroke-miterlimit: 10;stroke-width: 6px"/>
  <path class="electricity" d="M576,114.7h0a253.71,253.71,0,0,0,138,138h0" style="fill: none;stroke: #fff;stroke-miterlimit: 10;stroke-width: 6px"/>
  <path class="electricity" d="M656.9,114.7h0a125.78,125.78,0,0,0-3.3,29,128.39,128.39,0,0,0,60.5,109" style="fill: none;stroke: #fff;stroke-miterlimit: 10;stroke-width: 6px"/>
  <path class="electricity" d="M518.9,171.8h0a126.64,126.64,0,0,0,29.1,3.3,128.39,128.39,0,0,0,109-60.5h0" style="fill: none;stroke: #fff;stroke-miterlimit: 10;stroke-width: 6px"/>
  <path class="electricity" d="M576,309.9h0a125.78,125.78,0,0,0,3.3-29,128.39,128.39,0,0,0-60.5-109" style="fill: none;stroke: #fff;stroke-miterlimit: 10;stroke-width: 6px"/>
  <path class="electricity" d="M656.9,309.9a128.39,128.39,0,0,0-109-60.5,125.78,125.78,0,0,0-29,3.3h0" style="fill: none;stroke: #fff;stroke-miterlimit: 10;stroke-width: 6px"/>
  <path class="electricity" d="M714.1,252.7h0a126.64,126.64,0,0,0-29.1-3.3,128.39,128.39,0,0,0-109,60.5h0" style="fill: none;stroke: #fff;stroke-miterlimit: 10;stroke-width: 6px"/>
  <path class="electricity" d="M575.9,309.8a253.5,253.5,0,0,0,0-195" style="fill: none;stroke: #fff;stroke-miterlimit: 10;stroke-width: 6px"/>
  <path class="electricity" d="M518.9,252.7h0a253.71,253.71,0,0,0,138-138h0" style="fill: none;stroke: #fff;stroke-miterlimit: 10;stroke-width: 6px"/>
  <path class="electricity" d="M656.9,309.9h0a253.71,253.71,0,0,0-138-138h0" style="fill: none;stroke: #fff;stroke-miterlimit: 10;stroke-width: 6px"/>
</svg>
