<svg id="Layer_7" data-name="Layer 7" xmlns="http://www.w3.org/2000/svg" xmlns:xlink="http://www.w3.org/1999/xlink" viewBox="0 0 1024 415">
  <defs>
    <clipPath id="clip-path">
      <path d="M505.52,194.37v2.26a4.08,4.08,0,0,1-4,4.08s-0.16,1-30.36,1-30.36-1-30.36-1a4.08,4.08,0,0,1-4.08-4.08h0V175.12a4.08,4.08,0,0,1,4.08-4.08s0-1,30.36-1,30.36,1,30.36,1a4.08,4.08,0,0,1,4.08,4.08v14" style="fill: none"/>
    </clipPath>
    <clipPath id="clip-path-2">
      <path d="M505.52,345.58v2.26a4.08,4.08,0,0,1-4,4.08s-0.16,1-30.36,1-30.36-1-30.36-1a4.08,4.08,0,0,1-4.08-4.08h0V326.33a4.08,4.08,0,0,1,4.08-4.08s0-1,30.36-1,30.36,1,30.36,1a4.08,4.08,0,0,1,4.08,4.08v14" style="fill: none"/>
    </clipPath>
    <clipPath id="clip-path-3">
      <path d="M828.22,192.37v2.26a4.08,4.08,0,0,1-4,4.08s-0.16,1-30.36,1-30.36-1-30.36-1a4.08,4.08,0,0,1-4.08-4.08h0V173.12a4.08,4.08,0,0,1,4.08-4.08s0-1,30.36-1,30.36,1,30.36,1a4.08,4.08,0,0,1,4.08,4.08v14" style="fill: none"/>
    </clipPath>
    <clipPath id="clip-path-4">
      <path d="M828.22,347.58v2.26a4.08,4.08,0,0,1-4,4.08s-0.16,1-30.36,1-30.36-1-30.36-1a4.08,4.08,0,0,1-4.08-4.08h0V328.33a4.08,4.08,0,0,1,4.08-4.08s0-1,30.36-1,30.36,1,30.36,1a4.08,4.08,0,0,1,4.08,4.08v14" style="fill: none"/>
    </clipPath>
  </defs>
  <title>illustration_car_top</title>
  <g id="car_ill" data-name="car ill">
    <path d="M400,279.39h0a89.76,89.76,0,0,0,10.94,43l1.28,2.36,0.61,0.59q2.44-.22,4.89-0.36l6.36-.34a3,3,0,0,1,3.16,2.84q0,0.08,0,.16V347a3,3,0,0,1-3.75,2.94l-43-11.31a3.34,3.34,0,0,1,0-6.45v-59.7" style="fill: none;stroke: #fff;stroke-linejoin: round;stroke-width: 4px"/>
    <path d="M400,243.57h0a89.76,89.76,0,0,1,10.94-43l1.28-2.36,0.61-.59q2.44,0.22,4.89.36l6.36,0.34a3,3,0,0,0,3.16-2.84q0-.08,0-0.16V176a3,3,0,0,0-3.75-2.94l-43,11.31a3.34,3.34,0,0,0,0,6.45v59.7" style="fill: none;stroke: #fff;stroke-linejoin: round;stroke-width: 4px"/>
    <path d="M830.22,316.3A156.06,156.06,0,0,1,820,270.49h0c-31.55,0-50.28,14-63.72,21.72s-37.67,17.91-57.42,17.91a331,331,0,0,1-79.57-9.8" style="fill: none;stroke: #fff;stroke-linejoin: round;stroke-width: 4px"/>
    <g>
      <path d="M464.52,316.3l-5.75-24.19a31.43,31.43,0,0,0-12.69-16.8l-0.47-.31" style="fill: none;stroke: #fff;stroke-linejoin: round;stroke-width: 4px"/>
      <path d="M758.43,345.22V327.77a4.25,4.25,0,0,1,4.25-4.25h0s0.17-1,31.64-1,31.64,1,31.64,1a4.25,4.25,0,0,1,4.25,4.25h0v22.42a4.25,4.25,0,0,1-4.25,4.25s0,1-31.64,1-31.64-1-31.64-1a4.25,4.25,0,0,1-4.25-4.25s-5.12.6-8.78,0.6c-56.44,0-63.63-5.55-87-11.6-13.74-3.55-25.7-11.86-29.26-25.6h0a18.16,18.16,0,0,0-14.12-13.27,1080.88,1080.88,0,0,0-107-19.19H512.2a32.75,32.75,0,0,0-14,13.67l-19.07,27.3c22.08,0.15,22.21.92,22.21,0.92a4.07,4.07,0,0,1,4.07,4.07h0v19.64a4.07,4.07,0,0,1-4.07,4.07h0s0,0.94-30.26.94-30.26-.94-30.26-0.94a4.07,4.07,0,0,1-4.07-4.07h0V327.08a4.07,4.07,0,0,1,4.07-4.07h0s0.16-.94,30.26-0.94V281.58" style="fill: none;stroke: #fff;stroke-linejoin: round;stroke-width: 4px"/>
    </g>
    <g>
      <path d="M464.52,206.16l-5.75,24.19A33.16,33.16,0,0,1,446,247.79h-0.32q-35.17,2.3-70.48,2.3h-7.88a8.66,8.66,0,0,0-8.66,8.66h0v5a8.66,8.66,0,0,0,8.66,8.66h7.88A1080.87,1080.87,0,0,1,503.37,280" style="fill: none;stroke: #fff;stroke-linejoin: round;stroke-width: 4px"/>
      <path d="M503.37,234.82a36.33,36.33,0,0,1-5.24-7.16l-19.07-27.3c22.08-.15,22.21-0.92,22.21-0.92a4.07,4.07,0,0,0,4.07-4.07h0V175.73a4.07,4.07,0,0,0-4.07-4.07h0s0-.94-30.26-0.94-30.26.94-30.26,0.94a4.07,4.07,0,0,0-4.07,4.07h0v19.64a4.07,4.07,0,0,0,4.07,4.07h0s0.16,0.94,30.26.94v40.49s-0.16,5,0,5A1079.4,1079.4,0,0,0,619.25,222.2a18.16,18.16,0,0,0,14.12-13.27h0c3.56-13.74,15.52-22.05,29.26-25.6,23.39-6,30.58-11.6,87-11.6" style="fill: none;stroke: #fff;stroke-linejoin: round;stroke-width: 4px"/>
    </g>
    <path d="M615.5,218.07l5-26.54a3.28,3.28,0,0,0-3.24-3.78h-20.2a13.93,13.93,0,0,0-13.14,9.31l-12.31,35-0.08-17.75a2.14,2.14,0,0,0-3.52-1.64l-4.92,4.16a6.43,6.43,0,0,0,1.55,10.8h0" style="fill: none;stroke: #fff;stroke-linejoin: round;stroke-width: 4px"/>
    <path d="M615.5,304.57l5,26.54a3.28,3.28,0,0,1-3.24,3.78h-20.2a13.93,13.93,0,0,1-13.14-9.31l-12.31-35-0.08,17.75A2.14,2.14,0,0,1,568,310l-4.92-4.16a6.43,6.43,0,0,1,1.55-10.8h0" style="fill: none;stroke: #fff;stroke-linejoin: round;stroke-width: 4px"/>
    <polyline points="864.69 247.34 864.69 204.22 837.88 204.22 837.88 252.03 837.88 261.04 837.88 318.3 843.3 318.3" style="fill: none;stroke: #fff;stroke-linejoin: round;stroke-width: 4px"/>
    <path d="M838.46,330.32a12,12,0,0,0,12-12h14.21V270.49l13.64-.63V253.29l-13.64-.63v12" style="fill: none;stroke: #fff;stroke-linejoin: round;stroke-width: 4px"/>
    <path d="M619.25,222.2a331,331,0,0,1,79.57-9.8c19.75,0,44,10.14,57.42,17.91S788.41,252,820,252h0a156.06,156.06,0,0,1,10.26-45.81" style="fill: none;stroke: #fff;stroke-linejoin: round;stroke-width: 4px"/>
    <path d="M652.23,256.76a8.24,8.24,0,0,1,6.8-3.59c4.55,0,17.65,3.69,17.65,8.24s-13.1,8.24-17.65,8.24a8.24,8.24,0,0,1-8.24-8.24" style="fill: none;stroke: #fff;stroke-linejoin: round;stroke-width: 4px"/>
    <path d="M577.36,239.77l-12.4,2a9.73,9.73,0,0,0-8.32,9.63v19.8a9.73,9.73,0,0,0,8.32,9.63l18.47,2.71,3.42-2.51a16.22,16.22,0,0,1,9.59-3.14H631.2a9.14,9.14,0,0,0,9.14-9.14h0V253.81a9.14,9.14,0,0,0-9.14-9.14H596.44a16.22,16.22,0,0,1-9.59-3.14L583.43,239s30.1-6.9,76.66-6.9c38.69,0,79.46,16.86,92.15,22.56a6.79,6.79,0,0,1,4,6.19h0v0.78h0a6.79,6.79,0,0,1-4,6.19c-12.69,5.7-53.46,22.56-92.15,22.56a414.73,414.73,0,0,1-69-5.42" style="fill: none;stroke: #fff;stroke-linejoin: round;stroke-width: 4px"/>
    <path d="M848.25,197.25a12,12,0,0,0-9.79-5.05l-8.24.19v2.36A4.25,4.25,0,0,1,826,199s-0.17,1-31.64,1-31.64-1-31.64-1a4.25,4.25,0,0,1-4.25-4.25h0V172.33a4.25,4.25,0,0,1,4.25-4.25s0-1,31.64-1,31.64,1,31.64,1a4.25,4.25,0,0,1,4.25,4.25v14.55" style="fill: none;stroke: #fff;stroke-linejoin: round;stroke-width: 4px"/>
  </g>
  <path id="car_engine_ill" data-name="car engine ill" d="M713.36,286.34L745,295.69a9.73,9.73,0,0,0,9.64-2.45l1.17-1.17a9.73,9.73,0,0,1,6.88-2.85H776.5l16.62,32.63h8.73l15.56-44.61a48,48,0,0,0,0-31.61L801.87,201h-8.73l-16.62,32.63H762.7a9.73,9.73,0,0,1-6.88-2.85l-1.17-1.17a9.73,9.73,0,0,0-9.64-2.45l-31.66,9.35a6,6,0,0,0-4.26,5.7v38.4A6,6,0,0,0,713.36,286.34Z" style="fill: none;stroke: #fff;stroke-linejoin: round;stroke-width: 4px"/>
  <g id="car_tyres_ill" data-name="car tyres ill">
    <g>
      <path d="M479.06,322.09c22.08,0.15,22.21.92,22.21,0.92a4.07,4.07,0,0,1,4.07,4.07h0v19.64a4.07,4.07,0,0,1-4.07,4.07h0s0,0.94-30.26.94-30.26-.94-30.26-0.94a4.07,4.07,0,0,1-4.07-4.07h0V327.08a4.07,4.07,0,0,1,4.07-4.07h0s0.16-.94,30.26-0.94" style="fill: none;stroke: #fff;stroke-linecap: round;stroke-linejoin: round;stroke-width: 4px"/>
      <path d="M758.43,345.22V327.77a4.25,4.25,0,0,1,4.25-4.25h0s0.17-1,31.64-1,31.64,1,31.64,1a4.25,4.25,0,0,1,4.25,4.25h0v22.42a4.25,4.25,0,0,1-4.25,4.25s0,1-31.64,1-31.64-1-31.64-1a4.25,4.25,0,0,1-4.25-4.25" style="fill: none;stroke: #fff;stroke-linecap: round;stroke-linejoin: round;stroke-width: 4px"/>
    </g>
    <path d="M479.06,200.36c22.08-.15,22.21-0.92,22.21-0.92a4.07,4.07,0,0,0,4.07-4.07h0V175.73a4.07,4.07,0,0,0-4.07-4.07h0s0-.94-30.26-0.94-30.26.94-30.26,0.94a4.07,4.07,0,0,0-4.07,4.07h0v19.64a4.07,4.07,0,0,0,4.07,4.07h0s0.16,0.94,30.26.94" style="fill: none;stroke: #fff;stroke-linecap: round;stroke-linejoin: round;stroke-width: 4px"/>
    <path d="M830.22,192.39v2.36A4.25,4.25,0,0,1,826,199s-0.17,1-31.64,1-31.64-1-31.64-1a4.25,4.25,0,0,1-4.25-4.25h0V172.33a4.25,4.25,0,0,1,4.25-4.25s0-1,31.64-1,31.64,1,31.64,1a4.25,4.25,0,0,1,4.25,4.25v14.55" style="fill: none;stroke: #fff;stroke-linecap: round;stroke-linejoin: round;stroke-width: 4px"/>
  </g>
  <g id="car_sound2" data-name="car sound2">
    <path d="M761,225.29a50.87,50.87,0,0,1,0,71.94h0" style="fill: none;stroke: #fff;stroke-linejoin: round;stroke-width: 4px"/>
    <path d="M788.39,206.59a77.31,77.31,0,0,1,0,109.33" style="fill: none;stroke: #fff;stroke-linejoin: round;stroke-width: 4px"/>
    <path d="M812.9,340.42a112,112,0,0,0,0-158.33" style="fill: none;stroke: #fff;stroke-linejoin: round;stroke-width: 4px"/>
  </g>
  <g id="car_sound1" data-name="car sound1">
    <path d="M685.8,297.23a50.87,50.87,0,0,1,0-71.94h0" style="fill: none;stroke: #fff;stroke-linejoin: round;stroke-width: 4px"/>
    <path d="M658.4,315.92a77.31,77.31,0,0,1,0-109.33" style="fill: none;stroke: #fff;stroke-linejoin: round;stroke-width: 4px"/>
    <path d="M633.89,182.09a112,112,0,0,0,0,158.33" style="fill: none;stroke: #fff;stroke-linejoin: round;stroke-width: 4px"/>
  </g>
  <g style="clip-path: url(#clip-path)">
    <g id="car_tyres_lines" data-name="car tyres lines">
      <path class="copertone" d="M436.33,190.47l8-8a2.84,2.84,0,0,1,4,0l6,6a2.84,2.84,0,0,0,4,0l6-6a2.84,2.84,0,0,1,4,0l6,6a2.84,2.84,0,0,0,4,0l6-6a2.84,2.84,0,0,1,4,0l6,6a2.84,2.84,0,0,0,4,0l6-6a2.84,2.84,0,0,1,4,0l6,6a2.84,2.84,0,0,0,4,0l6-6a2.84,2.84,0,0,1,4,0l6,6a2.84,2.84,0,0,0,4,0l6-6a2.84,2.84,0,0,1,4,0l8,8" style="fill: none;stroke: #fff;stroke-linecap: round;stroke-linejoin: round;stroke-width: 4px"/>
    </g>
  </g>
  <g style="clip-path: url(#clip-path-2)">
    <g id="car_tyres_lines-2" data-name="car tyres lines">
      <path class="copertone" d="M436.33,341.68l8-8a2.84,2.84,0,0,1,4,0l6,6a2.84,2.84,0,0,0,4,0l6-6a2.84,2.84,0,0,1,4,0l6,6a2.84,2.84,0,0,0,4,0l6-6a2.84,2.84,0,0,1,4,0l6,6a2.84,2.84,0,0,0,4,0l6-6a2.84,2.84,0,0,1,4,0l6,6a2.84,2.84,0,0,0,4,0l6-6a2.84,2.84,0,0,1,4,0l6,6a2.84,2.84,0,0,0,4,0l6-6a2.84,2.84,0,0,1,4,0l8,8" style="fill: none;stroke: #fff;stroke-linecap: round;stroke-linejoin: round;stroke-width: 4px"/>
    </g>
  </g>
  <g style="clip-path: url(#clip-path-3)">
    <g id="car_tyres_lines-3" data-name="car tyres lines">
      <path class="copertone" d="M759,188.47l8-8a2.84,2.84,0,0,1,4,0l6,6a2.84,2.84,0,0,0,4,0l6-6a2.84,2.84,0,0,1,4,0l6,6a2.84,2.84,0,0,0,4,0l6-6a2.84,2.84,0,0,1,4,0l6,6a2.84,2.84,0,0,0,4,0l6-6a2.84,2.84,0,0,1,4,0l6,6a2.84,2.84,0,0,0,4,0l6-6a2.84,2.84,0,0,1,4,0l6,6a2.84,2.84,0,0,0,4,0l6-6a2.84,2.84,0,0,1,4,0l8,8" style="fill: none;stroke: #fff;stroke-linecap: round;stroke-linejoin: round;stroke-width: 4px"/>
    </g>
  </g>
  <g style="clip-path: url(#clip-path-4)">
    <g id="car_tyres_lines-4" data-name="car tyres lines">
      <path class="copertone" d="M759,343.68l8-8a2.84,2.84,0,0,1,4,0l6,6a2.84,2.84,0,0,0,4,0l6-6a2.84,2.84,0,0,1,4,0l6,6a2.84,2.84,0,0,0,4,0l6-6a2.84,2.84,0,0,1,4,0l6,6a2.84,2.84,0,0,0,4,0l6-6a2.84,2.84,0,0,1,4,0l6,6a2.84,2.84,0,0,0,4,0l6-6a2.84,2.84,0,0,1,4,0l6,6a2.84,2.84,0,0,0,4,0l6-6a2.84,2.84,0,0,1,4,0l8,8" style="fill: none;stroke: #fff;stroke-linecap: round;stroke-linejoin: round;stroke-width: 4px"/>
    </g>
  </g>
</svg>
