<?xml version="1.0" encoding="utf-8"?>
<!-- Generator: Adobe Illustrator 21.0.2, SVG Export Plug-In . SVG Version: 6.00 Build 0)  -->
<svg version="1.1" id="Layer_1" xmlns="http://www.w3.org/2000/svg" xmlns:xlink="http://www.w3.org/1999/xlink" x="0px" y="0px"
	 viewBox="0 0 512 300" style="enable-background:new 0 0 512 300;" xml:space="preserve">
<style type="text/css">
	.st0{clip-path:url(#SVGID_2_);fill:#FFFFFF;}
	.st1{fill:none;stroke:#E61400;stroke-width:3.4458;stroke-linecap:round;stroke-linejoin:round;stroke-miterlimit:10;}
	.st2{fill:url(#SVGID_3_);}
	.st3{fill:none;stroke:#E61400;stroke-width:1.7987;stroke-linecap:round;stroke-linejoin:round;stroke-miterlimit:10;}
</style>
<g>
	<g>
		<defs>
			<rect id="SVGID_1_" x="-0.4" width="512.4" height="300"/>
		</defs>
		<clipPath id="SVGID_2_">
			<use xlink:href="#SVGID_1_"  style="overflow:visible;"/>
		</clipPath>
		<polygon class="st0" points="443.5,56.3 447.2,58.3 443.6,60.6 		"/>
	</g>
</g>
<path class="st1" d="M529.3,192.8l-170.4,66.9c-1.8,0.7-3.8,0.1-4.9-1.5l-1.4-2c-0.6-0.9-1.5-1.5-2.5-1.9l-39.9-12.9
	c-1.5-0.5-3-0.5-4.5-0.2l-7.9,1c-3.3,0.8-6.8-0.8-8.3-3.9l-10.9-24.3c-0.5-1-1.6-1.6-2.7-1.2c-4.4,1.3-15.7,3.4-20.7-8
	c-5.1-11.6,3.6-20.5,7.2-23.5c0.9-0.7,1.3-1.9,1.1-3l-3.4-19.2c-0.2-1-0.2-2,0-3l2.2-12.9l1.6-19.5c0.1-1.4,1-3.7,2.3-4.2L445,48.4
	c2.6-1,5.6,0.2,6.7,2.8l14.1,32.6c0.6,1.3,1.9,2.1,3.3,2.1c7.2-0.3,28.5-0.6,35,12.1c5.6,10.9,4,21.5,2.9,26.2
	c-0.4,1.5-1.8,2.5-3.3,2.2l-15.9-2.5c-2.9-0.4-5.2,2.4-4.1,5.1l19.1,48.4l26.6,9.5C531.9,187.9,532,191.8,529.3,192.8z"/>
<linearGradient id="SVGID_3_" gradientUnits="userSpaceOnUse" x1="706.6848" y1="119.868" x2="369.5693" y2="185.3713" gradientTransform="matrix(-1 0 0 -1 758.9506 341.838)">
	<stop  offset="0" style="stop-color:#E61400"/>
	<stop  offset="0.1851" style="stop-color:#EB2303;stop-opacity:0.8149"/>
	<stop  offset="0.5963" style="stop-color:#FA4B0C;stop-opacity:0.2788"/>
	<stop  offset="1" style="stop-color:#FF5A0F;stop-opacity:0"/>
</linearGradient>
<path class="st2" d="M446.9,51.9c0.4,0,0.9,0.2,1.2,0.8l14.1,32.6c1.2,2.7,3.8,4.4,6.7,4.4c0.1,0,0.2,0,0.3,0
	c1.4-0.1,2.7-0.1,3.9-0.1c8.3,0,22.9,1.3,27.4,10.1c4.6,8.9,3.8,17.7,2.7,22.7l-15-2.3c-0.4-0.1-0.8-0.1-1.2-0.1c0,0,0,0,0,0
	c-2.5,0-4.9,1.3-6.3,3.4c-1.4,2.1-1.7,4.8-0.8,7.1l19.7,50.1l26.3,9.4l-168.6,66.1c0,0-0.1,0-0.1,0c-0.1,0-0.1,0-0.2-0.1l-1.4-2
	c-1.1-1.6-2.7-2.7-4.5-3.3l-39.9-12.9c-1.2-0.4-2.5-0.6-3.7-0.6c-0.9,0-1.8,0.1-2.7,0.3l-7.9,1l-0.2,0.1c-0.3,0.1-0.5,0.1-0.8,0.1
	c-1.3,0-2.5-0.7-3.1-1.9l-10.9-24.3c-1-2.2-3.2-3.6-5.6-3.6c-0.6,0-1.2,0.1-1.8,0.3c-1.4,0.4-3.4,0.9-5.7,0.9
	c-4.9,0-8.2-2.2-10.2-6.8c-4-9.1,3-16.3,6.1-19c1.9-1.6,2.9-4.2,2.4-6.6l-3.4-19.2c-0.1-0.5-0.1-1.1,0-1.7l2.2-13.1l1.6-19.7
	c0-0.3,0.2-0.8,0.4-1.1l178.4-71C446.6,51.9,446.7,51.9,446.9,51.9z"/>
<path class="st3" d="M253.3,191.6c0,0-0.8,10.4-10.7,14.3c-9.9,3.8-87.5,33.5-87.5,33.5s-6.6,3.4-3,7.4c3.6,4,6.7-2.4,6.7-2.4
	s0.3-2.2,5.3-4.1c5-1.8,84-32.2,84-32.2s4.2-1.8,9,0.8"/>
</svg>
