<svg id="Layer_1" data-name="Layer 1" xmlns="http://www.w3.org/2000/svg" xmlns:xlink="http://www.w3.org/1999/xlink" viewBox="0 0 198.44 67.99"><defs><linearGradient id="linear-gradient" x1="-402.2" y1="405.19" x2="-401.2" y2="405.19" gradientTransform="matrix(31.03, 0, 0, -31.03, 12503.77, 12607.08)" gradientUnits="userSpaceOnUse"><stop offset="0" stop-color="#fff"/><stop offset="0.32" stop-color="#fff"/><stop offset="0.42" stop-color="#fcfcfc"/><stop offset="0.5" stop-color="#f2f2f2"/><stop offset="0.57" stop-color="#e2e2e2"/><stop offset="0.63" stop-color="#cbcbcb"/><stop offset="0.69" stop-color="#aeaeae"/><stop offset="0.75" stop-color="#898989"/><stop offset="0.8" stop-color="#5e5e5e"/><stop offset="0.85" stop-color="#2e2e2e"/><stop offset="0.9"/><stop offset="1"/></linearGradient><linearGradient id="linear-gradient-2" x1="-411.67" y1="351.48" x2="-410.67" y2="351.48" gradientTransform="matrix(7.56, 0, 0, -7.56, 3292.9, 2706.6)" gradientUnits="userSpaceOnUse"><stop offset="0" stop-color="#fff"/><stop offset="0.01" stop-color="#fff"/><stop offset="0.3" stop-color="#fff"/><stop offset="0.36" stop-color="#f8f8f8"/><stop offset="0.45" stop-color="#e6e6e6"/><stop offset="0.56" stop-color="#c7c7c7"/><stop offset="0.67" stop-color="#9c9c9c"/><stop offset="0.8" stop-color="#656565"/><stop offset="0.93" stop-color="#242424"/><stop offset="1"/></linearGradient><linearGradient id="linear-gradient-3" x1="-411.67" y1="351.48" x2="-410.67" y2="351.48" gradientTransform="matrix(7.56, 0, 0, -7.56, 3255.2, 2706.59)" gradientUnits="userSpaceOnUse"><stop offset="0" stop-color="#fff"/><stop offset="0.01" stop-color="#fff"/><stop offset="0.3" stop-color="#fff"/><stop offset="0.36" stop-color="#f8f8f8"/><stop offset="0.45" stop-color="#e6e6e6"/><stop offset="0.56" stop-color="#c7c7c7"/><stop offset="0.67" stop-color="#9c9c9c"/><stop offset="0.8" stop-color="#656565"/><stop offset="0.93" stop-color="#242424"/><stop offset="1"/></linearGradient><linearGradient id="linear-gradient-4" x1="-299.65" y1="423.71" x2="-298.65" y2="423.71" gradientTransform="matrix(0, 4.53, 4.53, 0, -1726.66, 1403.58)" gradientUnits="userSpaceOnUse"><stop offset="0" stop-color="#fff"/><stop offset="0.01" stop-color="#fff"/><stop offset="0.11" stop-color="#fafafa"/><stop offset="0.23" stop-color="#ebebeb"/><stop offset="0.37" stop-color="#d2d2d2"/><stop offset="0.51" stop-color="#afafaf"/><stop offset="0.66" stop-color="#828282"/><stop offset="0.82" stop-color="#4b4b4b"/><stop offset="0.97" stop-color="#0b0b0b"/><stop offset="1"/></linearGradient><linearGradient id="linear-gradient-5" x1="-343.45" y1="478.67" x2="-342.45" y2="478.67" gradientTransform="matrix(0, 5.59, 5.59, 0, -2511.36, 1956.87)" gradientUnits="userSpaceOnUse"><stop offset="0" stop-color="#fff"/><stop offset="0.01" stop-color="#fff"/><stop offset="0.31" stop-color="#a9a9a9"/><stop offset="0.65" stop-color="#4f4f4f"/><stop offset="0.89" stop-color="#161616"/><stop offset="1"/></linearGradient><linearGradient id="linear-gradient-6" x1="-131.31" y1="671.16" x2="-130.31" y2="671.16" gradientTransform="matrix(0, 1.35, 1.35, 0, -735.07, 216.52)" gradientUnits="userSpaceOnUse"><stop offset="0" stop-color="#fff"/><stop offset="1"/></linearGradient><clipPath id="clip-path" transform="translate(-0.91 -0.38)"><path d="M33.58,28.22a16.52,16.52,0,0,0-12.47,6.2H47.69a1.69,1.69,0,0,1,1.71,2.07,2.6,2.6,0,0,1-2.23,2.06A5.16,5.16,0,0,0,47,28.22H33.58Z" style="fill:none"/></clipPath><mask id="mask" x="17.94" y="21.05" width="35.56" height="23.92" maskUnits="userSpaceOnUse"><g transform="translate(-0.91 -0.38)"><rect x="20.35" y="24.87" width="32.56" height="17.04" transform="translate(-6.57 9.09) rotate(-12.99)" style="fill:url(#linear-gradient)"/></g></mask><linearGradient id="linear-gradient-7" x1="-402.2" y1="405.19" x2="-401.2" y2="405.19" gradientTransform="matrix(31.03, 0, 0, -31.03, 12503.77, 12607.08)" gradientUnits="userSpaceOnUse"><stop offset="0" stop-color="#fff"/><stop offset="0.32" stop-color="#fff"/><stop offset="0.9" stop-color="#fff"/><stop offset="1" stop-color="#fff"/></linearGradient><clipPath id="clip-path-2" transform="translate(-0.91 -0.38)"><path d="M180.36,47.87v2.58a8.63,8.63,0,0,0,6.86-3.38l-2-1.57a6.06,6.06,0,0,1-4.81,2.37" style="fill:none"/></clipPath><mask id="mask-2" x="176.98" y="41.71" width="11.79" height="11.78" maskUnits="userSpaceOnUse"><g transform="translate(-0.91 -0.38)"><rect x="179.65" y="43.77" width="8.28" height="8.41" transform="translate(24.75 151.84) rotate(-47.78)" style="fill:url(#linear-gradient-2)"/></g></mask><linearGradient id="linear-gradient-8" x1="-411.67" y1="351.48" x2="-410.67" y2="351.48" gradientTransform="matrix(7.56, 0, 0, -7.56, 3292.9, 2706.6)" gradientUnits="userSpaceOnUse"><stop offset="0" stop-color="#fff"/><stop offset="0.01" stop-color="#fff"/><stop offset="0.3" stop-color="#fff"/><stop offset="1" stop-color="#fff"/></linearGradient><clipPath id="clip-path-3" transform="translate(-0.91 -0.38)"><path d="M142.66,47.87v2.58a8.64,8.64,0,0,0,6.86-3.38l-2-1.57a6.06,6.06,0,0,1-4.81,2.37" style="fill:none"/></clipPath><mask id="mask-3" x="139.28" y="41.71" width="11.79" height="11.78" maskUnits="userSpaceOnUse"><g transform="translate(-0.91 -0.38)"><rect x="141.95" y="43.77" width="8.28" height="8.41" transform="translate(12.39 123.92) rotate(-47.78)" style="fill:url(#linear-gradient-3)"/></g></mask><linearGradient id="linear-gradient-9" x1="-411.67" y1="351.48" x2="-410.67" y2="351.48" gradientTransform="matrix(7.56, 0, 0, -7.56, 3255.2, 2706.59)" gradientUnits="userSpaceOnUse"><stop offset="0" stop-color="#fff"/><stop offset="0.01" stop-color="#fff"/><stop offset="0.3" stop-color="#fff"/><stop offset="1" stop-color="#fff"/></linearGradient><clipPath id="clip-path-4" transform="translate(-0.91 -0.38)"><path d="M191.48,44.59c0,2.74,1.27,4.4,3.47,5.85l1.47-2.12c-1.51-1-2.37-1.85-2.37-3.73h-2.58Z" style="fill:none"/></clipPath><mask id="mask-4" x="187.64" y="41.74" width="10.8" height="10.8" maskUnits="userSpaceOnUse"><g transform="translate(-0.91 -0.38)"><rect x="190.13" y="43.7" width="7.63" height="7.63" transform="translate(23.21 151.06) rotate(-45)" style="fill:url(#linear-gradient-4)"/></g></mask><linearGradient id="linear-gradient-10" x1="-299.65" y1="423.71" x2="-298.65" y2="423.71" gradientTransform="matrix(0, 4.53, 4.53, 0, -1726.66, 1403.58)" gradientUnits="userSpaceOnUse"><stop offset="0" stop-color="#fff"/><stop offset="0.01" stop-color="#fff"/><stop offset="1" stop-color="#fff"/></linearGradient><clipPath id="clip-path-5" transform="translate(-0.91 -0.38)"><path d="M162.18,35.74a4.55,4.55,0,0,1,4.52,4.57v0.85h2.58V40.31a7.14,7.14,0,0,0-7.1-7.15v2.58Z" style="fill:none"/></clipPath><mask id="mask-5" x="160.41" y="32.02" width="8.82" height="9.53" maskUnits="userSpaceOnUse"><g transform="translate(-0.91 -0.38)"><rect x="161.77" y="32.8" width="7.92" height="8.72" transform="translate(-3.05 18.16) rotate(-6.22)" style="fill:url(#linear-gradient-5)"/></g></mask><linearGradient id="linear-gradient-11" x1="-343.45" y1="478.67" x2="-342.45" y2="478.67" gradientTransform="matrix(0, 5.59, 5.59, 0, -2511.36, 1956.87)" gradientUnits="userSpaceOnUse"><stop offset="0" stop-color="#fff"/><stop offset="0.01" stop-color="#fff"/><stop offset="1" stop-color="#fff"/></linearGradient><clipPath id="clip-path-6" transform="translate(-0.91 -0.38)"><path d="M166.7,41.16h0Z" style="fill:none"/></clipPath><mask id="mask-6" x="165.78" y="40.53" width="2.58" height="0.5" maskUnits="userSpaceOnUse"><g transform="translate(-0.91 -0.38)"><rect x="166.7" y="41.03" width="2.57" height="0.25" transform="translate(-3.22 16.61) rotate(-5.61)" style="fill:url(#linear-gradient-6)"/></g></mask><linearGradient id="linear-gradient-12" x1="-131.31" y1="671.16" x2="-130.31" y2="671.16" gradientTransform="matrix(0, 1.35, 1.35, 0, -735.07, 216.52)" gradientUnits="userSpaceOnUse"><stop offset="0" stop-color="#e94986"/><stop offset="1" stop-color="#e94986"/></linearGradient></defs><title>fe-enel_logo</title><path d="M121.08,67.53h-1v-50A8.78,8.78,0,0,1,124,10.7L141.88,0.38l0.49,0.85L124.49,11.55a7.81,7.81,0,0,0-3.41,6v50Z" transform="translate(-0.91 -0.38)" style="fill:#fff"/><path d="M41.29,48.89H18.56a11,11,0,0,0,10.27,6.2h26a16.52,16.52,0,0,0,12.47-6.2h-26Z" transform="translate(-0.91 -0.38)" style="fill:#fff"/><path d="M55.74,34.42a6.67,6.67,0,0,0-6.94-6.2H47a5.16,5.16,0,0,1,.21,10.32H13.37A15.57,15.57,0,0,0,.91,44.76h45a10.29,10.29,0,0,0,8.42-4.85,9.52,9.52,0,0,0,1.35-3.42,8.09,8.09,0,0,0,.1-2.07" transform="translate(-0.91 -0.38)" style="fill:#fff"/><g style="clip-path:url(#clip-path)"><g style="mask:url(#mask)"><rect x="20.35" y="24.87" width="32.56" height="17.04" transform="translate(-7.48 8.71) rotate(-12.99)" style="fill:url(#linear-gradient-7)"/></g></g><path d="M95.84,41.78a1.24,1.24,0,0,1,0,.18V42a0.94,0.94,0,0,1-1.13.78l-0.53,0,0.27-1.53,0.53,0c0.6,0,.88.14,0.88,0.55m0.48,0c0-.64-0.5-0.92-1.29-0.92-0.31,0-.65,0-0.88,0A0.17,0.17,0,0,0,94,41l-0.64,3.65h0v0a0.08,0.08,0,0,0,.07.08h0.28a0.13,0.13,0,0,0,.12-0.1l0.26-1.47,0.52,0A1.42,1.42,0,0,0,96.29,42V42a1.67,1.67,0,0,0,0-.21m-3.18-.8a0.08,0.08,0,0,0-.08-0.08H92.77a0.12,0.12,0,0,0-.11.1L92,44.65v0a0.07,0.07,0,0,0,.07.08h0.29a0.13,0.13,0,0,0,.12-0.1L93.13,41v0Zm-1.36,0a0.08,0.08,0,0,0-.08-0.08H91.42a0.13,0.13,0,0,0-.13.1L91,42.49h-1.8L89.5,41v0a0.08,0.08,0,0,0-.08-0.08H89.15A0.14,0.14,0,0,0,89,41l-0.65,3.68v0a0.08,0.08,0,0,0,.08.08h0.27a0.14,0.14,0,0,0,.13-0.1l0.31-1.74H91l-0.31,1.74v0a0.08,0.08,0,0,0,.08.08H91a0.13,0.13,0,0,0,.13-0.1L91.78,41v0Zm-3.54,0a0.07,0.07,0,0,0-.07-0.07,8.38,8.38,0,0,0-1-.06,1.14,1.14,0,0,0-1.35,1.05,1.1,1.1,0,0,0,.57.85L86.86,43a0.79,0.79,0,0,1,.51.59,0.74,0.74,0,0,1-.92.73c-0.24,0-.63,0-0.86,0h0a0.1,0.1,0,0,0-.11.08l0,0.21a0.17,0.17,0,0,1,0,0s0,0.06.09,0.07a6.41,6.41,0,0,0,.89.07,1.24,1.24,0,0,0,1.47-1.16,1.13,1.13,0,0,0-.66-0.95l-0.43-.29a0.73,0.73,0,0,1-.47-0.54c0-.52.45-0.6,0.87-0.6s0.67,0,.91,0h0a0.1,0.1,0,0,0,.11-0.08l0-.23v0Zm-3.09.91a1,1,0,0,0-1.22-1,10.66,10.66,0,0,0-1.13.06,0.18,0.18,0,0,0-.18.18L82,44.65v0a0.07,0.07,0,0,0,.07.08h0.29a0.13,0.13,0,0,0,.12-0.1l0.6-3.38,0.78,0c0.53,0,.82.12,0.82,0.66a2.31,2.31,0,0,1,0,.43l-0.4,2.31v0a0.07,0.07,0,0,0,.07.08h0.29a0.13,0.13,0,0,0,.12-0.1l0.41-2.31a2.5,2.5,0,0,0,0-.46M81.21,42a2.23,2.23,0,0,1,0,.43L81,43.15a1.21,1.21,0,0,1-1.15,1.22,0.69,0.69,0,0,1-.76-0.82,2.18,2.18,0,0,1,0-.4l0.12-.67a1.21,1.21,0,0,1,1.16-1.21,0.67,0.67,0,0,1,.76.78m0.49,0a1.09,1.09,0,0,0-1.17-1.2,1.66,1.66,0,0,0-1.72,1.64l-0.12.67a2.63,2.63,0,0,0,0,.44,1.09,1.09,0,0,0,1.18,1.2,1.67,1.67,0,0,0,1.71-1.64l0.12-.67a2.72,2.72,0,0,0,0-.44m-3.4-1.09a0.08,0.08,0,0,0-.08-0.08H77.92a0.12,0.12,0,0,0-.11.1l-0.65,3.69v0a0.07,0.07,0,0,0,.07.08h0.29a0.13,0.13,0,0,0,.12-0.1L78.29,41v0Zm-1.82.84a1.11,1.11,0,0,1,0,.18V42a0.94,0.94,0,0,1-1.13.78l-0.53,0,0.27-1.53,0.53,0c0.6,0,.88.14,0.88,0.55m0.48,0c0-.64-0.5-0.92-1.29-0.92-0.31,0-.65,0-0.88,0a0.17,0.17,0,0,0-.15.13L74,44.65h0v0a0.07,0.07,0,0,0,.07.08h0.29a0.13,0.13,0,0,0,.11-0.1l0.26-1.47,0.52,0A1.42,1.42,0,0,0,76.92,42V42a1.5,1.5,0,0,0,0-.21m-3.17-.65c0-.22-0.13-0.23-0.31-0.23H73.26a0.46,0.46,0,0,0-.46.35l-0.89,1.59s0,0,0,0,0,0,0,0l-0.33-1.59c-0.06-.28-0.1-0.35-0.33-0.35H71a0.36,0.36,0,0,0-.43.37L70,44.65v0a0.07,0.07,0,0,0,.07.08h0.29a0.11,0.11,0,0,0,.11-0.09L71,41.38c0-.05,0-0.06,0-0.06s0,0,0,.06L71.47,43a0.2,0.2,0,0,0,.21.21H72A0.31,0.31,0,0,0,72.24,43l0.95-1.67a0.08,0.08,0,0,1,.06-0.06,0,0,0,0,1,0,0,0.24,0.24,0,0,0,0,0l-0.58,3.29v0a0.07,0.07,0,0,0,.07.07h0.29a0.11,0.11,0,0,0,.11-0.1l0.6-3.41a0.77,0.77,0,0,0,0-.14m-4.6.55a1.72,1.72,0,0,1,0,.26L69,42.69H67.41l0.14-.77a0.64,0.64,0,0,1,.77-0.66h0.31c0.39,0,.56.08,0.56,0.4m0.48,0a0.79,0.79,0,0,0-1-.8H68.39a1.12,1.12,0,0,0-1.32,1.08l-0.48,2.74v0a0.07,0.07,0,0,0,.07.08h0.29a0.13,0.13,0,0,0,.12-0.1l0.27-1.55h1.61l-0.27,1.55v0a0.07,0.07,0,0,0,.07.08H69a0.13,0.13,0,0,0,.12-0.1l0.48-2.74a1.92,1.92,0,0,0,0-.29M66.41,41a0.08,0.08,0,0,0-.08-0.08H66.06a0.14,0.14,0,0,0-.13.1l-0.27,1.52h-1.8L64.13,41v0A0.08,0.08,0,0,0,64,40.87H63.78a0.13,0.13,0,0,0-.13.1L63,44.65v0a0.08,0.08,0,0,0,.08.08h0.27a0.14,0.14,0,0,0,.13-0.1l0.31-1.74h1.8l-0.31,1.74v0a0.08,0.08,0,0,0,.08.08h0.27a0.13,0.13,0,0,0,.13-0.1L66.41,41v0ZM63,41A0.07,0.07,0,0,0,63,40.92a5.51,5.51,0,0,0-.87-0.08,1.64,1.64,0,0,0-1.67,1.62l-0.13.73a2.48,2.48,0,0,0,0,.42,1.09,1.09,0,0,0,1.14,1.2,4.31,4.31,0,0,0,.88-0.07,0.14,0.14,0,0,0,.13-0.11l0-.21v0s0-.06-0.07-0.06h0c-0.19,0-.58,0-0.88,0a0.69,0.69,0,0,1-.74-0.8,2.18,2.18,0,0,1,0-.39l0.13-.73A1.17,1.17,0,0,1,62,41.26c0.31,0,.69,0,0.87,0h0A0.06,0.06,0,0,0,63,41.25L63,41h0Z" transform="translate(-0.91 -0.38)" style="fill:#fff"/><path d="M69.22,29a1.85,1.85,0,0,1,0,.26L69.06,30H67.44l0.14-.77a0.64,0.64,0,0,1,.77-0.66h0.31c0.39,0,.56.08,0.56,0.4m0.48,0a0.79,0.79,0,0,0-1-.8H68.42a1.12,1.12,0,0,0-1.32,1.08L66.62,32v0a0.07,0.07,0,0,0,.07.08H67A0.13,0.13,0,0,0,67.1,32l0.27-1.55H69L68.71,32v0a0.07,0.07,0,0,0,.07.08h0.29a0.13,0.13,0,0,0,.11-0.1l0.48-2.74a1.92,1.92,0,0,0,0-.29m-3.3-.68a0.08,0.08,0,0,0-.08-0.08H66a0.12,0.12,0,0,0-.11.1L65.27,32v0a0.07,0.07,0,0,0,.07.08h0.29a0.13,0.13,0,0,0,.12-0.1l0.65-3.68v0Zm-1.23,0a0.05,0.05,0,0,0,0-.06c-0.14,0-.71,0-1,0a1.07,1.07,0,0,0-1.29,1L62.31,32v0a0.08,0.08,0,0,0,.08.08h0.27a0.13,0.13,0,0,0,.13-0.1l0.3-1.71h1.62a0.13,0.13,0,0,0,.13-0.11l0-.2v0a0.08,0.08,0,0,0-.08-0.08H63.17l0.13-.73A0.59,0.59,0,0,1,64,28.62h1a0.07,0.07,0,0,0,.07-0.06l0-.25v0Z" transform="translate(-0.91 -0.38)" style="fill:#fff"/><path d="M65.93,33.93a0.34,0.34,0,0,1,0,.06l-0.11.59v0.07a0.21,0.21,0,0,1-.21.17h-2a0.47,0.47,0,0,0-.54.35c0,0.05,0,.11,0,0.18l-0.11.58h2a0.11,0.11,0,0,1,.12.12v0l-0.12.7a0.19,0.19,0,0,1-.18.15h-2L62.37,39a0.26,0.26,0,0,1-.23.2H61.24a0.17,0.17,0,0,1-.17-0.17v0l0.66-3.74a1.66,1.66,0,0,1,1.91-1.54h2.12a0.14,0.14,0,0,1,.16.15v0h0Zm38,1.73a2.29,2.29,0,0,1,0,.37h-2.07a1.26,1.26,0,0,1,1.27-1.23,0.77,0.77,0,0,1,.84.86m1.27,0a1.8,1.8,0,0,0-1.92-2c-1.49,0-2.46.67-2.79,2.49l-0.11.6a3.22,3.22,0,0,0,0,.58,1.81,1.81,0,0,0,1.93,2,9.51,9.51,0,0,0,2-.17,0.24,0.24,0,0,0,.24-0.25l0.12-.64v0c0-.09-0.07-0.11-0.15-0.11h0c-0.42,0-1.1.11-1.81,0.11a0.83,0.83,0,0,1-1-.87,2.84,2.84,0,0,1,0-.4h3.19A0.24,0.24,0,0,0,105,36.7l0.08-.47a3.56,3.56,0,0,0,.05-0.55M99.4,37l0.19-1.1v0a0.14,0.14,0,0,0-.16-0.14H98.56a0.24,0.24,0,0,0-.24.18L98.14,37v0a0.15,0.15,0,0,0,.16.16h0.87A0.25,0.25,0,0,0,99.4,37m-8,2.1,0.13-.74a0.16,0.16,0,0,0-.14-0.18H91.25a0.63,0.63,0,0,1-.77-0.72,2.74,2.74,0,0,1,0-.52l0.54-3v0a0.16,0.16,0,0,0-.16-0.17H90a0.24,0.24,0,0,0-.21.2l-0.52,2.92a3.68,3.68,0,0,0-.06.62A1.73,1.73,0,0,0,91,39.31h0.09a0.24,0.24,0,0,0,.24-0.18M88,37.05L88.55,34v0a0.16,0.16,0,0,0-.16-0.17H87.48a0.24,0.24,0,0,0-.22.2l-0.54,3c-0.18,1-.57,1.24-1.15,1.24H85.51a0.63,0.63,0,0,1-.77-0.72,2.81,2.81,0,0,1,0-.52l0.54-3v0a0.16,0.16,0,0,0-.16-0.17H84.25A0.24,0.24,0,0,0,84,34l-0.52,2.92a3.79,3.79,0,0,0-.06.62,1.73,1.73,0,0,0,1.86,1.82h0.06A2.41,2.41,0,0,0,88,37.05m-5.49-1.42a3.31,3.31,0,0,0,0-.52,1.39,1.39,0,0,0-1.67-1.44H80.66a2.33,2.33,0,0,0-1.38.38,1.7,1.7,0,0,0-1.21-.38H77.83a2,2,0,0,0-2.31,1.86L74.91,39v0a0.15,0.15,0,0,0,.15.17H76A0.25,0.25,0,0,0,76.2,39l0.61-3.49a0.73,0.73,0,0,1,.82-0.79h0.24a0.44,0.44,0,0,1,.55.46,2.11,2.11,0,0,1,0,.33L77.77,39v0a0.15,0.15,0,0,0,.15.17h0.93a0.25,0.25,0,0,0,.22-0.2l0.62-3.49c0.1-.54.22-0.79,0.78-0.79H80.7c0.45,0,.59.16,0.59,0.46a2.4,2.4,0,0,1,0,.33L80.63,39v0a0.15,0.15,0,0,0,.15.17h0.92a0.25,0.25,0,0,0,.22-0.2Zm-7.7-1L75,33.85v0c0-.12-0.15-0.13-0.25-0.13a6.23,6.23,0,0,0-2,.28,0.41,0.41,0,0,0-.32.29L71.5,39v0a0.16,0.16,0,0,0,.16.17h0.91a0.25,0.25,0,0,0,.22-0.2l0.74-4.2a5.85,5.85,0,0,1,1-.07c0.22,0,.29-0.07.31-0.17m20.42,0.15c-0.84,0-1.15.54-1.3,1.39l-0.13.75a3.17,3.17,0,0,0-.06.56,0.73,0.73,0,0,0,.86.83,5.92,5.92,0,0,0,.95-0.07l0.6-3.39a5.34,5.34,0,0,0-.92-0.07m2.32-.53-0.81,4.6a0.31,0.31,0,0,1-.31.26,8.87,8.87,0,0,1-2,.25,1.75,1.75,0,0,1-2-1.89,3.79,3.79,0,0,1,0-.55l0.13-.75a2.55,2.55,0,0,1,2.77-2.44,7.81,7.81,0,0,1,1.91.25c0.18,0,.23.1,0.23,0.18a0.23,0.23,0,0,1,0,.08M69.66,35.68a2.25,2.25,0,0,1,0,.43l-0.15.79a1.29,1.29,0,0,1-1.27,1.31,0.78,0.78,0,0,1-.86-0.88,2.24,2.24,0,0,1,0-.43l0.15-.79a1.31,1.31,0,0,1,1.28-1.31,0.77,0.77,0,0,1,.85.88M71,35.6a1.81,1.81,0,0,0-2-1.91,2.55,2.55,0,0,0-2.77,2.42l-0.15.79a2.51,2.51,0,0,0,0,.47,1.84,1.84,0,0,0,2,2,2.6,2.6,0,0,0,2.76-2.42l0.15-.79a3,3,0,0,0,0-.51" transform="translate(-0.91 -0.38)" style="fill:#fff"/><path d="M106.87,33.68l0,0.14v0H106.5l-0.19,1.06v0h-0.2a0,0,0,0,1,0,0h0l0.19-1.06H106a0,0,0,0,1,0,0h0l0-.14v0h0.88a0,0,0,0,1,0,0h0Z" transform="translate(-0.91 -0.38)" style="fill:#fff"/><path d="M108.16,33.71h0l-0.21,1.2v0h-0.2s0,0,0,0h0l0.14-.81h0l-0.23.33,0,0h-0.24l0,0-0.11-.33h0v0l-0.14.81v0h-0.2a0,0,0,0,1,0,0h0l0.21-1.2a0.08,0.08,0,0,1,0,0l0.05,0h0.17l0,0,0.17,0.53v0h0l0,0,0.36-.53,0,0h0.19l0,0a0.05,0.05,0,0,1,0,0" transform="translate(-0.91 -0.38)" style="fill:#fff"/><path d="M137.46,64.34c0,0.08,0,.16,0,0.24s0,0.16,0,.26l-0.14.76a3.31,3.31,0,0,1-.26.84,1.86,1.86,0,0,1-.41.58,1.57,1.57,0,0,1-.56.33,2.13,2.13,0,0,1-.69.11,1.6,1.6,0,0,1-.52-0.08,1.12,1.12,0,0,1-.42-0.25,1.16,1.16,0,0,1-.28-0.42,1.63,1.63,0,0,1-.1-0.6c0-.08,0-0.16,0-0.24s0-.17,0-0.26l0.13-.76A3.26,3.26,0,0,1,134.5,64a1.89,1.89,0,0,1,.43-0.57,1.49,1.49,0,0,1,.56-0.31,2.3,2.3,0,0,1,.66-0.09,1.57,1.57,0,0,1,.54.09,1.11,1.11,0,0,1,.42.26,1.16,1.16,0,0,1,.27.42,1.71,1.71,0,0,1,.09.59m-0.55,0a0.88,0.88,0,0,0-.22-0.68,0.92,0.92,0,0,0-.63-0.2,1.14,1.14,0,0,0-.82.33,1.88,1.88,0,0,0-.47,1l-0.14.76a2.13,2.13,0,0,0,0,.23c0,0.08,0,.15,0,0.21a0.94,0.94,0,0,0,.23.71,0.89,0.89,0,0,0,.63.21,1.14,1.14,0,0,0,.82-0.33,1.88,1.88,0,0,0,.47-1l0.14-.76a2,2,0,0,0,0-.26c0-.08,0-0.16,0-0.23" transform="translate(-0.91 -0.38)" style="fill:#fff"/><path d="M140.1,63.05l0,0.2a0.11,0.11,0,0,1-.12.09h-0.46a0.25,0.25,0,0,0-.12.05,0.31,0.31,0,0,0-.09.12,1,1,0,0,0-.06.22l-0.08.42h0.64a0.08,0.08,0,0,1,.09.09v0l0,0.21a0.13,0.13,0,0,1,0,.07l-0.09,0h-0.63l-0.52,3a1.37,1.37,0,0,1-.14.42,0.74,0.74,0,0,1-.21.25,0.73,0.73,0,0,1-.28.12,1.75,1.75,0,0,1-.33,0H137.4l-0.17,0a0.09,0.09,0,0,1-.09-0.08v0l0-.19A0.11,0.11,0,0,1,137.3,68h0.28a0.48,0.48,0,0,0,.31-0.09,0.55,0.55,0,0,0,.14-0.33l0.52-3-0.55,0a0.09,0.09,0,0,1-.09-0.08v0l0-.16a0.14,0.14,0,0,1,0-.08,0.13,0.13,0,0,1,.08,0h0.55l0.08-.42a1.5,1.5,0,0,1,.13-0.43,0.69,0.69,0,0,1,.21-0.25,0.66,0.66,0,0,1,.28-0.11l0.35,0h0.18L140,63a0.09,0.09,0,0,1,.1.08v0Z" transform="translate(-0.91 -0.38)" style="fill:#fff"/><path d="M142.28,63.05l0,0.2a0.11,0.11,0,0,1-.12.09h-0.46a0.25,0.25,0,0,0-.12.05,0.31,0.31,0,0,0-.09.12,1,1,0,0,0-.06.22l-0.08.42H142a0.08,0.08,0,0,1,.09.09v0l0,0.21a0.13,0.13,0,0,1,0,.07l-0.09,0h-0.63l-0.52,3a1.37,1.37,0,0,1-.14.42,0.74,0.74,0,0,1-.21.25,0.73,0.73,0,0,1-.28.12,1.75,1.75,0,0,1-.33,0h-0.18l-0.17,0a0.09,0.09,0,0,1-.09-0.08v0l0-.19a0.11,0.11,0,0,1,.13-0.09h0.28a0.48,0.48,0,0,0,.31-0.09,0.55,0.55,0,0,0,.14-0.33l0.52-3-0.55,0a0.09,0.09,0,0,1-.09-0.08v0l0-.16a0.14,0.14,0,0,1,0-.08,0.13,0.13,0,0,1,.08,0h0.55l0.08-.42a1.5,1.5,0,0,1,.13-0.43,0.69,0.69,0,0,1,.21-0.25A0.66,0.66,0,0,1,141.5,63l0.35,0H142l0.16,0a0.09,0.09,0,0,1,.1.08v0Z" transform="translate(-0.91 -0.38)" style="fill:#fff"/><path d="M143.21,64.28l-0.52,3a0.15,0.15,0,0,1-.05.08,0.13,0.13,0,0,1-.09,0h-0.28a0.08,0.08,0,0,1-.09-0.1v0l0.53-3a0.15,0.15,0,0,1,.05-0.08,0.13,0.13,0,0,1,.09,0h0.28a0.08,0.08,0,0,1,.09.09v0Zm0.23-1.23-0.08.47a0.17,0.17,0,0,1-.05.08,0.13,0.13,0,0,1-.09,0h-0.3a0.08,0.08,0,0,1-.1-0.09v0l0.08-.47A0.16,0.16,0,0,1,143,63a0.13,0.13,0,0,1,.09,0h0.3a0.08,0.08,0,0,1,.1.09v0Z" transform="translate(-0.91 -0.38)" style="fill:#fff"/><path d="M146.09,64.28v0l0,0.21a0.1,0.1,0,0,1,0,.07l-0.08,0h0l-0.35,0h-0.37a0.78,0.78,0,0,0-.6.26,1.35,1.35,0,0,0-.32.72l-0.08.46a2.11,2.11,0,0,0,0,.35,0.64,0.64,0,0,0,.15.48,0.62,0.62,0,0,0,.44.14h0.38l0.36,0h0l0.06,0a0.06,0.06,0,0,1,0,.05v0l0,0.21a0.16,0.16,0,0,1,0,.09l-0.1,0-0.35,0-0.4,0a1.12,1.12,0,0,1-.45-0.09,0.88,0.88,0,0,1-.32-0.23,1,1,0,0,1-.19-0.35,1.45,1.45,0,0,1-.06-0.44c0-.05,0-0.11,0-0.16l0-.16,0.08-.46a1.79,1.79,0,0,1,.51-1.08,1.43,1.43,0,0,1,1-.36l0.39,0,0.33,0a0.09,0.09,0,0,1,.1.09" transform="translate(-0.91 -0.38)" style="fill:#fff"/><path d="M147.32,64.28l-0.52,3a0.15,0.15,0,0,1-.05.08,0.13,0.13,0,0,1-.09,0h-0.28a0.08,0.08,0,0,1-.09-0.1v0l0.53-3a0.15,0.15,0,0,1,.05-0.08,0.13,0.13,0,0,1,.09,0h0.28a0.08,0.08,0,0,1,.09.09v0Zm0.23-1.23-0.08.47a0.17,0.17,0,0,1-.05.08,0.13,0.13,0,0,1-.09,0H147a0.08,0.08,0,0,1-.1-0.09v0l0.08-.47a0.16,0.16,0,0,1,.05-0.08,0.13,0.13,0,0,1,.09,0h0.3a0.08,0.08,0,0,1,.1.09v0Z" transform="translate(-0.91 -0.38)" style="fill:#fff"/><path d="M150.49,64.35a0.14,0.14,0,0,1,0,0L150,67.29a0.18,0.18,0,0,1,0,.08,0.12,0.12,0,0,1-.09,0h-0.24a0.08,0.08,0,0,1-.07,0,0.12,0.12,0,0,1,0-.07v0h0l0-.18-0.24.16-0.22.11-0.23.07-0.26,0a1,1,0,0,1-.36-0.06A0.77,0.77,0,0,1,148,67.2a0.91,0.91,0,0,1-.2-0.32,1.31,1.31,0,0,1-.07-0.47,1.82,1.82,0,0,1,0-.35l0.1-.58a2,2,0,0,1,.22-0.64,1.37,1.37,0,0,1,.35-0.41,1.3,1.3,0,0,1,.45-0.22,2,2,0,0,1,.51-0.07,3.89,3.89,0,0,1,.54,0l0.49,0.1a0.11,0.11,0,0,1,.11.09m-0.82.23-0.32,0a1,1,0,0,0-.7.24,1.32,1.32,0,0,0-.32.72l-0.11.61s0,0.09,0,.14,0,0.09,0,.13a0.62,0.62,0,0,0,.15.48,0.52,0.52,0,0,0,.36.14,1,1,0,0,0,.41-0.09,3,3,0,0,0,.45-0.25l0.36-2-0.25,0" transform="translate(-0.91 -0.38)" style="fill:#fff"/><path d="M152.09,63.09l-0.74,4.2a0.17,0.17,0,0,1,0,.08,0.11,0.11,0,0,1-.08,0h-0.31a0.08,0.08,0,0,1-.08-0.1v0l0.74-4.2A0.12,0.12,0,0,1,151.7,63H152a0.08,0.08,0,0,1,.08.09v0Z" transform="translate(-0.91 -0.38)" style="fill:#fff"/><path d="M157.2,64a1.85,1.85,0,0,1,0,.24v0.08a1.59,1.59,0,0,1-.23.65,1.33,1.33,0,0,1-.42.41,1.64,1.64,0,0,1-.56.21,3.91,3.91,0,0,1-.67.06H155l-0.28,0-0.29,1.66a0.19,0.19,0,0,1,0,.08,0.11,0.11,0,0,1-.08,0H154a0.08,0.08,0,0,1-.08-0.09v0h0l0.72-4.11a0.18,0.18,0,0,1,.17-0.15l0.46,0h0.52a2.63,2.63,0,0,1,.59.06,1.34,1.34,0,0,1,.45.19,0.88,0.88,0,0,1,.29.32,1,1,0,0,1,.1.46m-0.54,0a0.51,0.51,0,0,0-.24-0.48,1.57,1.57,0,0,0-.74-0.13h-0.32l-0.28,0-0.31,1.72h0.59a1.51,1.51,0,0,0,.9-0.22,1,1,0,0,0,.36-0.65V64.26a1.53,1.53,0,0,0,0-.21" transform="translate(-0.91 -0.38)" style="fill:#fff"/><path d="M160.16,65.23a1.52,1.52,0,0,1,0,.16c0,0.05,0,.11,0,0.17l-0.08.45a2.47,2.47,0,0,1-.18.6,1.47,1.47,0,0,1-.31.45,1.29,1.29,0,0,1-.46.29,1.73,1.73,0,0,1-.62.1,1.22,1.22,0,0,1-.47-0.08,0.92,0.92,0,0,1-.34-0.23,1,1,0,0,1-.21-0.35,1.37,1.37,0,0,1-.07-0.45,1.43,1.43,0,0,1,0-.16l0-.16,0.08-.45a1.49,1.49,0,0,1,1.56-1.44,1.26,1.26,0,0,1,.47.08,1,1,0,0,1,.34.23,0.91,0.91,0,0,1,.21.35,1.41,1.41,0,0,1,.07.45m-0.52,0a0.7,0.7,0,0,0-.15-0.48,0.64,0.64,0,0,0-.49-0.16,0.83,0.83,0,0,0-.64.26,1.35,1.35,0,0,0-.33.72L158,66a2,2,0,0,0,0,.35,0.67,0.67,0,0,0,.15.48,0.65,0.65,0,0,0,.5.16,0.85,0.85,0,0,0,.35-0.07,0.92,0.92,0,0,0,.28-0.2,1.17,1.17,0,0,0,.21-0.31,1.51,1.51,0,0,0,.12-0.4l0.07-.45a1.36,1.36,0,0,0,0-.18c0-.05,0-0.11,0-0.16" transform="translate(-0.91 -0.38)" style="fill:#fff"/><path d="M165.05,64.27a0.1,0.1,0,0,1,0,0L164,67a0.6,0.6,0,0,1-.23.32,0.62,0.62,0,0,1-.34.09,0.37,0.37,0,0,1-.28-0.11A0.53,0.53,0,0,1,163,67l-0.17-2v0h0l0,0-0.87,2a0.9,0.9,0,0,1-.24.33,0.49,0.49,0,0,1-.31.11,0.45,0.45,0,0,1-.3-0.09A0.42,0.42,0,0,1,161,67l-0.09-2.74a0.13,0.13,0,0,1,0-.09,0.12,0.12,0,0,1,.09,0h0.3a0.07,0.07,0,0,1,.06,0,0.11,0.11,0,0,1,0,.06l0,2.66a0.09,0.09,0,0,0,0,.06h0a0.09,0.09,0,0,0,.06-0.07l1-2.24a0.27,0.27,0,0,1,.27-0.18h0.33a0.23,0.23,0,0,1,.14,0,0.2,0.2,0,0,1,.06.14l0.18,2.24s0,0.07,0,.07h0a0.13,0.13,0,0,0,0-.06l1-2.66a0.17,0.17,0,0,1,0-.06,0.1,0.1,0,0,1,.07,0H165a0.09,0.09,0,0,1,.07,0,0.11,0.11,0,0,1,0,.07" transform="translate(-0.91 -0.38)" style="fill:#fff"/><path d="M168,65.22a2,2,0,0,1,0,.35l0,0.25a0.22,0.22,0,0,1,0,.09,0.11,0.11,0,0,1-.09,0h-2l0,0.07a1,1,0,0,0,0,.19,1.69,1.69,0,0,0,0,.17,0.56,0.56,0,0,0,.2.48,0.88,0.88,0,0,0,.54.15L167,67l0.48-.06h0a0.06,0.06,0,0,1,.08.06v0h0l0,0.2a0.19,0.19,0,0,1,0,.09,0.17,0.17,0,0,1-.1,0l-0.5.07a4.67,4.67,0,0,1-.53,0,1.58,1.58,0,0,1-.43-0.06,1,1,0,0,1-.37-0.19,1,1,0,0,1-.26-0.34,1.17,1.17,0,0,1-.1-0.51,2,2,0,0,1,0-.37l0.08-.41a1.93,1.93,0,0,1,.53-1.08,1.44,1.44,0,0,1,1-.37,1.23,1.23,0,0,1,.48.08,1,1,0,0,1,.34.23,1,1,0,0,1,.2.35,1.42,1.42,0,0,1,.07.43m-0.52,0a0.56,0.56,0,0,0-.64-0.62,0.86,0.86,0,0,0-.35.07,0.84,0.84,0,0,0-.28.2,1.23,1.23,0,0,0-.2.3,1.57,1.57,0,0,0-.12.38v0h1.56v0a1.69,1.69,0,0,0,0-.32" transform="translate(-0.91 -0.38)" style="fill:#fff"/><path d="M170.35,64.23l0,0.25a0.12,0.12,0,0,1-.14.1h0a1.4,1.4,0,0,0-.84.24l-0.43,2.47a0.16,0.16,0,0,1-.05.08,0.14,0.14,0,0,1-.09,0h-0.29a0.08,0.08,0,0,1-.09-0.1v0l0.52-3a0.17,0.17,0,0,1,.05-0.08,0.13,0.13,0,0,1,.09,0h0.28a0.08,0.08,0,0,1,.09.09v0l0,0.14a1.25,1.25,0,0,1,.45-0.24,1.69,1.69,0,0,1,.42-0.05h0c0.07,0,.11,0,0.11.08v0Z" transform="translate(-0.91 -0.38)" style="fill:#fff"/><path d="M175.36,64a1.85,1.85,0,0,1,0,.24v0.08a1.59,1.59,0,0,1-.23.65,1.33,1.33,0,0,1-.42.41,1.64,1.64,0,0,1-.56.21,3.91,3.91,0,0,1-.67.06h-0.31l-0.28,0-0.29,1.66a0.19,0.19,0,0,1,0,.08,0.11,0.11,0,0,1-.08,0h-0.32a0.08,0.08,0,0,1-.08-0.09v0h0l0.72-4.11a0.18,0.18,0,0,1,.17-0.15l0.46,0h0.52a2.63,2.63,0,0,1,.59.06,1.34,1.34,0,0,1,.45.19,0.88,0.88,0,0,1,.29.32,1,1,0,0,1,.1.46m-0.54,0a0.51,0.51,0,0,0-.24-0.48,1.57,1.57,0,0,0-.74-0.13h-0.32l-0.28,0-0.31,1.72h0.59a1.51,1.51,0,0,0,.9-0.22,1,1,0,0,0,.36-0.65V64.26a1.53,1.53,0,0,0,0-.21" transform="translate(-0.91 -0.38)" style="fill:#fff"/><path d="M178.29,64.35a0.14,0.14,0,0,1,0,0l-0.51,2.89a0.18,0.18,0,0,1,0,.08,0.12,0.12,0,0,1-.09,0h-0.24a0.08,0.08,0,0,1-.07,0,0.12,0.12,0,0,1,0-.07v0h0l0-.18-0.24.16-0.22.11-0.23.07-0.26,0a1,1,0,0,1-.36-0.06,0.77,0.77,0,0,1-.29-0.19,0.91,0.91,0,0,1-.2-0.32,1.31,1.31,0,0,1-.07-0.47,1.82,1.82,0,0,1,0-.35l0.1-.58a2,2,0,0,1,.22-0.64,1.37,1.37,0,0,1,.35-0.41,1.3,1.3,0,0,1,.45-0.22,2,2,0,0,1,.51-0.07,3.89,3.89,0,0,1,.54,0l0.49,0.1a0.11,0.11,0,0,1,.11.09m-0.82.23-0.32,0a1,1,0,0,0-.7.24,1.32,1.32,0,0,0-.32.72l-0.11.61s0,0.09,0,.14,0,0.09,0,.13a0.62,0.62,0,0,0,.15.48,0.52,0.52,0,0,0,.36.14,1,1,0,0,0,.41-0.09,3,3,0,0,0,.45-0.25l0.36-2-0.25,0" transform="translate(-0.91 -0.38)" style="fill:#fff"/><path d="M180.57,64.23l0,0.25a0.12,0.12,0,0,1-.14.1h0a1.4,1.4,0,0,0-.84.24l-0.43,2.47a0.16,0.16,0,0,1-.05.08,0.14,0.14,0,0,1-.09,0h-0.29a0.08,0.08,0,0,1-.09-0.1v0l0.52-3a0.17,0.17,0,0,1,.05-0.08,0.13,0.13,0,0,1,.09,0h0.28a0.08,0.08,0,0,1,.09.09v0l0,0.14a1.25,1.25,0,0,1,.45-0.24,1.69,1.69,0,0,1,.42-0.05h0c0.07,0,.11,0,0.11.08v0Z" transform="translate(-0.91 -0.38)" style="fill:#fff"/><path d="M182.75,64.28l0,0.2a0.17,0.17,0,0,1-.05.08,0.13,0.13,0,0,1-.08,0h-0.64l-0.37,2.06a1.08,1.08,0,0,0,0,.17,0.16,0.16,0,0,0,.07.16,0.55,0.55,0,0,0,.21,0h0.42a0,0,0,0,1,0,.05v0l0,0.21a0.16,0.16,0,0,1,0,.07l-0.09,0-0.19,0h-0.18a0.92,0.92,0,0,1-.5-0.13,0.47,0.47,0,0,1-.2-0.43s0-.08,0-0.11l0-.12,0.36-2.05-0.56-.07a0.09,0.09,0,0,1-.1-0.09v0l0-.16a0.15,0.15,0,0,1,0-.08,0.12,0.12,0,0,1,.08,0h0.57l0.09-.58a0.14,0.14,0,0,1,.13-0.12l0.31,0h0a0.07,0.07,0,0,1,.07.08v0l-0.11.64h0.64a0.08,0.08,0,0,1,.1.1v0Z" transform="translate(-0.91 -0.38)" style="fill:#fff"/><path d="M185.65,65a1.78,1.78,0,0,1,0,.32l-0.34,1.94a0.16,0.16,0,0,1-.05.08,0.14,0.14,0,0,1-.09,0h-0.28a0.08,0.08,0,0,1-.1-0.09v0l0.34-1.94c0-.06,0-0.11,0-0.17a1.27,1.27,0,0,0,0-.16A0.46,0.46,0,0,0,185,64.7a0.6,0.6,0,0,0-.43-0.12,1.56,1.56,0,0,0-.36,0,2.39,2.39,0,0,0-.47.18l-0.44,2.49a0.16,0.16,0,0,1-.05.08,0.14,0.14,0,0,1-.09,0h-0.29a0.08,0.08,0,0,1-.07,0,0.12,0.12,0,0,1,0-.07v0l0.52-3a0.18,0.18,0,0,1,.05-0.08,0.13,0.13,0,0,1,.09,0h0.29a0.08,0.08,0,0,1,.07,0,0.11,0.11,0,0,1,0,.07v0l0,0.12a3.34,3.34,0,0,1,.43-0.2,1.46,1.46,0,0,1,.52-0.08,1,1,0,0,1,.4.07,0.72,0.72,0,0,1,.27.19,0.78,0.78,0,0,1,.16.29,1.18,1.18,0,0,1,.05.35" transform="translate(-0.91 -0.38)" style="fill:#fff"/><path d="M188.93,65.22a2,2,0,0,1,0,.35l0,0.25a0.22,0.22,0,0,1,0,.09,0.11,0.11,0,0,1-.09,0h-2l0,0.07a1,1,0,0,0,0,.19,1.69,1.69,0,0,0,0,.17,0.56,0.56,0,0,0,.2.48,0.88,0.88,0,0,0,.54.15l0.54,0,0.48-.06h0a0.06,0.06,0,0,1,.08.06v0h0l0,0.2a0.19,0.19,0,0,1,0,.09,0.17,0.17,0,0,1-.1,0l-0.5.07a4.67,4.67,0,0,1-.53,0,1.58,1.58,0,0,1-.43-0.06,1,1,0,0,1-.37-0.19,1,1,0,0,1-.26-0.34,1.17,1.17,0,0,1-.1-0.51,2,2,0,0,1,0-.37l0.08-.41a1.93,1.93,0,0,1,.53-1.08,1.44,1.44,0,0,1,1-.37,1.23,1.23,0,0,1,.48.08,1,1,0,0,1,.34.23,1,1,0,0,1,.2.35,1.42,1.42,0,0,1,.07.43m-0.52,0a0.56,0.56,0,0,0-.64-0.62,0.86,0.86,0,0,0-.35.07,0.84,0.84,0,0,0-.28.2,1.23,1.23,0,0,0-.2.3,1.57,1.57,0,0,0-.12.38v0h1.56v0a1.69,1.69,0,0,0,0-.32" transform="translate(-0.91 -0.38)" style="fill:#fff"/><path d="M191.28,64.23l0,0.25a0.12,0.12,0,0,1-.14.1h0a1.4,1.4,0,0,0-.84.24l-0.43,2.47a0.16,0.16,0,0,1-.05.08,0.14,0.14,0,0,1-.09,0h-0.29a0.08,0.08,0,0,1-.09-0.1v0l0.52-3a0.17,0.17,0,0,1,.05-0.08,0.13,0.13,0,0,1,.09,0h0.28a0.08,0.08,0,0,1,.09.09v0l0,0.14a1.25,1.25,0,0,1,.45-0.24,1.69,1.69,0,0,1,.42-0.05h0c0.07,0,.11,0,0.11.08v0Z" transform="translate(-0.91 -0.38)" style="fill:#fff"/><g style="clip-path:url(#clip-path-2)"><g style="mask:url(#mask-2)"><rect x="179.65" y="43.77" width="8.28" height="8.41" transform="translate(23.84 151.47) rotate(-47.78)" style="fill:url(#linear-gradient-8)"/></g></g><g style="clip-path:url(#clip-path-3)"><g style="mask:url(#mask-3)"><rect x="141.95" y="43.77" width="8.28" height="8.41" transform="translate(11.48 123.55) rotate(-47.78)" style="fill:url(#linear-gradient-9)"/></g></g><g style="clip-path:url(#clip-path-4)"><g style="mask:url(#mask-4)"><rect x="190.13" y="43.7" width="7.63" height="7.63" transform="translate(22.29 150.68) rotate(-45)" style="fill:url(#linear-gradient-10)"/></g></g><g style="clip-path:url(#clip-path-5)"><g style="mask:url(#mask-5)"><rect x="161.77" y="32.8" width="7.92" height="8.72" transform="translate(-3.96 17.78) rotate(-6.22)" style="fill:url(#linear-gradient-11)"/></g></g><g style="clip-path:url(#clip-path-6)"><g style="mask:url(#mask-6)"><rect x="166.7" y="41.03" width="2.57" height="0.25" transform="translate(-4.13 16.23) rotate(-5.61)" style="fill:url(#linear-gradient-12)"/></g></g><rect x="165.79" y="40.78" width="2.58" height="9.03" style="fill:#fff"/><path d="M180.36,33.16a8.65,8.65,0,1,0,0,17.3h0V47.87h0a6.07,6.07,0,1,1,5.9-7.56h-6.4V42.9h9V40.31a8.67,8.67,0,0,0-8.54-7.16" transform="translate(-0.91 -0.38)" style="fill:#fff"/><path d="M142.66,33.16a8.65,8.65,0,1,0,0,17.3h0.05V47.87h-0.05a6.07,6.07,0,1,1,5.9-7.56h-6.4V42.9h9V40.31a8.67,8.67,0,0,0-8.54-7.16" transform="translate(-0.91 -0.38)" style="fill:#fff"/><path d="M194.06,44.61V27.83h-2.58V44.65h2.58v0" transform="translate(-0.91 -0.38)" style="fill:#fff"/><path d="M162.11,33.16a8.14,8.14,0,0,0-5.75,2.36V33.86h-2.58v9h2.58V40.76a6,6,0,0,1,5.75-5h0.12V33.16h-0.12" transform="translate(-0.91 -0.38)" style="fill:#fff"/></svg>