<svg id="circuit_electricity" data-name="circuit electricity" xmlns="http://www.w3.org/2000/svg" viewBox="0 0 755 451.04">
  <title>circuit_mexicocity_electricity</title>
  <path class="electricity" d="M180.65,395.68c-82.22,0-151.49-53.51-172.5-128.88a32.54,32.54,0,0,1,0-17.17l.32-1.2,15-7.07a7.13,7.13,0,0,0,1.21-12.18l-10.5-7.78a15.36,15.36,0,0,1-6.22-13Q8.3,202,9,195.72A178.56,178.56,0,0,1,66.34,84.24S96.34,60,123.74,60c0,0,379.06-4.73,441.18-5.56a44.75,44.75,0,0,1,17.84,3.45l35.58,14.84a12.1,12.1,0,0,0,13-2.4L644.3,58a11.53,11.53,0,0,1,12.56-.9C711.62,87.62,747,145.22,747,212.51a179,179,0,0,1-179,179l-10.19.33a11.72,11.72,0,0,1-11.95-9.82l-4-24.34a9.38,9.38,0,0,0-15.94-5.07l-22.35,22.68s-17.92,17.23-34.46,17.23c-14.54,0-159.29-.27-194.09-.33a9.46,9.46,0,0,1-9.2-7.33L236.61,259.54a115,115,0,0,0-7.67-22.28l-17.57-37.89a12.51,12.51,0,0,0-9.27-7.07l-39.47-6.64c-3.77-.63-9.61,3.15-11.61,6.41L125.7,237.94c-7,11.45-.19,26,13.21,25l47.86-3.48a8.13,8.13,0,0,1,6.56,2.59L225.61,297a12.21,12.21,0,0,1,3.24,8.46l-1,69.21L225.3,387l-11.72,5.69A210,210,0,0,1,180.65,395.68Z" style="fill: none;stroke: #e61400;stroke-linejoin: round;stroke-width: 11.605685234069824px"/>
</svg>
