<svg id="Layer_1" data-name="Layer 1" xmlns="http://www.w3.org/2000/svg" viewBox="0 0 755 490">
  <title>concept_buildings</title>
  <path id="building_paddock" data-name="building paddock" d="M498.81,180.22a5.87,5.87,0,1,0-8.3,0A5.85,5.85,0,0,0,498.81,180.22Zm-24.53,9.26a5.87,5.87,0,1,0-8.3,0A5.85,5.85,0,0,0,474.28,189.48ZM556.1,158.6a5.87,5.87,0,1,0-8.3,0A5.85,5.85,0,0,0,556.1,158.6ZM541,164.48a5.87,5.87,0,1,0-8.3,0,5.85,5.85,0,0,0,8.3,0Zm31.2-11.75a5.87,5.87,0,1,0-8.3,0A5.85,5.85,0,0,0,572.19,152.73Zm15.74-5.94a5.87,5.87,0,1,0-8.3,0,5.71,5.71,0,0,0,8.1.2C587.83,146.89,587.83,146.79,587.93,146.79Z" style="fill: none;stroke: #fff;stroke-miterlimit: 10;stroke-width: 2px"/>
  <path id="building_fans" data-name="building fans" d="M546.28,80.65a5.87,5.87,0,1,0-3-7.75h0A5.85,5.85,0,0,0,546.28,80.65Zm-26.71,34.92a5.87,5.87,0,1,0-3-7.75h0A5.85,5.85,0,0,0,519.57,115.57Zm-72.67,5a5.87,5.87,0,1,0-3-7.75h0a5.77,5.77,0,0,0,3,7.75Zm-22.4,8.62a5.87,5.87,0,1,0-3-7.75h0a5.77,5.77,0,0,0,3,7.75ZM231.62,432a5.87,5.87,0,1,0-8.3,0h0a5.73,5.73,0,0,0,8.2,0Zm20.52-5.28a5.87,5.87,0,1,0-8.3,0h0a5.73,5.73,0,0,0,8.2,0ZM473.3,109.56a5.87,5.87,0,1,0-3-7.75h0A5.85,5.85,0,0,0,473.3,109.56ZM511.45,94.7a5.87,5.87,0,1,0-3-7.75h0a5.85,5.85,0,0,0,3,7.75Z" style="fill: none;stroke: #fff;stroke-miterlimit: 10;stroke-width: 2px"/>
  <path id="building_facilities" data-name="building facilities" d="M618.19,135.25a5.87,5.87,0,1,0-8.3,0A5.85,5.85,0,0,0,618.19,135.25Zm13.61-4.65a5.87,5.87,0,1,0-8.3,0A5.85,5.85,0,0,0,631.8,130.6Zm-30.38,55.49a5.87,5.87,0,1,0-8.3,0A5.85,5.85,0,0,0,601.42,186.08ZM634.22,175a5.87,5.87,0,1,0-8.3,0A5.85,5.85,0,0,0,634.22,175Z" style="fill: none;stroke: #fff;stroke-miterlimit: 10;stroke-width: 2px"/>
  <path id="building_media" data-name="building media" d="M505.05,218.75a5.91,5.91,0,0,0-5.9-5.9,6.06,6.06,0,0,0-6,5.9,5.91,5.91,0,0,0,5.9,5.9h0a5.89,5.89,0,0,0,5.9-5.8C505.05,218.85,505.05,218.85,505.05,218.75ZM522,212.8a5.9,5.9,0,0,0-11.8,0,6.06,6.06,0,0,0,5.9,6h0A5.89,5.89,0,0,0,522,213v-.2Z" style="fill: none;stroke: #fff;stroke-miterlimit: 10;stroke-width: 2px"/>
</svg>
