<svg id="circuit_electricity" data-name="circuit electricity" xmlns="http://www.w3.org/2000/svg" viewBox="0 0 755 490">
  <title>illustration_microgrid_circuit_paris_electricity</title>
  <path d="M23.87,199.45l257.46-101a6.21,6.21,0,0,1,7.34,2.2l2.13,3a7.5,7.5,0,0,0,3.82,2.81l60.2,19.42a12.46,12.46,0,0,0,6.78.25l11.92-1.57a11.09,11.09,0,0,1,12.57,5.86l16.54,36.78a3.38,3.38,0,0,0,4.06,1.86c6.69-2,23.65-5.15,31.25,12.15,7.72,17.58-5.48,31-10.88,35.55a4.76,4.76,0,0,0-1.64,4.49l5.2,29a13.12,13.12,0,0,1,0,4.53l-3.34,19.54-2.38,29.49c-.17,2.13-1.53,5.58-3.51,6.39L151.23,417.66a7.85,7.85,0,0,1-10.11-4.17l-21.32-49.23a5.16,5.16,0,0,0-5-3.12c-10.83.46-43,.85-52.85-18.3-8.44-16.43-6-32.47-4.33-39.64a4.44,4.44,0,0,1,5-3.36l24,3.72a5.73,5.73,0,0,0,6.21-7.76L64.13,222.67,24,208.34A4.74,4.74,0,0,1,23.87,199.45Z" style="fill: none;stroke: #ff1d25;stroke-linejoin: round;stroke-width: 7px"/>
</svg>
