<svg id="Layer_1" data-name="Layer 1" xmlns="http://www.w3.org/2000/svg" viewBox="0 0 755 490">
  <title>circuit_buildings</title>
  <path id="building_paddock" data-name="building paddock" d="M498.81,180.22a5.87,5.87,0,1,0-8.3,0A5.85,5.85,0,0,0,498.81,180.22Zm-24.53,9.26a5.87,5.87,0,1,0-8.3,0A5.85,5.85,0,0,0,474.28,189.48ZM556.1,158.6a5.87,5.87,0,1,0-8.3,0A5.85,5.85,0,0,0,556.1,158.6ZM541,164.48a5.87,5.87,0,1,0-8.3,0,5.85,5.85,0,0,0,8.3,0Zm31.2-11.75a5.87,5.87,0,1,0-8.3,0A5.85,5.85,0,0,0,572.19,152.73Zm15.74-5.94a5.87,5.87,0,1,0-8.3,0,5.71,5.71,0,0,0,8.1.2C587.83,146.89,587.83,146.79,587.93,146.79Z" style="fill: none;stroke: #fff;stroke-miterlimit: 10;stroke-width: 2px"/>
  <path id="building_fans" data-name="building fans" d="M254.09,416.94a5.87,5.87,0,1,0-8.3,0h0a5.85,5.85,0,0,0,8.3,0ZM546.28,80.65a5.87,5.87,0,1,0-3-7.75h0A5.85,5.85,0,0,0,546.28,80.65ZM446.9,120.58a5.87,5.87,0,1,0-3-7.75h0a5.77,5.77,0,0,0,3,7.75Zm-22.4,8.62a5.87,5.87,0,1,0-3-7.75h0a5.77,5.77,0,0,0,3,7.75ZM259,433.92a5.87,5.87,0,1,0-8.3,0h0a5.73,5.73,0,0,0,8.2,0ZM473.3,109.56a5.87,5.87,0,1,0-3-7.75h0A5.85,5.85,0,0,0,473.3,109.56ZM511.45,94.7a5.87,5.87,0,1,0-3-7.75h0a5.85,5.85,0,0,0,3,7.75Z" style="fill: none;stroke: #fff;stroke-miterlimit: 10;stroke-width: 2px"/>
  <path id="building_facilities" data-name="building facilities" d="M618.19,135.25a5.87,5.87,0,1,0-8.3,0A5.85,5.85,0,0,0,618.19,135.25Zm13.61-4.65a5.87,5.87,0,1,0-8.3,0A5.85,5.85,0,0,0,631.8,130.6Z" style="fill: none;stroke: #fff;stroke-miterlimit: 10;stroke-width: 2px"/>
  <path id="building_media" data-name="building media" d="M663.43,44.38a5.91,5.91,0,0,0-5.9-5.9,6.06,6.06,0,0,0-6,5.9,5.91,5.91,0,0,0,5.9,5.9h0a5.89,5.89,0,0,0,5.9-5.8C663.43,44.48,663.43,44.48,663.43,44.38Zm16.9-5.95a5.9,5.9,0,1,0-11.8,0,6.06,6.06,0,0,0,5.9,6h0a5.89,5.89,0,0,0,5.9-5.8v-.2Z" style="fill: none;stroke: #fff;stroke-miterlimit: 10;stroke-width: 2px"/>
</svg>
