<svg id="Layer_1" data-name="Layer 1" xmlns="http://www.w3.org/2000/svg" xmlns:xlink="http://www.w3.org/1999/xlink" viewBox="0 0 755 451">
  <defs>
    <linearGradient id="linear-gradient" x1="534.38" y1="168.64" x2="298.59" y2="380.17" gradientTransform="matrix(0.71, 0.71, 0.71, -0.71, -111.48, 127.7)" gradientUnits="userSpaceOnUse">
      <stop offset="0" stop-color="#fff" stop-opacity="0"/>
      <stop offset="1" stop-color="#fff"/>
    </linearGradient>
  </defs>
  <title>circuit_monaco</title>
  <g>
    <path d="M162,32.92l-20.09-1.79a10.48,10.48,0,0,0-11.25,9.15l-.63,6.1L118.17,71.72a25,25,0,0,0-2.42,12.93l1.47,25.24a9.94,9.94,0,0,0,10.62,9.36l8.31-.53A14.87,14.87,0,0,0,147,113.15a271.6,271.6,0,0,1,21.45-23.35c13.25-12.62,40.8-25.87,59.2-28.5,13.14-2,49.11-7.47,68-10.41a15.5,15.5,0,0,1,16.72,9.57l2.31,9.46a18.17,18.17,0,0,0,16.4,13.67L411,92a43.85,43.85,0,0,0,34.28-11.36l5.78-5.36a32.23,32.23,0,0,1,27.76-8c22.5,4.21,63,13.78,75.19,20.51,17.35,9.57,36.38,22.5,45.85,31.55s17,19.56,20.72,29.13c1.16,3-1.89,32.39-6.31,68.77-.32,2.63-4,10.31-4.21,13-8.1,65.09-16.4,142.6-16.4,142.6l-11,11.46a9.6,9.6,0,0,0-2.63,5.36l-3.15,22.71a4.6,4.6,0,0,0,1.16,3.68l6.84,7.26a4.61,4.61,0,0,0,3.26,1.37l11.57.21a2.7,2.7,0,0,0,2.63-2.21L638.7,118.2c.63-5.26,3.58-8,8.1-10.83l5.68-2.1c8.62-3.15,8.62-15.35.11-18.61l-5.15-2a8.88,8.88,0,0,0-2.52-.63l-11.46-1.16c-1.68-.21-5.68-1.05-7-2L598.53,60.15a18.22,18.22,0,0,1-2.21-1.79C592.54,55,571.4,40,484.54,18.51,385.8-5.78,221.64,10.1,221.64,10.1Z" style="fill: none;stroke: #fff;stroke-linejoin: round;stroke-width: 7px"/>
    <g id="circuit">
      <polygon points="460.14 14.09 451.42 15.67 454.47 7.15 460.14 14.09" style="fill: #ff1d25"/>
    </g>
    <path d="M623.77,82s-22-3-27.55-6.94c-5.57-4.1-32.6-23.35-73.93-34.81S467.51,21.67,428.7,28.92s-44.8,6.73-44.8,6.73-8.31,3.89-43.22.32c-32.28-3.26-109.26,4.52-120.83,5.78a8.71,8.71,0,0,0-2.84.74c-5.26,1.89-24.29,9.36-38.07,17-7.68,4.31-15.35,8.2-21.45,11.15A16.4,16.4,0,0,1,138.25,67l-2.31-2.52a4.59,4.59,0,0,0-7.68,1.37l-6.2,15-.21,8.83a8.84,8.84,0,0,1-2.52,5.89l-2.84,2.84" style="fill: none;stroke: #fff;stroke-miterlimit: 10;stroke-width: 4px;opacity: 0.4;isolation: isolate"/>
  </g>
  <g>
    <rect x="372.3" y="125.5" width="11.6" height="17.55" transform="translate(203.86 495.71) rotate(-83.81)" style="fill: #420000;opacity: 0.15;isolation: isolate"/>
    <rect x="627.66" y="54.77" width="11.6" height="19.93" transform="translate(322.45 620.38) rotate(-66.6)" style="fill: #420000;opacity: 0.15;isolation: isolate"/>
    <rect x="598.61" y="81.75" width="11.6" height="19.93" transform="translate(195 545.7) rotate(-56.58)" style="fill: #420000;opacity: 0.15;isolation: isolate"/>
    <rect x="580.63" y="69.86" width="11.6" height="19.93" transform="translate(196.84 525.35) rotate(-56.58)" style="fill: #420000;opacity: 0.15;isolation: isolate"/>
    <rect x="561.06" y="59.57" width="11.6" height="19.93" transform="translate(307.24 578.22) rotate(-69.96)" style="fill: #420000;opacity: 0.15;isolation: isolate"/>
    <rect x="540.88" y="52.17" width="11.6" height="19.93" transform="translate(345.18 574.11) rotate(-75)" style="fill: #420000;opacity: 0.15;isolation: isolate"/>
    <rect x="510.59" y="36.84" width="11.6" height="37.03" transform="translate(329.28 539.82) rotate(-75)" style="fill: #420000;opacity: 0.15;isolation: isolate"/>
    <rect x="472.64" y="28.34" width="11.6" height="37.03" transform="translate(341.27 507.6) rotate(-79.01)" style="fill: #420000;opacity: 0.15;isolation: isolate"/>
    <rect x="375.52" y="18.48" width="13.68" height="11.6" style="fill: #420000;opacity: 0.15;isolation: isolate"/>
    <rect x="359.08" y="17.47" width="13.68" height="11.6" style="fill: #420000;opacity: 0.15;isolation: isolate"/>
    <rect x="343.75" y="16.02" width="13.68" height="11.6" style="fill: #420000;opacity: 0.15;isolation: isolate"/>
    <rect x="326.43" y="17.34" width="13.68" height="11.6" style="fill: #420000;opacity: 0.15;isolation: isolate"/>
    <rect x="298.71" y="17.32" width="13.68" height="11.6" style="fill: #420000;opacity: 0.15;isolation: isolate"/>
    <rect x="283.08" y="18.58" width="13.68" height="11.6" style="fill: #420000;opacity: 0.15;isolation: isolate"/>
    <rect x="267.14" y="19.5" width="13.68" height="11.6" style="fill: #420000;opacity: 0.15;isolation: isolate"/>
    <rect x="251.49" y="20.39" width="13.68" height="11.6" style="fill: #420000;opacity: 0.15;isolation: isolate"/>
    <rect x="234.85" y="22.92" width="13.68" height="11.6" transform="translate(-1.69 31.08) rotate(-7.33)" style="fill: #420000;opacity: 0.15;isolation: isolate"/>
    <rect x="218.96" y="24.95" width="13.68" height="11.6" transform="translate(-2.08 29.07) rotate(-7.33)" style="fill: #420000;opacity: 0.15;isolation: isolate"/>
    <rect x="203.36" y="28.23" width="13.68" height="11.6" transform="translate(-2.62 27.11) rotate(-7.33)" style="fill: #420000;opacity: 0.15;isolation: isolate"/>
    <rect x="187.68" y="33.06" width="13.68" height="11.6" transform="translate(-0.5 75.15) rotate(-21.84)" style="fill: #420000;opacity: 0.15;isolation: isolate"/>
    <rect x="165.55" y="44.05" width="13.68" height="11.6" transform="translate(-4.16 81.99) rotate(-26.45)" style="fill: #420000;opacity: 0.15;isolation: isolate"/>
    <rect x="102.06" y="48.9" width="13.68" height="10.41" transform="translate(49.87 160.42) rotate(-87.38)" style="fill: #420000;opacity: 0.15;isolation: isolate"/>
    <rect x="127.18" y="150.59" width="17.1" height="19.93" style="fill: #420000;opacity: 0.15;isolation: isolate"/>
    <rect x="125.97" y="172.14" width="8.48" height="8.48" style="fill: #420000;opacity: 0.15;isolation: isolate"/>
    <rect x="118.14" y="433.32" width="8.77" height="13.68" style="fill: #420000;opacity: 0.15;isolation: isolate"/>
    <polygon points="143.06 203.64 147.7 419.99 123.02 420.69 118.39 204.34 143.06 203.64" style="fill: #420000;opacity: 0.15;isolation: isolate"/>
    <rect x="153.11" y="52.17" width="9.67" height="11.6" transform="translate(-9.29 76.41) rotate(-26.45)" style="fill: #420000;opacity: 0.15;isolation: isolate"/>
    <polygon points="174.64 96.85 232.9 72.67 270.02 66.67 279.9 82.03 239.1 89.39 181.58 110.94 174.64 96.85" style="fill: #420000;opacity: 0.15;isolation: isolate"/>
    <rect x="418.31" y="98.11" width="5.95" height="56.22" transform="translate(250.41 531.44) rotate(-83.81)" style="fill: #420000;opacity: 0.15;isolation: isolate"/>
    <rect x="334.28" y="92.27" width="5.95" height="56.22" transform="translate(181.24 442.69) rotate(-83.81)" style="fill: #420000;opacity: 0.15;isolation: isolate"/>
    <circle cx="431.44" cy="58.58" r="12.49" transform="translate(84.95 322.23) rotate(-45)" style="fill: #420000;opacity: 0.15;isolation: isolate"/>
    <polygon points="120.48 128.51 121.01 177.83 92.09 179.4 90.83 158.16 99.66 129.77 120.48 128.51" style="fill: #420000;opacity: 0.15;isolation: isolate"/>
  </g>
  <path d="M569.93,385.51a12.72,12.72,0,0,1,3.58-8l10.41-10.41,23.24-222.2-19-15.88a224.29,224.29,0,0,0-88.44-45.32L485,79.92l-6.1,26.29-83.81-6-3,.11-1.89,19.14,118.51,11.67,27.15,7.53-.55,6.46-24.61-6.73L388.74,126.51l-2.52,39.75,60.68,2.84-1.58,14.2L297.67,170.89l1.58-12.51,65.51,6,2.94-36.81-121.46-12.3-.11-9.15,121.25,14,1.16-19.24-35,.74-23.66-4.1a167.19,167.19,0,0,0-83,6.63l-7.68,2.63a64.67,64.67,0,0,0-24.71,15.46L182,134.71l-37.23-8,2,88.23h60.15L229.53,198v41L207,221.15H146.88l3.42,151.77,419.45,15.19Z" style="stroke:0;opacity: 0.35;isolation: isolate;fill: url(#linear-gradient)"/>
</svg>
