<svg id="buildings" xmlns="http://www.w3.org/2000/svg" viewBox="0 0 755 451.04"><title>circuit_buenosaires_buildings</title><path id="building_paddock" d="M416.64,118.11L390.52,86l7.57-6.16L424.21,112Zm49.55,7.31,93.18-58.88-5.21-8.25L461,117.18ZM381.91,185l11.86-6.75-4.59-8.07L377.32,177Z" style="fill:#fff"/><path id="building_media" d="M446.84,89.26L426,63.71l14.28-11.62,20.79,25.55Zm24.76-69.13L445.8,24.88l1.84,10,25.79-4.75Zm-29.5,10.2-12.2,6.94,2.32,4.08,12.2-6.94Z" style="fill:#fff"/><path id="building_facilities" d="M515.72,56.1L480.4,47.86,484,33.73l18.19,4.17,7.21-3L520,37.35ZM164.78,276.6l4.64-13.12-10.32-3.65-4.64,13.12Zm336-220.33-13.11,17,11.43,8.84,13.11-17Zm-323,177.85-23.5,19.62,4.55,5.45,23.5-19.62Zm133.06-15-54.08,30.75,2.88,5.07,54.08-30.75Z" style="fill:#fff"/><path id="building_fans" d="M365.07,183.94l11.86-6.75,4.59,8.07L369.66,192Zm178.48-40.36a25.74,25.74,0,0,0-16.61,28.78l22.79-6.45Zm-34.64,5.31,1.42-1.16c6.17-5,12-9.8,19.53-13.72a75.26,75.26,0,0,1,9.87-4.25l-7.33-26.49-41.84,26.1,9,30.27A44.5,44.5,0,0,1,508.9,148.89Zm33.4-9.79-0.78-2.81c-11.49,4.1-18.4,9.74-26.92,16.7l-1.42,1.16c-9.43,7.69-13.62,20.35-15.15,26.4l24.42-6.91A30.38,30.38,0,0,1,542.31,139.1Zm32.49,41.2a25.55,25.55,0,0,0,2.75-17.45l-22.46,6.36,6.4,22.64A25.55,25.55,0,0,0,574.8,180.3Zm61.84-68.12-7.71-25.74-43.09,13.9,7.1,24a80.18,80.18,0,0,0,11-.8L600,110.64l20.41-5.73,4,13.2A75.33,75.33,0,0,0,636.64,112.18Zm-71.86,33.1a25.56,25.56,0,0,0-17.8-2.68l6.17,22.33,23.1-6.54A25.56,25.56,0,0,0,564.78,145.29Zm-4.86-20.38c9.11-1.41,16.37-1.09,23.39-.78l2.52,0.11L572.28,78.38l-36.73,22.92,7.56,27.35A120,120,0,0,1,559.92,124.91Zm70.32-42.63,0.17,0.54,1.06-.32,8.3,27.72a112.85,112.85,0,0,0,27.56-26.5L613.71,69.87l-25-6.41-0.1,0s-4.56-1.53-13,2.52l9.15,31Zm-9.19,37.06-3-10-13.53,3.8,3,9.9A98.49,98.49,0,0,0,621.06,119.33Zm-4.49,24.49-5,1.48,2.62,9.2,5.14-1.5ZM722.19,97.88L674.12,85.47l0.19,0.12A115.45,115.45,0,0,1,641.81,117l10.87,36.3,72.17-41.12A7.7,7.7,0,0,0,723,98.08Zm-83.54,21,10.85,36.23-40.64,23.16-13.92-47.14c8.52-.23,18.32-1.62,31.66-6.58a82,82,0,0,0,12-5.61Zm-19.7,20.5-11.76,3.5,4.58,16,12.05-3.51ZM497.09,163.91L488,133.21,458.54,151.9l30.37,31.22,1.73-.49A69.37,69.37,0,0,1,497.09,163.91Zm81.76,18.64a30.12,30.12,0,0,1-16.09,13.78l2,7.07,38-21.68-7.09-24L582,161.58A30.16,30.16,0,0,1,578.85,182.55Zm-61.63-2.62,7.23,24.49,32.67-10.08,1.05,3.41-36.13,11.15-8.26-28-21.2,6L528.64,224l32-18.21-10-35.29Zm65.79-49c-7-.31-13.61-0.6-22,0.7a114.14,114.14,0,0,0-16,3.55l0.82,3a30.37,30.37,0,0,1,35,19l13.67-3.87-6.54-22.16C586.22,131,584.61,131,583,130.9Z" style="fill:#fff"/></svg>