<svg id="Layer_1" data-name="Layer 1" xmlns="http://www.w3.org/2000/svg" viewBox="0 0 72.2 72.2">
  <title>icon_mix_temporary</title>
  <path d="M47.53,20A48.44,48.44,0,0,1,36.18,21.2c-10,0-18.16-2.52-18.16-5.63s8.13-5.62,18.16-5.62,18.16,2.52,18.16,5.62v41.7c0,3.11-8.13,5.63-18.16,5.63S18,60.38,18,57.27V44.08c0,3.11,8.13,5.63,18.16,5.63a52.26,52.26,0,0,0,9.08-.75V33.75a52.17,52.17,0,0,1-9.08.75C26.15,34.5,18,32,18,28.88V23.2" style="fill: none;stroke: #fff;stroke-linejoin: round;stroke-width: 3.99999150282638px"/>
</svg>
