<svg xmlns="http://www.w3.org/2000/svg" viewBox="0 0 40.21 40.03">
  <title>icon_wind</title>
  <g id="Layer_2" data-name="Layer 2">
    <g id="graphic">
      <path d="M25.07,22.69A7.28,7.28,0,0,1,25.86,26l.1,0a15.61,15.61,0,0,1,5.37,2.27,18.77,18.77,0,0,1,7.37,9.94,15.07,15.07,0,0,1-11.23-2.32,17.61,17.61,0,0,1-4.37-4.13L23,31.7a5.17,5.17,0,0,1-5.87,0l-.06.1a17.6,17.6,0,0,1-4.38,4.14A15.06,15.06,0,0,1,1.5,38.27a18.77,18.77,0,0,1,7.37-9.94,15.59,15.59,0,0,1,5.37-2.27l.08,0a6.79,6.79,0,0,1,2.93-5.73,5.16,5.16,0,0,1,5.69,0l.08-.18A21.72,21.72,0,0,0,24,13.76,20.92,20.92,0,0,0,20.1,1.5a20.92,20.92,0,0,0-3.85,12.26,22.16,22.16,0,0,0,.16,2.7" style="fill: none;stroke: #fff;stroke-linejoin: round;stroke-width: 3px"/>
    </g>
  </g>
</svg>
