<?xml version="1.0" encoding="utf-8"?>
<!-- Generator: Adobe Illustrator 21.0.2, SVG Export Plug-In . SVG Version: 6.00 Build 0)  -->
<svg version="1.1" id="Layer_7" xmlns="http://www.w3.org/2000/svg" xmlns:xlink="http://www.w3.org/1999/xlink" x="0px" y="0px"
	 viewBox="0 0 1024 415" style="enable-background:new 0 0 1024 415;" xml:space="preserve">
<style type="text/css">
	.st0_smartgrididle{fill:none;stroke:#FFFFFF;stroke-width:4;stroke-miterlimit:10;}
	.st1_smartgrididle{clip-path:url(#SVGID_2_);}
	.st2_smartgrididle{fill:#FFFFFF;}
	.st3_smartgrididle{fill:none;stroke:#FFFFFF;stroke-width:3;stroke-linejoin:round;}
	.st4_smartgrididle{opacity:0.3;fill:none;stroke:#FFFFFF;stroke-width:2;stroke-linejoin:round;enable-background:new    ;}
	.st5_smartgrididle{opacity:0.3;}
	.st6_smartgrididle{fill:none;stroke:#FFFFFF;stroke-width:2;stroke-linejoin:round;}
	.st7_smartgrididle{opacity:0.3;fill:none;stroke:#FFFFFF;stroke-width:4;stroke-linejoin:round;enable-background:new    ;}
	.st8_smartgrididle{font-family:'UniversLTPro-55Roman';}
	.st9_smartgrididle{font-size:15px;}
	.st10_smartgrididle{enable-background:new    ;}
	.st11_smartgrididle{letter-spacing:-1;}
</style>
<title>Artboard 1</title>
<path class="st0_smartgrididle" d="M612.1,185H660c1.6,0,3,1.3,3,3v73.4c0,1.6-1.3,3-3,3h-47.9c-1.6,0-3-1.3-3-3V188
	C609.2,186.4,610.5,185,612.1,185z"/>
<g>
	<defs>
		<rect id="SVGID_1_" x="609.1" y="193.2" width="53.8" height="36"/>
	</defs>
	<clipPath id="SVGID_2_">
		<use xlink:href="#SVGID_1_"  style="overflow:visible;"/>
	</clipPath>
	<g class="st1_smartgrididle">
		<g>
			<path class="st0_smartgrididle" d="M597.6,211.7h8.1c1.8,0,3.2-1.4,3.2-3.2l0,0l0,0v-9.8c0-1.8,1.4-3.2,3.2-3.2l0,0h0.1c1.8,0,3.2,1.4,3.2,3.2
				l0,0l0,0V223c0,1.8,1.4,3.2,3.2,3.2l0,0h0.1c1.8,0,3.2-1.4,3.2-3.2l0,0l0,0v-12.1c0-1.8,1.4-3.2,3.2-3.2l0,0h0.1
				c1.8,0,3.2,1.4,3.2,3.2l0,0l0,0v1.7c0,1.8,1.4,3.2,3.2,3.2l0,0l0,0c1.8,0,3.2-1.4,3.2-3.2l0,0l0,0v-8.9"/>
			<path class="st0_smartgrididle" d="M663.8,210.1c-1.8,0-3.2,1.4-3.2,3.2l0,0l0,0v1.7c0,1.8-1.4,3.2-3.2,3.2l0,0h-0.1c-1.8,0-3.2-1.4-3.2-3.2
				c0,0,0,0,0,0l0,0v-4.9c0-1.8-1.4-3.2-3.2-3.2l0,0h-0.1c-1.8,0-3.2,1.4-3.2,3.2l0,0l0,0v12.2c0,1.8-1.4,3.2-3.2,3.2l0,0h-0.1
				c-1.8,0-3.2-1.4-3.2-3.2l0,0l0,0v-18.7c0-1.8-1.4-3.2-3.2-3.2l0,0l0,0c-1.8,0-3.2,1.4-3.2,3.2l0,0l0,0v8.9"/>
		</g>
	</g>
</g>
<circle id="smartmeter_point" class="st2_smartgrididle" cx="625" cy="248.5" r="2.6"/>
<path class="st0_smartgrididle" d="M623.8,241.8h11.4c3.7,0,6.7,3,6.7,6.7l0,0c0,3.7-3,6.7-6.7,6.7h-11.4c-3.7,0-6.7-3-6.7-6.7l0,0
	C617.1,244.8,620.1,241.8,623.8,241.8z"/>
<path class="st3_smartgrididle" d="M742.5,306.2h-6.1c-3.3,0-5.9-2.7-5.9-5.9l0,0l0,0v-4.6l0,0c8.3,0,15-6.7,15-15l0,0l0,0v-3h-6v-9
	c0-1.7-1.3-3-3-3l0,0c-1.7,0-3,1.3-3,3v9h-6v-9c0-1.7-1.3-3-3-3l0,0c-1.7,0-3,1.3-3,3v9h-6v3c0,6.7,4.4,12.6,10.9,14.4"/>
<path class="st3_smartgrididle" d="M457.9,327.2h-6.1c-3.3,0-5.9-2.7-5.9-5.9l0,0l0,0v-4.6l0,0c8.3,0,15-6.7,15-15l0,0l0,0v-3h-6v-9
	c0-1.7-1.3-3-3-3l0,0c-1.7,0-3,1.3-3,3v9h-6v-9c0-1.7-1.3-3-3-3l0,0c-1.7,0-3,1.3-3,3v9h-6v3c0,6.7,4.4,12.6,10.9,14.4"/>
<polyline class="st3_smartgrididle" points="446.1,112.9 444.6,100.2 454.8,100.2 458.1,125.7 447.6,125.7 450.6,142.1 432.7,118.2 446.9,118.2 
	"/>
<path class="st3_smartgrididle" d="M392.2,164.6c0-0.9-0.7-1.6-1.5-1.6h-6.1c-0.9,0-1.6,0.7-1.6,1.5c0,0,0,0,0,0l0,0v4.5h-7.5
	c-0.9,0-1.5,0.7-1.5,1.6v30.4c0,0.9,0.7,1.6,1.5,1.6h24.3c0.9,0,1.5-0.7,1.5-1.6v-30.4c0-0.9-0.7-1.6-1.5-1.6h-12.1"/>
<path class="st3_smartgrididle" d="M793.7,190.6c0-0.9-0.7-1.6-1.5-1.6H786c-0.9,0-1.5,0.7-1.5,1.6v4.5H777c-0.9,0-1.5,0.7-1.5,1.6v30.4
	c0,0.9,0.7,1.6,1.5,1.6h24.3c0.9,0,1.5-0.7,1.5-1.6v-30.4c0-0.9-0.7-1.6-1.5-1.6h-12.2"/>
<path class="st4_smartgrididle" d="M664.5,211.8h27.5c21.2,0,38.4,17.2,38.4,38.4l0,0"/>
<path class="st4_smartgrididle" d="M664.5,211.8h27.5c21.2,0,38.4-17.2,38.4-38.4l0,0"/>
<path class="st4_smartgrididle" d="M608.7,211.9H501.3c-30.8,0-55.9,25-55.9,55.8l0,0"/>
<g class="st5_smartgrididle">
	<path class="st6_smartgrididle" d="M608.7,211.9H501.3c-30.8,0-55.8-25-55.8-55.9l0,0l0,0"/>
</g>
<line class="st4_smartgrididle" x1="760.6" y1="211.8" x2="665.1" y2="211.8"/>
<path class="st4_smartgrididle" d="M608.7,211.9H501.3c-26.5,0-52.5,7.7-74.7,22.1"/>
<path class="st4_smartgrididle" d="M608.7,211.9H501.3c-26.5,0-52.5-7.6-74.8-22.1"/>
<polyline class="st7_smartgrididle" points="711.8,92.7 634,138.9 634,152.9 "/>
<polyline class="st7_smartgrididle" points="635.2,264.4 635.2,333 830.5,333 830.5,138.9 806.7,124.8 806.7,91.7 775.4,91.7 775.4,106.2 
	732.3,80.6 718.9,88.5 713.5,80.6 659.5,113.2 660.5,115 "/>
<path class="st3_smartgrididle" d="M374.5,231.5l1.3-5.2c0.4-1.5,1.4-3.1,3.1-3.1h15.1c1.7,0,2.5,1.3,3.1,3.1l2.5,9.1h-29.9
	c-1.7,0-3.1,1.4-3.1,3.1v0l0,0v9.1c0,1.7,1.4,3.1,3.1,3.1l0,0h3.3c-0.8,2.4,0.4,5,2.8,5.9s5-0.4,5.9-2.8c0.3-1,0.3-2,0-3h9.5
	c-0.8,2.4,0.4,5,2.8,5.9s5-0.4,5.9-2.8c0.3-1,0.3-2,0-3h3.2c1.7,0,3.1-1.4,3.1-3.1v0l0,0v-9.1c0-1.7-1.4-3.1-3.1-3.1l0,0l0,0"/>
<text transform="matrix(1 0 0 1 341 123)" class="st2_smartgrididle st8_smartgrididle st9_smartgrididle">Generation</text>
<text transform="matrix(1 0 0 1 771.96 144.58)" class="st10"><tspan x="0" y="0" class="st2_smartgrididle st8_smartgrididle st9_smartgrididle st11_smartgrididle">Your generation</tspan></text>
<text transform="matrix(1 0 0 1 824.64 217.92)" class="st10"><tspan x="0" y="0" class="st2_smartgrididle st8_smartgrididle st9_smartgrididle st11_smartgrididle">Your storage</tspan></text>
<text transform="matrix(1 0 0 1 771.41 295.21)" class="st10"><tspan x="0" y="0" class="st2_smartgrididle st8_smartgrididle st9_smartgrididle st11_smartgrididle">Your demand</tspan></text>
<text transform="matrix(1 0 0 1 595.9 174.23)" class="st2_smartgrididle st8_smartgrididle st9_smartgrididle">Smart meter</text>
<text transform="matrix(1 0 0 1 294.33 186.66)" class="st2_smartgrididle st8_smartgrididle st9_smartgrididle">Storage</text>
<text transform="matrix(1 0 0 1 357.58 314.99)" class="st2_smartgrididle st8_smartgrididle st9_smartgrididle">Demand</text>
<text transform="matrix(1 0 0 1 279.16 244.37)" class="st2_smartgrididle st8_smartgrididle st9_smartgrididle">E-mobility</text>
<path class="st3_smartgrididle" d="M735.7,150.7c-1.6,0.9-3.5,1.3-5.4,0.9c-4.2-0.9-6.8-5-5.9-9.1c0.9-4.2,5-6.8,9.1-5.9c4.2,0.9,6.8,5,5.9,9.1
	c-0.3,1.3-0.9,2.4-1.7,3.4l4.5,2.6l9.1-1.2l-6.7-6.3l6.7-6.3l-9.1-1.2l1.7-9.1l-8.1,4.4l-4-8.3l-4,8.3l-8.1-4.4l1.7,9.1l-9.1,1.2
	l6.7,6.3l-6.7,6.3l9.1,1.2l-1.7,9.1l8.1-4.4l4,8.3l4-8.3l8.1,4.4l-1.3-5.6"/>
</svg>
