<?xml version="1.0" encoding="utf-8"?>
<!-- Generator: Adobe Illustrator 21.0.2, SVG Export Plug-In . SVG Version: 6.00 Build 0)  -->
<svg version="1.1" id="Layer_1" xmlns="http://www.w3.org/2000/svg" xmlns:xlink="http://www.w3.org/1999/xlink" x="0px" y="0px"
	 viewBox="0 0 1024 415" style="enable-background:new 0 0 1024 415;" xml:space="preserve">
<style type="text/css">
	.st0-illmicrogrid-racetrack{fill:none;stroke:#FFFFFF;stroke-width:3;stroke-linejoin:round;}
	.st1-illmicrogrid-racetrack{opacity:0.3;}
	.st2-illmicrogrid-racetrack{fill:none;stroke:#FFFFFF;stroke-width:2;stroke-linejoin:round;}
	.st3-illmicrogrid-racetrack{fill:#F7331D;stroke:#FFFFFF;stroke-width:4;stroke-miterlimit:10;}
	.st4-illmicrogrid-racetrack{fill:#FFFFFF;}
	.st5-illmicrogrid-racetrack{fill:none;stroke:#FFFFFF;stroke-width:4;stroke-miterlimit:10;}
	.st6-illmicrogrid-racetrack{enable-background:new    ;}
	.st7-illmicrogrid-racetrack{font-family:'UniversLTPro-55Roman';}
	.st8-illmicrogrid-racetrack{font-size:14px;}
</style>
<title>Artboard 1</title>
<g id="Layer_7">
	<g>
		<g>
			<path class="st0-illmicrogrid-racetrack" d="M804.8,310.4h7.2c1.1-0.1,1.9-1,1.9-2.1c0-0.5-0.2-0.9-0.6-1.3l-12.4-10.6c-0.8-0.7-2-0.6-2.7,0.2
				c-0.3,0.4-0.5,0.8-0.5,1.3c0,1.1-0.9,1.9-1.9,1.9c0,0,0,0,0,0h-5.6c-1,0-1.9-0.9-1.9-1.9c0,0,0,0,0,0l0,0v-6.7
				c0-1-0.9-1.9-1.9-1.9l0,0h-2.6c-0.5,0-1,0.2-1.4,0.6l-8.3,8.3v-4.9c0-1-0.9-1.9-1.9-1.9l0,0h-7.4c-1,0-1.9,0.9-1.9,1.9
				c0,0,0,0,0,0l0,0v9.9c0,0.5,0.2,1,0.6,1.4l5.6,5.6c0.4,0.4,0.9,0.6,1.4,0.6h3.8c0,2.5,2,4.5,4.5,4.5s4.5-2,4.5-4.5h8.6
				c0,2.5,2,4.5,4.5,4.5s4.5-2,4.5-4.5"/>
			<path class="st0-illmicrogrid-racetrack" d="M538.8,285.5c-2.8,0.6-5.6,0.9-8.5,0.9c-7.5,0-13.6-1.9-13.6-4.2s6.1-4.2,13.6-4.2s13.6,1.9,13.6,4.2v31.3
				c0,2.3-6.1,4.2-13.6,4.2s-13.6-1.9-13.6-4.2v-9.9c0,2.3,6.1,4.2,13.6,4.2c2.3,0,4.6-0.2,6.8-0.6v-11.4c-2.2,0.4-4.5,0.6-6.8,0.6
				c-7.5,0-13.6-1.9-13.6-4.2v-4.3"/>
			<polyline class="st0-illmicrogrid-racetrack" points="726.3,307.2 726.3,318.2 678.4,318.2 678.4,278.6 726.3,278.6 726.3,300.6 708.7,300.6 714.2,295 
				705.9,293.7 702.3,286 698.7,293.7 690.5,295 696.4,301.1 695.1,309.7 702.3,305.6 709.6,309.6 708.8,304.6 			"/>
			<g>
				<path class="st0-illmicrogrid-racetrack" d="M449,304.5c-1.7,1-3.8,1.4-5.9,0.9c-4.5-1-7.4-5.4-6.4-9.9c1-4.5,5.4-7.4,9.9-6.4c4.5,1,7.4,5.4,6.4,9.9
					c-0.3,1.4-0.9,2.7-1.8,3.7l4.9,2.8l9.9-1.3l-7.3-6.9l7.3-6.9l-9.9-1.3l1.8-9.8l-8.8,4.8l-4.3-9l-4.3,9l-8.8-4.8l1.8,9.8
					l-9.9,1.3l7.3,6.9l-7.3,6.9l9.9,1.3l-1.8,9.8l8.8-4.8l4.3,9l4.3-9l8.8,4.8l-1.4-6.1"/>
			</g>
			<g>
				<path class="st0-illmicrogrid-racetrack" d="M619.1,283l6.6,0v35.5h-19.9V283h5v-1.6c0-3.3,3.2-3.3,3.2-3.3h5.1c0,0,1.6-0.1,1.6,1.6"/>
			</g>
		</g>
		<g class="st1-illmicrogrid-racetrack">
			<path class="st2-illmicrogrid-racetrack" d="M446.9,256.4c0-46.9,38.1-85,85-85s85,38.1,85,85"/>
			<path class="st2-illmicrogrid-racetrack" d="M446.9,256.4c0-23.5,19-42.5,42.5-42.5c23.5,0,42.5,19,42.5,42.5"/>
			<path class="st2-illmicrogrid-racetrack" d="M531.9,256.4c0-23.5,19-42.5,42.5-42.5s42.5,19,42.5,42.5"/>
			<path class="st2-illmicrogrid-racetrack" d="M617,256.4c0-23.5,19-42.5,42.5-42.5s42.5,19,42.5,42.5"/>
			<path class="st2-illmicrogrid-racetrack" d="M702,256.4c0-23.5,19-42.5,42.5-42.5s42.5,19,42.5,42.5"/>
			<path class="st2-illmicrogrid-racetrack" d="M617,256.4c0-46.9,38.1-85,85-85s85,38.1,85,85"/>
			<path class="st2-illmicrogrid-racetrack" d="M531.9,256.4c0-46.9,38.1-85,85-85s85,38.1,85,85"/>
			<path class="st2-illmicrogrid-racetrack" d="M447.3,256.4c0-70.4,57.1-127.5,127.5-127.5S702.3,186,702.3,256.4l0,0l0,0"/>
			<path class="st2-illmicrogrid-racetrack" d="M532,256.4c0-70.4,57.1-127.5,127.5-127.5S787,186,787,256.4"/>
			<path class="st2-illmicrogrid-racetrack" d="M447.4,256.4c0-93.8,76-169.8,169.8-169.8S787,162.6,787,256.4"/>
		</g>
	</g>
	<g>
		<path class="st3-illmicrogrid-racetrack" d="M642.8,72.7h-47.9c-1.7,0-3,1.3-3,3V149c0,1.7,1.3,3,3,3h47.9c1.7,0,3-1.3,3-3V75.6
			C645.7,74,644.4,72.7,642.8,72.7z"/>
		<path class="st4-illmicrogrid-racetrack" d="M646.5,95.7c-2.8,0-5.2,2.3-5.2,5.1c0,0,0,0,0,0c0,0,0,0.1,0,0.1v1.7c0,0.7-0.5,1.2-1.1,1.2c0,0,0,0,0,0H640
			c-0.6,0-1.2-0.5-1.2-1.1c0,0,0,0,0,0c0,0,0-0.1,0-0.1v-4.9c0-2.9-2.4-5.2-5.2-5.2s-5.2,2.4-5.2,5.2v12.1c0,0.6-0.5,1.2-1.1,1.2
			c0,0,0,0,0,0H627c-0.6,0-1.2-0.5-1.2-1.1c0,0,0,0,0,0c0,0,0-0.1,0-0.1V91.2c0-2.9-2.3-5.2-5.2-5.2s-5.2,2.3-5.2,5.2v8.9
			c0,0.7-0.5,1.2-1.2,1.2s-1.2-0.5-1.2-1.2v-1.7c0-2.8-2.3-5.2-5.1-5.2c0,0,0,0,0,0h-0.2c-2.8,0-5.2,2.3-5.2,5.1c0,0,0,0,0,0
			c0,0,0,0.1,0,0.1v12.2c0,0.7-0.5,1.2-1.1,1.2c0,0,0,0,0,0h-0.2c-0.6,0-1.2-0.5-1.2-1.1c0,0,0,0,0,0c0,0,0-0.1,0-0.1V86.4
			c0-2.9-2.3-5.2-5.2-5.2l0,0h-0.1c-0.9,0-1.7,0.3-2.5,0.7v17.7c0.8-0.9,1.3-2.1,1.3-3.4v-9.8c0-0.7,0.5-1.2,1.1-1.2c0,0,0,0,0,0
			h0.2c0.6,0,1.2,0.5,1.2,1.1c0,0,0,0,0,0c0,0,0,0.1,0,0.1v24.3c0,2.9,2.4,5.2,5.2,5.2s5.2-2.4,5.2-5.2V98.5c0-0.6,0.5-1.2,1.1-1.2
			c0,0,0,0,0,0h0.2c0.6,0,1.2,0.5,1.2,1.1c0,0,0,0,0,0c0,0,0,0.1,0,0.1v1.7c0,2.9,2.3,5.2,5.2,5.2s5.2-2.3,5.2-5.2v-8.9
			c0-0.7,0.5-1.2,1.2-1.2s1.2,0.5,1.2,1.2v18.6c0,2.8,2.3,5.2,5.1,5.2c0,0,0,0,0,0h0.2c2.8,0,5.2-2.3,5.2-5.1c0,0,0,0,0,0
			c0,0,0-0.1,0-0.1V97.7c0-0.7,0.5-1.2,1.1-1.2c0,0,0,0,0,0h0.2c0.6,0,1.2,0.5,1.2,1.1c0,0,0,0,0,0c0,0,0,0.1,0,0.1v4.9
			c0,2.9,2.4,5.2,5.2,5.2s5.2-2.4,5.2-5.2v-1.7c0-0.6,0.5-1.2,1.1-1.2c0,0,0,0,0,0h0.1L646.5,95.7z"/>
		<circle id="smartmeter_point_racetrack" class="st4-illmicrogrid-racetrack" cx="607.8" cy="136.1" r="2.6"/>
		<path class="st5-illmicrogrid-racetrack" d="M606.6,142.8H618c3.7,0,6.7-3,6.7-6.7c0,0,0,0,0,0l0,0c0-3.7-3-6.7-6.7-6.7l0,0h-11.4c-3.7,0-6.7,3-6.7,6.7
			c0,0,0,0,0,0l0,0C599.9,139.8,602.9,142.8,606.6,142.8L606.6,142.8z"/>
	</g>
</g>
<text transform="matrix(1 0 0 1 423.8 342.57)" class="st6-illmicrogrid-racetrack"><tspan x="0" y="0" class="st4-illmicrogrid-racetrack st7-illmicrogrid-racetrack st8-illmicrogrid-racetrack">Solar</tspan><tspan x="0" y="16.8" class="st4-illmicrogrid-racetrack st7-illmicrogrid-racetrack st8-illmicrogrid-racetrack">power</tspan></text>
<g>
	<text transform="matrix(1 0 0 1 500.47 342.57)" class="st6-illmicrogrid-racetrack"><tspan x="0" y="0" class="st4-illmicrogrid-racetrack st7-illmicrogrid-racetrack st8-illmicrogrid-racetrack">Traditional</tspan><tspan x="0" y="16.8" class="st4-illmicrogrid-racetrack st7-illmicrogrid-racetrack st8-illmicrogrid-racetrack">power</tspan></text>
</g>
<text transform="matrix(1 0 0 1 598.1 342.57)" class="st4-illmicrogrid-racetrack st7-illmicrogrid-racetrack st8-illmicrogrid-racetrack">Storage</text>
<text transform="matrix(1 0 0 1 681.1 342.57)" class="st6-illmicrogrid-racetrack"><tspan x="0" y="0" class="st4-illmicrogrid-racetrack st7-illmicrogrid-racetrack st8-illmicrogrid-racetrack">Other</tspan><tspan x="0" y="16.8" class="st4-illmicrogrid-racetrack st7-illmicrogrid-racetrack st8-illmicrogrid-racetrack">services</tspan></text>
<text transform="matrix(1 0 0 1 772.57 342.57)" class="st6-illmicrogrid-racetrack"><tspan x="0" y="0" class="st4-illmicrogrid-racetrack st7-illmicrogrid-racetrack st8-illmicrogrid-racetrack">Race</tspan><tspan x="0" y="16.8" class="st4-illmicrogrid-racetrack st7-illmicrogrid-racetrack st8-illmicrogrid-racetrack">cars</tspan></text>
</svg>
