<?xml version="1.0" encoding="utf-8"?>
<!-- Generator: Adobe Illustrator 18.1.1, SVG Export Plug-In . SVG Version: 6.00 Build 0)  -->
<svg version="1.1" id="Layer_1" xmlns="http://www.w3.org/2000/svg" xmlns:xlink="http://www.w3.org/1999/xlink" x="0px" y="0px"
	 viewBox="0 0 57.8 83.3" enable-background="new 0 0 57.8 83.3" xml:space="preserve">
<g>
	<path fill="none" stroke="#FFFFFF" stroke-width="4" stroke-miterlimit="10" d="M52.8,2H5C3.3,2,2,3.3,2,5v73.4c0,1.6,1.3,3,3,3
		h47.9c1.6,0,3-1.3,3-3V5C55.8,3.3,54.5,2,52.8,2z"/>
	<g>
		<path fill="none" stroke="#FFFFFF" stroke-width="4" stroke-miterlimit="10" d="M27.6,20.6v8.9c0,1.8-1.4,3.2-3.2,3.2h0
			c-1.8,0-3.2-1.4-3.2-3.2v-1.7c0-1.8-1.4-3.2-3.2-3.2h-0.1c-1.8,0-3.2,1.4-3.2,3.2v0.8V40c0,1.8-1.4,3.2-3.2,3.2h-0.1
			c-1.8,0-3.2-1.4-3.2-3.2V15.7c0-1.8-1.4-3.2-3.2-3.2H5H2"/>
		<path fill="none" stroke="#FFFFFF" stroke-width="4" stroke-miterlimit="10" d="M56.6,27.1c-1.8,0-3.2,1.4-3.2,3.2v1.7
			c0,1.8-1.4,3.2-3.2,3.2h-0.1c-1.8,0-3.2-1.4-3.2-3.2V27c0-1.8-1.4-3.2-3.2-3.2h-0.1c-1.8,0-3.2,1.4-3.2,3.2v0v12.1
			c0,1.8-1.4,3.2-3.2,3.2h-0.1c-1.8,0-3.2-1.4-3.2-3.2V20.6c0-1.8-1.4-3.2-3.2-3.2h0c-1.8,0-3.2,1.4-3.2,3.2v8.9"/>
	</g>
	<circle fill="#FFFFFF" cx="27.9" cy="65.5" r="2.6"/>
	<path fill="none" stroke="#FFFFFF" stroke-width="4" stroke-miterlimit="10" d="M16.7,72.2h11.4c3.7,0,6.7-3,6.7-6.7v0
		c0-3.7-3-6.7-6.7-6.7H16.7c-3.7,0-6.7,3-6.7,6.7v0C10,69.2,13,72.2,16.7,72.2z"/>
</g>
</svg>
