<svg id="Layer_1" data-name="Layer 1" xmlns="http://www.w3.org/2000/svg" xmlns:xlink="http://www.w3.org/1999/xlink" viewBox="0 0 407 333">
  <defs>
    <style>
      .sme-base-cls-1, .sme-base-cls-3, .sme-base-cls-6 {
        fill: none;
      }

      .sme-base-cls-2 {
        clip-path: url(#clip-path);
      }

      .sme-base-cls-3 {
        stroke: #ff5a0f;
        stroke-width: 2px;
      }

      .sme-base-cls-3, .sme-base-cls-6 {
        stroke-linejoin: round;
      }

      .sme-base-cls-4, .sme-base-cls-5 {
        isolation: isolate;
      }

      .sme-base-cls-5 {
        font-size: 14px;
        fill: #fff;
        font-family: Univers LT Std;
      }

      .sme-base-cls-6 {
        stroke: #fff;
        stroke-width: 3px;
      }
    </style>
    <clipPath id="clip-path">
      <path class="sme-base-cls-1" d="M15.65,0V333h353V0h-353ZM53.1,142.09a34.47,34.47,0,1,1,34.47,34.47h0A34.47,34.47,0,0,1,53.1,142.09Zm75.18,159.75a34.47,34.47,0,1,1,34.47-34.47h0A34.47,34.47,0,0,1,128.28,301.84Zm65.86-202.7a34.47,34.47,0,1,1,34.47-34.47h0A34.47,34.47,0,0,1,194.14,99.14ZM260,301.84a34.47,34.47,0,1,1,34.47-34.47h0A34.47,34.47,0,0,1,260,301.84Zm40.71-125.28a34.47,34.47,0,1,1,34.47-34.47h0A34.47,34.47,0,0,1,300.71,176.56Z"/>
    </clipPath>
  </defs>
  <title>smartgrid_marrakech</title>
  <g class="sme-base-cls-2">
    <g>
      <line class="sme-base-cls-3" x1="128.28" y1="267.36" x2="194.14" y2="64.66"/>
      <line class="sme-base-cls-3" x1="194.14" y1="64.66" x2="260" y2="267.36"/>
      <line class="sme-base-cls-3" x1="300.71" y1="142.09" x2="87.57" y2="142.09"/>
      <line class="sme-base-cls-3" x1="87.57" y1="142.09" x2="260" y2="267.36"/>
      <line class="sme-base-cls-3" x1="128.28" y1="267.36" x2="300.71" y2="142.09"/>
      <polygon class="sme-base-cls-3" points="128.28 267.37 87.58 142.09 194.14 64.66 300.71 142.09 260 267.37 128.28 267.37"/>
    </g>
  </g>
  <g>    
    <path class="sme-base-cls-6" d="M277.34,273.79h7.2a1.94,1.94,0,0,0,1.26-3.41l-12.39-10.65a1.94,1.94,0,0,0-3.21,1.52,2,2,0,0,1-2,1.9h-5.45a1.94,1.94,0,0,1-1.94-1.94h0v-6.72a1.94,1.94,0,0,0-1.94-1.94h-2.56a1.94,1.94,0,0,0-1.37.57l-8.28,8.28v-5a1.94,1.94,0,0,0-1.94-1.94h-7.37a1.94,1.94,0,0,0-1.94,1.94h0v9.85a1.94,1.94,0,0,0,.57,1.37l5.56,5.56a1.94,1.94,0,0,0,1.37.57h3.75a4.54,4.54,0,0,0,9.07,0h8.57a4.54,4.54,0,0,0,9.07.43q0-.21,0-0.43"/>
    <path class="sme-base-cls-6" d="M93.12,121.24a1.55,1.55,0,0,0-1.55-1.55H85.44a1.55,1.55,0,0,0-1.55,1.55h0v4.54H76.41a1.55,1.55,0,0,0-1.55,1.55h0v30.4a1.55,1.55,0,0,0,1.55,1.55h24.31a1.55,1.55,0,0,0,1.55-1.55h0v-30.4a1.55,1.55,0,0,0-1.55-1.55H88.55"/>
    <path class="sme-base-cls-6" d="M308.61,128.38a36.33,36.33,0,0,1-8.51.93c-7.52,0-13.62-1.89-13.62-4.22s6.1-4.22,13.62-4.22,13.62,1.89,13.62,4.22v31.28c0,2.33-6.1,4.22-13.62,4.22s-13.62-1.89-13.62-4.22v-9.9c0,2.33,6.1,4.22,13.62,4.22a39.19,39.19,0,0,0,6.81-.56v-11.4a39.13,39.13,0,0,1-6.81.56c-7.52,0-13.62-1.89-13.62-4.22v-4.26"/>
    <polyline class="sme-base-cls-6" points="140.16 270.03 139.67 267.03 149.62 256.8 135.89 254.69 129.85 241.78 123.8 254.69 110.07 256.8 120.01 267.03 117.69 281.33 129.84 274.58 142 281.32 140.62 272.85"/>
    <path class="sme-base-cls-6" d="M198.27,63.27a6.89,6.89,0,1,0-.52,4.34l5.75,4,10.85-6.91L203.5,57.75l-0.56-12.86-11.42,5.94L180.1,44.89l-0.56,12.86-10.85,6.91,10.85,6.91,0.56,12.86,11.42-5.94,11.42,5.94,0.4-9.08"/>
  </g>
</svg>
