<?xml version="1.0" encoding="utf-8"?>
<!-- Generator: Adobe Illustrator 21.0.2, SVG Export Plug-In . SVG Version: 6.00 Build 0)  -->
<svg version="1.1" id="Layer_1" xmlns="http://www.w3.org/2000/svg" xmlns:xlink="http://www.w3.org/1999/xlink" x="0px" y="0px"
	 viewBox="0 0 64 64" style="enable-background:new 0 0 64 64;" xml:space="preserve">
<style type="text/css">
	.st0{stroke:#000000;stroke-miterlimit:10;}
</style>
<path class="st0" d="M23,32c0-5,4-9,9-9c5,0,9,4,9,9c0,5-4,9-9,9C27,41,23,37,23,32 M18.1,32c0,7.7,6.2,13.9,13.9,13.9
	c7.7,0,13.9-6.2,13.9-13.9S39.7,18.1,32,18.1C24.3,18.1,18.1,24.3,18.1,32 M43.2,17.5c0,1.8,1.5,3.3,3.3,3.3s3.3-1.5,3.3-3.3
	c0-1.8-1.5-3.3-3.3-3.3S43.2,15.7,43.2,17.5 M21,54.1c-2.6-0.1-4.1-0.6-5-0.9c-1.3-0.5-2.2-1.1-3.1-2c-0.9-0.9-1.5-1.9-2-3.1
	c-0.4-1-0.8-2.4-0.9-5c-0.1-2.9-0.2-3.7-0.2-11c0-7.2,0-8.1,0.2-11c0.1-2.6,0.6-4.1,0.9-5c0.5-1.3,1.1-2.2,2-3.1
	c0.9-0.9,1.9-1.5,3.1-2c1-0.4,2.4-0.8,5-0.9c2.9-0.1,3.7-0.2,11-0.2c7.2,0,8.1,0,11,0.2c2.6,0.1,4.1,0.6,5,0.9
	c1.3,0.5,2.2,1.1,3.1,2c0.9,0.9,1.5,1.9,2,3.1c0.4,1,0.8,2.4,0.9,5c0.1,2.9,0.2,3.7,0.2,11c0,7.2,0,8.1-0.2,11
	c-0.1,2.6-0.6,4.1-0.9,5c-0.5,1.3-1.1,2.2-2,3.1c-0.9,0.9-1.9,1.5-3.1,2c-1,0.4-2.4,0.8-5,0.9c-2.9,0.1-3.7,0.2-11,0.2
	C24.8,54.2,23.9,54.2,21,54.1 M20.8,5.1c-2.9,0.1-4.9,0.6-6.6,1.3C12.5,7,11,7.9,9.4,9.4c-1.5,1.5-2.4,3-3.1,4.8
	c-0.7,1.7-1.1,3.7-1.3,6.6C4.9,23.7,4.9,24.6,4.9,32s0,8.3,0.2,11.2c0.1,2.9,0.6,4.9,1.3,6.6C7,51.5,7.9,53,9.4,54.6
	c1.5,1.5,3,2.4,4.8,3.1c1.7,0.7,3.7,1.1,6.6,1.3c2.9,0.1,3.8,0.2,11.2,0.2c7.4,0,8.3,0,11.2-0.2c2.9-0.1,4.9-0.6,6.6-1.3
	c1.8-0.7,3.3-1.6,4.8-3.1c1.5-1.5,2.4-3,3.1-4.8c0.7-1.7,1.1-3.7,1.3-6.6c0.1-2.9,0.2-3.8,0.2-11.2s0-8.3-0.2-11.2
	c-0.1-2.9-0.6-4.9-1.3-6.6c-0.7-1.8-1.6-3.3-3.1-4.8c-1.5-1.5-3-2.4-4.8-3.1c-1.7-0.7-3.7-1.1-6.6-1.3C40.3,4.9,39.4,4.9,32,4.9
	C24.6,4.9,23.7,4.9,20.8,5.1"/>
</svg>
