<?xml version="1.0" encoding="utf-8"?>
<!-- Generator: Adobe Illustrator 21.0.0, SVG Export Plug-In . SVG Version: 6.00 Build 0)  -->
<svg version="1.1" id="Layer_1" xmlns="http://www.w3.org/2000/svg" xmlns:xlink="http://www.w3.org/1999/xlink" x="0px" y="0px"
	 viewBox="0 0 64 64" style="enable-background:new 0 0 64 64;" xml:space="preserve">
<style type="text/css">
	.st0{fill-rule:evenodd;clip-rule:evenodd;}
</style>
<path class="st0" d="M60,15.3c-2.1,0.9-4.3,1.5-6.6,1.8c2.4-1.4,4.2-3.6,5-6.3c-2.2,1.3-4.7,2.2-7.3,2.7c-2.1-2.2-5.1-3.6-8.4-3.6
	c-6.3,0-11.5,5.1-11.5,11.3c0,0.9,0.1,1.7,0.3,2.6c-9.5-0.5-18-5-23.7-11.8c-1,1.7-1.6,3.6-1.6,5.7c0,3.9,2,7.4,5.1,9.4
	c-1.9-0.1-3.7-0.6-5.2-1.4c0,0,0,0.1,0,0.1c0,5.5,4,10.1,9.2,11.1c-1,0.3-2,0.4-3,0.4c-0.7,0-1.5-0.1-2.2-0.2
	C11.8,41.7,16,45,21,45.1c-3.9,3-8.9,4.8-14.3,4.8c-0.9,0-1.8-0.1-2.7-0.2c5.1,3.2,11.1,5.1,17.6,5.1c21.1,0,32.7-17.2,32.7-32.2
	c0-0.5,0-1,0-1.5C56.5,19.6,58.5,17.6,60,15.3"/>
</svg>
