<?xml version="1.0" encoding="utf-8"?>
<!-- Generator: Adobe Illustrator 18.1.1, SVG Export Plug-In . SVG Version: 6.00 Build 0)  -->
<svg version="1.1" id="Layer_1" xmlns="http://www.w3.org/2000/svg" xmlns:xlink="http://www.w3.org/1999/xlink" x="0px" y="0px"
	 viewBox="0 0 350 240" enable-background="new 0 0 350 240" xml:space="preserve">
<g id="omini">
	<g>
		<g>
			<path opacity="0.15" fill="#1D3A57" d="M163.7,154.1c-3.3-1.9-3.3-5,0-7c3.3-1.9,8.8-1.9,12.1,0c3.3,1.9,3.3,5,0,7
				C172.4,156.1,167,156.1,163.7,154.1z"/>
			<rect x="170.2" y="140.8" fill="#FF5A0F" width="2.9" height="9.8"/>
			<rect x="166.4" y="140.8" fill="#FF5A0F" width="2.9" height="8.4"/>
			<rect x="166.4" y="140.8" fill="#FF5A0F" width="6.7" height="2"/>
			<path fill="#172F4C" d="M173,150.7l-2.1,1.4c-0.5,0.3-1.4,0.4-1.9,0.1l0,0c-0.5-0.3-0.4-0.8,0.1-1.1l1-0.6"/>
			<path fill="#172F4C" d="M169.2,149.4l-2.1,1.4c-0.5,0.3-1.4,0.4-1.9,0.1l0,0c-0.5-0.3-0.4-0.8,0.1-1.1l1-0.6"/>
			<path fill="#172F4C" d="M174.7,141.1h-8.4c-1.2,0-2.1-0.9-2.1-2.1v-5.3c0-1.5,1.2-2.8,2.8-2.8h3.5c2.3,0,4.2,1.9,4.2,4.2
				C174.7,138,174.7,141.1,174.7,141.1z"/>
			<path fill="#FF5A0F" d="M170.6,150.9c0.6,0.2,1.5,0.2,2,0s0.6-0.4,0-0.6c-0.6-0.2-1.5-0.2-2,0
				C170.1,150.4,170.1,150.7,170.6,150.9z"/>
			<path fill="#FF5A0F" d="M166.8,149.5c0.6,0.2,1.5,0.2,2,0c0.6-0.2,0.6-0.4,0-0.6s-1.5-0.2-2,0S166.2,149.4,166.8,149.5z"/>
			<path fill="#FF5A0F" d="M167.4,142.6c1.3,0.4,3.5,0.4,4.9,0c1.4-0.4,1.4-1,0-1.4s-3.5-0.4-4.9,0C166,141.6,166,142.2,167.4,142.6
				z"/>
			<path fill="#172F4C" d="M167.3,141.6c1.3,0.4,3.5,0.4,4.9,0s1.4-1,0-1.4c-1.3-0.4-3.5-0.4-4.9,0S165.9,141.2,167.3,141.6z"/>
			<path fill="#513E35" d="M172.6,143.4h0.1c1.1,0,2-0.9,2-2v-4.8h-2.1V143.4z"/>
			<path fill="#513E35" d="M166.2,142h0.1v-6.8h-2.1v4.8C164.2,141.1,165.1,142,166.2,142z"/>
			<path fill="#172F4C" d="M172.8,136.8c0.4,0.1,1.1,0.1,1.6,0c0.4-0.1,0.4-0.3,0-0.5c-0.4-0.1-1.1-0.1-1.6,0
				C172.4,136.5,172.4,136.7,172.8,136.8z"/>
			<path fill="#172F4C" d="M164.6,135.4c0.4,0.1,1.1,0.1,1.6,0c0.4-0.1,0.4-0.3,0-0.5c-0.4-0.1-1.1-0.1-1.6,0
				C164.1,135.1,164.1,135.3,164.6,135.4z"/>
			<path fill="#C9961A" d="M168,137.4c0-0.6,0.5-0.9,1-0.8c0.6,0.1,1,0.6,1,1.2c0,0.6-0.5,0.9-1,0.8
				C168.5,138.5,168,137.9,168,137.4z"/>
			<polyline fill="none" stroke="#C9961A" stroke-width="0.211" stroke-miterlimit="10" points="170.8,131 169,137.3 167.7,131 			
				"/>
			<path fill="#513E35" d="M169.1,132h0.2c1.2,0,2.2-1,2.2-2.2v-1.9c0-1.2-1-2.2-2.2-2.2h-0.2c-1.2,0-2.2,1-2.2,2.2v1.9
				C166.9,131,167.9,132,169.1,132z"/>
			<path fill="#FF5A0F" d="M168.9,130.1l2.4-1.4c0.7-0.4,0.6-1.1-0.2-1.5l0,0c-0.8-0.4-1.9-0.5-2.6-0.1l-2.4,1.4
				c-0.7,0.4-0.6,1.1,0.2,1.5l0,0C167.1,130.4,168.3,130.5,168.9,130.1z"/>
			
				<linearGradient id="SVGID_1_" gradientUnits="userSpaceOnUse" x1="5792.856" y1="130.3335" x2="5792.856" y2="126.8108" gradientTransform="matrix(-1 0 0 1 5961.5859 0)">
				<stop  offset="0" style="stop-color:#FFFFFF"/>
				<stop  offset="1" style="stop-color:#000000"/>
			</linearGradient>
			<path opacity="0.3" fill="url(#SVGID_1_)" d="M168.9,130.1l2.4-1.4c0.7-0.4,0.6-1.1-0.2-1.5l0,0c-0.8-0.4-1.9-0.5-2.6-0.1
				l-2.4,1.4c-0.7,0.4-0.6,1.1,0.2,1.5l0,0C167.1,130.4,168.3,130.5,168.9,130.1z"/>
			<path fill="#FF5A0F" d="M171.8,128.1c0-1.4-1.2-2.6-2.6-2.6h0c-1.4,0-2.6,1.2-2.6,2.6"/>
			<path fill="#FF5A0F" d="M167.4,128.7c1,0.3,2.6,0.3,3.6,0c1-0.3,1-0.8,0-1s-2.6-0.3-3.6,0C166.4,127.9,166.4,128.4,167.4,128.7z"
				/>
		</g>
		<rect x="149.7" y="120.6" fill="none" width="40" height="40"/>
	</g>
	<g>
		<g>
			<path opacity="0.15" fill="#1D3A57" d="M246.8,140.4c-3.3-1.9-3.3-5,0-7c3.3-1.9,8.8-1.9,12.1,0c3.3,1.9,3.3,5,0,7
				C255.6,142.3,250.2,142.3,246.8,140.4z"/>
			<rect x="253.4" y="127" fill="#FF5A0F" width="2.9" height="9.8"/>
			<rect x="249.5" y="127" fill="#FF5A0F" width="2.9" height="8.4"/>
			<rect x="249.5" y="127" fill="#FF5A0F" width="6.7" height="2"/>
			<path fill="#172F4C" d="M256.2,137l-2.1,1.4c-0.5,0.3-1.4,0.4-1.9,0.1l0,0c-0.5-0.3-0.4-0.8,0.1-1.1l1-0.6"/>
			<path fill="#172F4C" d="M252.3,135.6l-2.1,1.4c-0.5,0.3-1.4,0.4-1.9,0.1h0c-0.5-0.3-0.4-0.8,0.1-1.1l1-0.6"/>
			<path fill="#172F4C" d="M257.9,127.3h-8.4c-1.2,0-2.1-0.9-2.1-2.1v-5.3c0-1.5,1.2-2.8,2.8-2.8h3.5c2.3,0,4.2,1.9,4.2,4.2
				C257.9,124.2,257.9,127.3,257.9,127.3z"/>
			<path fill="#FF5A0F" d="M253.8,137.1c0.6,0.2,1.5,0.2,2,0c0.6-0.2,0.6-0.4,0-0.6c-0.6-0.2-1.5-0.2-2,0
				C253.2,136.7,253.2,136.9,253.8,137.1z"/>
			<path fill="#FF5A0F" d="M249.9,135.8c0.6,0.2,1.5,0.2,2,0s0.6-0.4,0-0.6c-0.6-0.2-1.5-0.2-2,0
				C249.4,135.3,249.4,135.6,249.9,135.8z"/>
			<path fill="#FF5A0F" d="M250.5,128.9c1.3,0.4,3.5,0.4,4.9,0s1.4-1,0-1.4c-1.3-0.4-3.5-0.4-4.9,0S249.2,128.5,250.5,128.9z"/>
			<path fill="#172F4C" d="M250.4,127.8c1.3,0.4,3.5,0.4,4.9,0c1.4-0.4,1.4-1,0-1.4c-1.3-0.4-3.5-0.4-4.9,0
				C249.1,126.8,249.1,127.4,250.4,127.8z"/>
			<path fill="#513E35" d="M255.8,129.6h0.1c1.1,0,2-0.9,2-2v-4.8h-2.1V129.6z"/>
			<path fill="#513E35" d="M249.4,128.3h0.1v-6.8h-2.1v4.8C247.4,127.4,248.3,128.3,249.4,128.3z"/>
			<path fill="#172F4C" d="M256,123c0.4,0.1,1.1,0.1,1.6,0c0.4-0.1,0.4-0.3,0-0.5c-0.4-0.1-1.1-0.1-1.6,0S255.5,122.9,256,123z"/>
			<path fill="#172F4C" d="M247.7,121.7c0.4,0.1,1.1,0.1,1.6,0c0.4-0.1,0.4-0.3,0-0.5c-0.4-0.1-1.1-0.1-1.6,0
				S247.3,121.6,247.7,121.7z"/>
			<path fill="#C9961A" d="M251.2,123.6c0-0.6,0.5-0.9,1-0.8c0.6,0.1,1,0.6,1,1.2c0,0.6-0.5,0.9-1,0.8S251.2,124.2,251.2,123.6z"/>
			<polyline fill="none" stroke="#C9961A" stroke-width="0.211" stroke-miterlimit="10" points="253.9,117.3 252.1,123.5 
				250.9,117.3 			"/>
			<path fill="#513E35" d="M252.2,118.3h0.2c1.2,0,2.2-1,2.2-2.2v-1.9c0-1.2-1-2.2-2.2-2.2h-0.2c-1.2,0-2.2,1-2.2,2.2v1.9
				C250,117.3,251,118.3,252.2,118.3z"/>
			<path fill="#FF5A0F" d="M252.1,116.3l2.4-1.4c0.7-0.4,0.6-1.1-0.2-1.5l0,0c-0.8-0.4-1.9-0.5-2.6-0.1l-2.4,1.4
				c-0.7,0.4-0.6,1.1,0.2,1.5l0,0C250.2,116.6,251.4,116.7,252.1,116.3z"/>
			
				<linearGradient id="SVGID_2_" gradientUnits="userSpaceOnUse" x1="5709.708" y1="116.5679" x2="5709.708" y2="113.0451" gradientTransform="matrix(-1 0 0 1 5961.5859 0)">
				<stop  offset="0" style="stop-color:#FFFFFF"/>
				<stop  offset="1" style="stop-color:#000000"/>
			</linearGradient>
			<path opacity="0.3" fill="url(#SVGID_2_)" d="M252.1,116.3l2.4-1.4c0.7-0.4,0.6-1.1-0.2-1.5l0,0c-0.8-0.4-1.9-0.5-2.6-0.1
				l-2.4,1.4c-0.7,0.4-0.6,1.1,0.2,1.5l0,0C250.2,116.6,251.4,116.7,252.1,116.3z"/>
			<path fill="#FF5A0F" d="M254.9,114.4c0-1.4-1.2-2.6-2.6-2.6l0,0c-1.4,0-2.6,1.2-2.6,2.6"/>
			<path fill="#FF5A0F" d="M250.6,114.9c1,0.3,2.6,0.3,3.6,0s1-0.8,0-1c-1-0.3-2.6-0.3-3.6,0S249.6,114.6,250.6,114.9z"/>
		</g>
		<rect x="232.9" y="106.8" fill="none" width="40" height="40"/>
	</g>
	<g>
		<g>
			<path opacity="0.15" fill="#1D3A57" d="M78.2,197.1c-3.3-1.9-3.3-5,0-7s8.8-1.9,12.1,0c3.3,1.9,3.3,5,0,7
				C86.9,199,81.5,199.1,78.2,197.1z"/>
			<rect x="84.7" y="183.8" fill="#FF5A0F" width="2.9" height="9.8"/>
			<rect x="80.9" y="183.8" fill="#FF5A0F" width="2.9" height="8.4"/>
			<rect x="80.9" y="183.8" fill="#FF5A0F" width="6.7" height="2"/>
			<path fill="#172F4C" d="M87.5,193.7l-2.1,1.4c-0.5,0.3-1.4,0.4-1.9,0.1l0,0c-0.5-0.3-0.4-0.8,0.1-1.1l1-0.6"/>
			<path fill="#172F4C" d="M83.7,192.4l-2.1,1.4c-0.5,0.3-1.4,0.4-1.9,0.1l0,0c-0.5-0.3-0.4-0.8,0.1-1.1l1-0.6"/>
			<path fill="#172F4C" d="M89.2,184.1h-8.4c-1.2,0-2.1-0.9-2.1-2.1v-5.3c0-1.5,1.2-2.8,2.8-2.8H85c2.3,0,4.2,1.9,4.2,4.2
				C89.2,181,89.2,184.1,89.2,184.1z"/>
			<path fill="#FF5A0F" d="M85.1,193.9c0.6,0.2,1.5,0.2,2,0c0.6-0.2,0.6-0.4,0-0.6c-0.6-0.2-1.5-0.2-2,0S84.6,193.7,85.1,193.9z"/>
			<path fill="#FF5A0F" d="M81.3,192.5c0.6,0.2,1.5,0.2,2,0c0.6-0.2,0.6-0.4,0-0.6c-0.6-0.2-1.5-0.2-2,0
				C80.7,192.1,80.7,192.4,81.3,192.5z"/>
			<path fill="#FF5A0F" d="M81.9,185.6c1.3,0.4,3.5,0.4,4.9,0c1.4-0.4,1.4-1,0-1.4c-1.3-0.4-3.5-0.4-4.9,0
				C80.5,184.6,80.5,185.2,81.9,185.6z"/>
			<path fill="#172F4C" d="M81.8,184.6c1.3,0.4,3.5,0.4,4.9,0c1.4-0.4,1.4-1,0-1.4c-1.3-0.4-3.5-0.4-4.9,0
				C80.4,183.5,80.4,184.2,81.8,184.6z"/>
			<path fill="#513E35" d="M87.1,186.3h0.1c1.1,0,2-0.9,2-2v-4.8h-2.1V186.3z"/>
			<path fill="#513E35" d="M80.8,185h0.1v-6.8h-2.1v4.8C78.7,184.1,79.6,185,80.8,185z"/>
			<path fill="#172F4C" d="M87.3,179.8c0.4,0.1,1.1,0.1,1.6,0c0.4-0.1,0.4-0.3,0-0.5c-0.4-0.1-1.1-0.1-1.6,0
				C86.9,179.5,86.9,179.7,87.3,179.8z"/>
			<path fill="#172F4C" d="M79.1,178.4c0.4,0.1,1.1,0.1,1.6,0c0.4-0.1,0.4-0.3,0-0.5c-0.4-0.1-1.1-0.1-1.6,0
				C78.6,178.1,78.6,178.3,79.1,178.4z"/>
			<path fill="#C9961A" d="M82.5,180.4c0-0.6,0.5-0.9,1-0.8c0.6,0.1,1,0.6,1,1.2c0,0.6-0.5,0.9-1,0.8
				C83,181.5,82.5,180.9,82.5,180.4z"/>
			<polyline fill="none" stroke="#C9961A" stroke-width="0.211" stroke-miterlimit="10" points="85.3,174 83.5,180.3 82.2,174 			
				"/>
			<path fill="#513E35" d="M83.6,175h0.2c1.2,0,2.2-1,2.2-2.2v-1.9c0-1.2-1-2.2-2.2-2.2h-0.2c-1.2,0-2.2,1-2.2,2.2v1.9
				C81.4,174,82.4,175,83.6,175z"/>
			<path fill="#FF5A0F" d="M83.4,173.1l2.4-1.4c0.7-0.4,0.6-1.1-0.2-1.5l0,0c-0.8-0.4-1.9-0.5-2.6-0.1l-2.4,1.4
				c-0.7,0.4-0.6,1.1,0.2,1.5l0,0C81.6,173.4,82.8,173.5,83.4,173.1z"/>
			
				<linearGradient id="SVGID_3_" gradientUnits="userSpaceOnUse" x1="5878.3535" y1="173.3253" x2="5878.3535" y2="169.8026" gradientTransform="matrix(-1 0 0 1 5961.5859 0)">
				<stop  offset="0" style="stop-color:#FFFFFF"/>
				<stop  offset="1" style="stop-color:#000000"/>
			</linearGradient>
			<path opacity="0.3" fill="url(#SVGID_3_)" d="M83.4,173.1l2.4-1.4c0.7-0.4,0.6-1.1-0.2-1.5l0,0c-0.8-0.4-1.9-0.5-2.6-0.1
				l-2.4,1.4c-0.7,0.4-0.6,1.1,0.2,1.5l0,0C81.6,173.4,82.8,173.5,83.4,173.1z"/>
			<path fill="#FF5A0F" d="M86.3,171.1c0-1.4-1.2-2.6-2.6-2.6h0c-1.4,0-2.6,1.2-2.6,2.6"/>
			<path fill="#FF5A0F" d="M81.9,171.7c1,0.3,2.6,0.3,3.6,0c1-0.3,1-0.8,0-1s-2.6-0.3-3.6,0C80.9,170.9,80.9,171.4,81.9,171.7z"/>
		</g>
		<rect x="64.2" y="163.6" fill="none" width="40" height="40"/>
	</g>
	<g>
		<g>
			<path opacity="0.15" fill="#1D3A57" d="M223.7,166c-3.3-1.9-3.3-5,0-7c3.3-1.9,8.8-1.9,12.1,0c3.3,1.9,3.3,5,0,7
				C232.4,167.9,227,167.9,223.7,166z"/>
			<rect x="230.2" y="152.6" fill="#FF5A0F" width="2.9" height="9.8"/>
			<rect x="226.4" y="152.6" fill="#FF5A0F" width="2.9" height="8.4"/>
			<rect x="226.4" y="152.6" fill="#FF5A0F" width="6.7" height="2"/>
			<path fill="#172F4C" d="M233,162.5l-2.1,1.4c-0.5,0.3-1.4,0.4-1.9,0.1l0,0c-0.5-0.3-0.4-0.8,0.1-1.1l1-0.6"/>
			<path fill="#172F4C" d="M229.2,161.2l-2.1,1.4c-0.5,0.3-1.4,0.4-1.9,0.1h0c-0.5-0.3-0.4-0.8,0.1-1.1l1-0.6"/>
			<path fill="#172F4C" d="M234.7,152.9h-8.4c-1.2,0-2.1-0.9-2.1-2.1v-5.3c0-1.5,1.2-2.8,2.8-2.8h3.5c2.3,0,4.2,1.9,4.2,4.2
				C234.7,149.8,234.7,152.9,234.7,152.9z"/>
			<path fill="#FF5A0F" d="M230.6,162.7c0.6,0.2,1.5,0.2,2,0c0.6-0.2,0.6-0.4,0-0.6c-0.6-0.2-1.5-0.2-2,0
				C230.1,162.3,230.1,162.5,230.6,162.7z"/>
			<path fill="#FF5A0F" d="M226.8,161.3c0.6,0.2,1.5,0.2,2,0s0.6-0.4,0-0.6c-0.6-0.2-1.5-0.2-2,0
				C226.2,160.9,226.2,161.2,226.8,161.3z"/>
			<path fill="#FF5A0F" d="M227.4,154.4c1.3,0.4,3.5,0.4,4.9,0s1.4-1,0-1.4c-1.3-0.4-3.5-0.4-4.9,0S226,154,227.4,154.4z"/>
			<path fill="#172F4C" d="M227.3,153.4c1.3,0.4,3.5,0.4,4.9,0c1.4-0.4,1.4-1,0-1.4c-1.3-0.4-3.5-0.4-4.9,0
				C225.9,152.4,225.9,153,227.3,153.4z"/>
			<path fill="#513E35" d="M232.6,155.2h0.1c1.1,0,2-0.9,2-2v-4.8h-2.1V155.2z"/>
			<path fill="#513E35" d="M226.2,153.8h0.1V147h-2.1v4.8C224.2,152.9,225.1,153.8,226.2,153.8z"/>
			<path fill="#172F4C" d="M232.8,148.6c0.4,0.1,1.1,0.1,1.6,0c0.4-0.1,0.4-0.3,0-0.5c-0.4-0.1-1.1-0.1-1.6,0
				C232.4,148.3,232.4,148.5,232.8,148.6z"/>
			<path fill="#172F4C" d="M224.6,147.3c0.4,0.1,1.1,0.1,1.6,0c0.4-0.1,0.4-0.3,0-0.5c-0.4-0.1-1.1-0.1-1.6,0
				S224.1,147.1,224.6,147.3z"/>
			<path fill="#C9961A" d="M228,149.2c0-0.6,0.5-0.9,1-0.8c0.6,0.1,1,0.6,1,1.2c0,0.6-0.5,0.9-1,0.8S228,149.7,228,149.2z"/>
			<polyline fill="none" stroke="#C9961A" stroke-width="0.211" stroke-miterlimit="10" points="230.8,142.8 229,149.1 227.7,142.8 
							"/>
			<path fill="#513E35" d="M229.1,143.9h0.2c1.2,0,2.2-1,2.2-2.2v-1.9c0-1.2-1-2.2-2.2-2.2h-0.2c-1.2,0-2.2,1-2.2,2.2v1.9
				C226.9,142.9,227.9,143.9,229.1,143.9z"/>
			<path fill="#FF5A0F" d="M228.9,141.9l2.4-1.4c0.7-0.4,0.6-1.1-0.2-1.5l0,0c-0.8-0.4-1.9-0.5-2.6-0.1l-2.4,1.4
				c-0.7,0.4-0.6,1.1,0.2,1.5l0,0C227.1,142.2,228.3,142.3,228.9,141.9z"/>
			
				<linearGradient id="SVGID_4_" gradientUnits="userSpaceOnUse" x1="5732.856" y1="142.1442" x2="5732.856" y2="138.6214" gradientTransform="matrix(-1 0 0 1 5961.5859 0)">
				<stop  offset="0" style="stop-color:#FFFFFF"/>
				<stop  offset="1" style="stop-color:#000000"/>
			</linearGradient>
			<path opacity="0.3" fill="url(#SVGID_4_)" d="M228.9,141.9l2.4-1.4c0.7-0.4,0.6-1.1-0.2-1.5l0,0c-0.8-0.4-1.9-0.5-2.6-0.1
				l-2.4,1.4c-0.7,0.4-0.6,1.1,0.2,1.5l0,0C227.1,142.2,228.3,142.3,228.9,141.9z"/>
			<path fill="#FF5A0F" d="M231.8,139.9c0-1.4-1.2-2.6-2.6-2.6l0,0c-1.4,0-2.6,1.2-2.6,2.6"/>
			<path fill="#FF5A0F" d="M227.4,140.5c1,0.3,2.6,0.3,3.6,0s1-0.8,0-1s-2.6-0.3-3.6,0S226.4,140.2,227.4,140.5z"/>
		</g>
		<rect x="209.7" y="132.4" fill="none" width="40" height="40"/>
	</g>
	<g>
		<g>
			<path opacity="0.15" fill="#1D3A57" d="M98.2,47.2c-3.3-1.9-3.3-5,0-7c3.3-1.9,8.8-1.9,12.1,0s3.3,5,0,7
				C106.9,49.1,101.5,49.1,98.2,47.2z"/>
			<rect x="104.7" y="33.8" fill="#FF5A0F" width="2.9" height="9.8"/>
			<rect x="100.9" y="33.8" fill="#FF5A0F" width="2.9" height="8.4"/>
			<rect x="100.9" y="33.8" fill="#FF5A0F" width="6.7" height="2"/>
			<path fill="#172F4C" d="M107.5,43.7l-2.1,1.4c-0.5,0.3-1.4,0.4-1.9,0.1l0,0c-0.5-0.3-0.4-0.8,0.1-1.1l1-0.6"/>
			<path fill="#172F4C" d="M103.7,42.4l-2.1,1.4c-0.5,0.3-1.4,0.4-1.9,0.1v0c-0.5-0.3-0.4-0.8,0.1-1.1l1-0.6"/>
			<path fill="#172F4C" d="M109.2,34.1h-8.4c-1.2,0-2.1-0.9-2.1-2.1v-5.3c0-1.5,1.2-2.8,2.8-2.8h3.5c2.3,0,4.2,1.9,4.2,4.2
				C109.2,31,109.2,34.1,109.2,34.1z"/>
			<path fill="#FF5A0F" d="M105.1,43.9c0.6,0.2,1.5,0.2,2,0c0.6-0.2,0.6-0.4,0-0.6c-0.6-0.2-1.5-0.2-2,0
				C104.6,43.5,104.6,43.7,105.1,43.9z"/>
			<path fill="#FF5A0F" d="M101.3,42.5c0.6,0.2,1.5,0.2,2,0c0.6-0.2,0.6-0.4,0-0.6c-0.6-0.2-1.5-0.2-2,0
				C100.7,42.1,100.7,42.4,101.3,42.5z"/>
			<path fill="#FF5A0F" d="M101.9,35.6c1.3,0.4,3.5,0.4,4.9,0c1.4-0.4,1.4-1,0-1.4c-1.3-0.4-3.5-0.4-4.9,0
				C100.5,34.6,100.5,35.2,101.9,35.6z"/>
			<path fill="#172F4C" d="M101.8,34.6c1.3,0.4,3.5,0.4,4.9,0c1.4-0.4,1.4-1,0-1.4c-1.3-0.4-3.5-0.4-4.9,0
				C100.4,33.6,100.4,34.2,101.8,34.6z"/>
			<path fill="#513E35" d="M107.1,36.4h0.1c1.1,0,2-0.9,2-2l0-4.8h-2.1V36.4z"/>
			<path fill="#513E35" d="M100.8,35h0.1v-6.8h-2.1V33C98.7,34.1,99.6,35,100.8,35z"/>
			<path fill="#172F4C" d="M107.3,29.8c0.4,0.1,1.1,0.1,1.6,0s0.4-0.3,0-0.5s-1.1-0.1-1.6,0C106.9,29.5,106.9,29.7,107.3,29.8z"/>
			<path fill="#172F4C" d="M99.1,28.5c0.4,0.1,1.1,0.1,1.6,0c0.4-0.1,0.4-0.3,0-0.5s-1.1-0.1-1.6,0S98.6,28.3,99.1,28.5z"/>
			<path fill="#C9961A" d="M102.5,30.4c0-0.6,0.5-0.9,1-0.8c0.6,0.1,1,0.6,1,1.2c0,0.6-0.5,0.9-1,0.8
				C103,31.5,102.5,30.9,102.5,30.4z"/>
			<polyline fill="none" stroke="#C9961A" stroke-width="0.211" stroke-miterlimit="10" points="105.3,24 103.5,30.3 102.2,24 			
				"/>
			<path fill="#513E35" d="M103.6,25.1h0.2c1.2,0,2.2-1,2.2-2.2v-1.9c0-1.2-1-2.2-2.2-2.2h-0.2c-1.2,0-2.2,1-2.2,2.2v1.9
				C101.4,24.1,102.4,25.1,103.6,25.1z"/>
			<path fill="#FF5A0F" d="M103.4,23.1l2.4-1.4c0.7-0.4,0.6-1.1-0.2-1.5l0,0c-0.8-0.4-1.9-0.5-2.6-0.1l-2.4,1.4
				c-0.7,0.4-0.6,1.1,0.2,1.5l0,0C101.6,23.4,102.8,23.5,103.4,23.1z"/>
			
				<linearGradient id="SVGID_5_" gradientUnits="userSpaceOnUse" x1="5858.3535" y1="23.3478" x2="5858.3535" y2="19.825" gradientTransform="matrix(-1 0 0 1 5961.5859 0)">
				<stop  offset="0" style="stop-color:#FFFFFF"/>
				<stop  offset="1" style="stop-color:#000000"/>
			</linearGradient>
			<path opacity="0.3" fill="url(#SVGID_5_)" d="M103.4,23.1l2.4-1.4c0.7-0.4,0.6-1.1-0.2-1.5l0,0c-0.8-0.4-1.9-0.5-2.6-0.1
				l-2.4,1.4c-0.7,0.4-0.6,1.1,0.2,1.5l0,0C101.6,23.4,102.8,23.5,103.4,23.1z"/>
			<path fill="#FF5A0F" d="M106.3,21.2c0-1.4-1.2-2.6-2.6-2.6h0c-1.4,0-2.6,1.2-2.6,2.6"/>
			<path fill="#FF5A0F" d="M101.9,21.7c1,0.3,2.6,0.3,3.6,0c1-0.3,1-0.8,0-1c-1-0.3-2.6-0.3-3.6,0C100.9,20.9,100.9,21.4,101.9,21.7
				z"/>
		</g>
		<rect x="84.2" y="13.6" fill="none" width="40" height="40"/>
	</g>
	<g>
		<g>
			<path opacity="0.15" fill="#1D3A57" d="M66.9,106.5c-3.3-1.9-3.3-5,0-7c3.3-1.9,8.8-1.9,12.1,0s3.3,5,0,7
				C75.7,108.4,70.3,108.4,66.9,106.5z"/>
			<rect x="73.5" y="93.1" fill="#FF5A0F" width="2.9" height="9.8"/>
			<rect x="69.6" y="93.1" fill="#FF5A0F" width="2.9" height="8.4"/>
			<rect x="69.6" y="93.1" fill="#FF5A0F" width="6.7" height="2"/>
			<path fill="#172F4C" d="M76.3,103l-2.1,1.4c-0.5,0.3-1.4,0.4-1.9,0.1l0,0c-0.5-0.3-0.4-0.8,0.1-1.1l1-0.6"/>
			<path fill="#172F4C" d="M72.5,101.7l-2.1,1.4c-0.5,0.3-1.4,0.4-1.9,0.1l0,0c-0.5-0.3-0.4-0.8,0.1-1.1l1-0.6"/>
			<path fill="#172F4C" d="M78,93.4h-8.4c-1.2,0-2.1-0.9-2.1-2.1V86c0-1.5,1.2-2.8,2.8-2.8h3.5c2.3,0,4.2,1.9,4.2,4.2
				C78,90.3,78,93.4,78,93.4z"/>
			<path fill="#FF5A0F" d="M73.9,103.2c0.6,0.2,1.5,0.2,2,0c0.6-0.2,0.6-0.4,0-0.6c-0.6-0.2-1.5-0.2-2,0
				C73.3,102.8,73.3,103,73.9,103.2z"/>
			<path fill="#FF5A0F" d="M70.1,101.9c0.6,0.2,1.5,0.2,2,0c0.6-0.2,0.6-0.4,0-0.6s-1.5-0.2-2,0C69.5,101.4,69.5,101.7,70.1,101.9z"
				/>
			<path fill="#FF5A0F" d="M70.6,94.9c1.3,0.4,3.5,0.4,4.9,0c1.4-0.4,1.4-1,0-1.4c-1.3-0.4-3.5-0.4-4.9,0
				C69.3,93.9,69.3,94.6,70.6,94.9z"/>
			<path fill="#172F4C" d="M70.5,93.9c1.3,0.4,3.5,0.4,4.9,0c1.4-0.4,1.4-1,0-1.4c-1.3-0.4-3.5-0.4-4.9,0
				C69.2,92.9,69.2,93.5,70.5,93.9z"/>
			<path fill="#513E35" d="M75.9,95.7H76c1.1,0,2-0.9,2-2l0-4.8h-2.1V95.7z"/>
			<path fill="#513E35" d="M69.5,94.3h0.1v-6.8h-2.1v4.8C67.5,93.4,68.4,94.3,69.5,94.3z"/>
			<path fill="#172F4C" d="M76.1,89.1c0.4,0.1,1.1,0.1,1.6,0c0.4-0.1,0.4-0.3,0-0.5c-0.4-0.1-1.1-0.1-1.6,0
				C75.7,88.8,75.7,89,76.1,89.1z"/>
			<path fill="#172F4C" d="M67.8,87.8c0.4,0.1,1.1,0.1,1.6,0c0.4-0.1,0.4-0.3,0-0.5c-0.4-0.1-1.1-0.1-1.6,0S67.4,87.6,67.8,87.8z"/>
			<path fill="#C9961A" d="M71.3,89.7c0-0.6,0.5-0.9,1-0.8c0.6,0.1,1,0.6,1,1.2c0,0.6-0.5,0.9-1,0.8C71.7,90.8,71.3,90.3,71.3,89.7z
				"/>
			<polyline fill="none" stroke="#C9961A" stroke-width="0.211" stroke-miterlimit="10" points="74,83.4 72.3,89.6 71,83.4 			"/>
			<path fill="#513E35" d="M72.4,84.4h0.2c1.2,0,2.2-1,2.2-2.2v-1.9c0-1.2-1-2.2-2.2-2.2h-0.2c-1.2,0-2.2,1-2.2,2.2v1.9
				C70.1,83.4,71.1,84.4,72.4,84.4z"/>
			<path fill="#FF5A0F" d="M72.2,82.4l2.4-1.4c0.7-0.4,0.6-1.1-0.2-1.5h0c-0.8-0.4-1.9-0.5-2.6-0.1l-2.4,1.4
				c-0.7,0.4-0.6,1.1,0.2,1.5l0,0C70.3,82.7,71.5,82.8,72.2,82.4z"/>
			
				<linearGradient id="SVGID_6_" gradientUnits="userSpaceOnUse" x1="5889.5938" y1="82.6638" x2="5889.5938" y2="79.1411" gradientTransform="matrix(-1 0 0 1 5961.5859 0)">
				<stop  offset="0" style="stop-color:#FFFFFF"/>
				<stop  offset="1" style="stop-color:#000000"/>
			</linearGradient>
			<path opacity="0.3" fill="url(#SVGID_6_)" d="M72.2,82.4l2.4-1.4c0.7-0.4,0.6-1.1-0.2-1.5h0c-0.8-0.4-1.9-0.5-2.6-0.1l-2.4,1.4
				c-0.7,0.4-0.6,1.1,0.2,1.5l0,0C70.3,82.7,71.5,82.8,72.2,82.4z"/>
			<path fill="#FF5A0F" d="M75,80.5c0-1.4-1.2-2.6-2.6-2.6h0c-1.4,0-2.6,1.2-2.6,2.6"/>
			<path fill="#FF5A0F" d="M70.7,81c1,0.3,2.6,0.3,3.6,0s1-0.8,0-1c-1-0.3-2.6-0.3-3.6,0S69.7,80.7,70.7,81z"/>
		</g>
		<rect x="53" y="72.9" fill="none" width="40" height="40"/>
	</g>
	<g>
		<g>
			<path opacity="0.15" fill="#1D3A57" d="M306,144.5c-3.3-1.9-3.3-5,0-7c3.3-1.9,8.8-1.9,12.1,0c3.3,1.9,3.3,5,0,7
				S309.3,146.4,306,144.5z"/>
			<rect x="312.5" y="131.2" fill="#FF5A0F" width="2.9" height="9.8"/>
			<rect x="308.7" y="131.2" fill="#FF5A0F" width="2.9" height="8.4"/>
			<rect x="308.7" y="131.2" fill="#FF5A0F" width="6.7" height="2"/>
			<path fill="#172F4C" d="M315.3,141.1l-2.1,1.4c-0.5,0.3-1.4,0.4-1.9,0.1l0,0c-0.5-0.3-0.4-0.8,0.1-1.1l1-0.6"/>
			<path fill="#172F4C" d="M311.5,139.7l-2.1,1.4c-0.5,0.3-1.4,0.4-1.9,0.1l0,0c-0.5-0.3-0.4-0.8,0.1-1.1l1-0.6"/>
			<path fill="#172F4C" d="M317,131.5h-8.4c-1.2,0-2.1-0.9-2.1-2.1v-5.3c0-1.5,1.2-2.8,2.8-2.8h3.5c2.3,0,4.2,1.9,4.2,4.2
				C317,128.3,317,131.5,317,131.5z"/>
			<path fill="#FF5A0F" d="M313,141.2c0.6,0.2,1.5,0.2,2,0c0.6-0.2,0.6-0.4,0-0.6s-1.5-0.2-2,0C312.4,140.8,312.4,141.1,313,141.2z"
				/>
			<path fill="#FF5A0F" d="M309.1,139.9c0.6,0.2,1.5,0.2,2,0c0.6-0.2,0.6-0.4,0-0.6c-0.6-0.2-1.5-0.2-2,0
				C308.5,139.5,308.5,139.7,309.1,139.9z"/>
			<path fill="#FF5A0F" d="M309.7,133c1.3,0.4,3.5,0.4,4.9,0s1.4-1,0-1.4c-1.3-0.4-3.5-0.4-4.9,0C308.4,132,308.3,132.6,309.7,133z"
				/>
			<path fill="#172F4C" d="M309.6,131.9c1.3,0.4,3.5,0.4,4.9,0c1.4-0.4,1.4-1,0-1.4c-1.3-0.4-3.5-0.4-4.9,0
				C308.2,130.9,308.2,131.6,309.6,131.9z"/>
			<path fill="#513E35" d="M314.9,133.7h0.1c1.1,0,2-0.9,2-2v-4.8h-2.1V133.7z"/>
			<path fill="#513E35" d="M308.6,132.4h0.1v-6.8h-2.1v4.8C306.6,131.5,307.5,132.4,308.6,132.4z"/>
			<path fill="#172F4C" d="M315.1,127.2c0.4,0.1,1.1,0.1,1.6,0c0.4-0.1,0.4-0.3,0-0.5c-0.4-0.1-1.1-0.1-1.6,0
				C314.7,126.8,314.7,127,315.1,127.2z"/>
			<path fill="#172F4C" d="M306.9,125.8c0.4,0.1,1.1,0.1,1.6,0c0.4-0.1,0.4-0.3,0-0.5c-0.4-0.1-1.1-0.1-1.6,0
				C306.4,125.5,306.4,125.7,306.9,125.8z"/>
			<path fill="#C9961A" d="M310.3,127.7c0-0.6,0.5-0.9,1-0.8s1,0.6,1,1.2c0,0.6-0.5,0.9-1,0.8C310.8,128.9,310.3,128.3,310.3,127.7z
				"/>
			<polyline fill="none" stroke="#C9961A" stroke-width="0.211" stroke-miterlimit="10" points="313.1,121.4 311.3,127.6 310,121.4 
							"/>
			<path fill="#513E35" d="M311.4,122.4h0.2c1.2,0,2.2-1,2.2-2.2v-1.9c0-1.2-1-2.2-2.2-2.2h-0.2c-1.2,0-2.2,1-2.2,2.2v1.9
				C309.2,121.4,310.2,122.4,311.4,122.4z"/>
			<path fill="#FF5A0F" d="M311.2,120.5l2.4-1.4c0.7-0.4,0.6-1.1-0.2-1.5l0,0c-0.8-0.4-1.9-0.5-2.6-0.1l-2.4,1.4
				c-0.7,0.4-0.6,1.1,0.2,1.5l0,0C309.4,120.8,310.6,120.8,311.2,120.5z"/>
			
				<linearGradient id="SVGID_7_" gradientUnits="userSpaceOnUse" x1="5650.5464" y1="120.7161" x2="5650.5464" y2="117.1933" gradientTransform="matrix(-1 0 0 1 5961.5859 0)">
				<stop  offset="0" style="stop-color:#FFFFFF"/>
				<stop  offset="1" style="stop-color:#000000"/>
			</linearGradient>
			<path opacity="0.3" fill="url(#SVGID_7_)" d="M311.2,120.5l2.4-1.4c0.7-0.4,0.6-1.1-0.2-1.5l0,0c-0.8-0.4-1.9-0.5-2.6-0.1
				l-2.4,1.4c-0.7,0.4-0.6,1.1,0.2,1.5l0,0C309.4,120.8,310.6,120.8,311.2,120.5z"/>
			<path fill="#FF5A0F" d="M314.1,118.5c0-1.4-1.2-2.6-2.6-2.6l0,0c-1.4,0-2.6,1.2-2.6,2.6"/>
			<path fill="#FF5A0F" d="M309.7,119c1,0.3,2.6,0.3,3.6,0c1-0.3,1-0.8,0-1c-1-0.3-2.6-0.3-3.6,0C308.7,118.3,308.7,118.8,309.7,119
				z"/>
		</g>
		<rect x="292.1" y="111" fill="none" width="40" height="40"/>
	</g>
	<g>
		<g>
			<path opacity="0.15" fill="#1D3A57" d="M326,162.4c-3.3-1.9-3.3-5,0-7c3.3-1.9,8.8-1.9,12.1,0c3.3,1.9,3.3,5,0,7
				C334.7,164.3,329.3,164.3,326,162.4z"/>
			<rect x="332.5" y="149" fill="#FF5A0F" width="2.9" height="9.8"/>
			<rect x="328.7" y="149" fill="#FF5A0F" width="2.9" height="8.4"/>
			<rect x="328.7" y="149" fill="#FF5A0F" width="6.7" height="2"/>
			<path fill="#172F4C" d="M335.3,159l-2.1,1.4c-0.5,0.3-1.4,0.4-1.9,0.1l0,0c-0.5-0.3-0.4-0.8,0.1-1.1l1-0.6"/>
			<path fill="#172F4C" d="M331.5,157.6l-2.1,1.4c-0.5,0.3-1.4,0.4-1.9,0.1l0,0c-0.5-0.3-0.4-0.8,0.1-1.1l1-0.6"/>
			<path fill="#172F4C" d="M337,149.4h-8.4c-1.2,0-2.1-0.9-2.1-2.1v-5.3c0-1.5,1.2-2.8,2.8-2.8h3.5c2.3,0,4.2,1.9,4.2,4.2
				C337,146.2,337,149.4,337,149.4z"/>
			<path fill="#FF5A0F" d="M333,159.1c0.6,0.2,1.5,0.2,2,0c0.6-0.2,0.6-0.4,0-0.6s-1.5-0.2-2,0S332.4,158.9,333,159.1z"/>
			<path fill="#FF5A0F" d="M329.1,157.8c0.6,0.2,1.5,0.2,2,0c0.6-0.2,0.6-0.4,0-0.6c-0.6-0.2-1.5-0.2-2,0
				C328.5,157.3,328.5,157.6,329.1,157.8z"/>
			<path fill="#FF5A0F" d="M329.7,150.9c1.3,0.4,3.5,0.4,4.9,0s1.4-1,0-1.4c-1.3-0.4-3.5-0.4-4.9,0
				C328.4,149.8,328.3,150.5,329.7,150.9z"/>
			<path fill="#172F4C" d="M329.6,149.8c1.3,0.4,3.5,0.4,4.9,0c1.4-0.4,1.4-1,0-1.4c-1.3-0.4-3.5-0.4-4.9,0
				C328.2,148.8,328.2,149.4,329.6,149.8z"/>
			<path fill="#513E35" d="M334.9,151.6h0.1c1.1,0,2-0.9,2-2v-4.8h-2.1V151.6z"/>
			<path fill="#513E35" d="M328.6,150.3h0.1v-6.8h-2.1v4.8C326.6,149.4,327.5,150.3,328.6,150.3z"/>
			<path fill="#172F4C" d="M335.1,145c0.4,0.1,1.1,0.1,1.6,0c0.4-0.1,0.4-0.3,0-0.5c-0.4-0.1-1.1-0.1-1.6,0
				C334.7,144.7,334.7,144.9,335.1,145z"/>
			<path fill="#172F4C" d="M326.9,143.7c0.4,0.1,1.1,0.1,1.6,0c0.4-0.1,0.4-0.3,0-0.5c-0.4-0.1-1.1-0.1-1.6,0
				C326.4,143.4,326.4,143.6,326.9,143.7z"/>
			<path fill="#C9961A" d="M330.3,145.6c0-0.6,0.5-0.9,1-0.8s1,0.6,1,1.2c0,0.6-0.5,0.9-1,0.8C330.8,146.7,330.3,146.2,330.3,145.6z
				"/>
			<polyline fill="none" stroke="#C9961A" stroke-width="0.211" stroke-miterlimit="10" points="333.1,139.3 331.3,145.5 330,139.3 
							"/>
			<path fill="#513E35" d="M331.4,140.3h0.2c1.2,0,2.2-1,2.2-2.2v-1.9c0-1.2-1-2.2-2.2-2.2h-0.2c-1.2,0-2.2,1-2.2,2.2v1.9
				C329.2,139.3,330.2,140.3,331.4,140.3z"/>
			<path fill="#FF5A0F" d="M331.2,138.3l2.4-1.4c0.7-0.4,0.6-1.1-0.2-1.5l0,0c-0.8-0.4-1.9-0.5-2.6-0.1l-2.4,1.4
				c-0.7,0.4-0.6,1.1,0.2,1.5l0,0C329.4,138.6,330.6,138.7,331.2,138.3z"/>
			
				<linearGradient id="SVGID_8_" gradientUnits="userSpaceOnUse" x1="5630.5464" y1="138.5705" x2="5630.5464" y2="135.0477" gradientTransform="matrix(-1 0 0 1 5961.5859 0)">
				<stop  offset="0" style="stop-color:#FFFFFF"/>
				<stop  offset="1" style="stop-color:#000000"/>
			</linearGradient>
			<path opacity="0.3" fill="url(#SVGID_8_)" d="M331.2,138.3l2.4-1.4c0.7-0.4,0.6-1.1-0.2-1.5l0,0c-0.8-0.4-1.9-0.5-2.6-0.1
				l-2.4,1.4c-0.7,0.4-0.6,1.1,0.2,1.5l0,0C329.4,138.6,330.6,138.7,331.2,138.3z"/>
			<path fill="#FF5A0F" d="M334.1,136.4c0-1.4-1.2-2.6-2.6-2.6l0,0c-1.4,0-2.6,1.2-2.6,2.6"/>
			<path fill="#FF5A0F" d="M329.7,136.9c1,0.3,2.6,0.3,3.6,0c1-0.3,1-0.8,0-1c-1-0.3-2.6-0.3-3.6,0
				C328.7,136.1,328.7,136.6,329.7,136.9z"/>
		</g>
		<rect x="312.1" y="128.8" fill="none" width="40" height="40"/>
	</g>
	<g>
		<g>
			<path opacity="0.15" fill="#1D3A57" d="M17.9,77.2c-3.3-1.9-3.3-5,0-7c3.3-1.9,8.8-1.9,12.1,0s3.3,5,0,7
				C26.6,79.1,21.2,79.1,17.9,77.2z"/>
			<rect x="24.4" y="63.8" fill="#FF5A0F" width="2.9" height="9.8"/>
			<rect x="20.6" y="63.8" fill="#FF5A0F" width="2.9" height="8.4"/>
			<rect x="20.6" y="63.8" fill="#FF5A0F" width="6.7" height="2"/>
			<path fill="#172F4C" d="M27.2,73.7l-2.1,1.4c-0.5,0.3-1.4,0.4-1.9,0.1h0c-0.5-0.3-0.4-0.8,0.1-1.1l1-0.6"/>
			<path fill="#172F4C" d="M23.4,72.4l-2.1,1.4c-0.5,0.3-1.4,0.4-1.9,0.1h0c-0.5-0.3-0.4-0.8,0.1-1.1l1-0.6"/>
			<path fill="#172F4C" d="M28.9,64.1h-8.4c-1.2,0-2.1-0.9-2.1-2.1v-5.3c0-1.5,1.2-2.8,2.8-2.8h3.5c2.3,0,4.2,1.9,4.2,4.2
				C28.9,61,28.9,64.1,28.9,64.1z"/>
			<path fill="#FF5A0F" d="M24.8,73.9c0.6,0.2,1.5,0.2,2,0c0.6-0.2,0.6-0.4,0-0.6c-0.6-0.2-1.5-0.2-2,0
				C24.3,73.5,24.3,73.7,24.8,73.9z"/>
			<path fill="#FF5A0F" d="M21,72.5c0.6,0.2,1.5,0.2,2,0c0.6-0.2,0.6-0.4,0-0.6c-0.6-0.2-1.5-0.2-2,0C20.4,72.1,20.4,72.4,21,72.5z"
				/>
			<path fill="#FF5A0F" d="M21.6,65.6c1.3,0.4,3.5,0.4,4.9,0c1.4-0.4,1.4-1,0-1.4c-1.3-0.4-3.5-0.4-4.9,0S20.2,65.2,21.6,65.6z"/>
			<path fill="#172F4C" d="M21.5,64.6c1.3,0.4,3.5,0.4,4.9,0s1.4-1,0-1.4c-1.3-0.4-3.5-0.4-4.9,0S20.1,64.2,21.5,64.6z"/>
			<path fill="#513E35" d="M26.8,66.4h0.1c1.1,0,2-0.9,2-2v-4.8h-2.1V66.4z"/>
			<path fill="#513E35" d="M20.5,65h0.1v-6.8h-2.1V63C18.5,64.1,19.4,65,20.5,65z"/>
			<path fill="#172F4C" d="M27,59.8c0.4,0.1,1.1,0.1,1.6,0c0.4-0.1,0.4-0.3,0-0.5c-0.4-0.1-1.1-0.1-1.6,0
				C26.6,59.5,26.6,59.7,27,59.8z"/>
			<path fill="#172F4C" d="M18.8,58.5c0.4,0.1,1.1,0.1,1.6,0s0.4-0.3,0-0.5c-0.4-0.1-1.1-0.1-1.6,0C18.3,58.1,18.3,58.3,18.8,58.5z"
				/>
			<path fill="#C9961A" d="M22.2,60.4c0-0.6,0.5-0.9,1-0.8c0.6,0.1,1,0.6,1,1.2c0,0.6-0.5,0.9-1,0.8C22.7,61.5,22.2,60.9,22.2,60.4z
				"/>
			<polyline fill="none" stroke="#C9961A" stroke-width="0.211" stroke-miterlimit="10" points="25,54 23.2,60.3 21.9,54 			"/>
			<path fill="#513E35" d="M23.3,55.1h0.2c1.2,0,2.2-1,2.2-2.2v-1.9c0-1.2-1-2.2-2.2-2.2h-0.2c-1.2,0-2.2,1-2.2,2.2v1.9
				C21.1,54.1,22.1,55.1,23.3,55.1z"/>
			<path fill="#FF5A0F" d="M23.1,53.1l2.4-1.4c0.7-0.4,0.6-1.1-0.2-1.5l0,0c-0.8-0.4-1.9-0.5-2.6-0.1l-2.4,1.4
				c-0.7,0.4-0.6,1.1,0.2,1.5l0,0C21.3,53.4,22.5,53.5,23.1,53.1z"/>
			
				<linearGradient id="SVGID_9_" gradientUnits="userSpaceOnUse" x1="5938.647" y1="53.3478" x2="5938.647" y2="49.825" gradientTransform="matrix(-1 0 0 1 5961.5859 0)">
				<stop  offset="0" style="stop-color:#FFFFFF"/>
				<stop  offset="1" style="stop-color:#000000"/>
			</linearGradient>
			<path opacity="0.3" fill="url(#SVGID_9_)" d="M23.1,53.1l2.4-1.4c0.7-0.4,0.6-1.1-0.2-1.5l0,0c-0.8-0.4-1.9-0.5-2.6-0.1l-2.4,1.4
				c-0.7,0.4-0.6,1.1,0.2,1.5l0,0C21.3,53.4,22.5,53.5,23.1,53.1z"/>
			<path fill="#FF5A0F" d="M26,51.2c0-1.4-1.2-2.6-2.6-2.6h0c-1.4,0-2.6,1.2-2.6,2.6"/>
			<path fill="#FF5A0F" d="M21.6,51.7c1,0.3,2.6,0.3,3.6,0c1-0.3,1-0.8,0-1c-1-0.3-2.6-0.3-3.6,0C20.6,50.9,20.6,51.4,21.6,51.7z"/>
		</g>
		<rect x="3.9" y="43.6" fill="none" width="40" height="40"/>
	</g>
	<g>
		<g>
			<path opacity="0.15" fill="#1D3A57" d="M275.4,201.7c-3.3-1.9-3.3-5,0-7s8.8-1.9,12.1,0c3.3,1.9,3.3,5,0,7
				C284.1,203.6,278.7,203.6,275.4,201.7z"/>
			<rect x="281.9" y="188.3" fill="#FF5A0F" width="2.9" height="9.8"/>
			<rect x="278.1" y="188.3" fill="#FF5A0F" width="2.9" height="8.4"/>
			<rect x="278.1" y="188.3" fill="#FF5A0F" width="6.7" height="2"/>
			<path fill="#172F4C" d="M284.7,198.2l-2.1,1.4c-0.5,0.3-1.4,0.4-1.9,0.1l0,0c-0.5-0.3-0.4-0.8,0.1-1.1l1-0.6"/>
			<path fill="#172F4C" d="M280.9,196.9l-2.1,1.4c-0.5,0.3-1.4,0.4-1.9,0.1l0,0c-0.5-0.3-0.4-0.8,0.1-1.1l1-0.6"/>
			<path fill="#172F4C" d="M286.4,188.6H278c-1.2,0-2.1-0.9-2.1-2.1v-5.3c0-1.5,1.2-2.8,2.8-2.8h3.5c2.3,0,4.2,1.9,4.2,4.2
				C286.4,185.5,286.4,188.6,286.4,188.6z"/>
			<path fill="#FF5A0F" d="M282.3,198.4c0.6,0.2,1.5,0.2,2,0s0.6-0.4,0-0.6c-0.6-0.2-1.5-0.2-2,0S281.8,198.2,282.3,198.4z"/>
			<path fill="#FF5A0F" d="M278.5,197.1c0.6,0.2,1.5,0.2,2,0c0.6-0.2,0.6-0.4,0-0.6c-0.6-0.2-1.5-0.2-2,0S277.9,196.9,278.5,197.1z"
				/>
			<path fill="#FF5A0F" d="M279.1,190.1c1.3,0.4,3.5,0.4,4.9,0c1.4-0.4,1.4-1,0-1.4c-1.3-0.4-3.5-0.4-4.9,0
				C277.7,189.1,277.7,189.8,279.1,190.1z"/>
			<path fill="#172F4C" d="M279,189.1c1.3,0.4,3.5,0.4,4.9,0c1.4-0.4,1.4-1,0-1.4c-1.3-0.4-3.5-0.4-4.9,0
				C277.6,188.1,277.6,188.7,279,189.1z"/>
			<path fill="#513E35" d="M284.3,190.9h0.1c1.1,0,2-0.9,2-2v-4.8h-2.1V190.9z"/>
			<path fill="#513E35" d="M277.9,189.5h0.1v-6.8h-2.1v4.8C275.9,188.7,276.8,189.5,277.9,189.5z"/>
			<path fill="#172F4C" d="M284.5,184.3c0.4,0.1,1.1,0.1,1.6,0c0.4-0.1,0.4-0.3,0-0.5c-0.4-0.1-1.1-0.1-1.6,0
				C284.1,184,284.1,184.2,284.5,184.3z"/>
			<path fill="#172F4C" d="M276.3,183c0.4,0.1,1.1,0.1,1.6,0c0.4-0.1,0.4-0.3,0-0.5s-1.1-0.1-1.6,0
				C275.8,182.6,275.8,182.8,276.3,183z"/>
			<path fill="#C9961A" d="M279.7,184.9c0-0.6,0.5-0.9,1-0.8c0.6,0.1,1,0.6,1,1.2s-0.5,0.9-1,0.8C280.2,186,279.7,185.5,279.7,184.9
				z"/>
			<polyline fill="none" stroke="#C9961A" stroke-width="0.211" stroke-miterlimit="10" points="282.5,178.6 280.7,184.8 
				279.4,178.6 			"/>
			<path fill="#513E35" d="M280.8,179.6h0.2c1.2,0,2.2-1,2.2-2.2v-1.9c0-1.2-1-2.2-2.2-2.2h-0.2c-1.2,0-2.2,1-2.2,2.2v1.9
				C278.6,178.6,279.6,179.6,280.8,179.6z"/>
			<path fill="#FF5A0F" d="M280.6,177.6l2.4-1.4c0.7-0.4,0.6-1.1-0.2-1.5l0,0c-0.8-0.4-1.9-0.5-2.6-0.1l-2.4,1.4
				c-0.7,0.4-0.6,1.1,0.2,1.5l0,0C278.8,177.9,280,178,280.6,177.6z"/>
			
				<linearGradient id="SVGID_10_" gradientUnits="userSpaceOnUse" x1="5681.1611" y1="177.8648" x2="5681.1611" y2="174.342" gradientTransform="matrix(-1 0 0 1 5961.5859 0)">
				<stop  offset="0" style="stop-color:#FFFFFF"/>
				<stop  offset="1" style="stop-color:#000000"/>
			</linearGradient>
			<path opacity="0.3" fill="url(#SVGID_10_)" d="M280.6,177.6l2.4-1.4c0.7-0.4,0.6-1.1-0.2-1.5l0,0c-0.8-0.4-1.9-0.5-2.6-0.1
				l-2.4,1.4c-0.7,0.4-0.6,1.1,0.2,1.5l0,0C278.8,177.9,280,178,280.6,177.6z"/>
			<path fill="#FF5A0F" d="M283.5,175.7c0-1.4-1.2-2.6-2.6-2.6h0c-1.4,0-2.6,1.2-2.6,2.6"/>
			<path fill="#FF5A0F" d="M279.1,176.2c1,0.3,2.6,0.3,3.6,0s1-0.8,0-1c-1-0.3-2.6-0.3-3.6,0S278.1,175.9,279.1,176.2z"/>
		</g>
		<rect x="261.4" y="168.1" fill="none" width="40" height="40"/>
	</g>
</g>
</svg>
