<?xml version="1.0" encoding="utf-8"?>
<!-- Generator: Adobe Illustrator 18.1.1, SVG Export Plug-In . SVG Version: 6.00 Build 0)  -->
<svg version="1.1" xmlns="http://www.w3.org/2000/svg" xmlns:xlink="http://www.w3.org/1999/xlink" x="0px" y="0px"
	 viewBox="0 0 400 400" enable-background="new 0 0 400 400" xml:space="preserve">
<g id="tgt_01">
	<g>
		<circle opacity="0" fill="#FFFFFF" cx="200" cy="200" r="200"/>
		<g id="tgt01">
			<g id="tgt_x5F_01_3_">
				<g>
					<g>
						<path fill="#0555FA" d="M235.5,90.6h-39.9c-26.5,0-47.9,21.4-48,47.9c0,11.5-0.1,23.4-0.1,34.1h18v33.2
							c0.2,0.1,0.4,0.3,0.4,0.3h76.8c13.3,0,24-10.7,24-24v-60.2C266.8,104.6,252.8,90.6,235.5,90.6z"/>
					</g>
					<path opacity="0.15" fill="#1D3A57" d="M272.8,354.3c37.8-21.8,37.6-57.4-0.4-79.4s-99.6-22.1-137.5-0.2
						C97,296.5,97.2,332,135.3,354S234.9,376.1,272.8,354.3z"/>
					<rect x="165.6" y="202.5" fill="#0555FA" width="32.8" height="111.3"/>
					<rect x="209.9" y="202.5" fill="#0555FA" width="32.8" height="96"/>
					<rect x="165.6" y="202.5" fill="#0555FA" width="76.5" height="22.6"/>
					<path fill="#172F4C" d="M166.6,315.3l23.5,16c6.2,3.6,15.7,4,21.1,0.9l0,0c5.4-3.1,4.7-8.6-1.5-12.2l-11.4-6.5"/>
					<path fill="#172F4C" d="M210,299.9l23.5,16c6.2,3.6,15.7,4,21.1,0.9h0c5.4-3.1,4.7-8.6-1.5-12.2l-11.4-6.5"/>
					<path fill="#B9937E" d="M209.8,102.9L209.8,102.9c-14.6,0-26.5-11.9-26.5-26.5V57.2c0-14.6,11.9-26.5,26.5-26.5h0
						c14.6,0,26.5,11.9,26.5,26.5v19.2C236.3,91,224.4,102.9,209.8,102.9z"/>
					<path fill="#0555FA" d="M193.6,317c-6.4,1.8-16.8,1.8-23.2,0c-6.4-1.9-6.5-4.9-0.1-6.7s16.8-1.8,23.2,0
						C199.9,312.2,200,315.2,193.6,317z"/>
					<path fill="#0555FA" d="M238,301.8c-6.4,1.8-16.8,1.8-23.2,0c-6.4-1.9-6.5-4.9-0.1-6.7s16.8-1.8,23.2,0
						C244.3,296.9,244.3,299.9,238,301.8z"/>
					<path fill="#0555FA" d="M230.7,223.2c-15.3,4.4-40.2,4.4-55.6-0.1c-8.2-2.4-8.4-5.4-7.8-8.5c0.5-2.7,0.5-5.5,7.7-7.5
						c15.3-4.4,40.2-4.4,55.6,0.1S246,218.8,230.7,223.2z"/>
					<path fill="#F2D78F" d="M180.7,58.5c0-16,13.1-29.1,29.1-29.1h0c16,0,29.1,13.1,29.1,29.1"/>
					<path fill="#F2D78F" d="M230,61.9c-11.1,3.2-29.1,3.2-40.3,0c-11.2-3.2-11.2-8.4-0.1-11.6c11.1-3.2,29.1-3.2,40.3,0
						C241,53.5,241.1,58.7,230,61.9z"/>
					<g>
						<path fill="#F2D78F" d="M186.9,58.9c-2.6-0.8-4.6-1.6-6.1-2.5c-5.9,3.5-4,7.8,6.1,10.7c12.7,3.7,33.1,3.7,45.7,0
							c10-2.9,11.9-7.2,6-10.7c-1.5,0.9-3.4,1.7-6,2.5C220.1,62.6,199.6,62.6,186.9,58.9z"/>
					</g>
					<g>
						<path fill="#DDC185" d="M186.9,58.9c-2.6-0.8-4.6-1.6-6.1-2.5c-5.9,3.5-4,7.8,6.1,10.7c12.7,3.7,33.1,3.7,45.7,0
							c10-2.9,11.9-7.2,6-10.7c-1.5,0.9-3.4,1.7-6,2.5C220.1,62.6,199.6,62.6,186.9,58.9z"/>
					</g>
					<g>
						<path fill="#0555FA" d="M196.4,192l-9,21.3c11.5,1.6,24.9,1.5,36.1-0.3l-10.2-20.8C207.7,191.8,202,191.7,196.4,192z"/>
						<path fill="#0555FA" d="M242.1,200.5v5.3C243.6,204.1,243.6,202.3,242.1,200.5z"/>
						<path fill="#FF5A0F" d="M165.6,205.3v59.4l21.8-51.4c-4-0.5-7.7-1.2-11-2.2C170.6,209.5,167,207.5,165.6,205.3z"/>
						<path fill="#FF5A0F" d="M224,213l18.7,38.3v-45.4c-1.6,1.9-4.9,3.8-10.2,5.3C229.9,211.9,227,212.5,224,213z"/>
					</g>
					<path fill="#41B9E6" d="M232.2,142.8c0-3.6-2.9-5.9-6.5-5.3c-3.6,0.6-6.5,4-6.5,7.6c0,3.6,2.9,5.9,6.5,5.3
						C229.3,149.8,232.2,146.4,232.2,142.8z"/>
					<path fill="#B9937E" d="M242.7,216.4L242.7,216.4l0-77.3h24.1v53.2C266.8,205.6,256,216.4,242.7,216.4z"/>
					<path fill="#0555FA" d="M263.1,141.6c-4.9,1.4-12.9,1.4-17.9,0c-4.9-1.4-5-3.7-0.1-5.2c4.9-1.4,12.9-1.4,17.9,0
						S268,140.2,263.1,141.6z"/>
					<polygon fill="#FF5A0F" points="242.7,146.9 242.7,99.2 227,127.1 					"/>
					<g>
						<g>
							
								<path fill="none" stroke="#41B9E6" stroke-width="5" stroke-linecap="round" stroke-linejoin="round" stroke-miterlimit="10" d="
								M190.6,197.2c0,4,2.8,8.9,6.3,10.9c4.4,2.5,7.9,0.5,7.9-4.5c0-6.3-4.4-13.9-9.9-17.1c-6.8-3.9-12.4-0.8-12.4,7.1
								c0,14.5,15.3,33.8,28.4,27.9c3.9-1.8,6.4-6.2,6.4-12.2c0-20.6-19.5-47.2-38.4-45.2c-10.2,1.1-15.9,11-15.9,24.7v91
								c0,19.8-14,27.7-31.2,17.8l-62.1-37.8"/>
						</g>
						<ellipse fill="#7DCFE2" cx="190.6" cy="196.5" rx="2.5" ry="1.9"/>
						
							<ellipse transform="matrix(0.7071 -0.7071 0.7071 0.7071 -163.189 124.9308)" fill="#7DCFE2" cx="69.2" cy="259.5" rx="2.5" ry="1.9"/>
					</g>
					<g>
						<path fill="#B9937E" d="M160,201.4c2,0,4.1-0.5,5.9-1.5l35.5-19.1c6.1-3.3,8.3-10.8,5.1-16.9l0,0c-3.3-6.1-10.8-8.3-16.9-5.1
							l-17.1,9.2v-13.7h-24.9v34.6c0,4.4,2.3,8.4,6.1,10.7C155.6,200.8,157.8,201.4,160,201.4z"/>
					</g>
					<path fill="#0555FA" d="M169.2,156.9c-4.9,1.4-12.9,1.4-17.9,0c-4.9-1.4-5-3.7-0.1-5.2c4.9-1.4,12.9-1.4,17.9,0
						C174,153.2,174.1,155.5,169.2,156.9z"/>
					<polygon fill="#FF5A0F" points="172.6,161.6 172.6,105 188.2,131.8 					"/>
				</g>
			</g>
		</g>
	</g>
</g>
<g id="tgt_02">
	<g>
		<circle opacity="0" fill="#FFFFFF" cx="200" cy="200" r="200"/>
		<g id="tgt02">
			<g id="New_Symbol_40_1_">
				<g>
					<radialGradient id="SVGID_1_" cx="199.296" cy="155.2371" r="94.7299" gradientUnits="userSpaceOnUse">
						<stop  offset="0" style="stop-color:#141428;stop-opacity:0.4"/>
						<stop  offset="1" style="stop-color:#41B9E6;stop-opacity:0.2"/>
					</radialGradient>
					<circle fill="url(#SVGID_1_)" cx="199.3" cy="155.2" r="94.7"/>
					<g opacity="0.15">
						<path fill="#1D3A57" d="M227.9,351.4c-0.9-3.3-3.6-6.5-8-9c-11.1-6.4-29-6.4-40-0.1c-4.4,2.6-7,5.8-7.9,9.1
							c-0.2,0.8-0.3,1.6-0.3,2.4c0,4.2,2.8,8.4,8.4,11.6c11.1,6.4,29,6.4,40,0.1C226.7,361.6,229.3,356.4,227.9,351.4z"/>
					</g>
					<path fill="#3E7E9B" d="M203,354c1.6-1.1,1.6-2.9,0-4.1c-1.6-1.1-4.3-1.1-5.9,0s-1.6,2.9,0,4.1S201.3,355.1,203,354z"/>
					<g>
						<rect x="195.8" y="157.2" fill="#3E7E9B" width="8.4" height="194.8"/>
					</g>
					<ellipse fill="#3E7E9B" cx="200" cy="93.3" rx="11.4" ry="63.5"/>
					<g>
						
							<ellipse transform="matrix(0.5 -0.866 0.866 0.5 -30.0747 305.444)" fill="#3E7E9B" cx="249.5" cy="178.8" rx="11.4" ry="63.5"/>
						
							<ellipse transform="matrix(-0.5 -0.866 0.866 -0.5 70.9555 398.5011)" fill="#3E7E9B" cx="150.5" cy="178.8" rx="11.4" ry="63.5"/>
					</g>
					<circle fill="#346884" cx="200" cy="154.3" r="21.2"/>
					
						<linearGradient id="SVGID_2_" gradientUnits="userSpaceOnUse" x1="-2410.0588" y1="19.519" x2="-2410.0588" y2="61.8508" gradientTransform="matrix(-1 0 0 -1 -2210.0588 195.0302)">
						<stop  offset="0" style="stop-color:#141428;stop-opacity:0.4"/>
						<stop  offset="1" style="stop-color:#41B9E6;stop-opacity:0"/>
					</linearGradient>
					<circle fill="url(#SVGID_2_)" cx="200" cy="154.3" r="21.2"/>
				</g>
			</g>
		</g>
	</g>
</g>
<g id="tgt_03">
	<circle opacity="0" fill="#FFFFFF" cx="200" cy="200" r="200"/>
	<g id="tgt03">
		<g id="tgt_x5F_03_2_">
			<g id="New_Symbol_176">
				<g id="New_Symbol_175">
				</g>
				<g id="New_Symbol_13">
				</g>
			</g>
			<g id="New_Symbol_100">
			</g>
		</g>
		<g id="New_Symbol_218">
			<g id="New_Symbol_219">
			</g>
		</g>
		<g>
			<g>
				<path opacity="0.15" fill="#1D3A57" d="M131,365.7c-37.8-21.8-37.6-57.4,0.4-79.4s99.6-22.1,137.5-0.2s37.6,57.4-0.4,79.4
					S168.9,387.5,131,365.7z"/>
				<path fill="#2287F0" d="M170.1,105.1h41.7c19.7,0,35.7,16,35.7,35.7v39.1l-47.5,39h-29.9c-13.2,0-23.8-10.7-23.8-23.8v-66.2
					C146.3,115.7,157,105.1,170.1,105.1z"/>
				<path fill="#172F4C" d="M194.1,311.9l-20,16c-5.3,3.6-13.4,4-17.9,0.9h0c-4.6-3.1-4-8.6,1.3-12.2l9.7-6.5"/>
				<rect x="204.2" y="237.3" fill="#B9937F" width="27.9" height="66.9"/>
				<rect x="167" y="233.6" fill="#B9937F" width="27.9" height="56.1"/>
				<path fill="#172F4C" d="M171.2,313.6c5.4,1.8,14.3,1.8,19.7,0c5.5-1.9,5.5-4.9,0.1-6.7c-5.4-1.8-14.3-1.8-19.7,0
					C165.8,308.8,165.8,311.8,171.2,313.6z"/>
				<polygon fill="#FF0F5D" points="159.2,242.3 239.4,242.3 229.3,194.9 165.9,199.5 				"/>
				<path fill="#FF0F5D" d="M176.7,239.2c13,4.4,34.2,4.4,47.2-0.1s13.2-11.6,0.1-16s-34.2-4.4-47.2,0.1S163.7,234.8,176.7,239.2z"
					/>
				<path fill="#FF0F5D" d="M170.9,252.5c15.6,5.3,41,5.3,56.7-0.1s15.8-14,0.2-19.3s-41-5.3-56.7,0.1S155.3,247.2,170.9,252.5z"/>
				<path fill="#B9937F" d="M166,199.3c-0.1,2.9,3.1,5.9,9.7,8.2c13,4.4,34.2,4.4,47.2-0.1c6.5-2.2,9.8-5.1,9.9-8v-23.9h-66.7v21.8"
					/>
				
					<linearGradient id="SVGID_3_" gradientUnits="userSpaceOnUse" x1="-6645.4199" y1="-8119.7568" x2="-6589.7524" y2="-8119.7568" gradientTransform="matrix(-1.2 0 0 1.2 -7741.728 9936.8486)">
					<stop  offset="0" style="stop-color:#000000;stop-opacity:0.1"/>
					<stop  offset="1" style="stop-color:#B9937F;stop-opacity:0.2"/>
				</linearGradient>
				<path fill="url(#SVGID_3_)" d="M166,199.3c-0.1,2.9,3.1,5.9,9.7,8.2c13,4.4,34.2,4.4,47.2-0.1c6.5-2.2,9.8-5.1,9.9-8v-23.9
					h-66.7v21.8"/>
				<path fill="#2287F0" d="M175.7,183.5c13,4.4,34.2,4.4,47.2-0.1s13.2-11.6,0.1-16c-13-4.4-34.2-4.4-47.2,0.1
					S162.7,179.1,175.7,183.5z"/>
				<path fill="#B9937F" d="M166.9,227.8L166.9,227.8l0-77.3h-20.4v56.8C146.4,218.6,155.6,227.8,166.9,227.8z"/>
				<path fill="#2287F0" d="M149.6,153c4.2,1.4,11,1.4,15.2,0c4.2-1.4,4.2-3.7,0-5.2c-4.2-1.4-11-1.4-15.2,0S145.4,151.6,149.6,153z
					"/>
				<polyline fill="#172F4C" points="167,311.8 167,289.4 195.1,289.4 195.1,310.3 				"/>
				<path fill="#172F4C" d="M231.3,326.6l-20,16c-5.3,3.6-13.4,4-17.9,0.9h0c-4.6-3.1-4-8.6,1.3-12.2l9.7-6.5"/>
				<path fill="#172F4C" d="M208.4,328.3c5.4,1.8,14.3,1.8,19.7,0c5.5-1.9,5.5-4.9,0.1-6.7c-5.4-1.8-14.3-1.8-19.7,0
					C203,323.4,202.9,326.4,208.4,328.3z"/>
				<polyline fill="#172F4C" points="204.2,326.5 204.2,303.6 232.2,303.6 232.2,325.1 				"/>
				<path fill="#B9937F" d="M171.1,292.7c5.4,1.8,14.3,1.8,19.7,0c5.5-1.9,5.5-4.9,0.1-6.7c-5.4-1.8-14.3-1.8-19.7,0
					C165.7,287.9,165.7,290.9,171.1,292.7z"/>
				<path fill="#B9937F" d="M208.3,306.9c5.4,1.8,14.3,1.8,19.7,0c5.5-1.9,5.5-4.9,0.1-6.7s-14.3-1.8-19.7,0
					C202.9,302.1,202.9,305.1,208.3,306.9z"/>
				<path fill="#2287F0" d="M182.4,158.8c0-7.3-5-14.3-11.3-15.6c-6.2-1.3-11.3,3.6-11.3,10.9c0,7.3,5,14.3,11.3,15.6
					S182.4,166.1,182.4,158.8z"/>
			</g>
			<path fill="#B9937F" d="M174.7,104.5l11.8,41.9c0.7,2.6,4.2,2.9,5.4,0.5l21.7-43.1"/>
			
				<linearGradient id="SVGID_4_" gradientUnits="userSpaceOnUse" x1="-1003.3914" y1="-15552.0449" x2="-1003.3914" y2="-15583.1279" gradientTransform="matrix(1.44 0 0 1.44 1639.1298 22543.502)">
				<stop  offset="0" style="stop-color:#B9937F;stop-opacity:0.2"/>
				<stop  offset="1" style="stop-color:#000000;stop-opacity:0.2"/>
			</linearGradient>
			<path fill="url(#SVGID_4_)" d="M174.7,104.5l11.8,41.9c0.7,2.6,4.2,2.9,5.4,0.5l21.7-43.1"/>
			<g>
				<circle fill="#F2D78F" cx="226.7" cy="92.9" r="7"/>
				<circle fill="#F2D78F" cx="164.3" cy="88.4" r="7"/>
				<g>
					<g>
						<path fill="#F2D78F" d="M227.4,72c0-17.3-14.2-31.5-31.5-31.5h0c-17.3,0-31.5,14.2-31.5,31.5v23.4l63,4.5V72z"/>
					</g>
				</g>
			</g>
			<path fill="#B9937F" d="M194,114.3L194,114.3c14.6,0,26.5-11.9,26.5-26.5V68.6c0-14.6-11.9-26.5-26.5-26.5h0
				c-14.6,0-26.5,11.9-26.5,26.5v19.2C167.5,102.4,179.4,114.3,194,114.3z"/>
			<path fill="#F2D78F" d="M223.1,69.9c0-16-13.1-29.1-29.1-29.1h0c-16,0-29.1,13.1-29.1,29.1"/>
			<path fill="#F2D78F" d="M173.4,75.9c11.3,3.3,29.7,3.2,41.1,0s11.4-8.6,0.1-11.9c-11.3-3.3-29.7-3.2-41.1,0
				S162.1,72.6,173.4,75.9z"/>
			<path fill="none" stroke="#346884" stroke-width="5" stroke-linecap="round" stroke-miterlimit="10" d="M202.3,103.8v88.4
				c0,5-4.1,9.1-9.1,9.1h0c-5,0-9.1-4.1-9.1-9.1v-9.1"/>
			<g>
				<path fill="none" d="M119.9,103.5c0-0.2,0-0.5,0.1-0.7C119.9,103.1,119.9,103.3,119.9,103.5z"/>
				<path fill="none" d="M283.7,93.5c0.2,1,0.4,2,0.6,3C284.1,95.4,283.9,94.4,283.7,93.5z"/>
				<path fill="#E61400" d="M119.8,113.8c-0.1-1.4-0.2-2.9-0.2-4.3c0,0,0,0,0,0.1C119.6,110.9,119.7,112.3,119.8,113.8
					C119.8,113.7,119.8,113.8,119.8,113.8z"/>
				<linearGradient id="SVGID_5_" gradientUnits="userSpaceOnUse" x1="284.4434" y1="226.43" x2="284.4434" y2="26.4177">
					<stop  offset="2.470000e-02" style="stop-color:#141428;stop-opacity:0.8"/>
					<stop  offset="0.9987" style="stop-color:#141428;stop-opacity:5.000000e-02"/>
				</linearGradient>
				<path opacity="0.5" fill="url(#SVGID_5_)" d="M285.3,110.6c0.1-4.7-0.3-9.5-1-14.1c0,0,0,0,0,0c-0.2-1-0.4-2-0.6-3
					c0-0.1-0.1-0.2-0.1-0.3C284.7,98.9,285.3,104.7,285.3,110.6C285.3,110.6,285.3,110.6,285.3,110.6z"/>
				<path fill="#FF4687" d="M142.5,135.1C142.5,135.1,142.5,135.1,142.5,135.1c0.1-0.8,0.2-1.6,0.4-2.5
					C142.7,133.4,142.6,134.3,142.5,135.1z"/>
				<linearGradient id="SVGID_6_" gradientUnits="userSpaceOnUse" x1="142.6617" y1="226.43" x2="142.6617" y2="26.4177">
					<stop  offset="2.470000e-02" style="stop-color:#141428;stop-opacity:0.8"/>
					<stop  offset="0.9987" style="stop-color:#141428;stop-opacity:5.000000e-02"/>
				</linearGradient>
				<path opacity="0.5" fill="url(#SVGID_6_)" d="M142.5,135.1C142.5,135.1,142.5,135.1,142.5,135.1c0.1-0.8,0.2-1.6,0.4-2.5
					C142.7,133.4,142.6,134.3,142.5,135.1z"/>
				<path fill="#FF0F5D" d="M232.8,34.2c-3.9-0.2-8.9-0.2-14.5,0.9c-3.5,0.7-7.2,1.9-10.8,3.6c-0.1,0.1-0.3,0.1-0.4,0.2
					c-1.9,0.9-3.7,2-5.5,3.3c0,0,0.7,0.1,2,0.2c1.3,0.2,3.2,0.5,5.5,0.9c0.7,0.1,1.5,0.3,2.2,0.5c1.9,0.4,3.9,0.9,6.3,1.5
					c1.6,0.4,3.3,0.9,5.1,1.5c7.2,2.2,15.6,5.5,24.5,10.2c4.4,2.4,9,5.1,13.5,8.3c4.6,3.2,9.1,6.8,13.5,10.9c2,1.8,4,3.8,5.9,5.9
					C271.9,60.1,254.6,42.7,232.8,34.2z"/>
				<path fill="#FF0F5D" d="M190.2,42.1c-5.6,0.4-11.1,1.4-16.2,3c-6.5,1.9-12.5,4.5-18,7.4c-11.9,6.2-20.9,13.5-25,17.1
					c-5.9,10-9.8,21.3-11,33.4c0,0.2,0,0.5-0.1,0.7c-0.2,1.9-0.2,3.9-0.3,5.9c0,1.4,0.1,2.9,0.2,4.3c6.5,8.2,14.1,15.4,22.7,21.3
					c0.1-0.8,0.2-1.7,0.4-2.5c0.1-1.1,0.3-2.1,0.4-3.2c0.3-2,0.7-4.1,1.2-6.2c0.2-0.9,0.3-1.7,0.5-2.6c0.7-3,1.5-6.2,2.5-9.3
					c0.1-0.4,0.3-0.8,0.4-1.1c0.9-2.8,1.9-5.6,3-8.4c0.4-1.1,0.9-2.1,1.4-3.2c0.9-2.2,1.9-4.4,3-6.5c0.6-1.3,1.3-2.5,2-3.8
					c1.1-2,2.3-4,3.5-6.1c0.8-1.3,1.7-2.6,2.6-3.9c1.3-2,2.8-3.9,4.3-5.8c1-1.3,2-2.6,3.1-3.9c1.6-1.9,3.4-3.8,5.2-5.7
					c1.2-1.2,2.3-2.4,3.5-3.6c2.1-2,4.4-4,6.8-5.9c1.2-1,2.3-2,3.5-2.9c2.1-1.6,4.5-3.2,6.8-4.7c1.7-1.2,3.2-2.4,5.1-3.5
					C197.7,41.7,193.9,41.8,190.2,42.1z"/>
				<path fill="#F39200" d="M283.6,93.2c-0.9-3.8-2-7.5-3.4-11.1c-1.9-2-3.9-4-5.9-5.9c-4.4-4.1-9-7.7-13.5-10.9
					c-4.6-3.2-9.1-5.9-13.5-8.3c-8.9-4.8-17.3-8-24.5-10.2c-1.8-0.6-3.5-1-5.1-1.5c-2.3-0.6-4.4-1.1-6.3-1.5
					c-0.7-0.2-1.5-0.3-2.2-0.5c-2.4-0.5-4.2-0.7-5.5-0.9c-1.3-0.2-2-0.2-2-0.2s1.7,1.2,4.4,3.5c12.5,10.5,48,44.4,51.2,91.4
					c10.9-7,20.4-15.9,28-26.4C285.3,104.7,284.7,98.9,283.6,93.2z"/>
				<path fill="#F39200" d="M202.6,28.4c-1,0-1.9,0.1-2.9,0.1l1.3,9.4l0.6,4.2c1.8-1.3,3.6-2.4,5.5-3.3c0.1-0.1,0.3-0.1,0.4-0.2
					c3.6-1.7,7.3-2.9,10.8-3.6c5.6-1.1,10.6-1.1,14.5-0.9C223.4,30.5,213.3,28.4,202.6,28.4z"/>
				<path fill="#F39200" d="M193.8,39c-5.2-2-12.3-4.3-19.1-5.7c-18.5,6.6-34,19.5-43.8,36.2c4.1-3.6,13.1-10.9,25-17.1
					c5.4-2.8,11.5-5.4,18-7.4c5.2-1.5,10.6-2.5,16.2-3c3.8-0.3,7.6-0.4,11.5,0C201.6,42.1,198.4,40.7,193.8,39z"/>
				<path fill="#FF0F5D" d="M201.1,37.9l-1.3-9.4c-8.7,0.3-17.1,1.9-25,4.7c6.7,1.4,13.8,3.7,19.1,5.7c4.6,1.7,7.8,3.1,7.8,3.1
					L201.1,37.9z"/>
				<path fill="#F39200" d="M196.6,45.6c-2.3,1.6-4.7,3.1-6.8,4.7c-1.2,1-2.3,2-3.5,2.9c-2.3,1.9-4.7,3.9-6.8,5.9
					c-1.2,1.2-2.4,2.4-3.5,3.6c-1.8,1.9-3.6,3.8-5.2,5.7c-1.1,1.3-2.1,2.6-3.1,3.9c-1.5,1.9-2.9,3.9-4.3,5.8
					c-0.9,1.3-1.8,2.6-2.6,3.9c-1.3,2-2.4,4-3.5,6.1c-0.7,1.3-1.4,2.5-2,3.8c-1.1,2.2-2.1,4.4-3,6.5c-0.5,1.1-1,2.1-1.4,3.2
					c-1.1,2.8-2.1,5.7-3,8.4c-0.1,0.4-0.3,0.8-0.4,1.1c-1,3.2-1.8,6.3-2.5,9.3c-0.2,0.9-0.3,1.7-0.5,2.6c-0.4,2.1-0.9,4.2-1.2,6.2
					c-0.2,1.1-0.3,2.1-0.4,3.2c-0.1,0.9-0.2,1.7-0.3,2.5c16.7,11.5,37,18.3,58.8,18.3c0.1,0,0.2,0,0.3,0V46v-2v-0.5
					c0-0.9,0-1.4,0-1.4C199.8,43.2,198.3,44.4,196.6,45.6z"/>
				<path fill="#FF0F5D" d="M206,45.6c-2.7-2.3-4.4-3.5-4.4-3.5l0,1.9v2v107.4c20.5-0.1,39.6-6.1,55.7-16.4
					C254.1,90,218.5,56.2,206,45.6z"/>
				<path fill="#FF4687" d="M201.6,43.5V44l0-1.9C201.6,42.1,201.6,42.6,201.6,43.5z"/>
			</g>
			
				<line fill="none" stroke="#346884" stroke-width="5" stroke-linecap="round" stroke-miterlimit="10" x1="201.6" y1="42.2" x2="201.6" y2="20.5"/>
			<g>
				<path fill="#B9937E" d="M237.4,204.6c-1.7,0-3.3-0.4-4.8-1.2l-29-15.6c-5-2.7-6.8-8.8-4.1-13.8l0,0c2.7-5,8.8-6.8,13.8-4.1
					l14,7.5v-11.2h20.4v28.3c0,3.6-1.9,6.9-5,8.7C241,204.1,239.2,204.6,237.4,204.6z"/>
			</g>
			<path fill="#2287F0" d="M229.2,168.3c4.2,1.4,11,1.4,15.2,0c4.2-1.4,4.2-3.7,0-5.2s-11-1.4-15.2,0
				C225,164.6,225,166.9,229.2,168.3z"/>
		</g>
	</g>
</g>
<g id="tgt_04">
	<g id="tgt04">
		<circle opacity="0" fill="#FFFFFF" cx="200" cy="200" r="200"/>
		<g id="XMLID_2_">
			<path id="XMLID_4_" fill="#112341" d="M303.1,163.1L254.9,63l-35.4,21.1c0,0-0.1,0-0.1,0.1l-2.7,1.6l0.1,0.2
				c-5.9,4.2-9.9,11.8-10.7,22.7c-1.9,25.1,13.2,56.8,33.9,70.9c10.1,6.9,19.5,8.2,26.8,4.9l0,0.1l0.3-0.2c0.4-0.2,0.7-0.4,1.1-0.6
				L303.1,163.1z"/>
			<path id="XMLID_3_" fill="#19355E" d="M282.1,67.9c20.6,14.1,35.8,45.9,33.9,70.9c-1.9,25.1-20.2,33.9-40.8,19.8
				s-35.8-45.9-33.9-70.9C243.2,62.7,261.5,53.8,282.1,67.9z"/>
		</g>
		<g id="XMLID_1_">
			<g>
				<path fill="#B9937E" d="M147.9,192.1c2,0,4.1-0.5,5.9-1.5l35.5-19.1c6.1-3.3,8.3-10.8,5.1-16.9l0,0c-3.3-6.1-10.8-8.3-16.9-5.1
					l-17.1,9.2v-13.7h-24.9v34.6c0,4.4,2.3,8.4,6.1,10.7C143.5,191.5,145.7,192.1,147.9,192.1z"/>
			</g>
			<path opacity="0.15" fill="#1D3A57" d="M264,366.8c37.8-21.8,37.6-57.4-0.4-79.4c-38.1-22-99.6-22.1-137.5-0.2
				c-37.8,21.8-37.6,57.4,0.4,79.4C164.6,388.5,226.2,388.6,264,366.8z"/>
			<g>
				<g>
					<path fill="#F2D78F" d="M138.9,157.7c-2.2-0.6-3.3-1.5-3.4-2.3v10.7h0c0.2,0.8,1.3,1.6,3.4,2.2c1.8,0.5,4.1,0.8,6.4,0.9h4.6
						c0.7,0,1.4-0.1,2.1-0.2v-10.6C147.5,159,142.4,158.8,138.9,157.7z"/>
				</g>
				<polyline fill="#172F4C" points="184.9,315.6 184.9,306.4 151.9,306.4 151.9,315.8 				"/>
				<path fill="#172F4C" d="M151.7,315.7l23.5-16c6.2-3.6,15.7-4,21.1-0.9l0,0c5.4,3.1,4.7,8.6-1.5,12.2l-11.4,6.5"/>
				<path fill="#172F4C" d="M197.7,329.4l23.5-16c6.2-3.6,15.7-4,21.1-0.9l0,0c5.4,3.1,4.7,8.6-1.5,12.2l-11.4,6.5"/>
				<rect x="197.8" y="266.4" fill="#B9937F" width="32.8" height="62.6"/>
				<rect x="151.9" y="266.4" fill="#B9937F" width="32.8" height="48.1"/>
				<path fill="#204563" d="M225.8,332.8c-6.4,1.8-16.8,1.8-23.2,0s-6.5-4.9-0.1-6.7c6.4-1.8,16.8-1.8,23.2,0
					C232.2,328,232.2,331,225.8,332.8z"/>
				<rect x="197.8" y="218.2" fill="#FF5A0F" width="32.8" height="62.6"/>
				<rect x="151.9" y="215.7" fill="#FF5A0F" width="32.8" height="50.6"/>
				<rect x="153.9" y="218.2" fill="#FF5A0F" width="76.5" height="22.6"/>
				<path fill="#0555FA" d="M230.6,221.7l-71.1-1.2c-2.6-0.5-7.6-4.7-7.6-4.7v-60.7l-16.4,0v-29.3c0-16.6,13.4-27.6,30-24.7
					l59.1,10.4c16.5,2.9,29.9,18.6,30,35.2c0,8.5,0,23,0,23l-24.1,0C230.4,169.7,230.6,209,230.6,221.7z"/>
				<path fill="#FF5A0F" d="M202.5,284.2c6.4,1.8,16.8,1.8,23.2,0s6.5-4.9,0.1-6.7c-6.4-1.8-16.8-1.8-23.2,0
					C196.2,279.3,196.2,282.3,202.5,284.2z"/>
				<path fill="#FF5A0F" d="M156.6,268.9c6.4,1.8,16.8,1.8,23.2,0c6.4-1.9,6.5-4.9,0.1-6.7c-6.4-1.8-16.8-1.8-23.2,0
					C150.3,264.1,150.2,267.1,156.6,268.9z"/>
				<path fill="#FF5A0F" d="M163.3,236.4c15.3,5.8,40.2,7.9,55.6,4.8c15.4-3.1,15.5-10.3,0.2-16s-40.2-7.9-55.6-4.8
					C148.1,223.5,148,230.7,163.3,236.4z"/>
				<path fill="#0555FA" d="M219.2,229.5c-15.3,3.1-40.2,0.9-55.6-4.9c-15.4-5.8-15.5-13-0.2-16.1s40.2-0.9,55.6,4.9
					S234.5,226.4,219.2,229.5z"/>
				<polyline fill="#204563" points="230.8,329.8 230.8,320 197.8,320 197.8,329.2 				"/>
				<path fill="#B9937F" d="M156.6,308.9c6.4,1.8,16.8,1.8,23.2,0s6.5-4.9,0.1-6.7c-6.4-1.8-16.8-1.8-23.2,0
					C150.3,304.1,150.2,307.1,156.6,308.9z"/>
				<path fill="#B9937F" d="M202.6,323.2c6.4,1.8,16.8,1.8,23.2,0s6.5-4.9,0.1-6.7c-6.4-1.8-16.8-1.8-23.2,0
					C196.2,318.3,196.2,321.3,202.6,323.2z"/>
				<path fill="#FF5A0F" d="M197.5,51.7l-27.4,15.9c-7.6,4.4-2.2,3.3,6.5,8.3l-4.4,8.8c8.7,5,22.1,5.6,29.6,1.2l27.4-15.9
					c7.6-4.4,6.6-12.1-2.1-17.1l0.1,0.1C218.4,48,205.1,47.4,197.5,51.7z"/>
				<path fill="#B9937F" d="M193.9,116.4L193.9,116.4c14.6,0,26.5-11.9,26.5-26.5V70.7c0-14.6-11.9-26.5-26.5-26.5h0
					c-14.6,0-26.5,11.9-26.5,26.5v19.2C167.5,104.5,179.4,116.4,193.9,116.4z"/>
				<g>
					
						<linearGradient id="SVGID_7_" gradientUnits="userSpaceOnUse" x1="11350.7979" y1="-8216.2617" x2="11350.7979" y2="-8248.1113" gradientTransform="matrix(1.2 0 0 -1.2 -13417.7451 -9810.542)">
						<stop  offset="0" style="stop-color:#FFFFFF"/>
						<stop  offset="1" style="stop-color:#000000"/>
					</linearGradient>
					<path opacity="0.3" fill="url(#SVGID_7_)" d="M214.5,66.1c-11.3-3.3-29.7-3.2-41.1,0c-0.7,0.2-1.2,0.4-1.8,0.6l25.9-15
						c7.6-4.4,20.9-3.8,29.7,1.3l-0.1-0.1c8.7,5,9.7,12.7,2.1,17.1l-7.9,4.6C224.8,71.7,222.6,68.4,214.5,66.1z"/>
					<path fill="#FF5A0F" d="M217.7,76.7l3.6-2.1C220.5,75.4,219.3,76.1,217.7,76.7z"/>
					<path fill="#FF5A0F" d="M171.7,66.7l-1.5,0.9c-7.6,4.4-3.3,3.1,5.4,8.1l-0.2-0.2c2,1.2,4.1,2.6,6.2,4c-3-0.4-5.8-0.9-8.3-1.6
						C162.7,74.9,162.3,70,171.7,66.7z"/>
					<path fill="#FF5A0F" d="M175.5,75.7c-8.7-5-13-3.8-5.4-8.1l1.5-0.9c0.6-0.2,1.1-0.4,1.8-0.6c11.4-3.3,29.8-3.3,41.1,0
						c8.1,2.3,10.2,5.7,6.8,8.6l-3.6,2.1c-1,0.4-2.1,0.8-3.3,1.2c-8.9,2.6-22.1,3.1-32.8,1.7c-2.1-1.4-4.2-2.8-6.2-4L175.5,75.7z"/>
				</g>
				<path fill="#FF5A0F" d="M223.1,72c0-16-13.1-29.1-29.1-29.1h0c-16,0-29.1,13.1-29.1,29.1"/>
				<path fill="#204563" d="M179.9,319.1c-6.4,1.8-16.8,1.8-23.2,0s-6.5-4.9-0.1-6.7c6.4-1.8,16.8-1.8,23.2,0
					C186.2,314.2,186.3,317.2,179.9,319.1z"/>
				<polyline fill="#204563" points="184.8,316 184.8,306.2 151.9,306.2 151.9,315.5 				"/>
				<path fill="#B9937F" d="M156.6,309.4c6.4,1.8,16.8,1.8,23.2,0s6.5-4.9,0.1-6.7c-6.4-1.8-16.8-1.8-23.2,0
					C150.3,304.5,150.2,307.5,156.6,309.4z"/>
				<path fill="#0555FA" d="M157,158c-4.9,1.4-12.9,1.4-17.9,0c-4.9-1.4-5-3.7-0.1-5.2s12.9-1.4,17.9,0S162,156.6,157,158z"/>
			</g>
			<g>
				<path fill="#B9937E" d="M242.5,215.2c2,0,3.9-0.5,5.7-1.4l34.3-18.5c5.9-3.2,8.1-10.5,4.9-16.3l0,0c-3.2-5.9-10.5-8.1-16.3-4.9
					l-16.6,8.9v-13.3h-24.1v33.5c0,4.2,2.2,8.2,5.9,10.4C238.2,214.6,240.4,215.2,242.5,215.2z"/>
			</g>
			<path fill="#0555FA" d="M251,172.8c-4.9,1.4-12.9,1.4-17.9,0s-5-3.7-0.1-5.2c4.9-1.4,12.9-1.4,17.9,0S255.9,171.4,251,172.8z"/>
		</g>
	</g>
</g>
<g id="tgt_05">
	<g id="tgt05">
		<circle opacity="0" fill="#FFFFFF" cx="200" cy="200" r="200"/>
		<g>
			<path fill="none" stroke="#234663" stroke-width="12" stroke-linecap="round" stroke-miterlimit="10" d="M85.7,71.1"/>
			<path fill="none" stroke="#234663" stroke-width="12" stroke-linecap="round" stroke-miterlimit="10" d="M231.2,154.7"/>
		</g>
		<circle fill="#0555FA" cx="200" cy="200" r="128.1"/>
	</g>
</g>
<g id="tgt_06">
	<circle opacity="0" fill="#FFFFFF" cx="200" cy="200" r="200"/>
	<g id="tgt06">
		<circle fill="#FF0000" cx="200" cy="200" r="128.1"/>
	</g>
</g>
<g id="tgt_07">
	<circle opacity="0" fill="#FFFFFF" cx="200" cy="200" r="200"/>
	<g id="tgt07">
		<circle fill="#FBB03B" cx="200" cy="200" r="128.1"/>
	</g>
</g>
<g id="tgt_08">
	<circle opacity="0" fill="#FFFFFF" cx="200" cy="200" r="200"/>
	<g id="tgt08">
		<g>
			<path id="XMLID_84_" fill="#346884" d="M99.1,179.7l47.5-27.3V70.7c0-9.4-5-18-13.2-22.7l-7.5-4.4L78.4,70.9l7.5,4.4
				C94,79.9,99.1,88.6,99.1,98L99.1,179.7z"/>
			<path id="XMLID_83_" fill="#224663" d="M99.1,179.7l0-81.7c0-9.4-5-18-13.2-22.7l-7.5-4.4l0,96.9L99.1,179.7z"/>
			<path id="XMLID_82_" fill="#41B9E6" d="M99.1,154l47.5-27.3v-56c0-9.4-5-18-13.2-22.7l-7.5-4.4L78.4,70.9l7.5,4.4
				C94,79.9,99.1,88.6,99.1,98L99.1,154z"/>
			<g id="XMLID_79_">
				<path id="XMLID_81_" fill="#224663" d="M116.9,156.5l0.9-1.5l-1.9-1.1l0,0c-0.6-0.3-1.4-0.2-2.2,0.3c-1.8,1.1-3.3,3.6-3.3,5.7
					c0,1.1,0.4,1.8,1,2.1c0.1,0.1,1.8,1,1.8,1l0.9-1.6C115.5,160.4,116.7,158.3,116.9,156.5z"/>
				<path id="XMLID_80_" fill="#41B9E6" d="M118.7,157.1c0,2.1-1.5,4.6-3.3,5.7c-1.8,1.1-3.3,0.2-3.3-1.9s1.5-4.6,3.3-5.7
					C117.2,154.2,118.7,155,118.7,157.1z"/>
			</g>
			<g id="XMLID_76_">
				<path id="XMLID_78_" fill="#224663" d="M126.9,150.7l0.9-1.5l-1.9-1.1l0,0c-0.6-0.3-1.4-0.2-2.2,0.3c-1.8,1.1-3.3,3.6-3.3,5.7
					c0,1.1,0.4,1.8,1,2.1c0.1,0.1,1.8,1,1.8,1l0.9-1.6C125.5,154.6,126.7,152.6,126.9,150.7z"/>
				<path id="XMLID_77_" fill="#41B9E6" d="M128.7,151.4c0,2.1-1.5,4.6-3.3,5.7c-1.8,1.1-3.3,0.2-3.3-1.9s1.5-4.6,3.3-5.7
					S128.7,149.3,128.7,151.4z"/>
			</g>
			<g id="XMLID_73_">
				<path id="XMLID_75_" fill="#224663" d="M136.3,145.1l0.9-1.5l-1.9-1.1l0,0c-0.6-0.3-1.4-0.2-2.2,0.3c-1.8,1.1-3.3,3.6-3.3,5.7
					c0,1.1,0.4,1.8,1,2.1c0.1,0.1,1.8,1,1.8,1l0.9-1.6C134.9,148.9,136.1,146.9,136.3,145.1z"/>
				<path id="XMLID_74_" fill="#41B9E6" d="M138.1,145.7c0,2.1-1.5,4.6-3.3,5.7c-1.8,1.1-3.3,0.2-3.3-1.9s1.5-4.6,3.3-5.7
					S138.1,143.6,138.1,145.7z"/>
			</g>
		</g>
		<g id="XMLID_5_">
			<g id="XMLID_71_">
				<g>
					<path opacity="0.15" fill="#1D3A57" d="M155.5,372.1c-37.8-21.8-37.6-57.4,0.4-79.4s99.6-22.1,137.5-0.2
						c37.8,21.8,37.6,57.4-0.4,79.4S193.3,393.9,155.5,372.1z"/>
					<g>
						<polyline fill="#172F4C" points="234.6,320.8 234.6,311.7 267.6,311.7 267.6,321.1 						"/>
						<path fill="#172F4C" d="M267.8,321l-23.5-16c-6.2-3.6-15.7-4-21.1-0.9l0,0c-5.4,3.1-4.7,8.6,1.5,12.2l11.4,6.5"/>
						<path fill="#172F4C" d="M221.7,334.6l-23.5-16c-6.2-3.6-15.7-4-21.1-0.9l0,0c-5.4,3.1-4.7,8.6,1.5,12.2l11.4,6.5"/>
						<rect x="188.9" y="271.7" fill="#B9937F" width="32.8" height="62.6"/>
						<rect x="234.8" y="271.7" fill="#B9937F" width="32.8" height="48.1"/>
						<path fill="#204563" d="M193.6,338.1c6.4,1.8,16.8,1.8,23.2,0s6.5-4.9,0.1-6.7c-6.4-1.8-16.8-1.8-23.2,0
							C187.3,333.3,187.3,336.3,193.6,338.1z"/>
						<rect x="188.9" y="223.5" fill="#FF4687" width="32.8" height="62.6"/>
						<rect x="234.8" y="223.5" fill="#FF4687" width="32.8" height="48.1"/>
						<rect x="189" y="223.5" fill="#FF4687" width="76.5" height="22.6"/>
						<path fill="#172F4C" d="M165,192l95,33.6c6.1-1.1,11.7-4.3,15.9-8.8c5-5.3,8.1-17.2,8.1-24.3V131c0-16.6-13.4-27.6-30-24.7
							l-59.1,10.4c-16.5,2.9-29.9,18.6-30,35.2C164.8,186.2,165,170.2,165,192z"/>
						<path fill="#FF4687" d="M216.9,289.4c-6.4,1.8-16.8,1.8-23.2,0c-6.4-1.9-6.5-4.9-0.1-6.7c6.4-1.8,16.8-1.8,23.2,0
							C223.3,284.6,223.3,287.6,216.9,289.4z"/>
						<path fill="#FF4687" d="M262.9,274.2c-6.4,1.8-16.8,1.8-23.2,0c-6.4-1.9-6.5-4.9-0.1-6.7s16.8-1.8,23.2,0
							C269.2,269.4,269.3,272.4,262.9,274.2z"/>
						<path fill="#FF4687" d="M256.2,241.7c-15.3,5.8-40.2,7.9-55.6,4.8c-15.4-3.1-15.5-10.3-0.2-16s40.2-7.9,55.6-4.8
							C271.4,228.8,271.5,235.9,256.2,241.7z"/>
						<path fill="#172F4C" d="M200.1,237.7c15.7,3.2,41.2,0.9,57-5s15.9-13.3,0.2-16.5s-41.2-0.9-57,5
							C184.5,227.2,184.4,234.6,200.1,237.7z"/>
						<polyline fill="#204563" points="188.7,335.1 188.7,325.2 221.7,325.2 221.7,334.5 						"/>
						<path fill="#B9937F" d="M262.9,314.2c-6.4,1.8-16.8,1.8-23.2,0c-6.4-1.9-6.5-4.9-0.1-6.7c6.4-1.8,16.8-1.8,23.2,0
							C269.2,309.4,269.3,312.4,262.9,314.2z"/>
						<path fill="#B9937F" d="M216.9,328.4c-6.4,1.8-16.8,1.8-23.2,0c-6.4-1.9-6.5-4.9-0.1-6.7s16.8-1.8,23.2,0
							C223.3,323.6,223.3,326.6,216.9,328.4z"/>
						<path fill="#B9937F" d="M225.6,121.7L225.6,121.7c-14.6,0-26.5-11.9-26.5-26.5V75.9c0-14.6,11.9-26.5,26.5-26.5h0
							c14.6,0,26.5,11.9,26.5,26.5v19.2C252,109.7,240.1,121.7,225.6,121.7z"/>
						<path fill="#204563" d="M239.6,324.3c6.4,1.8,16.8,1.8,23.2,0c6.4-1.9,6.5-4.9,0.1-6.7c-6.4-1.8-16.8-1.8-23.2,0
							C233.2,319.5,233.2,322.5,239.6,324.3z"/>
						<polyline fill="#204563" points="234.6,321.3 234.6,311.5 267.6,311.5 267.6,320.8 						"/>
						<path fill="#B9937F" d="M262.9,314.7c-6.4,1.8-16.8,1.8-23.2,0c-6.4-1.9-6.5-4.9-0.1-6.7c6.4-1.8,16.8-1.8,23.2,0
							C269.2,309.8,269.3,312.8,262.9,314.7z"/>
						<path fill="#B9937F" d="M267.6,159.5v13.7v10.6v51.7c9.5-3.2,16.4-12.1,16.4-22.7v-31.9V170v-10.5H267.6z"/>
						<path fill="#172F4C" d="M262.5,162c4.9,1.4,12.9,1.4,17.9,0c4.9-1.4,5-3.7,0.1-5.2s-12.9-1.4-17.9,0
							C257.6,158.3,257.5,160.6,262.5,162z"/>
					</g>
					<path fill="#765C33" d="M196.2,94.2l0.2,0V78.5c0-14.1,9.4-27.1,23.2-29.8c18.5-3.7,35,10.6,35,28.5v12l0,0l0,0v0.1l-0.1,0
						l-17.2,16.4L196.2,94.2z"/>
				</g>
			</g>
			<g>
				<path fill="#B9937E" d="M177.4,222.3c-2,0-4.1-0.5-5.9-1.5L136,201.7c-6.1-3.3-8.3-10.8-5.1-16.9l0,0c3.3-6.1,10.8-8.3,16.9-5.1
					l17.1,9.2v-13.7h24.9v34.6c0,4.4-2.3,8.4-6.1,10.7C181.8,221.7,179.6,222.3,177.4,222.3z"/>
			</g>
			<polyline fill="#172F4C" points="188.3,231.1 188.3,169.9 252.7,191.7 252.7,225.7 			"/>
			<path fill="#172F4C" d="M168.6,178.1c4.9,1.4,12.9,1.4,17.9,0s5-3.7,0.1-5.2s-12.9-1.4-17.9,0S163.6,176.6,168.6,178.1z"/>
			<path fill="#172F4C" d="M233.9,121.2c14.6,0,26.5-11.9,26.5-26.5V75.5c0-14.6-11.9-31.9-26.5-31.9h0c-14.6,0-26.5,17.4-26.5,31.9
				v19.2v36.9"/>
		</g>
	</g>
</g>
<g id="tgt_09">
	<circle opacity="0" fill="#FFFFFF" cx="200" cy="200" r="200"/>
	<g id="tgt09">
		<g>
			<path id="XMLID_66_" fill="#F39200" d="M190.7,343.1c1.1,0,2-0.9,2-2v-10.8c0-1.1-0.9-2-2-2s-2,0.9-2,2v10.8
				C188.7,342.2,189.6,343.1,190.7,343.1z"/>
			<path id="XMLID_65_" fill="#F39200" d="M178.9,349.9c1.1,0,2-0.9,2-2v-10.8c0-1.1-0.9-2-2-2s-2,0.9-2,2v10.8
				C176.9,349,177.8,349.9,178.9,349.9z"/>
			<path fill="#E61400" d="M154.9,292.2c9.2-7.8,16.8-8.8,20-8.8c0.4,0,0.7-0.1,1.1-0.1c11.4,0,20.6,9.2,20.6,20.6
				c0,1.3-0.2,2.6-0.4,3.9v0l0,0c-1.8,9.5-10.2,16.8-20.2,16.8c-8.7,0-16.1-5.4-19.1-13.1c-0.8-0.1-1.7-0.2-2.5-0.2
				c0,0-10.6,0.1-14.1-0.1c-6.8-0.4-12.1-3.7-14.9-9.3C139.9,303.1,149,297.2,154.9,292.2z"/>
			
				<linearGradient id="SVGID_8_" gradientUnits="userSpaceOnUse" x1="-8747.2393" y1="-7983.1733" x2="-8740.3066" y2="-7983.1733" gradientTransform="matrix(-10 0 0 10 -87264.5859 80141.0469)">
				<stop  offset="0" style="stop-color:#FF5A0F"/>
				<stop  offset="1" style="stop-color:#E61400"/>
			</linearGradient>
			<path fill="url(#SVGID_8_)" d="M175.3,283.3c0.5,0,1,0.1,1.4,0.1c3.3-3.6,7.9-5.8,13.1-5.8c6.3,0,11.9,3.3,15,8.2l2.9-7.7v17.3
				c0,0,0-0.1,0,0c0,4.3-1.6,8.3-4.2,11.4c0.3,1.7,0.5,3.4,0.5,5.2c0,15.9-12.9,28.8-28.8,28.8c-15.9,0-36.8-8.7-36.8-24.7
				C138.5,300.4,159.4,283.3,175.3,283.3z"/>
			<path fill="#F39200" d="M201.5,301.6c-1,1.9-0.3,4.2,1.6,5.1c1.8,0.9,8.3,0.2,8.3,0.2s-2.9-6.1-4.8-7
				C204.7,298.9,202.5,299.7,201.5,301.6z"/>
			<path fill="#FF5A0F" d="M140.5,301.3c9.2-7.8,16.8-8.8,20-8.8c0.4,0,0.7-0.1,1.1-0.1c11.4,0,20.6,9.2,20.6,20.6
				c0,1.3-0.2,2.6-0.4,3.9v0l0,0c-1.8,9.5-10.2,16.8-20.2,16.8c-8.7,0-16.1-5.4-19.1-13.1c-0.8-0.1-1.7-0.2-2.5-0.2
				c0,0-10.6,0.1-14.1-0.1c-6.8-0.4-12.1-3.7-14.9-9.3C125.5,312.2,134.6,306.3,140.5,301.3z"/>
			<path fill="#141428" d="M192.2,297.7c0.2,1.2,1.3,2.1,2.5,2.1c1.2,0,2-0.9,1.7-2.1c-0.2-1.2-1.3-2.1-2.5-2.1
				C192.8,295.6,192,296.5,192.2,297.7z"/>
		</g>
		<linearGradient id="SVGID_9_" gradientUnits="userSpaceOnUse" x1="110.5736" y1="135.7055" x2="312.1212" y2="135.7055">
			<stop  offset="0" style="stop-color:#FF5A0F"/>
			<stop  offset="1" style="stop-color:#E61400"/>
		</linearGradient>
		<path fill="url(#SVGID_9_)" d="M312.1,125.7c0,55.7-45.1,120.8-100.8,120.8s-100.8-65.1-100.8-120.8S155.7,24.9,211.3,24.9
			S312.1,70,312.1,125.7z"/>
	</g>
</g>
<g id="tgt_10">
	<circle opacity="0" fill="#FFFFFF" cx="200" cy="200" r="200"/>
	<g id="tgt10">
		<g>
			<g id="XMLID_63_">
				<g id="XMLID_64_">
					<g>
						<path opacity="0.15" fill="#1D3A57" d="M137.1,364.2c-37.8-21.8-37.6-57.4,0.4-79.4c38.1-22,99.6-22.1,137.5-0.2
							s37.6,57.4-0.4,79.4C236.4,385.9,174.9,386,137.1,364.2z"/>
						<g>
							<polyline fill="#172F4C" points="216.2,312.9 216.2,303.8 249.2,303.8 249.2,313.2 							"/>
							<path fill="#172F4C" d="M249.4,313l-23.5-16c-6.2-3.6-15.7-4-21.1-0.9h0c-5.4,3.1-4.7,8.6,1.5,12.2l11.4,6.5"/>
							<path fill="#172F4C" d="M203.3,326.7l-23.5-16c-6.2-3.6-15.7-4-21.1-0.9h0c-5.4,3.1-4.7,8.6,1.5,12.2l11.4,6.5"/>
							<rect x="170.5" y="263.8" fill="#008C5A" width="32.8" height="62.6"/>
							<rect x="216.4" y="263.8" fill="#008C5A" width="32.8" height="48.1"/>
							<path fill="#204563" d="M175.2,330.2c6.4,1.8,16.8,1.8,23.2,0c6.4-1.9,6.5-4.9,0.1-6.7c-6.4-1.8-16.8-1.8-23.2,0
								C168.9,325.3,168.8,328.3,175.2,330.2z"/>
							<rect x="170.5" y="215.5" fill="#55BE5A" width="32.8" height="62.6"/>
							<rect x="216.4" y="215.5" fill="#55BE5A" width="32.8" height="48.1"/>
							<rect x="170.6" y="215.5" fill="#55BE5A" width="76.5" height="22.6"/>
							<path fill="#0555FA" d="M146.6,184.1l95,33.6c6.1-1.1,11.7-4.3,15.9-8.8c5-5.3,8.1-17.2,8.1-24.3v-61.5
								c0-16.6-13.4-27.6-30-24.7l-59.1,10.4c-16.5,2.9-29.9,18.6-30,35.2C146.4,178.3,146.6,162.3,146.6,184.1z"/>
							<path fill="#55BE5A" d="M198.5,281.5c-6.4,1.8-16.8,1.8-23.2,0c-6.4-1.9-6.5-4.9-0.1-6.7s16.8-1.8,23.2,0
								S204.9,279.7,198.5,281.5z"/>
							<path fill="#55BE5A" d="M244.4,266.3c-6.4,1.8-16.8,1.8-23.2,0c-6.4-1.9-6.5-4.9-0.1-6.7s16.8-1.8,23.2,0
								S250.8,264.4,244.4,266.3z"/>
							<path fill="#55BE5A" d="M237.8,233.8c-15.3,5.8-40.2,7.9-55.6,4.8c-15.4-3.1-15.5-10.3-0.2-16s40.2-7.9,55.6-4.8
								C253,220.8,253.1,228,237.8,233.8z"/>
							<path fill="#0555FA" d="M181.7,229.8c15.7,3.2,41.2,0.9,57-5s15.9-13.3,0.2-16.5s-41.2-0.9-57,5S166,226.6,181.7,229.8z"/>
							<polyline fill="#204563" points="170.3,327.1 170.3,317.3 203.3,317.3 203.3,326.6 							"/>
							<path fill="#008C5A" d="M198.5,320.5c-6.4,1.8-16.8,1.8-23.2,0c-6.4-1.9-6.5-4.9-0.1-6.7s16.8-1.8,23.2,0
								S204.9,318.7,198.5,320.5z"/>
							<path fill="#B9937F" d="M207.1,113.7L207.1,113.7c-14.6,0-26.5-11.9-26.5-26.5V68c0-14.6,11.9-26.5,26.5-26.5h0
								c14.6,0,26.5,11.9,26.5,26.5v19.2C233.6,101.8,221.7,113.7,207.1,113.7z"/>
							<path fill="#204563" d="M221.2,316.4c6.4,1.8,16.8,1.8,23.2,0c6.4-1.9,6.5-4.9,0.1-6.7s-16.8-1.8-23.2,0
								S214.8,314.6,221.2,316.4z"/>
							<polyline fill="#204563" points="216.2,313.4 216.2,303.5 249.2,303.5 249.2,312.8 							"/>
							<path fill="#B9937F" d="M249.2,151.5v13.7v10.6v51.7c9.5-3.2,16.4-12.1,16.4-22.7v-31.9v-10.7v-10.5H249.2z"/>
							<path fill="#0555FA" d="M244,154.1c4.9,1.4,12.9,1.4,17.9,0c4.9-1.4,5-3.7,0.1-5.2s-12.9-1.4-17.9,0
								C239.1,150.4,239.1,152.7,244,154.1z"/>
						</g>
						<path fill="#DBAA76" d="M177.8,86.3l0.2,0l0-15.7c0-14.1,9.4-27.1,23.2-29.8c18.5-3.7,35,10.6,35,28.5v12l0,0l0,0v0.1l-0.1,0
							l-0.7,0.7c-10.2,9.7-24.7,13.4-38.3,9.6L177.8,86.3z"/>
					</g>
				</g>
				<g>
					<path fill="#B9937E" d="M159,214.4c-2,0-4.1-0.5-5.9-1.5l-35.5-19.1c-6.1-3.3-8.3-10.8-5.1-16.9l0,0c3.3-6.1,10.8-8.3,16.9-5.1
						l17.1,9.2v-13.7h24.9v34.6c0,4.4-2.3,8.4-6.1,10.7C163.4,213.8,161.2,214.4,159,214.4z"/>
				</g>
				<polyline fill="#0555FA" points="169.9,223.2 169.9,161.9 234.3,183.8 234.3,217.7 				"/>
				<path fill="#0555FA" d="M150.1,170.1c4.9,1.4,12.9,1.4,17.9,0s5-3.7,0.1-5.2s-12.9-1.4-17.9,0S145.2,168.7,150.1,170.1z"/>
			</g>
			<path fill="#008C5A" d="M244.5,306.3c-6.4,1.8-16.8,1.8-23.2,0c-6.4-1.9-6.5-4.9-0.1-6.7c6.4-1.8,16.8-1.8,23.2,0
				S250.8,304.4,244.5,306.3z"/>
		</g>
		<g>
			<path fill="#55BE5A" d="M202.5,49l29.2,17c8.1,4.7,2.3,3.5-7,8.9l-5.3-9.8c-9.3,5.4-32.8,14.2-40.8,9.6l-10.1-6
				c-8.1-4.7-7.1-12.9,2.3-18.3l-0.1,0.1C180.2,45,194.5,44.3,202.5,49z"/>
			<g>
				
					<linearGradient id="SVGID_10_" gradientUnits="userSpaceOnUse" x1="14782.7217" y1="-8213.8057" x2="14782.7217" y2="-8247.8223" gradientTransform="matrix(-1.2 0 0 -1.2 17935.6543 -9810.542)">
					<stop  offset="0" style="stop-color:#FFFFFF"/>
					<stop  offset="1" style="stop-color:#000000"/>
				</linearGradient>
				<path opacity="0.3" fill="url(#SVGID_10_)" d="M184.3,64.3c12.1-3.5,31.7-3.5,43.9,0c0.7,0.2,1.3,0.5,1.9,0.7l-27.6-16
					c-8.1-4.7-22.4-4-31.7,1.4l0.1-0.1c-9.3,5.4-10.3,13.6-2.3,18.3l8.5,4.9C173.4,70.3,175.7,66.8,184.3,64.3z"/>
				<path fill="#55BE5A" d="M180.9,75.7l-3.8-2.2C178,74.3,179.3,75,180.9,75.7z"/>
				<path fill="#55BE5A" d="M230.1,65l1.6,0.9c8.1,4.7,3.6,3.3-5.8,8.7l0.2-0.2c-2.1,1.2-4.4,2.8-6.6,4.3c3.2-0.4,6.2-1,8.8-1.7
					C239.7,73.7,240.2,68.5,230.1,65z"/>
				<path fill="#55BE5A" d="M226,74.6c9.3-5.4,13.8-4,5.8-8.7l-1.6-0.9c-0.7-0.2-1.2-0.5-1.9-0.7c-12.2-3.5-31.8-3.5-43.9,0
					c-8.6,2.5-10.9,6.1-7.2,9.2l3.8,2.2c1,0.4,2.2,0.9,3.5,1.2c9.5,2.7,23.6,3.3,35,1.8c2.3-1.5,4.5-3,6.6-4.3L226,74.6z"/>
			</g>
			<path fill="#55BE5A" d="M175.2,70.6c0-17.1,14-31.1,31.1-31.1h0c17.1,0,31.1,14,31.1,31.1"/>
		</g>
	</g>
</g>
<g id="tgt_11">
	<circle opacity="0" fill="#FFFFFF" cx="200" cy="200" r="200"/>
	<g id="tgt11">
		<g id="tgt_x5F_11_2_">
			<g id="XMLID_52_">
				<polygon id="XMLID_62_" fill="#FF5A0F" points="246.9,51.8 259.4,44.3 353.6,98.7 354,206.6 354,296 286.6,335 199.4,284.6 
					199.4,195.2 				"/>
				<polygon id="XMLID_61_" fill="#E61400" points="241,48.4 341,106.4 296.9,242.1 285.3,245.6 227.8,53.1 				"/>
				<polygon id="XMLID_60_" opacity="0.3" fill="#1D1D1B" points="199.4,195.2 285.3,245.6 286.6,245.2 286.6,335 199.4,284.6 				
					"/>
				<polygon id="XMLID_59_" fill="#FF5A0F" points="227.8,53.1 329.4,109.9 285.3,245.6 185.5,186.7 				"/>
				<polygon id="XMLID_58_" opacity="0.15" fill="#1D1D1B" points="286.6,245.2 286.6,335 354,296 353.6,98.7 341,106.4 
					296.9,242.1 				"/>
				
					<rect id="XMLID_57_" x="200.2" y="192.3" transform="matrix(0.866 0.5 -0.5 0.866 125.8824 -80.4343)" fill="#E61400" width="25.6" height="4.7"/>
				<polygon id="XMLID_56_" fill="#E61400" points="238.4,77.2 309,116.2 269.8,217.1 206,179.5 				"/>
				<polygon id="XMLID_55_" fill="#00B3FF" points="299.1,141.6 243.5,109.5 226.7,166.8 277.7,196.7 				"/>
				<polygon id="XMLID_54_" opacity="0.15" fill="#1D1D1B" points="238.4,77.2 243.5,109.5 226.7,166.8 206,179.5 				"/>
				<polygon id="XMLID_53_" opacity="0.3" fill="#1D1D1B" points="238.4,77.2 243.5,109.5 299.1,141.6 309,116.2 				"/>
			</g>
		</g>
		<g id="XMLID_376_">
			<g>
				<g>
					<g id="XMLID_50_">
						<g id="XMLID_51_">
							<g>
								<path opacity="0.15" fill="#1D3A57" d="M212.1,375.4c37.8-21.8,37.6-57.4-0.4-79.4c-38.1-22-99.6-22.1-137.5-0.2
									s-37.6,57.4,0.4,79.4C112.8,397.1,174.3,397.2,212.1,375.4z"/>
								<g>
									<polyline fill="#172F4C" points="133,324.1 133,315 100,315 100,324.4 									"/>
									<path fill="#172F4C" d="M99.9,324.3l23.5-16c6.2-3.6,15.7-4,21.1-0.9h0c5.4,3.1,4.7,8.6-1.5,12.2l-11.4,6.5"/>
									<path fill="#172F4C" d="M145.9,337.9l23.5-16c6.2-3.6,15.7-4,21.1-0.9h0c5.4,3.1,4.7,8.6-1.5,12.2l-11.4,6.5"/>
									<rect x="145.9" y="275" fill="#B9937F" width="32.8" height="62.6"/>
									<rect x="100" y="275" fill="#B9937F" width="32.8" height="48.1"/>
									<path fill="#204563" d="M174,341.4c-6.4,1.8-16.8,1.8-23.2,0c-6.4-1.9-6.5-4.9-0.1-6.7c6.4-1.8,16.8-1.8,23.2,0
										C180.3,336.6,180.4,339.6,174,341.4z"/>
									<rect x="145.9" y="226.8" fill="#FF5A0F" width="32.8" height="62.6"/>
									<rect x="100" y="226.8" fill="#FF5A0F" width="32.8" height="48.1"/>
									<rect x="102" y="226.8" fill="#FF5A0F" width="76.5" height="22.6"/>
									<path fill="#FDC300" d="M202.6,195.3l-95,33.6c-6.1-1.1-11.7-4.3-15.9-8.8c-5-5.3-8.1-17.2-8.1-24.3v-61.5
										c0-16.6,13.4-27.6,30-24.7l59.1,10.4c16.5,2.9,29.9,18.6,30,35.2C202.8,189.5,202.6,173.5,202.6,195.3z"/>
									<path fill="#FF5A0F" d="M150.7,292.7c6.4,1.8,16.8,1.8,23.2,0c6.4-1.9,6.5-4.9,0.1-6.7c-6.4-1.8-16.8-1.8-23.2,0
										C144.3,287.9,144.3,290.9,150.7,292.7z"/>
									<path fill="#FF5A0F" d="M104.8,277.5c6.4,1.8,16.8,1.8,23.2,0c6.4-1.9,6.5-4.9,0.1-6.7s-16.8-1.8-23.2,0
										C98.4,272.6,98.4,275.6,104.8,277.5z"/>
									<path fill="#FF5A0F" d="M111.4,245c15.3,5.8,40.2,7.9,55.6,4.8c15.4-3.1,15.5-10.3,0.2-16s-40.2-7.9-55.6-4.8
										C96.2,232.1,96.1,239.2,111.4,245z"/>
									<path fill="#FDC300" d="M167.5,241c-15.7,3.2-41.2,0.9-57-5c-15.8-5.9-15.9-13.3-0.2-16.5c15.7-3.2,41.2-0.9,57,5
										C183.2,230.5,183.2,237.9,167.5,241z"/>
									<polyline fill="#204563" points="178.9,338.3 178.9,328.5 145.9,328.5 145.9,337.8 									"/>
									<path fill="#B9937F" d="M150.7,331.7c6.4,1.8,16.8,1.8,23.2,0c6.4-1.9,6.5-4.9,0.1-6.7s-16.8-1.8-23.2,0
										C144.4,326.9,144.3,329.9,150.7,331.7z"/>
									<path fill="#B9937F" d="M142.1,124.9L142.1,124.9c14.6,0,26.5-11.9,26.5-26.5V79.2c0-14.6-11.9-26.5-26.5-26.5h0
										c-14.6,0-26.5,11.9-26.5,26.5v19.2C115.6,113,127.5,124.9,142.1,124.9z"/>
									<path fill="#204563" d="M128,327.6c-6.4,1.8-16.8,1.8-23.2,0c-6.4-1.9-6.5-4.9-0.1-6.7c6.4-1.8,16.8-1.8,23.2,0
										S134.4,325.8,128,327.6z"/>
									<polyline fill="#204563" points="133,324.6 133,314.8 100,314.8 100,324 									"/>
									<path fill="#B9937F" d="M83.6,162.8v10.5V184V216c0,10.6,6.9,19.5,16.4,22.7V187v-10.6v-13.7H83.6z"/>
									<path fill="#FDC300" d="M105.2,165.3c-4.9,1.4-12.9,1.4-17.9,0s-5-3.7-0.1-5.2c4.9-1.4,12.9-1.4,17.9,0
										S110.1,163.9,105.2,165.3z"/>
								</g>
								<path fill="#DBAA76" d="M171.4,97.5l-0.2,0l0-15.7c0-14.1-9.4-27.1-23.2-29.8c-18.5-3.7-35,10.6-35,28.5v12l0,0l0,0v0.1
									l0.1,0l0.7,0.7c10.2,9.7,24.7,13.4,38.3,9.6L171.4,97.5z"/>
							</g>
						</g>
						<g>
							<path fill="#B9937E" d="M190.2,225.6c2,0,4.1-0.5,5.9-1.5l35.5-19.1c6.1-3.3,8.3-10.8,5.1-16.9l0,0
								c-3.3-6.1-10.8-8.3-16.9-5.1l-17.1,9.2v-13.7h-24.9v34.6c0,4.4,2.3,8.4,6.1,10.7C185.8,225,188,225.6,190.2,225.6z"/>
						</g>
						<polyline fill="#FDC300" points="179.3,234.4 179.3,173.2 114.9,195 114.9,229 						"/>
						<path fill="#FDC300" d="M199.1,181.4c-4.9,1.4-12.9,1.4-17.9,0s-5-3.7-0.1-5.2s12.9-1.4,17.9,0S204,179.9,199.1,181.4z"/>
					</g>
					<path fill="#B9937F" d="M104.8,317.5c6.4,1.8,16.8,1.8,23.2,0c6.4-1.9,6.5-4.9,0.1-6.7c-6.4-1.8-16.8-1.8-23.2,0
						S98.4,315.7,104.8,317.5z"/>
				</g>
			</g>
			<ellipse fill="#646363" cx="143.2" cy="76.3" rx="49.4" ry="10.6"/>
			<path fill="#878787" d="M172.5,76.3c0-11.4-6.5-20.1-15.9-28.5c-4-3.6-8.6,2.8-13.4,2.8c-4.8,0-9.3-6.5-13.3-3
				c-9.5,8.4-16,17.2-16,28.6l0,0C133.3,79.8,153.1,79.8,172.5,76.3L172.5,76.3z"/>
		</g>
	</g>
</g>
<g id="tgt_12">
	<circle opacity="0" fill="#FFFFFF" cx="200" cy="200" r="200"/>
	<path opacity="0.15" fill="#1D3A57" d="M127.3,383.7c-37.8-21.8-37.6-57.4,0.4-79.4c38.1-22,99.6-22.1,137.5-0.2
		c37.8,21.8,37.6,57.4-0.4,79.4C226.6,405.4,165.1,405.5,127.3,383.7z"/>
	<g id="tgt12">
		<g>
			<path fill="#182F4C" d="M255.7,146.6c-2.8-14.4-15.5-25.3-30.7-25.3h-39.9c-26.5,0-47.9,21.4-48,47.9
				c-0.1,31.8-0.1,67.6,0.2,67.6l96.2-3.2v-87.1H255.7z"/>
		</g>
		<g id="New_Symbol_62">
		</g>
		<rect id="XMLID_40_" x="155.7" y="233.7" fill="#FF4687" width="76.5" height="22.6"/>
		<g id="XMLID_36_">
			<rect id="XMLID_39_" x="155.7" y="233.7" fill="#FF5A0F" width="32.8" height="110.8"/>
			<path id="XMLID_38_" fill="#182F4C" d="M156.7,345.9l23.5,16c6.2,3.6,15.7,4,21.1,0.9h0c5.4-3.1,4.7-8.6-1.5-12.2l-11.4-6.5"/>
			<path id="XMLID_37_" fill="#FF5A0F" d="M183.7,347.6c-6.4,1.8-16.8,1.8-23.2,0c-6.4-1.9-6.5-4.9-0.1-6.7c6.4-1.8,16.8-1.8,23.2,0
				S190.1,345.8,183.7,347.6z"/>
		</g>
		<g id="XMLID_30_">
			<rect id="XMLID_35_" x="199.4" y="233.7" fill="#FF5A0F" width="32.8" height="92"/>
			<path id="XMLID_34_" fill="#182F4C" d="M200.2,327l23.5,16c6.2,3.6,15.7,4,21.1,0.9l0,0c5.4-3.1,4.7-8.6-1.5-12.2l-11.4-6.5"/>
			<path id="XMLID_33_" fill="#FF5A0F" d="M227.5,328.8c-6.4,1.8-16.8,1.8-23.2,0c-6.4-1.9-6.5-4.9-0.1-6.7c6.4-1.8,16.8-1.8,23.2,0
				C233.8,324,233.8,327,227.5,328.8z"/>
			<path id="XMLID_32_" fill="#FF5A0F" d="M221.1,254.1c-14.9,4.3-39.2,4.3-54.2,0c-15-4.3-15.1-11.3-0.2-15.6
				c14.9-4.3,39.2-4.3,54.2,0C236,242.8,236,249.8,221.1,254.1z"/>
			<path id="XMLID_31_" fill="#182F4C" d="M222,242.3c-15.3,4.4-40.2,4.4-55.6-0.1c-15.4-4.4-15.5-11.6-0.2-16s40.2-4.4,55.6,0.1
				S237.3,237.9,222,242.3z"/>
		</g>
		<g id="XMLID_18_">
			<path id="XMLID_22_" fill="#513E35" d="M161.1,262.3h-4c-11.1,0-20-9-20-20V185h24.1V262.3z"/>
			<path id="XMLID_21_" fill="#513E35" d="M333.6,141.4v4h-77.3v-24.1l57.2,0C324.6,121.3,333.6,130.3,333.6,141.4z"/>
			<path id="XMLID_20_" fill="#182F4C" d="M158.6,187.6c-4.9,1.4-12.9,1.4-17.9,0s-5-3.7-0.1-5.2s12.9-1.4,17.9,0
				S163.6,186.2,158.6,187.6z"/>
			<path id="XMLID_19_" fill="#182F4C" d="M253.3,146.9c-1.7-5.8-1.7-15.3,0-21.1c1.7-5.8,4.4-5.9,6.1-0.1c1.7,5.8,1.7,15.3,0,21.1
				S255,152.7,253.3,146.9z"/>
		</g>
		<g id="New_Symbol_222">
		</g>
		<polyline fill="#182F4C" points="225,121.3 256.3,121.3 256.3,151.3 230.7,151.3 		"/>
		<circle fill="#A07843" cx="200.1" cy="80.1" r="38.8"/>
		<path fill="#513E35" d="M200.1,135.9L200.1,135.9c-14.6,0-26.5-11.9-26.5-26.5V90.2c0-14.6,11.9-26.5,26.5-26.5h0
			c14.6,0,26.5,11.9,26.5,26.5v19.2C226.6,124,214.7,135.9,200.1,135.9z"/>
		<path fill="#A07843" d="M220.8,90.6c-11.2,3.2-29.5,3.2-40.8,0c-11.3-3.3-11.3-8.5-0.1-11.8c11.2-3.2,29.5-3.2,40.8,0
			C232,82.1,232,87.4,220.8,90.6z"/>
		<polyline fill="#A07843" points="173.8,85.1 173.8,56 202.5,56 227,56 227,84.8 		"/>
		<ellipse fill="#A8A8A7" cx="200.4" cy="53.3" rx="6.8" ry="2.7"/>
		<linearGradient id="SVGID_11_" gradientUnits="userSpaceOnUse" x1="200.1391" y1="85.1148" x2="200.1391" y2="7.5702">
			<stop  offset="0" style="stop-color:#A8A8A7"/>
			<stop  offset="0.35" style="stop-color:#ADADAC"/>
			<stop  offset="0.7904" style="stop-color:#BCBCBC"/>
			<stop  offset="1" style="stop-color:#C6C6C6"/>
		</linearGradient>
		<path fill="url(#SVGID_11_)" d="M213.8,35.6c-3.9-1.4-6.6-5.1-6.6-9.3V7.6h-13.6v18.6c0,4.2-2.7,8-6.7,9.4
			c-15.8,5.5-26.8,20.4-26.8,38l0,0c-0.1,3,3.6,6,11.5,8.3c3.4,1,7.3,1.7,11.5,2.3c14.9,2,33.2,1.3,45.5-2.3
			c1.7-0.5,3.2-1.1,4.6-1.6l5-2.9c1.4-1.2,2.1-2.5,2.1-3.7l0,0C240.2,56.1,229.3,41.2,213.8,35.6z"/>
		<ellipse fill="#A8A8A7" cx="200.4" cy="7.6" rx="6.8" ry="2.7"/>
		<path fill="#878787" d="M200.4,4.9c3.8,0,6.8,1.2,6.8,2.7s-3,2.7-6.8,2.7"/>
		<rect x="273.4" y="121.3" fill="#182F4C" width="21.5" height="29.4"/>
		<rect x="273.4" y="121.3" fill="#FF4687" width="21.5" height="19"/>
		<linearGradient id="SVGID_12_" gradientUnits="userSpaceOnUse" x1="284.1754" y1="121.3105" x2="284.1754" y2="101.3105">
			<stop  offset="0" style="stop-color:#FF4687;stop-opacity:0.4"/>
			<stop  offset="0.184" style="stop-color:#C4396F;stop-opacity:0.4"/>
			<stop  offset="0.3991" style="stop-color:#862C56;stop-opacity:0.4"/>
			<stop  offset="0.596" style="stop-color:#552242;stop-opacity:0.4"/>
			<stop  offset="0.7678" style="stop-color:#311A34;stop-opacity:0.4"/>
			<stop  offset="0.9079" style="stop-color:#1C162B;stop-opacity:0.4"/>
			<stop  offset="0.9987" style="stop-color:#141428;stop-opacity:0.4"/>
		</linearGradient>
		<rect x="273.4" y="101.3" fill="url(#SVGID_12_)" width="21.5" height="20"/>
		<g>
			<path fill="#0555FA" d="M182.6,173.1v7.1v7.1v7.1l7.1-1.3v7.1l7.1-1.3l7.1-1.3l7.1-1.3v-7.1l7.1-1.3V181v-7.1v-7.1l-7.1,1.3
				l-7.1,1.3l-7.1,1.3l-7.1,1.3L182.6,173.1z M204,176.4v7.1l-7.1,1.3v-7.1L204,176.4z"/>
			<polygon fill="#0555FA" points="218.3,202.4 211.1,203.7 211.1,196.6 218.3,195.3 			"/>
			<polygon fill="#0555FA" points="189.7,207.5 182.6,208.7 182.6,201.6 189.7,200.3 			"/>
		</g>
	</g>
</g>
<g id="tgt_13">
	<circle opacity="0" fill="#FFFFFF" cx="200" cy="200" r="200"/>
	<g id="tgt13">
		<g>
			<path fill="#172F4C" d="M262.5,191v-48.5c0-17.3-14-31.3-31.3-31.3h-39.9c-26.5,0-47.9,21.4-48,47.9c-0.1,31.8-0.1,67.6,0.2,67.6
				h94.8V191H262.5z"/>
		</g>
		<path opacity="0.15" fill="#1D3A57" d="M268.9,374.9c37.8-21.8,37.6-57.4-0.4-79.4c-38.1-22-99.6-22.1-137.5-0.2
			c-37.8,21.8-37.6,57.4,0.4,79.4C169.6,396.6,231.1,396.8,268.9,374.9z"/>
		<rect x="161.7" y="223.2" fill="#346884" width="32.8" height="111.3"/>
		<rect x="205.5" y="223.2" fill="#346884" width="32.8" height="96"/>
		<rect x="161.7" y="223.2" fill="#346884" width="76.5" height="22.6"/>
		<path fill="#172F4C" d="M162.8,336l23.5,16c6.2,3.6,15.7,4,21.1,0.9h0c5.4-3.1,4.7-8.6-1.5-12.2l-11.4-6.5"/>
		<path fill="#172F4C" d="M206.2,320.6l23.5,16c6.2,3.6,15.7,4,21.1,0.9l0,0c5.4-3.1,4.7-8.6-1.5-12.2l-11.4-6.5"/>
		<path fill="#B9937E" d="M206,123.5L206,123.5c-14.6,0-26.5-11.9-26.5-26.5V77.8c0-14.6,11.9-26.5,26.5-26.5h0
			c14.6,0,26.5,11.9,26.5,26.5v19.2C232.5,111.6,220.6,123.5,206,123.5z"/>
		<path fill="#346884" d="M189.8,337.7c-6.4,1.8-16.8,1.8-23.2,0c-6.4-1.9-6.5-4.9-0.1-6.7c6.4-1.8,16.8-1.8,23.2,0
			C196.1,332.8,196.2,335.8,189.8,337.7z"/>
		<path fill="#346884" d="M233.5,322.4c-6.4,1.8-16.8,1.8-23.2,0c-6.4-1.9-6.5-4.9-0.1-6.7s16.8-1.8,23.2,0
			C239.9,317.6,239.9,320.6,233.5,322.4z"/>
		<path fill="#346884" d="M226.8,243.8c-15.3,4.4-40.2,4.4-55.6-0.1c-15.4-4.4-15.5-11.6-0.2-16c15.3-4.4,40.2-4.4,55.6,0.1
			C242.1,232.2,242.1,239.4,226.8,243.8z"/>
		<path fill="#172F4C" d="M227,231.6c-15.1,4.4-39.5,4.5-54.7,0.1c-15.1-4.3-15.2-11.4-0.1-15.8s39.5-4.5,54.7-0.1
			C242,220.1,242,227.2,227,231.6z"/>
		<path fill="#B9937E" d="M167.3,252.3L167.3,252.3c-13.3,0-24.1-10.8-24.1-24.1V175h24.1V252.3z"/>
		<path fill="#172F4C" d="M164.9,177.6c-4.9,1.4-12.9,1.4-17.9,0s-5-3.7-0.1-5.2s12.9-1.4,17.9,0S169.8,176.1,164.9,177.6z"/>
		<path fill="none" stroke="#346884" stroke-width="5" stroke-linecap="round" stroke-miterlimit="10" d="M204.8,102.6V191
			c0,5-4.1,9.1-9.1,9.1h0c-5,0-9.1-4.1-9.1-9.1V182"/>
		<g>
			<path fill="none" d="M122.4,102.3c0-0.2,0-0.5,0.1-0.7C122.4,101.8,122.4,102.1,122.4,102.3z"/>
			<path fill="none" d="M286.2,92.2c0.2,1,0.4,2,0.6,3C286.6,94.2,286.4,93.2,286.2,92.2z"/>
			<path fill="#55BE5A" d="M122.3,112.5c-0.1-1.4-0.2-2.9-0.2-4.3c0,0,0,0,0,0.1C122.1,109.7,122.2,111.1,122.3,112.5
				C122.3,112.5,122.3,112.5,122.3,112.5z"/>
			<linearGradient id="SVGID_13_" gradientUnits="userSpaceOnUse" x1="286.9582" y1="225.2054" x2="286.9582" y2="25.1931">
				<stop  offset="2.470000e-02" style="stop-color:#141428;stop-opacity:0.8"/>
				<stop  offset="0.9987" style="stop-color:#141428;stop-opacity:5.000000e-02"/>
			</linearGradient>
			<path opacity="0.5" fill="url(#SVGID_13_)" d="M287.8,109.4c0.1-4.7-0.3-9.5-1-14.1c0,0,0,0,0,0c-0.2-1-0.4-2-0.6-3
				c0-0.1-0.1-0.2-0.1-0.3C287.3,97.7,287.8,103.5,287.8,109.4C287.8,109.4,287.8,109.4,287.8,109.4z"/>
			<path fill="#FF4687" d="M145,133.9C145,133.9,145,133.9,145,133.9c0.1-0.8,0.2-1.6,0.4-2.5C145.2,132.2,145.1,133.1,145,133.9z"
				/>
			<linearGradient id="SVGID_14_" gradientUnits="userSpaceOnUse" x1="145.1765" y1="225.2054" x2="145.1765" y2="25.1931">
				<stop  offset="2.470000e-02" style="stop-color:#141428;stop-opacity:0.8"/>
				<stop  offset="0.9987" style="stop-color:#141428;stop-opacity:5.000000e-02"/>
			</linearGradient>
			<path opacity="0.5" fill="url(#SVGID_14_)" d="M145,133.9C145,133.9,145,133.9,145,133.9c0.1-0.8,0.2-1.6,0.4-2.5
				C145.2,132.2,145.1,133.1,145,133.9z"/>
			<path fill="#55BE5A" d="M235.3,32.9c-3.9-0.2-8.9-0.2-14.5,0.9c-3.5,0.7-7.2,1.9-10.8,3.6c-0.1,0.1-0.3,0.1-0.4,0.2
				c-1.9,0.9-3.7,2-5.5,3.3c0,0,0.7,0.1,2,0.2c1.3,0.2,3.2,0.5,5.5,0.9c0.7,0.1,1.5,0.3,2.2,0.5c1.9,0.4,3.9,0.9,6.3,1.5
				c1.6,0.4,3.3,0.9,5.1,1.5c7.2,2.2,15.6,5.5,24.5,10.2c4.4,2.4,9,5.1,13.5,8.3c4.6,3.2,9.1,6.8,13.5,10.9c2,1.8,4,3.8,5.9,5.9
				C274.4,58.9,257.1,41.5,235.3,32.9z"/>
			<path fill="#55BE5A" d="M192.7,40.9c-5.6,0.4-11.1,1.4-16.2,3c-6.5,1.9-12.5,4.5-18,7.4c-11.9,6.2-20.9,13.5-25,17.1
				c-5.9,10-9.8,21.3-11,33.4c0,0.2,0,0.5-0.1,0.7c-0.2,1.9-0.2,3.9-0.3,5.9c0,1.4,0.1,2.9,0.2,4.3c6.5,8.2,14.1,15.4,22.7,21.3
				c0.1-0.8,0.2-1.7,0.4-2.5c0.1-1.1,0.3-2.1,0.4-3.2c0.3-2,0.7-4.1,1.2-6.2c0.2-0.9,0.3-1.7,0.5-2.6c0.7-3,1.5-6.2,2.5-9.3
				c0.1-0.4,0.3-0.8,0.4-1.1c0.9-2.8,1.9-5.6,3-8.4c0.4-1.1,0.9-2.1,1.4-3.2c0.9-2.2,1.9-4.4,3-6.5c0.6-1.3,1.3-2.5,2-3.8
				c1.1-2,2.3-4,3.5-6.1c0.8-1.3,1.7-2.6,2.6-3.9c1.3-2,2.8-3.9,4.3-5.8c1-1.3,2-2.6,3.1-3.9c1.6-1.9,3.4-3.8,5.2-5.7
				c1.2-1.2,2.3-2.4,3.5-3.6c2.1-2,4.4-4,6.8-5.9c1.2-1,2.3-2,3.5-2.9c2.1-1.6,4.5-3.2,6.8-4.7c1.7-1.2,3.2-2.4,5.1-3.5
				C200.3,40.5,196.4,40.6,192.7,40.9z"/>
			<path fill="#008C5A" d="M286.1,91.9c-0.9-3.8-2-7.5-3.4-11.1c-1.9-2-3.9-4-5.9-5.9c-4.4-4.1-9-7.7-13.5-10.9
				c-4.6-3.2-9.1-5.9-13.5-8.3c-8.9-4.8-17.3-8-24.5-10.2c-1.8-0.6-3.5-1-5.1-1.5c-2.3-0.6-4.4-1.1-6.3-1.5
				c-0.7-0.2-1.5-0.3-2.2-0.5c-2.4-0.5-4.2-0.7-5.5-0.9c-1.3-0.2-2-0.2-2-0.2s1.7,1.2,4.4,3.5c12.5,10.5,48,44.4,51.2,91.4
				c10.9-7,20.4-15.9,28-26.4C287.8,103.5,287.3,97.7,286.1,91.9z"/>
			<path fill="#008C5A" d="M205.1,27.2c-1,0-1.9,0.1-2.9,0.1l1.3,9.4l0.6,4.2c1.8-1.3,3.6-2.4,5.5-3.3c0.1-0.1,0.3-0.1,0.4-0.2
				c3.6-1.7,7.3-2.9,10.8-3.6c5.6-1.1,10.6-1.1,14.5-0.9C225.9,29.3,215.8,27.2,205.1,27.2z"/>
			<path fill="#008C5A" d="M196.3,37.8c-5.2-2-12.3-4.3-19.1-5.7c-18.5,6.6-34,19.5-43.8,36.2c4.1-3.6,13.1-10.9,25-17.1
				c5.4-2.8,11.5-5.4,18-7.4c5.2-1.5,10.6-2.5,16.2-3c3.8-0.3,7.6-0.4,11.5,0C204.2,40.9,200.9,39.5,196.3,37.8z"/>
			<path fill="#55BE5A" d="M203.6,36.7l-1.3-9.4c-8.7,0.3-17.1,1.9-25,4.7c6.7,1.4,13.8,3.7,19.1,5.7c4.6,1.7,7.8,3.1,7.8,3.1
				L203.6,36.7z"/>
			<path fill="#008C5A" d="M199.1,44.4c-2.3,1.6-4.7,3.1-6.8,4.7c-1.2,1-2.3,2-3.5,2.9c-2.3,1.9-4.7,3.9-6.8,5.9
				c-1.2,1.2-2.4,2.4-3.5,3.6c-1.8,1.9-3.6,3.8-5.2,5.7c-1.1,1.3-2.1,2.6-3.1,3.9c-1.5,1.9-2.9,3.9-4.3,5.8
				c-0.9,1.3-1.8,2.6-2.6,3.9c-1.3,2-2.4,4-3.5,6.1c-0.7,1.3-1.4,2.5-2,3.8c-1.1,2.2-2.1,4.4-3,6.5c-0.5,1.1-1,2.1-1.4,3.2
				c-1.1,2.8-2.1,5.7-3,8.4c-0.1,0.4-0.3,0.8-0.4,1.1c-1,3.2-1.8,6.3-2.5,9.3c-0.2,0.9-0.3,1.7-0.5,2.6c-0.4,2.1-0.9,4.2-1.2,6.2
				c-0.2,1.1-0.3,2.1-0.4,3.2c-0.1,0.9-0.2,1.7-0.3,2.5c16.7,11.5,37,18.3,58.8,18.3c0.1,0,0.2,0,0.3,0V44.8v-2v-0.5
				c0-0.9,0-1.4,0-1.4C202.3,42,200.8,43.2,199.1,44.4z"/>
			<path fill="#55BE5A" d="M208.5,44.4c-2.7-2.3-4.4-3.5-4.4-3.5l0,1.9v2v107.4c20.5-0.1,39.6-6.1,55.7-16.4
				C256.6,88.8,221.1,54.9,208.5,44.4z"/>
			<path fill="#FF4687" d="M204.1,42.3v0.5l0-1.9C204.2,40.9,204.1,41.4,204.1,42.3z"/>
		</g>
		
			<line fill="none" stroke="#346884" stroke-width="5" stroke-linecap="round" stroke-miterlimit="10" x1="204.2" y1="40.9" x2="204.2" y2="19.3"/>
		<g>
			<path fill="#B9937E" d="M250,207.2c-2,0-4.1-0.5-5.9-1.5l-35.5-19.1c-6.1-3.3-8.3-10.8-5.1-16.9l0,0c3.3-6.1,10.8-8.3,16.9-5.1
				l17.1,9.2v-13.7h24.9v34.6c0,4.4-2.3,8.4-6.1,10.7C254.4,206.6,252.2,207.2,250,207.2z"/>
		</g>
		<path fill="#172F4C" d="M258.8,162.2c-4.9,1.4-12.9,1.4-17.9,0s-5-3.7-0.1-5.2s12.9-1.4,17.9,0
			C263.7,158.5,263.7,160.8,258.8,162.2z"/>
	</g>
</g>
</svg>
