<?xml version="1.0" encoding="utf-8"?>
<!-- Generator: Adobe Illustrator 18.1.1, SVG Export Plug-In . SVG Version: 6.00 Build 0)  -->
<svg version="1.1" xmlns="http://www.w3.org/2000/svg" xmlns:xlink="http://www.w3.org/1999/xlink" x="0px" y="0px"
	 viewBox="0 0 400 400" enable-background="new 0 0 400 400" xml:space="preserve">
<g id="tgt_x5F_01" display="none">
	<g display="inline">
		<circle opacity="0" fill="#FFFFFF" cx="200" cy="200" r="200"/>
		<g>
			<g id="XMLID_12_">
				<path id="XMLID_26_" opacity="0.15" fill="#1D3A57" enable-background="new    " d="M260.6,335.7c33.2-19.2,33-50.4-0.4-69.7
					s-87.5-19.4-120.7-0.2s-33,50.4,0.4,69.7C173.3,354.8,227.4,354.9,260.6,335.7z"/>
				<path fill="#0555FA" d="M220.6,106.4h-39.4c-16.7,0-30.3,13.4-30.3,29.8v11.1v53h15v14.7v71.5h29.9v-71.5h8.1v71.5h30.2v-71.5
					v-14.7H251v-53v-11.1C251,119.8,237.4,106.4,220.6,106.4z"/>
				<path id="XMLID_3_" fill="#172F4C" d="M195.2,286.7l-21.8,15.7c-5.5,3.2-13.8,3.5-18.5,0.8l0,0c-4.7-2.7-4.1-7.5,1.3-10.7
					l10.2-5.8"/>
				<path id="XMLID_52_" fill="#172F4C" d="M204.9,286.7l21.8,15.7c5.5,3.2,13.8,3.5,18.5,0.8l0,0c4.7-2.7,4.1-7.5-1.3-10.7
					l-10.2-5.8"/>
				<path id="XMLID_14_" fill="#B9937E" d="M201,115.7L201,115.7c-12.8,0-23.2-10.5-23.2-23.2V75.6c0-12.8,10.5-23.2,23.2-23.2l0,0
					c12.8,0,23.2,10.5,23.2,23.2v16.9C224.3,105.2,213.8,115.7,201,115.7z"/>
				<path id="XMLID_13_" fill="#F2D78F" d="M173.1,77.9c0-15.4,12.5-27.9,27.9-27.9l0,0c15.3,0,27.9,12.5,27.9,27.9H173.1z"/>
			</g>
			<polygon id="XMLID_11_" fill="#FF5A0F" points="166,200 166,245 186,200 			"/>
			<polygon id="XMLID_2_" fill="#FF5A0F" points="213.9,200 233.9,245 233.9,200 			"/>
			<path id="XMLID_8_" fill="#B9937E" d="M251,216.1L251,216.1c-11.1,0-20-9.8-20-21.8v-48.2h20V216.1z"/>
			<path id="XMLID_1_" fill="#B9937E" d="M150.9,146.1h20v48.2c0,12-8.9,21.8-20,21.8l0,0V146.1z"/>
			<polygon id="XMLID_7_" fill="#FF5A0F" points="172.8,147.2 172.8,107.6 186.6,127.4 			"/>
			<polygon id="XMLID_6_" fill="#FF5A0F" points="229.2,147.2 229.2,107.6 215.4,127.4 			"/>
			<circle id="XMLID_5_" fill="#41B9E6" cx="215.4" cy="147.2" r="5.7"/>
		</g>
	</g>
</g>
<g id="tgt_x5F_02" display="none">
	<g display="inline">
		<circle opacity="0" fill="#FFFFFF" cx="200" cy="200" r="200"/>
		<g>
			<g id="XMLID_19_">
				<path id="XMLID_24_" opacity="0.15" fill="#1D3A57" enable-background="new    " d="M260.6,335.7c33.2-19.2,33-50.4-0.4-69.7
					s-87.5-19.4-120.7-0.2s-33,50.4,0.4,69.7C173.3,354.8,227.4,354.9,260.6,335.7z"/>
				<path fill="#5D5D5D" d="M220.6,106.4h-39.4c-16.7,0-30.3,13.4-30.3,29.8v11.1v53h15v14.7v71.5h29.9v-71.5h8.1v71.5h30.2v-71.5
					v-14.7H251v-53v-11.1C251,119.8,237.4,106.4,220.6,106.4z"/>
				<path id="XMLID_23_" fill="#172F4C" d="M195.2,286.7l-21.8,15.7c-5.5,3.2-13.8,3.5-18.5,0.8l0,0c-4.7-2.7-4.1-7.5,1.3-10.7
					l10.2-5.8"/>
				<path id="XMLID_22_" fill="#172F4C" d="M204.9,286.7l21.8,15.7c5.5,3.2,13.8,3.5,18.5,0.8l0,0c4.7-2.7,4.1-7.5-1.3-10.7
					l-10.2-5.8"/>
				<path id="XMLID_21_" fill="#B9937E" d="M201,115.7L201,115.7c-12.8,0-23.2-10.5-23.2-23.2V75.6c0-12.8,10.5-23.2,23.2-23.2l0,0
					c12.8,0,23.2,10.5,23.2,23.2v16.9C224.3,105.2,213.8,115.7,201,115.7z"/>
				<path id="XMLID_20_" fill="#F2D78F" d="M173.1,77.9c0-15.4,12.5-27.9,27.9-27.9l0,0c15.3,0,27.9,12.5,27.9,27.9H173.1z"/>
			</g>
			<polygon id="XMLID_18_" fill="#FF5A0F" points="166,200 166,245 186,200 			"/>
			<polygon id="XMLID_17_" fill="#FF5A0F" points="213.9,200 233.9,245 233.9,200 			"/>
			<path id="XMLID_16_" fill="#B9937E" d="M251,216.1L251,216.1c-11.1,0-20-9.8-20-21.8v-48.2h20V216.1z"/>
			<path id="XMLID_15_" fill="#B9937E" d="M150.9,146.1h20v48.2c0,12-8.9,21.8-20,21.8l0,0V146.1z"/>
			<polygon id="XMLID_10_" fill="#FF5A0F" points="172.8,147.2 172.8,107.6 186.6,127.4 			"/>
			<polygon id="XMLID_9_" fill="#FF5A0F" points="229.2,147.2 229.2,107.6 215.4,127.4 			"/>
			<circle id="XMLID_4_" fill="#41B9E6" cx="215.4" cy="147.2" r="5.7"/>
		</g>
	</g>
</g>
<g id="tgt_x5F_03" display="none">
	<g display="inline">
		<g id="XMLID_33_">
			<path id="XMLID_38_" opacity="0.15" fill="#1D3A57" enable-background="new    " d="M260.6,335.7c33.2-19.2,33-50.4-0.4-69.7
				s-87.5-19.4-120.7-0.2s-33,50.4,0.4,69.7C173.3,354.8,227.4,354.9,260.6,335.7z"/>
			<path fill="#FF5A0F" d="M220.6,106.4h-39.4c-16.7,0-30.3,13.4-30.3,29.8v11.1v53h15v14.7v71.5h29.9v-71.5h8.1v71.5h30.2v-71.5
				v-14.7H251v-53v-11.1C251,119.8,237.4,106.4,220.6,106.4z"/>
			<path id="XMLID_37_" fill="#172F4C" d="M195.2,286.7l-21.8,15.7c-5.5,3.2-13.8,3.5-18.5,0.8l0,0c-4.7-2.7-4.1-7.5,1.3-10.7
				l10.2-5.8"/>
			<path id="XMLID_36_" fill="#172F4C" d="M204.9,286.7l21.8,15.7c5.5,3.2,13.8,3.5,18.5,0.8l0,0c4.7-2.7,4.1-7.5-1.3-10.7
				l-10.2-5.8"/>
			<path id="XMLID_35_" fill="#B9937E" d="M201,115.7L201,115.7c-12.8,0-23.2-10.5-23.2-23.2V75.6c0-12.8,10.5-23.2,23.2-23.2l0,0
				c12.8,0,23.2,10.5,23.2,23.2v16.9C224.3,105.2,213.8,115.7,201,115.7z"/>
			<path id="XMLID_34_" fill="#F2D78F" d="M173.1,77.9c0-15.4,12.5-27.9,27.9-27.9l0,0c15.3,0,27.9,12.5,27.9,27.9H173.1z"/>
		</g>
		<polygon id="XMLID_32_" fill="#FF5A0F" points="166,200 166,245 186,200 		"/>
		<polygon id="XMLID_31_" fill="#FF5A0F" points="213.9,200 233.9,245 233.9,200 		"/>
		<path id="XMLID_30_" fill="#B9937E" d="M251,216.1L251,216.1c-11.1,0-20-9.8-20-21.8v-48.2h20V216.1z"/>
		<path id="XMLID_29_" fill="#B9937E" d="M150.9,146.1h20v48.2c0,12-8.9,21.8-20,21.8l0,0V146.1z"/>
		<polygon id="XMLID_28_" fill="#FF5A0F" points="172.8,147.2 172.8,107.6 186.6,127.4 		"/>
		<polygon id="XMLID_27_" fill="#FF5A0F" points="229.2,147.2 229.2,107.6 215.4,127.4 		"/>
		<circle id="XMLID_25_" fill="#41B9E6" cx="215.4" cy="147.2" r="5.7"/>
	</g>
	<circle display="inline" opacity="0" fill="#FFFFFF" cx="200" cy="200" r="200"/>
</g>
<g id="tgt_x5F_04" display="none">
	<g display="inline">
		<g>
			<g id="XMLID_46_">
				<path id="XMLID_51_" opacity="0.15" fill="#5D5D5D" enable-background="new    " d="M260.6,335.7c33.2-19.2,33-50.4-0.4-69.7
					s-87.5-19.4-120.7-0.2s-33,50.4,0.4,69.7C173.3,354.8,227.4,354.9,260.6,335.7z"/>
				<path fill="#5D5D5D" d="M220.6,106.4h-39.4c-16.7,0-30.3,13.4-30.3,29.8v11.1v53h15v14.7v71.5h29.9v-71.5h8.1v71.5h30.2v-71.5
					v-14.7H251v-53v-11.1C251,119.8,237.4,106.4,220.6,106.4z"/>
				<path id="XMLID_50_" fill="#5D5D5D" d="M195.2,286.7l-21.8,15.7c-5.5,3.2-13.8,3.5-18.5,0.8l0,0c-4.7-2.7-4.1-7.5,1.3-10.7
					l10.2-5.8"/>
				<path id="XMLID_49_" fill="#5D5D5D" d="M204.9,286.7l21.8,15.7c5.5,3.2,13.8,3.5,18.5,0.8l0,0c4.7-2.7,4.1-7.5-1.3-10.7
					l-10.2-5.8"/>
				<path id="XMLID_48_" fill="#5D5D5D" d="M201,115.7L201,115.7c-12.8,0-23.2-10.5-23.2-23.2V75.6c0-12.8,10.5-23.2,23.2-23.2l0,0
					c12.8,0,23.2,10.5,23.2,23.2v16.9C224.3,105.2,213.8,115.7,201,115.7z"/>
				<path id="XMLID_47_" fill="#5D5D5D" d="M173.1,77.9c0-15.4,12.5-27.9,27.9-27.9l0,0c15.3,0,27.9,12.5,27.9,27.9H173.1z"/>
			</g>
			<polygon id="XMLID_45_" fill="#5D5D5D" points="166,200 166,245 186,200 			"/>
			<polygon id="XMLID_44_" fill="#5D5D5D" points="213.9,200 233.9,245 233.9,200 			"/>
			<path id="XMLID_43_" fill="#5D5D5D" d="M251,216.1L251,216.1c-11.1,0-20-9.8-20-21.8v-48.2h20V216.1z"/>
			<path id="XMLID_42_" fill="#5D5D5D" d="M150.9,146.1h20v48.2c0,12-8.9,21.8-20,21.8l0,0V146.1z"/>
			<polygon id="XMLID_41_" fill="#5D5D5D" points="172.8,147.2 172.8,107.6 186.6,127.4 			"/>
			<polygon id="XMLID_40_" fill="#5D5D5D" points="229.2,147.2 229.2,107.6 215.4,127.4 			"/>
			<circle id="XMLID_39_" fill="#5D5D5D" cx="215.4" cy="147.2" r="5.7"/>
		</g>
		<circle opacity="0" fill="#FFFFFF" cx="200" cy="200" r="200"/>
	</g>
</g>
<g id="tgt_x5F_05" display="none">
	<g display="inline">
		<g>
			<g id="XMLID_60_">
				<path id="XMLID_65_" opacity="0.15" fill="#1D3A57" enable-background="new    " d="M260.6,335.7c33.2-19.2,33-50.4-0.4-69.7
					s-87.5-19.4-120.7-0.2s-33,50.4,0.4,69.7C173.3,354.8,227.4,354.9,260.6,335.7z"/>
				<path fill="#5D5D5D" d="M220.6,106.4h-39.4c-16.7,0-30.3,13.4-30.3,29.8v11.1v53h15v14.7v71.5h29.9v-71.5h8.1v71.5h30.2v-71.5
					v-14.7H251v-53v-11.1C251,119.8,237.4,106.4,220.6,106.4z"/>
				<path id="XMLID_64_" fill="#172F4C" d="M195.2,286.7l-21.8,15.7c-5.5,3.2-13.8,3.5-18.5,0.8l0,0c-4.7-2.7-4.1-7.5,1.3-10.7
					l10.2-5.8"/>
				<path id="XMLID_63_" fill="#172F4C" d="M204.9,286.7l21.8,15.7c5.5,3.2,13.8,3.5,18.5,0.8l0,0c4.7-2.7,4.1-7.5-1.3-10.7
					l-10.2-5.8"/>
				<path id="XMLID_62_" fill="#B9937E" d="M201,115.7L201,115.7c-12.8,0-23.2-10.5-23.2-23.2V75.6c0-12.8,10.5-23.2,23.2-23.2l0,0
					c12.8,0,23.2,10.5,23.2,23.2v16.9C224.3,105.2,213.8,115.7,201,115.7z"/>
				<path id="XMLID_61_" fill="#FF00FF" d="M173.1,77.9c0-15.4,12.5-27.9,27.9-27.9l0,0c15.3,0,27.9,12.5,27.9,27.9H173.1z"/>
			</g>
			<polygon id="XMLID_59_" fill="#FF5A0F" points="166,200 166,245 186,200 			"/>
			<polygon id="XMLID_58_" fill="#FF5A0F" points="213.9,200 233.9,245 233.9,200 			"/>
			<path id="XMLID_57_" fill="#B9937E" d="M251,216.1L251,216.1c-11.1,0-20-9.8-20-21.8v-48.2h20V216.1z"/>
			<path id="XMLID_56_" fill="#B9937E" d="M150.9,146.1h20v48.2c0,12-8.9,21.8-20,21.8l0,0V146.1z"/>
			<polygon id="XMLID_55_" fill="#FF5A0F" points="172.8,147.2 172.8,107.6 186.6,127.4 			"/>
			<polygon id="XMLID_54_" fill="#FF5A0F" points="229.2,147.2 229.2,107.6 215.4,127.4 			"/>
			<circle id="XMLID_53_" fill="#41B9E6" cx="215.4" cy="147.2" r="5.7"/>
		</g>
		<circle opacity="0" fill="#FFFFFF" cx="200" cy="200" r="200"/>
	</g>
</g>
<g id="tgt_x5F_06" display="none">
	<g display="inline">
		<g>
			<g id="XMLID_73_">
				<path id="XMLID_78_" opacity="0.15" fill="#1D3A57" enable-background="new    " d="M260.6,335.7c33.2-19.2,33-50.4-0.4-69.7
					s-87.5-19.4-120.7-0.2s-33,50.4,0.4,69.7C173.3,354.8,227.4,354.9,260.6,335.7z"/>
				<path fill="#22B573" d="M220.6,106.4h-39.4c-16.7,0-30.3,13.4-30.3,29.8v11.1v53h15v14.7v71.5h29.9v-71.5h8.1v71.5h30.2v-71.5
					v-14.7H251v-53v-11.1C251,119.8,237.4,106.4,220.6,106.4z"/>
				<path id="XMLID_77_" fill="#172F4C" d="M195.2,286.7l-21.8,15.7c-5.5,3.2-13.8,3.5-18.5,0.8l0,0c-4.7-2.7-4.1-7.5,1.3-10.7
					l10.2-5.8"/>
				<path id="XMLID_76_" fill="#172F4C" d="M204.9,286.7l21.8,15.7c5.5,3.2,13.8,3.5,18.5,0.8l0,0c4.7-2.7,4.1-7.5-1.3-10.7
					l-10.2-5.8"/>
				<path id="XMLID_75_" fill="#B9937E" d="M201,115.7L201,115.7c-12.8,0-23.2-10.5-23.2-23.2V75.6c0-12.8,10.5-23.2,23.2-23.2l0,0
					c12.8,0,23.2,10.5,23.2,23.2v16.9C224.3,105.2,213.8,115.7,201,115.7z"/>
				<path id="XMLID_74_" fill="#F2D78F" d="M173.1,77.9c0-15.4,12.5-27.9,27.9-27.9l0,0c15.3,0,27.9,12.5,27.9,27.9H173.1z"/>
			</g>
			<polygon id="XMLID_72_" fill="#FF5A0F" points="166,200 166,245 186,200 			"/>
			<polygon id="XMLID_71_" fill="#FF5A0F" points="213.9,200 233.9,245 233.9,200 			"/>
			<path id="XMLID_70_" fill="#B9937E" d="M251,216.1L251,216.1c-11.1,0-20-9.8-20-21.8v-48.2h20V216.1z"/>
			<path id="XMLID_69_" fill="#B9937E" d="M150.9,146.1h20v48.2c0,12-8.9,21.8-20,21.8l0,0V146.1z"/>
			<polygon id="XMLID_68_" fill="#FF5A0F" points="172.8,147.2 172.8,107.6 186.6,127.4 			"/>
			<polygon id="XMLID_67_" fill="#FF5A0F" points="229.2,147.2 229.2,107.6 215.4,127.4 			"/>
			<circle id="XMLID_66_" fill="#41B9E6" cx="215.4" cy="147.2" r="5.7"/>
		</g>
		<circle opacity="0" fill="#FFFFFF" cx="200" cy="200" r="200"/>
	</g>
</g>
<g id="tgt_x5F_07" display="none">
	<g display="inline">
		<g>
			<g id="XMLID_86_">
				<path id="XMLID_91_" opacity="0.15" fill="#1D3A57" enable-background="new    " d="M260.6,335.7c33.2-19.2,33-50.4-0.4-69.7
					s-87.5-19.4-120.7-0.2s-33,50.4,0.4,69.7C173.3,354.8,227.4,354.9,260.6,335.7z"/>
				<path fill="#662D91" d="M220.6,106.4h-39.4c-16.7,0-30.3,13.4-30.3,29.8v11.1v53h15v14.7v71.5h29.9v-71.5h8.1v71.5h30.2v-71.5
					v-14.7H251v-53v-11.1C251,119.8,237.4,106.4,220.6,106.4z"/>
				<path id="XMLID_90_" fill="#172F4C" d="M195.2,286.7l-21.8,15.7c-5.5,3.2-13.8,3.5-18.5,0.8l0,0c-4.7-2.7-4.1-7.5,1.3-10.7
					l10.2-5.8"/>
				<path id="XMLID_89_" fill="#172F4C" d="M204.9,286.7l21.8,15.7c5.5,3.2,13.8,3.5,18.5,0.8l0,0c4.7-2.7,4.1-7.5-1.3-10.7
					l-10.2-5.8"/>
				<path id="XMLID_88_" fill="#B9937E" d="M201,115.7L201,115.7c-12.8,0-23.2-10.5-23.2-23.2V75.6c0-12.8,10.5-23.2,23.2-23.2l0,0
					c12.8,0,23.2,10.5,23.2,23.2v16.9C224.3,105.2,213.8,115.7,201,115.7z"/>
				<path id="XMLID_87_" fill="#F2D78F" d="M173.1,77.9c0-15.4,12.5-27.9,27.9-27.9l0,0c15.3,0,27.9,12.5,27.9,27.9H173.1z"/>
			</g>
			<polygon id="XMLID_85_" fill="#FF5A0F" points="166,200 166,245 186,200 			"/>
			<polygon id="XMLID_84_" fill="#FF5A0F" points="213.9,200 233.9,245 233.9,200 			"/>
			<path id="XMLID_83_" fill="#B9937E" d="M251,216.1L251,216.1c-11.1,0-20-9.8-20-21.8v-48.2h20V216.1z"/>
			<path id="XMLID_82_" fill="#B9937E" d="M150.9,146.1h20v48.2c0,12-8.9,21.8-20,21.8l0,0V146.1z"/>
			<polygon id="XMLID_81_" fill="#FF5A0F" points="172.8,147.2 172.8,107.6 186.6,127.4 			"/>
			<polygon id="XMLID_80_" fill="#FF5A0F" points="229.2,147.2 229.2,107.6 215.4,127.4 			"/>
			<circle id="XMLID_79_" fill="#41B9E6" cx="215.4" cy="147.2" r="5.7"/>
		</g>
		<circle opacity="0" fill="#FFFFFF" cx="200" cy="200" r="200"/>
	</g>
</g>
<g id="tgt_x5F_08" display="none">
	<g display="inline">
		<g>
			<g id="XMLID_99_">
				<path id="XMLID_104_" opacity="0.15" fill="#1D3A57" enable-background="new    " d="M260.6,335.7c33.2-19.2,33-50.4-0.4-69.7
					s-87.5-19.4-120.7-0.2s-33,50.4,0.4,69.7C173.3,354.8,227.4,354.9,260.6,335.7z"/>
				<path fill="#FCEE21" d="M220.6,106.4h-39.4c-16.7,0-30.3,13.4-30.3,29.8v11.1v53h15v14.7v71.5h29.9v-71.5h8.1v71.5h30.2v-71.5
					v-14.7H251v-53v-11.1C251,119.8,237.4,106.4,220.6,106.4z"/>
				<path id="XMLID_103_" fill="#172F4C" d="M195.2,286.7l-21.8,15.7c-5.5,3.2-13.8,3.5-18.5,0.8l0,0c-4.7-2.7-4.1-7.5,1.3-10.7
					l10.2-5.8"/>
				<path id="XMLID_102_" fill="#172F4C" d="M204.9,286.7l21.8,15.7c5.5,3.2,13.8,3.5,18.5,0.8l0,0c4.7-2.7,4.1-7.5-1.3-10.7
					l-10.2-5.8"/>
				<path id="XMLID_101_" fill="#B9937E" d="M201,115.7L201,115.7c-12.8,0-23.2-10.5-23.2-23.2V75.6c0-12.8,10.5-23.2,23.2-23.2l0,0
					c12.8,0,23.2,10.5,23.2,23.2v16.9C224.3,105.2,213.8,115.7,201,115.7z"/>
				<path id="XMLID_100_" fill="#F2D78F" d="M173.1,77.9c0-15.4,12.5-27.9,27.9-27.9l0,0c15.3,0,27.9,12.5,27.9,27.9H173.1z"/>
			</g>
			<polygon id="XMLID_98_" fill="#FF5A0F" points="166,200 166,245 186,200 			"/>
			<polygon id="XMLID_97_" fill="#FF5A0F" points="213.9,200 233.9,245 233.9,200 			"/>
			<path id="XMLID_96_" fill="#B9937E" d="M251,216.1L251,216.1c-11.1,0-20-9.8-20-21.8v-48.2h20V216.1z"/>
			<path id="XMLID_95_" fill="#B9937E" d="M150.9,146.1h20v48.2c0,12-8.9,21.8-20,21.8l0,0V146.1z"/>
			<polygon id="XMLID_94_" fill="#FF5A0F" points="172.8,147.2 172.8,107.6 186.6,127.4 			"/>
			<polygon id="XMLID_93_" fill="#FF5A0F" points="229.2,147.2 229.2,107.6 215.4,127.4 			"/>
			<circle id="XMLID_92_" fill="#41B9E6" cx="215.4" cy="147.2" r="5.7"/>
		</g>
		<circle opacity="0" fill="#FFFFFF" cx="200" cy="200" r="200"/>
	</g>
</g>
<g id="tgt_x5F_09" display="none">
	<g display="inline">
		<g>
			<g id="XMLID_112_">
				<path id="XMLID_117_" opacity="0.15" fill="#7AC943" enable-background="new    " d="M260.6,335.7c33.2-19.2,33-50.4-0.4-69.7
					s-87.5-19.4-120.7-0.2s-33,50.4,0.4,69.7C173.3,354.8,227.4,354.9,260.6,335.7z"/>
				<path fill="#7AC943" d="M220.6,106.4h-39.4c-16.7,0-30.3,13.4-30.3,29.8v11.1v53h15v14.7v71.5h29.9v-71.5h8.1v71.5h30.2v-71.5
					v-14.7H251v-53v-11.1C251,119.8,237.4,106.4,220.6,106.4z"/>
				<path id="XMLID_116_" fill="#7AC943" d="M195.2,286.7l-21.8,15.7c-5.5,3.2-13.8,3.5-18.5,0.8l0,0c-4.7-2.7-4.1-7.5,1.3-10.7
					l10.2-5.8"/>
				<path id="XMLID_115_" fill="#7AC943" d="M204.9,286.7l21.8,15.7c5.5,3.2,13.8,3.5,18.5,0.8l0,0c4.7-2.7,4.1-7.5-1.3-10.7
					l-10.2-5.8"/>
				<path id="XMLID_114_" fill="#7AC943" d="M201,115.7L201,115.7c-12.8,0-23.2-10.5-23.2-23.2V75.6c0-12.8,10.5-23.2,23.2-23.2l0,0
					c12.8,0,23.2,10.5,23.2,23.2v16.9C224.3,105.2,213.8,115.7,201,115.7z"/>
				<path id="XMLID_113_" fill="#7AC943" d="M173.1,77.9c0-15.4,12.5-27.9,27.9-27.9l0,0c15.3,0,27.9,12.5,27.9,27.9H173.1z"/>
			</g>
			<polygon id="XMLID_111_" fill="#7AC943" points="166,200 166,245 186,200 			"/>
			<polygon id="XMLID_110_" fill="#7AC943" points="213.9,200 233.9,245 233.9,200 			"/>
			<path id="XMLID_109_" fill="#7AC943" d="M251,216.1L251,216.1c-11.1,0-20-9.8-20-21.8v-48.2h20V216.1z"/>
			<path id="XMLID_108_" fill="#7AC943" d="M150.9,146.1h20v48.2c0,12-8.9,21.8-20,21.8l0,0V146.1z"/>
			<polygon id="XMLID_107_" fill="#7AC943" points="172.8,147.2 172.8,107.6 186.6,127.4 			"/>
			<polygon id="XMLID_106_" fill="#7AC943" points="229.2,147.2 229.2,107.6 215.4,127.4 			"/>
			<circle id="XMLID_105_" fill="#7AC943" cx="215.4" cy="147.2" r="5.7"/>
		</g>
		<circle opacity="0" fill="#FFFFFF" cx="200" cy="200" r="200"/>
	</g>
</g>
<g id="tgt_x5F_10" display="none">
	<g display="inline">
		<g>
			<g id="XMLID_125_">
				<path id="XMLID_130_" opacity="0.15" fill="#1D3A57" enable-background="new    " d="M260.6,335.7c33.2-19.2,33-50.4-0.4-69.7
					s-87.5-19.4-120.7-0.2s-33,50.4,0.4,69.7C173.3,354.8,227.4,354.9,260.6,335.7z"/>
				<path d="M220.6,106.4h-39.4c-16.7,0-30.3,13.4-30.3,29.8v11.1v53h15v14.7v71.5h29.9v-71.5h8.1v71.5h30.2v-71.5v-14.7H251v-53
					v-11.1C251,119.8,237.4,106.4,220.6,106.4z"/>
				<path id="XMLID_129_" fill="#172F4C" d="M195.2,286.7l-21.8,15.7c-5.5,3.2-13.8,3.5-18.5,0.8l0,0c-4.7-2.7-4.1-7.5,1.3-10.7
					l10.2-5.8"/>
				<path id="XMLID_128_" fill="#172F4C" d="M204.9,286.7l21.8,15.7c5.5,3.2,13.8,3.5,18.5,0.8l0,0c4.7-2.7,4.1-7.5-1.3-10.7
					l-10.2-5.8"/>
				<path id="XMLID_127_" fill="#B9937E" d="M201,115.7L201,115.7c-12.8,0-23.2-10.5-23.2-23.2V75.6c0-12.8,10.5-23.2,23.2-23.2l0,0
					c12.8,0,23.2,10.5,23.2,23.2v16.9C224.3,105.2,213.8,115.7,201,115.7z"/>
				<path id="XMLID_126_" fill="#F2D78F" d="M173.1,77.9c0-15.4,12.5-27.9,27.9-27.9l0,0c15.3,0,27.9,12.5,27.9,27.9H173.1z"/>
			</g>
			<polygon id="XMLID_124_" fill="#FF5A0F" points="166,200 166,245 186,200 			"/>
			<polygon id="XMLID_123_" fill="#FF5A0F" points="213.9,200 233.9,245 233.9,200 			"/>
			<path id="XMLID_122_" fill="#B9937E" d="M251,216.1L251,216.1c-11.1,0-20-9.8-20-21.8v-48.2h20V216.1z"/>
			<path id="XMLID_121_" fill="#B9937E" d="M150.9,146.1h20v48.2c0,12-8.9,21.8-20,21.8l0,0V146.1z"/>
			<polygon id="XMLID_120_" fill="#FF5A0F" points="172.8,147.2 172.8,107.6 186.6,127.4 			"/>
			<polygon id="XMLID_119_" fill="#FF5A0F" points="229.2,147.2 229.2,107.6 215.4,127.4 			"/>
			<circle id="XMLID_118_" fill="#41B9E6" cx="215.4" cy="147.2" r="5.7"/>
		</g>
		<circle opacity="0" fill="#FFFFFF" cx="200" cy="200" r="200"/>
	</g>
</g>
<g id="tgt_x5F_11" display="none">
	<g display="inline">
		<g>
			<g id="XMLID_138_">
				<path id="XMLID_143_" opacity="0.15" fill="#FF0000" enable-background="new    " d="M260.6,335.7c33.2-19.2,33-50.4-0.4-69.7
					s-87.5-19.4-120.7-0.2s-33,50.4,0.4,69.7C173.3,354.8,227.4,354.9,260.6,335.7z"/>
				<path fill="#FF0000" d="M220.6,106.4h-39.4c-16.7,0-30.3,13.4-30.3,29.8v11.1v53h15v14.7v71.5h29.9v-71.5h8.1v71.5h30.2v-71.5
					v-14.7H251v-53v-11.1C251,119.8,237.4,106.4,220.6,106.4z"/>
				<path id="XMLID_142_" fill="#FF0000" d="M195.2,286.7l-21.8,15.7c-5.5,3.2-13.8,3.5-18.5,0.8l0,0c-4.7-2.7-4.1-7.5,1.3-10.7
					l10.2-5.8"/>
				<path id="XMLID_141_" fill="#FF0000" d="M204.9,286.7l21.8,15.7c5.5,3.2,13.8,3.5,18.5,0.8l0,0c4.7-2.7,4.1-7.5-1.3-10.7
					l-10.2-5.8"/>
				<path id="XMLID_140_" fill="#FFFF00" d="M201,115.7L201,115.7c-12.8,0-23.2-10.5-23.2-23.2V75.6c0-12.8,10.5-23.2,23.2-23.2l0,0
					c12.8,0,23.2,10.5,23.2,23.2v16.9C224.3,105.2,213.8,115.7,201,115.7z"/>
				<path id="XMLID_139_" fill="#FF0000" d="M173.1,77.9c0-15.4,12.5-27.9,27.9-27.9l0,0c15.3,0,27.9,12.5,27.9,27.9H173.1z"/>
			</g>
			<polygon id="XMLID_137_" fill="#FF0000" points="166,200 166,245 186,200 			"/>
			<polygon id="XMLID_136_" fill="#FF0000" points="213.9,200 233.9,245 233.9,200 			"/>
			<path id="XMLID_135_" fill="#FF0000" d="M251,216.1L251,216.1c-11.1,0-20-9.8-20-21.8v-48.2h20V216.1z"/>
			<path id="XMLID_134_" fill="#FF0000" d="M150.9,146.1h20v48.2c0,12-8.9,21.8-20,21.8l0,0V146.1z"/>
			<polygon id="XMLID_133_" fill="#FF0000" points="172.8,147.2 172.8,107.6 186.6,127.4 			"/>
			<polygon id="XMLID_132_" fill="#FF0000" points="229.2,147.2 229.2,107.6 215.4,127.4 			"/>
			<circle id="XMLID_131_" fill="#FF0000" cx="215.4" cy="147.2" r="5.7"/>
		</g>
		<circle opacity="0" fill="#FFFFFF" cx="200" cy="200" r="200"/>
	</g>
</g>
<g id="tgt_x5F_12">
	<g>
		<g>
			<g id="XMLID_151_">
				<path id="XMLID_156_" opacity="0.15" fill="#1D3A57" enable-background="new    " d="M260.6,335.7c33.2-19.2,33-50.4-0.4-69.7
					s-87.5-19.4-120.7-0.2s-33,50.4,0.4,69.7C173.3,354.8,227.4,354.9,260.6,335.7z"/>
				<path fill="#D4145A" d="M220.6,106.4h-39.4c-16.7,0-30.3,13.4-30.3,29.8v11.1v53h15v14.7v71.5h29.9v-71.5h8.1v71.5h30.2v-71.5
					v-14.7H251v-53v-11.1C251,119.8,237.4,106.4,220.6,106.4z"/>
				<path id="XMLID_155_" fill="#172F4C" d="M195.2,286.7l-21.8,15.7c-5.5,3.2-13.8,3.5-18.5,0.8l0,0c-4.7-2.7-4.1-7.5,1.3-10.7
					l10.2-5.8"/>
				<path id="XMLID_154_" fill="#172F4C" d="M204.9,286.7l21.8,15.7c5.5,3.2,13.8,3.5,18.5,0.8l0,0c4.7-2.7,4.1-7.5-1.3-10.7
					l-10.2-5.8"/>
				<path id="XMLID_153_" fill="#B9937E" d="M201,115.7L201,115.7c-12.8,0-23.2-10.5-23.2-23.2V75.6c0-12.8,10.5-23.2,23.2-23.2l0,0
					c12.8,0,23.2,10.5,23.2,23.2v16.9C224.3,105.2,213.8,115.7,201,115.7z"/>
				<path id="XMLID_152_" fill="#D4145A" d="M173.1,77.9c0-15.4,12.5-27.9,27.9-27.9l0,0c15.3,0,27.9,12.5,27.9,27.9H173.1z"/>
			</g>
			<polygon id="XMLID_150_" fill="#FF5A0F" points="166,200 166,245 186,200 			"/>
			<polygon id="XMLID_149_" fill="#FF5A0F" points="213.9,200 233.9,245 233.9,200 			"/>
			<path id="XMLID_148_" fill="#B9937E" d="M251,216.1L251,216.1c-11.1,0-20-9.8-20-21.8v-48.2h20V216.1z"/>
			<path id="XMLID_147_" fill="#B9937E" d="M150.9,146.1h20v48.2c0,12-8.9,21.8-20,21.8l0,0V146.1z"/>
			<polygon id="XMLID_146_" fill="#FF5A0F" points="172.8,147.2 172.8,107.6 186.6,127.4 			"/>
			<polygon id="XMLID_145_" fill="#FF5A0F" points="229.2,147.2 229.2,107.6 215.4,127.4 			"/>
			<circle id="XMLID_144_" fill="#FFFFFF" cx="215.4" cy="147.2" r="5.7"/>
		</g>
		<circle opacity="0" fill="#FFFFFF" cx="200" cy="200" r="200"/>
	</g>
</g>
</svg>
