<?xml version="1.0" encoding="utf-8"?>
<!-- Generator: Adobe Illustrator 21.0.2, SVG Export Plug-In . SVG Version: 6.00 Build 0)  -->
<svg version="1.1" id="Layer_1" xmlns="http://www.w3.org/2000/svg" xmlns:xlink="http://www.w3.org/1999/xlink" x="0px" y="0px"
	 viewBox="0 0 512 300" style="enable-background:new 0 0 512 300;" xml:space="preserve">
<style type="text/css">
	.st0{clip-path:url(#SVGID_2_);}
	.st1{opacity:0.3;fill:url(#SVGID_3_);enable-background:new    ;}
	.st2{opacity:0.3;fill:url(#SVGID_4_);enable-background:new    ;}
	.st3{opacity:0.2;fill:url(#SVGID_5_);enable-background:new    ;}
	.st4{opacity:0.8;}
	.st5{fill:url(#SVGID_6_);}
	.st6{fill:url(#SVGID_7_);}
	.st7{opacity:0.2;fill:url(#SVGID_8_);enable-background:new    ;}
	.st8{opacity:0.2;fill:url(#SVGID_9_);enable-background:new    ;}
	.st9{opacity:0.2;fill:url(#SVGID_10_);enable-background:new    ;}
	.st10{opacity:0.2;fill:url(#SVGID_11_);enable-background:new    ;}
	.st11{opacity:0.2;fill:url(#SVGID_12_);enable-background:new    ;}
	.st12{opacity:0.2;fill:url(#SVGID_13_);enable-background:new    ;}
	.st13{opacity:0.2;fill:url(#SVGID_14_);enable-background:new    ;}
	.st14{opacity:0.2;fill:url(#SVGID_15_);enable-background:new    ;}
	.st15{fill:none;stroke:#0555FA;stroke-width:3.864;stroke-linecap:round;stroke-linejoin:round;stroke-miterlimit:10;}
</style>
<g>
	<defs>
		<rect id="SVGID_1_" width="512.4" height="300"/>
	</defs>
	<clipPath id="SVGID_2_">
		<use xlink:href="#SVGID_1_"  style="overflow:visible;"/>
	</clipPath>
	<g class="st0">
		
			<radialGradient id="SVGID_3_" cx="-1515.9661" cy="157.7215" r="64.418" fx="-1515.8534" fy="134.1161" gradientTransform="matrix(-4.2198 0 0 -9.281994e-02 -6058.0562 269.2403)" gradientUnits="userSpaceOnUse">
			<stop  offset="0" style="stop-color:#0555FA;stop-opacity:0.8"/>
			<stop  offset="1" style="stop-color:#FFFFFF;stop-opacity:0"/>
		</radialGradient>
		<ellipse class="st1" cx="339" cy="254.5" rx="271.9" ry="6"/>
		
			<radialGradient id="SVGID_4_" cx="-4339.8931" cy="190.0422" r="64.4393" fx="-4339.7803" fy="166.4289" gradientTransform="matrix(-1.454 0 0 -9.281994e-02 -6197.6675 269.2403)" gradientUnits="userSpaceOnUse">
			<stop  offset="0" style="stop-color:#0555FA;stop-opacity:0.8"/>
			<stop  offset="1" style="stop-color:#FFFFFF;stop-opacity:0"/>
		</radialGradient>
		<ellipse class="st2" cx="112.5" cy="251.5" rx="93.7" ry="6"/>
		
			<radialGradient id="SVGID_5_" cx="-6067.1982" cy="114.9393" r="64.4251" fx="-6067.0859" fy="91.3313" gradientTransform="matrix(-1.0456 0 0 -9.281994e-02 -5800.6406 269.2403)" gradientUnits="userSpaceOnUse">
			<stop  offset="0" style="stop-color:#0555FA;stop-opacity:0.8"/>
			<stop  offset="1" style="stop-color:#FFFFFF;stop-opacity:0"/>
		</radialGradient>
		<ellipse class="st3" cx="543.5" cy="258.5" rx="67.4" ry="6"/>
		<g class="st4">
			
				<radialGradient id="SVGID_6_" cx="-6227.5352" cy="197.5111" r="64.4339" fx="-6227.4229" fy="173.9001" gradientTransform="matrix(-1 0 0 -0.2158 -5729.9414 291.486)" gradientUnits="userSpaceOnUse">
				<stop  offset="0" style="stop-color:#0555FA;stop-opacity:0.8"/>
				<stop  offset="1" style="stop-color:#FFFFFF;stop-opacity:0"/>
			</radialGradient>
			<ellipse class="st5" cx="497.6" cy="248.9" rx="64.5" ry="13.9"/>
			
				<radialGradient id="SVGID_7_" cx="-5891.0571" cy="197.5111" r="64.4339" fx="-5890.9448" fy="173.9001" gradientTransform="matrix(-1 0 0 -0.2158 -5729.9414 291.486)" gradientUnits="userSpaceOnUse">
				<stop  offset="0" style="stop-color:#0555FA;stop-opacity:0.8"/>
				<stop  offset="1" style="stop-color:#FFFFFF;stop-opacity:0"/>
			</radialGradient>
			<ellipse class="st6" cx="161.1" cy="248.9" rx="64.5" ry="13.9"/>
		</g>
		
			<linearGradient id="SVGID_8_" gradientUnits="userSpaceOnUse" x1="4686.3242" y1="74.7283" x2="4686.3242" y2="97.406" gradientTransform="matrix(1 0 0 -1 -4377.2217 302)">
			<stop  offset="0" style="stop-color:#FFFFFF;stop-opacity:0"/>
			<stop  offset="1" style="stop-color:#0555FA"/>
		</linearGradient>
		<polygon class="st7" points="339,227.3 298,227.3 279.2,206 316.9,201.7 		"/>
		
			<linearGradient id="SVGID_9_" gradientUnits="userSpaceOnUse" x1="2346.853" y1="4760.4824" x2="2394.7754" y2="4760.4824" gradientTransform="matrix(0.7071 0.7071 0.7071 -0.7071 -4544.9458 1904.8281)">
			<stop  offset="0" style="stop-color:#0555FA"/>
			<stop  offset="1" style="stop-color:#FFFFFF;stop-opacity:0"/>
		</linearGradient>
		<path class="st8" d="M480.7,232c-9.4-9.4-9.4-24.5,0-33.9c9.4-9.4,24.5-9.4,33.9,0c9.4,9.4,9.4,24.5,0,33.9
			C505.1,241.4,490,241.4,480.7,232z"/>
		
			<linearGradient id="SVGID_10_" gradientUnits="userSpaceOnUse" x1="2037.2441" y1="4700.791" x2="2082.7332" y2="4700.791" gradientTransform="matrix(0.7071 0.7071 0.7071 -0.7071 -4618.1108 2084.2554)">
			<stop  offset="0" style="stop-color:#0555FA"/>
			<stop  offset="1" style="stop-color:#FFFFFF;stop-opacity:0"/>
		</linearGradient>
		<path class="st9" d="M146.4,233.1c-8.9-8.9-8.9-23.3,0-32.2c8.9-8.9,23.3-8.9,32.2,0c8.9,8.9,8.9,23.3,0,32.2
			C169.7,242,155.3,242,146.4,233.1z"/>
		
			<linearGradient id="SVGID_11_" gradientUnits="userSpaceOnUse" x1="-6123.875" y1="88.3763" x2="-6108.4126" y2="59.3851" gradientTransform="matrix(-1 0 0 -1 -5729.9414 302)">
			<stop  offset="0" style="stop-color:#FFFFFF;stop-opacity:0"/>
			<stop  offset="1" style="stop-color:#0555FA"/>
		</linearGradient>
		<path class="st10" d="M441.2,232.4l-12.4,1.2c-6.2,1.2-12.6,1.7-18.9,1.7h-63c-4.2,0-7.7-3.4-7.7-7.7v-16.4c0-5.2,4.1-9.3,9.3-9.3
			l85.8,3.2L441.2,232.4z"/>
		
			<linearGradient id="SVGID_12_" gradientUnits="userSpaceOnUse" x1="-6110.6548" y1="54.0146" x2="-6110.6548" y2="65.6291" gradientTransform="matrix(-1 0 0 -1 -5729.9414 302)">
			<stop  offset="0" style="stop-color:#FFFFFF;stop-opacity:0"/>
			<stop  offset="1" style="stop-color:#0555FA"/>
		</linearGradient>
		<path class="st11" d="M420.6,236.7l-68,12l-11.6-14c1.2,1.2,2.6,2,4.2,2H420.6L420.6,236.7z"/>
		
			<linearGradient id="SVGID_13_" gradientUnits="userSpaceOnUse" x1="-6129.6968" y1="118.3553" x2="-6137.7114" y2="134.9749" gradientTransform="matrix(-1 0 0 -1 -5729.9414 302)">
			<stop  offset="0" style="stop-color:#FFFFFF;stop-opacity:0"/>
			<stop  offset="1" style="stop-color:#0555FA"/>
		</linearGradient>
		<path class="st12" d="M401.2,164.7c-14.3-3.2-47.5-0.7-47.5-0.7v14.2l74.7,13.9c0,0,12-8.2,26.9-8.3
			C455.4,183.7,428.2,171.1,401.2,164.7"/>
		
			<linearGradient id="SVGID_14_" gradientUnits="userSpaceOnUse" x1="-5998.0762" y1="53.4559" x2="-5998.0762" y2="75.8505" gradientTransform="matrix(-1 0 0 -1 -5729.9414 302)">
			<stop  offset="0" style="stop-color:#FFFFFF;stop-opacity:0"/>
			<stop  offset="1" style="stop-color:#0555FA"/>
		</linearGradient>
		<path class="st13" d="M205.7,225.3c0,0,31.1-3,80.9,10.2s49.8,13.2,49.8,13.2H199.9l20.5-6.9c0,0,2.6-3.4-6.1-10.1
			C205.6,225.2,205.7,225.3,205.7,225.3"/>
		
			<linearGradient id="SVGID_15_" gradientUnits="userSpaceOnUse" x1="-5829.4399" y1="102.3334" x2="-5829.4399" y2="64.3172" gradientTransform="matrix(-1 0 0 -1 -5729.9414 302)">
			<stop  offset="0" style="stop-color:#FFFFFF;stop-opacity:0"/>
			<stop  offset="1" style="stop-color:#0555FA"/>
		</linearGradient>
		<path class="st14" d="M131.9,185c-8.3,8.1-13.5,19.3-13.5,31.8c0,8.5,2.4,16.5,6.6,23.3H67.1l0.1-0.8
			c3.3-18.8,14.4-34.5,29.7-44.1L131.9,185z"/>
		<circle class="st15" cx="497.6" cy="215.1" r="36.7"/>
		<circle class="st15" cx="162.4" cy="216.8" r="35.1"/>
		<path class="st15" d="M72.6,212.6v-6.1c-10.2,0-30.4-5.3-27-6.8c21-8.3,53.2-12.6,86.4-14.6l0,0l0,0c-8.3,8.1-13.5,19.3-13.5,31.8
			c0,8.5,2.4,16.5,6.6,23.3H67.3l0.1-0.8c3.3-18.8,14.4-34.5,29.7-44.1"/>
		<path class="st15" d="M279.6,201.7c0,2.6,2.1,4.8,4.8,4.8c2.6,0,31.1-2.1,31.1-4.8S287,197,284.3,197
			C281.7,197,279.6,199.1,279.6,201.7z"/>
		<path class="st15" d="M442.1,231.6l-10.1,1.9c-7.4,1.3-15,2-22.5,2h-62.2c-4.5,0-8.2-3.7-8.2-8.2v-16.9c0-4.5,3.7-8.2,8.2-8.2
			h60.8h12.6"/>
		<path class="st15" d="M430.6,191.9c-19.3-5.2-66.4-13.6-81.1-13.6c0,0-21.7,0-34.8,0c-13.1,0-16,7.8-32.8,7.8
			c-16.9,0-16.9,0-16.9,0s-0.4,0-1.2-0.1c-1.3-0.1-2.5-1.2-2.5-2.6v-7.9h7"/>
		<path class="st15" d="M451.1,215.1c0,10.7,3.6,20.5,9.7,28.3l-15.4,5.2H232.7h-32.8l20.5-6.9c0,0-2.5-10.1-14.7-16.5l0,0
			c0.5-2.8,0.8-5.6,0.8-8.5c0-13.2-5.8-25-15.1-33.1l0,0c25.3,0.1,47.1,1.1,60.2,1.7"/>
		<path class="st15" d="M353.7,173.5v-9.7l-4.4-22.2h18.8c0,0,16.4,11.6,29.9,22.2c29.9,6.2,53.1,18.4,53.1,18.4h13.6
			c-5.4,5.4-9.5,12.2-11.8,19.9c-0.3,1.2-0.7,2.3-0.9,3.4c0,0-14.4-3.4-31.6-3.4"/>
	</g>
</g>
</svg>
