<?xml version="1.0" encoding="utf-8"?>
<!-- Generator: Adobe Illustrator 21.0.2, SVG Export Plug-In . SVG Version: 6.00 Build 0)  -->
<svg version="1.1" id="Layer_1" xmlns="http://www.w3.org/2000/svg" xmlns:xlink="http://www.w3.org/1999/xlink" x="0px" y="0px"
	 viewBox="0 0 512 300" style="enable-background:new 0 0 512 300;" xml:space="preserve">
<style type="text/css">
	.st0{clip-path:url(#SVGID_2_);}
	.st1{fill:none;stroke:#E61400;stroke-width:4.4177;stroke-linecap:round;stroke-linejoin:round;stroke-miterlimit:10;}
	.st2{fill:url(#SVGID_3_);}
	.st3{fill:none;stroke:#E61400;stroke-width:2.306;stroke-linecap:round;stroke-linejoin:round;stroke-miterlimit:10;}
	.st4{clip-path:url(#SVGID_9_);fill:#FFFFFF;}
</style>
<g>
	<g>
		<g>
			<defs>
				<rect id="SVGID_1_" x="-0.4" y="0" width="512.4" height="300"/>
			</defs>
			<clipPath id="SVGID_2_">
				<use xlink:href="#SVGID_1_"  style="overflow:visible;"/>
			</clipPath>
			<g class="st0">
				<path class="st1" d="M192.3,206.8l-8.8,7.3c-2.4,2-2.8,5.7-0.8,8.2l2.2,2.7l5.4,14.8c0.9,2.4,2.3,4.5,4.2,6.2l10.6,9.5
					c2.3,2.1,5.9,1.9,7.9-0.5l3.1-3.5c1.6-1.8,2.3-4.1,2.1-6.5c-0.4-4.2-1-11.2-0.8-17.9c0.2-10.3,6-26.5,12.2-34.9
					c4.5-6,16.6-22.5,22.9-31.2c2.4-3.3,6.7-4.5,10.5-2.9l4.7,2.8c3.8,2.3,8.6,1.8,12-1.1l35.2-28.5c5.5-4.5,8.8-11.1,9.1-18.2
					l0.2-4.5c0.2-5.7,3.1-11,7.9-14.3c10.6-7.3,30.6-19.6,38.2-21.8c10.8-3.1,23.4-5.5,30.9-5.7c7.4-0.2,14.6,1,19.9,3.3
					c1.7,0.8,12.1,13.6,24.9,29.9c0.9,1.2,2.5,5.7,3.5,6.9c22.7,29.1,50.3,63.4,50.3,63.4l0.2,9c0,1.2,0.4,2.3,1.1,3.2l7.8,10.3
					c0.5,0.6,1.2,1,1.9,1l5.6,0.2c0.7,0,1.4-0.2,1.9-0.7l4.7-4.6c0.5-0.5,0.6-1.4,0.1-1.9l-106.8-136c-1.9-2.4-1.8-4.6-1.1-7.5
					l1.4-3.1c2.2-4.7-2.7-9.6-7.4-7.5l-2.9,1.3c-0.4,0.2-0.8,0.5-1.2,0.8l-5,4.1c-0.7,0.6-2.7,1.8-3.6,2L377,43.8
					c-0.5,0.1-1.1,0.1-1.6,0.2c-2.8,0.2-17.3,2.6-60.4,28.7c-49,29.7-108.1,101.4-108.1,101.4L192.3,206.8z"/>
				<linearGradient id="SVGID_3_" gradientUnits="userSpaceOnUse" x1="-42.865" y1="144.5961" x2="341.024" y2="144.5961">
					<stop  offset="0" style="stop-color:#E61400"/>
					<stop  offset="0.1851" style="stop-color:#EB2303;stop-opacity:0.8149"/>
					<stop  offset="0.5963" style="stop-color:#FA4B0C;stop-opacity:0.2788"/>
					<stop  offset="1" style="stop-color:#FF5A0F;stop-opacity:0"/>
				</linearGradient>
				<path class="st2" d="M208.8,253c-0.3,0-0.7-0.1-1.1-0.4l-10.6-9.5c-1.4-1.3-2.5-2.8-3.1-4.6l-5.6-15.4l-2.6-3.2
					c-0.7-0.8-0.5-2.1,0.3-2.7l9.4-7.9l14.7-33.1C215,170.3,271,103.8,317,76c43.7-26.4,57.3-28,58.7-28.1c0.7,0,1.3-0.1,1.9-0.2
					l19.5-2.9c2.1-0.4,4.8-2.3,5.4-2.8l5-4.1c0.1-0.1,0.2-0.2,0.3-0.2l2.9-1.3c0.3-0.1,0.5-0.2,0.7-0.2c0.7,0,1.2,0.4,1.4,0.8
					c0.3,0.5,0.3,1,0.1,1.6l-1.6,3.5l-0.1,0.4c-0.7,3.4-1,7.1,1.9,10.8l12.8,16.3c-2.2-2.3-2.8-2.6-3.4-2.9
					c-5.3-2.4-12.3-3.7-19.6-3.7c-0.6,0-1.3,0-2,0c-7.7,0.2-20.5,2.6-31.8,5.9c-8.7,2.5-30.2,16.1-39.3,22.3
					c-5.7,3.9-9.3,10.4-9.6,17.3l-0.2,4.5c-0.2,6-3,11.5-7.7,15.3l-35.3,28.6l-0.1,0c-1.2,1-2.6,1.6-4.2,1.6c-1.1,0-2.3-0.3-3.3-0.9
					l-4.9-2.9l-0.2-0.1c-1.6-0.7-3.2-1-4.9-1c-4,0-7.8,1.9-10.2,5.2c-6.7,9.1-18.5,25.3-22.9,31.2c-6.8,9.1-12.7,26.1-13,37.1
					c-0.2,6.7,0.4,13.6,0.8,18.3c0.1,1.3-0.3,2.6-1.1,3.5l-3.1,3.5C209.6,252.9,209.1,253,208.8,253z M511.4,190.1l-7.4-9.8
					c-0.2-0.3-0.3-0.6-0.3-1l-0.2-10.3l-0.8-1c-0.3-0.3-27.8-34.6-50.3-63.3c-0.2-0.4-0.9-1.8-1.3-2.7c-0.1-0.3-0.3-0.6-0.4-0.8
					l67.8,86.4l-2.7,2.6L511.4,190.1z"/>
				<path class="st3" d="M390.5,43.5c0,0-4.6,2.9-8.5,3.5c-3.8,0.6-22.3,2.6-43.4,14.7s-29.2,15.9-41.8,34.6s-15.1,20.9-15.1,20.9
					s-1.8,4.9-17.1,17.7c-14.1,11.8-41.8,46.2-45.9,51.3c-0.3,0.4-0.6,0.9-0.9,1.4c-1.3,2.9-6,13.6-8.4,22.3
					c-1.4,4.9-2.9,9.6-4.1,13.2c-1.3,3.9-5,6.5-9.1,6.3l-1.9-0.1c-1.9-0.1-3.3,1.9-2.6,3.7l3.5,8.6l3.4,3.7c0.9,0.9,1.3,2.1,1.3,3.4
					v2.3"/>
			</g>
		</g>
	</g>
	<g>
		<defs>
			<rect id="SVGID_4_" x="-0.4" y="0" width="512.4" height="300"/>
		</defs>
		<clipPath id="SVGID_5_">
			<use xlink:href="#SVGID_4_"  style="overflow:visible;"/>
		</clipPath>
	</g>
	<g>
		<g>
			<defs>
				<rect id="SVGID_6_" x="-0.4" y="0" width="512.4" height="300"/>
			</defs>
			<clipPath id="SVGID_7_">
				<use xlink:href="#SVGID_6_"  style="overflow:visible;"/>
			</clipPath>
		</g>
	</g>
	<g>
		<g>
			<defs>
				<rect id="SVGID_8_" x="-0.4" y="0" width="512.4" height="300"/>
			</defs>
			<clipPath id="SVGID_9_">
				<use xlink:href="#SVGID_8_"  style="overflow:visible;"/>
			</clipPath>
			<polygon class="st4" points="443.5,56.3 447.2,58.3 443.6,60.6 			"/>
		</g>
	</g>
</g>
</svg>
