<?xml version="1.0" encoding="utf-8"?>
<!-- Generator: Adobe Illustrator 19.2.1, SVG Export Plug-In . SVG Version: 6.00 Build 0)  -->
<svg version="1.1" id="Layer_1" xmlns="http://www.w3.org/2000/svg" xmlns:xlink="http://www.w3.org/1999/xlink" x="0px" y="0px"
	 viewBox="0 0 512 300" style="enable-background:new 0 0 512 300;" xml:space="preserve">
<style type="text/css">
	.st0{clip-path:url(#SVGID_2_);}
	.st1{fill:url(#SVGID_3_);}
	.st2{fill:none;stroke:#E61400;stroke-width:1.5;stroke-linecap:round;stroke-linejoin:round;stroke-miterlimit:10;}
	.st3{fill:none;stroke:#E61400;stroke-width:3.864;stroke-linecap:round;stroke-linejoin:round;stroke-miterlimit:10;}
	.st4{fill:#FFFFFF;}
	.st5{fill:url(#SVGID_4_);}
</style>
<g>
	<g>
		<g>
			<defs>
				<rect id="SVGID_1_" x="-0.4" width="512.4" height="300"/>
			</defs>
			<clipPath id="SVGID_2_">
				<use xlink:href="#SVGID_1_"  style="overflow:visible;"/>
			</clipPath>
			<g class="st0">
				<g>
					<g>
						
							<linearGradient id="SVGID_3_" gradientUnits="userSpaceOnUse" x1="279.8784" y1="942.5941" x2="486.9108" y2="942.5941" gradientTransform="matrix(1 0 0 1 0 -779)">
							<stop  offset="0" style="stop-color:#E61400"/>
							<stop  offset="0.1851" style="stop-color:#EB2303;stop-opacity:0.8149"/>
							<stop  offset="0.7212" style="stop-color:#FA4B0C;stop-opacity:0.2788"/>
							<stop  offset="1" style="stop-color:#FF5A0F;stop-opacity:0"/>
						</linearGradient>
						<path class="st1" d="M473.6,142.7l-1.8-0.3l-0.2,0.8l1.8,0.3L473.6,142.7z M470,150.5l1.7,0.3l0.2-0.8l-1.7-0.3L470,150.5z
							 M471.3,144.7l1.7,0.3l0.2-0.8l-1.7-0.3L471.3,144.7z M471,146.2l1.7,0.3l0.2-0.8l-1.7-0.3L471,146.2z M470.3,149.1l1.7,0.3
							l0.2-0.8l-1.7-0.3L470.3,149.1z M470.6,147.6l1.7,0.3l0.2-0.8l-1.7-0.3L470.6,147.6z M444.6,131.5l18,2.6
							c0.3,0,0.6-0.2,0.7-0.5l7.1-32.9c0.1-0.3-0.1-0.6-0.4-0.7l-8.7-2.9c-0.3-0.1-0.7,0.1-0.8,0.4c-1.6,5.5-8.8,13-11.6,19.1
							c-2.4,5.3-4.2,12.1-4.7,14.2C444,131.1,444.2,131.5,444.6,131.5z M465.1,134.6l11.6,1.9c0.4,0.1,0.8-0.2,0.8-0.6l6.7-29.8
							c0-0.1,0-0.1,0-0.2v-1.2c0-0.3-0.2-0.6-0.5-0.7l-11.5-3.1c-0.4-0.1-0.8,0.1-0.9,0.6l-6.8,32.3
							C464.4,134.1,464.7,134.5,465.1,134.6z M439.3,152.7l27.4,3.4c0.4,0,0.7-0.2,0.8-0.6l3.2-14c0.1-0.4,0.5-0.6,0.8-0.6l3.9,0.6
							c0.4,0.1,0.8-0.2,0.8-0.6l0.6-2.8c0.1-0.4-0.2-0.8-0.6-0.9l-32.1-4.9c-0.4-0.1-0.7,0.2-0.8,0.6l-4.7,18.8
							C438.6,152.3,438.9,152.7,439.3,152.7z M469.3,170.3c-1.8,0-3.2,1.4-3.2,3.2s1.4,3.2,3.2,3.2c1.8,0,3.2-1.4,3.2-3.2
							S471.1,170.3,469.3,170.3z M473.5,153.3c0.1-0.4-0.2-0.8-0.6-0.9l-2.6-0.4c-0.4-0.1-0.7,0.2-0.8,0.5l-0.7,3.1
							c-0.1,0.4,0.2,0.8,0.6,0.9l2.6,0.3c0.4,0,0.7-0.2,0.8-0.5L473.5,153.3z M475.5,144.5l-1.6-0.3l-0.2,0.8l1.6,0.3L475.5,144.5z
							 M474.2,150.4l-1.7-0.3l-0.2,0.8l1.7,0.3L474.2,150.4z M463.9,221.5l-19.7-6.3c-0.5-0.1-0.9,0.1-1.1,0.6l-0.8,2.4
							c-0.2,0.5,0.1,1.1,0.6,1.3l19.6,6.2c0.5,0.1,0.9-0.1,1.1-0.6l0.8-2.5C464.7,222.1,464.4,221.6,463.9,221.5z M449.4,192.3
							c-1-0.3-2,0.2-2.3,1.2l-1,3.1c-0.2,0.5,0.1,1.1,0.6,1.3l2.7,0.9c1,0.3,2-0.2,2.3-1.2l0.7-2.3c0.3-1-0.2-2-1.2-2.3L449.4,192.3
							z M548.8,222.1l-2.5-1c-0.7-0.3-1.5,0.1-1.8,0.8l-2.2,5.3c-0.3,0.7,0,1.5,0.8,1.8l2.5,1c0.7,0.3,1.5,0,1.8-0.8l2.2-5.3
							C549.9,223.2,549.5,222.4,548.8,222.1z M516.6,213.7L456,194.4c-1-0.3-2,0.2-2.4,1.2l-1,3c-0.2,0.5,0.1,1.1,0.6,1.3l61.5,19.6
							c1,0.3,2-0.2,2.4-1.2l0.7-2.2C518.1,215.1,517.6,214,516.6,213.7z M447.6,178.9l-1.8-1.6c-0.4-0.4-1-0.3-1.4,0.1l-14.8,16.2
							c-0.4,0.4-0.3,1,0.1,1.4l1.8,1.6c0.4,0.4,1,0.3,1.4-0.1l14.8-16.2C448.1,179.9,448,179.3,447.6,178.9z M474.5,148.9l-1.7-0.3
							l-0.2,0.8l1.7,0.3L474.5,148.9z M474.8,147.5l-1.7-0.3L473,148l1.7,0.3L474.8,147.5z M475.8,143.1l-1.6-0.3l-0.2,0.8l1.6,0.3
							L475.8,143.1z M475.2,146l-1.6-0.3l-0.2,0.8l1.6,0.3L475.2,146z M451.2,175.4c1,0.8,1.2,2.3,0.3,3.3l-4.9,5.4
							c-0.4,0.4-0.2,1,0.3,1.2l48.5,16c0.4,0.1,0.8-0.1,0.9-0.5l3.4-10.5c0.1-0.4-0.1-0.8-0.4-0.9c-4.5-1.7-30.8-11.5-31.2-11.6
							c-2.1-0.6-3.5-2.7-3.2-4.9s2.3-3.9,4.5-3.8c0.3,0,0.6-0.2,0.7-0.5l2.2-9.7c0.1-0.4-0.2-0.8-0.6-0.9l-33-4.1
							c-0.4,0-0.7,0.2-0.8,0.5l-2.3,8.5c-0.1,0.3,0,0.6,0.3,0.8L451.2,175.4z"/>
					</g>
				</g>
				<g>
					<path class="st2" d="M547.9,208.9l1.4,1.5l0,0c0.6,0.6,1.3,1.3,1.8,2l0.8,1.2c0.6,0.9,1.4,1.8,2.2,2.5l1.2,1.1c0,0,0,0,0.1,0.1
						c8.3,8.6-0.4,22.6-11.8,18.9l-10.7-3.5l-90.2-29.6l-9.2-2.8c-0.1-0.1-4.7-2.4-4.8-2.5c-0.9-0.4-2.2-0.5-3.4-0.5
						c-3.5,0-6.8,1.1-9.7,3l-4.8,3.2"/>
					<path class="st2" d="M527.4,230.9l-2.6-0.9c-1.2-0.5-3.3-2.4-4.4-3.1l-1.5-1.1c-1.2-0.9-2.6-1.7-4.1-2.1l-63.2-20.8"/>
					<path class="st3" d="M244.9,184.5c-1.6-4.8-3.1-8.2-4.2-10.3c-0.9-1.6-0.4-3.7,1-4.8l13.9-10.9c0.7-0.6,1.4-1.3,1.9-2.1
						l2.3-3.5c0.6-1,1.8-1.5,2.9-1.1l95.7,30.9l45.3,14.6c2.2,0.7,4.5,0.7,6.6-0.1l3.7-1.3l6.9-3.6c1.7-0.9,3.4-2,5-3.1l7.9-5.9
						c2.7-2,3.1-6,0.7-8.5l-2.4-2.5c-1.5-1.5-2-3.7-1.5-5.7c2.6-9.5,10-36.6,11.2-41.5c1.4-5.9,3.7-11.5,8.2-17.7
						c2.7-3.7,4.6-6.8,5.7-8.7c0.8-1.3,1.8-3.8,1.8-3.8l0.6-1.5c5.4-14.3,26.3-12,28.4,3.2l0.8,5.8c0.2,1.7,0.3,3.5,0.1,5.2
						l-1.4,11.8c-1,22.8,9,36,9,36l22.1,29.3c1.6,2.1,3.6,3.9,5.8,5.3l3.4,2.2c10.5,6.5,19.3,13.3,23.2,16.6
						c1.4,1.2,2.2,1.9,2.2,1.9l0.2,0.2l1,0.9l4.5,4l5.3,5.3c10.6,10.1,0.9,28.3-13,23.6L431.8,207l-16.5-3.7
						c-5.3-0.9-5.6,4.6-6.5,6.7c0,0-5,14-5.4,15.2l-8.9,25.1c-0.4,1.1-1.4,1.9-2.6,1.9l-162.5-1.6c-3.6,0-5.1-4.6-2.2-6.7l2.3-1.8
						l0.8-0.6c7-5.9,12.5-13.7,15.6-23.1c3.4-10.5,3.1-21.8-0.1-31.5C245.6,186.5,245,184.9,244.9,184.5z"/>
					<polygon class="st4" points="476.6,223.6 478,219.9 480.4,222.9 					"/>
				</g>
				
					<linearGradient id="SVGID_4_" gradientUnits="userSpaceOnUse" x1="308.8412" y1="984.3166" x2="57.5478" y2="973.7257" gradientTransform="matrix(1 0 0 1 0 -779)">
					<stop  offset="0" style="stop-color:#FF5A0F;stop-opacity:0"/>
					<stop  offset="1" style="stop-color:#E61400"/>
				</linearGradient>
				<path class="st5" d="M249.8,176L249.8,176c12.4,22.8,7.1,51.1-12.7,67.9l0,0c-0.7,0.6-0.3,1.7,0.6,1.7H316l7.5-67.6l-56.7-17.6
					c-1.1-0.4-2.4-0.1-3.3,0.6l-12.9,10.6C249.3,172.7,249,174.5,249.8,176z"/>
			</g>
		</g>
	</g>
</g>
</svg>
