<?xml version="1.0" encoding="utf-8"?>
<!-- Generator: Adobe Illustrator 19.2.1, SVG Export Plug-In . SVG Version: 6.00 Build 0)  -->
<svg version="1.1" id="Layer_1" xmlns="http://www.w3.org/2000/svg" xmlns:xlink="http://www.w3.org/1999/xlink" x="0px" y="0px"
	 viewBox="0 0 512 300" style="enable-background:new 0 0 512 300;" xml:space="preserve">
<style type="text/css">
	.st0{clip-path:url(#SVGID_2_);}
	.st1{fill:url(#SVGID_3_);}
	.st2{clip-path:url(#SVGID_2_);fill:url(#SVGID_4_);}
	
		.st3{clip-path:url(#SVGID_2_);fill:none;stroke:#E61400;stroke-width:1.5;stroke-linecap:round;stroke-linejoin:round;stroke-miterlimit:10;}
	
		.st4{clip-path:url(#SVGID_2_);fill:none;stroke:#E61400;stroke-width:3.864;stroke-linecap:round;stroke-linejoin:round;stroke-miterlimit:10;}
	.st5{clip-path:url(#SVGID_2_);fill:#FFFFFF;}
</style>
<g>
	<defs>
		<rect id="SVGID_1_" x="-0.4" y="0" width="512.4" height="300"/>
	</defs>
	<clipPath id="SVGID_2_">
		<use xlink:href="#SVGID_1_"  style="overflow:visible;"/>
	</clipPath>
	<g class="st0">
		<linearGradient id="SVGID_3_" gradientUnits="userSpaceOnUse" x1="-42.6855" y1="181.1035" x2="366.0015" y2="181.1035">
			<stop  offset="0" style="stop-color:#E61400"/>
			<stop  offset="0.1851" style="stop-color:#EB2303;stop-opacity:0.8149"/>
			<stop  offset="0.5963" style="stop-color:#FA4B0C;stop-opacity:0.2788"/>
			<stop  offset="1" style="stop-color:#FF5A0F;stop-opacity:0"/>
		</linearGradient>
		<path class="st1" d="M326.6,272.7c-5.4,0-10.8-1-15.9-2.9l-4.1-1.6l-75-31.4c-1.7-0.7-3.6-1.1-5.5-1.1c-2.3,0-4.5,0.6-6.6,1.6
			l-10.1,5.3l-0.2,0.1L372,102c1.8-1.2,3.7-2.1,5.9-2.6c0.8-0.2,1.5-0.3,2.2-0.3l13.1-0.1c3,0,5.8-1.4,7.6-3.8l4.4-5.7h39.4v48
			l-11.8-12c-1.3-1.4-2.9-2.5-4.6-3.3l-0.2-0.1c-1.5-0.7-3.1-1.1-4.7-1.1c-2.9,0-5.8,1.2-7.8,3.4c-2,2.1-3,5.1-2.8,8l0,0.1
			c0.1,1.8,0.7,3.6,1.6,5.2c3.5,6.2,22.2,38.6,28.3,49.2l-5.8,3.1c-0.8,0.4-1.5,0.9-2.2,1.5l-79.8,71.4l-1,0.7
			C346.1,269.4,336.4,272.7,326.6,272.7z"/>
	</g>
	<linearGradient id="SVGID_4_" gradientUnits="userSpaceOnUse" x1="214.0612" y1="114.726" x2="548.5111" y2="114.726">
		<stop  offset="0" style="stop-color:#E61400"/>
		<stop  offset="0.1851" style="stop-color:#EB2303;stop-opacity:0.8149"/>
		<stop  offset="0.6247" style="stop-color:#FA4B0C;stop-opacity:0.2788"/>
		<stop  offset="1" style="stop-color:#FF5A0F;stop-opacity:0"/>
	</linearGradient>
	<path class="st2" d="M484.3,135.5l13.3-3.7c0.1,0.5,0.3,1.4,0.3,2.5c0.1,1.7-0.1,4.4-1.2,7.2c-0.6,1.5-2.2,3.8-6.1,6
		c-0.9,0.5-1.8,0.9-2.6,1.2l-0.9,0.4c-0.6,0.2-1,0.4-1,0.4l-17.1,5.2l-4-13.7l18.3-5.2L484.3,135.5z M474.6,101.1l4.4,15.6
		c2.6-0.7,5.4-1.3,8.7-1.8c4.5-0.7,8.2-0.5,11.7-0.3c0.9,0,1.7,0.1,2.6,0.1l-7.5-25.8L474.6,101.1z M520.7,111.5
		c2.2-0.8,4.4-1.9,6.6-3.2L523,93.4l-22.8,7.3l4.1,14c1.4,0,2.8-0.1,4.4-0.2c0.8-0.1,1.6-0.2,2.4-0.3l-2.2-7.2l9.2-2.5l2.2,7.3
		C520.3,111.6,520.5,111.5,520.7,111.5z M455.1,137.4c0.4-1,0.9-2.1,1.5-3.3l-0.2,0.1l-5.2-17.5L434.8,127l16.2,16.8l2.3-0.7
		C453.3,142.9,453.8,140.5,455.1,137.4z M511.5,114c2.6-0.5,5.3-1.2,8.2-2.2l-2-6.9l-8.2,2.3L511.5,114z M462.2,126.7
		c3.2-3,6.2-5.5,10-7.4c1.8-0.9,3.7-1.7,5.9-2.4l-4.3-15.3l-21.9,13.5l5.3,18C458.4,131,460.1,128.7,462.2,126.7z M538.5,100.8
		c-2.4,2.4-4.9,4.5-7.5,6.4c-0.8,0.6-1.6,1.1-2.4,1.6l6,20.4l37.4-21.1c1.6-0.9,2.5-2.7,2.3-4.5s-1.5-3.3-3.3-3.8l-0.4-0.1
		l-25.4-6.7l-0.2,0.3C544.9,93.2,542.5,96.7,538.5,100.8z M484,134.5l14.3-4l0,0.1l7.7-2.2l-3.7-12.7c-1,0-2-0.1-3-0.1
		c-3.5-0.2-7.1-0.3-11.5,0.3c-3.2,0.5-6,1.1-8.5,1.8l-1,0.3c-2.1,0.7-4,1.4-5.7,2.3c-3.7,1.9-6.5,4.2-9.7,7.2
		c-3.5,3.3-5.7,7.5-6.9,10.4c-0.9,2.3-1.4,4.2-1.7,5.1l9.4-2.6l0-0.1l19.3-5.4L484,134.5z M516.8,122.6l-3.8,1.1l1.7,5.9l3.9-1.1
		L516.8,122.6z M416.7,108.5l-13.6-15.6l-3.6,3.1l13.6,15.6L416.7,108.5z M439.2,110.5l45.2-28.9l2.5,4.1l-45.2,28.9L439.2,110.5z
		 M442.6,85.3l-9-10.4l-6.9,5.9l9,10.4L442.6,85.3z"/>
	<path class="st3" d="M337.6,122.7l28.7-21.3l0.9-0.6c2.6-1.7,5.4-2.9,8.4-3.6l5.6-1.3l15.3,0.3c0.5,0,1,0.2,1.3,0.6l13.1,15.5
		c0.4,0.5,0.9,0.8,1.5,0.9l23,4.6c1.4,0.3,2.8,0.1,4-0.5l2.1-1c0.2-0.1,0.4-0.2,0.7-0.4l54.8-35.3l1-0.4c1.1-0.5,2.4-0.6,3.6-0.4
		l4,0.7l21.7,4.5"/>
	<path class="st4" d="M367.7,96.5l0.3-0.2c2.5-1.8,5.4-3,8.4-3.7l0.1,0c1.2-0.3,2.4-0.4,3.6-0.4c3.3,0,10.2-0.1,13.1-0.1
		c0.8,0,1.6-0.4,2.1-1l28-36.6c0.7-0.9,1.8-1.3,2.8-1l96.4,22.9c1.1,0.3,1.9,1.3,1.8,2.5l-0.4,4.3c-0.1,0.6,0.3,1.2,1,1.4l57.2,14.7
		l0.9,0.3c2.1,0.8,2.8,3.1,1.9,4.9c-0.3,0.7-0.9,1.1-1.6,1.5l-6.8,3.9l-104,61.2h0c-1.5,0.9-3.4,0.8-4.9-0.1l-0.4-0.3l-39.3-40.2
		c-0.8-0.8-1.7-1.5-2.7-2l-0.2-0.1c-2.5-1.2-5.4,0.7-5.2,3.5l0,0.1c0.1,0.8,0.3,1.5,0.7,2.2c4.2,7.4,30.2,52.5,30.2,52.5
		c0.7,1.1,0.3,3.7-0.9,4.3l-9.5,5.1c-0.3,0.2-0.6,0.3-0.8,0.6l-80,71.6l-1.2,0.9c-14.3,10.8-33.1,13.6-49.8,7.3l-4.3-1.6l-75.1-31.4
		c-2-0.8-4.2-0.7-6.1,0.3l-10,5.2l-0.3,0.2c-6.9,3.8-13.8-5-8.6-10.8l0,0L367.7,96.5z"/>
	<polygon class="st5" points="271.4,179.7 272.9,175.6 275.8,179 	"/>
</g>
</svg>
