<?xml version="1.0" encoding="utf-8"?>
<!-- Generator: Adobe Illustrator 21.0.2, SVG Export Plug-In . SVG Version: 6.00 Build 0)  -->
<svg version="1.1" id="Layer_1" xmlns="http://www.w3.org/2000/svg" xmlns:xlink="http://www.w3.org/1999/xlink" x="0px" y="0px"
	 viewBox="0 0 512 300" style="enable-background:new 0 0 512 300;" xml:space="preserve">
<style type="text/css">
	
		.st0{clip-path:url(#SVGID_2_);fill:none;stroke:#E61400;stroke-width:4.4177;stroke-linecap:round;stroke-linejoin:round;stroke-miterlimit:10;}
	.st1{clip-path:url(#SVGID_4_);fill:url(#SVGID_5_);}
	
		.st2{clip-path:url(#SVGID_7_);fill:none;stroke:#E61400;stroke-width:2.306;stroke-linecap:round;stroke-linejoin:round;stroke-miterlimit:10;}
	.st3{clip-path:url(#SVGID_9_);fill:#FFFFFF;}
</style>
<g>
	<g>
		<g>
			<defs>
				<rect id="SVGID_1_" x="-0.4" width="512.4" height="300"/>
			</defs>
			<clipPath id="SVGID_2_">
				<use xlink:href="#SVGID_1_"  style="overflow:visible;"/>
			</clipPath>
			<path class="st0" d="M332.1,226.5c-40.8,0-75.1-26.5-85.6-63.9c-0.8-2.8-0.7-5.7,0-8.5l0.2-0.6l7.5-3.5c2.4-1.1,2.8-4.4,0.6-6
				l-5.2-3.9c-2-1.5-3.2-3.9-3.1-6.5c0.1-2.1,0.3-4.2,0.5-6.3c1.1-9.6,3.7-18.7,7.6-27c5-10.8,12.1-20.4,20.8-28.2
				c0,0,14.9-12,28.5-12c0,0,188-2.3,218.8-2.8c3,0,6,0.5,8.8,1.7l17.6,7.4c2.2,0.9,4.7,0.4,6.4-1.2l6.4-6.1
				c1.8-1.4,4.3-1.5,6.2-0.4c27.2,15.1,44.7,43.7,44.7,77.1c0,49-39.8,88.8-88.8,88.8l-5.1,0.2c-2.9,0.1-5.5-2-5.9-4.9l-2-12.1
				c-0.6-3.8-5.2-5.2-7.9-2.5L492,216.5c0,0-8.9,8.5-17.1,8.5c-7.2,0-79-0.1-96.3-0.2c-2.2,0-4.1-1.5-4.6-3.6L359.9,159
				c-0.9-3.8-2.2-7.5-3.8-11.1l-8.7-18.8c-0.9-1.9-2.6-3.2-4.6-3.5l-19.6-3.3c-1.9-0.3-4.8,1.6-5.8,3.2l-12.6,22.8
				c-3.5,5.7-0.1,12.9,6.5,12.4L335,159c1.2-0.1,2.4,0.4,3.3,1.3l14,15.1c2.3,2.5,3.6,5.9,3.6,9.3l-0.4,31.4l-1.3,6.2l-5.8,2.8
				C348.5,225.1,340.4,226.5,332.1,226.5z"/>
		</g>
		<g>
			<defs>
				<rect id="SVGID_3_" x="-0.4" width="512.4" height="300"/>
			</defs>
			<clipPath id="SVGID_4_">
				<use xlink:href="#SVGID_3_"  style="overflow:visible;"/>
			</clipPath>
			<linearGradient id="SVGID_5_" gradientUnits="userSpaceOnUse" x1="15.6308" y1="393.6117" x2="444.3751" y2="128.2852">
				<stop  offset="0" style="stop-color:#E61400"/>
				<stop  offset="0.1851" style="stop-color:#EB2303;stop-opacity:0.8149"/>
				<stop  offset="0.5963" style="stop-color:#FA4B0C;stop-opacity:0.2788"/>
				<stop  offset="1" style="stop-color:#FF5A0F;stop-opacity:0"/>
			</linearGradient>
			<path class="st1" d="M332.1,221.5c-18.8,0-36.5-5.8-51.2-16.9c-14.5-10.9-24.7-25.9-29.6-43.3c-0.4-1.3-0.5-2.7-0.3-4.3l5.3-2.5
				c2.7-1.2,4.6-3.9,4.9-6.9c0.3-3-1-5.9-3.5-7.7l-5.1-3.9c-0.7-0.5-1.1-1.4-1.1-2.3c0.1-1.9,0.3-4,0.5-6c1-8.9,3.4-17.4,7.1-25.3
				c4.7-10.2,11.3-19.1,19.5-26.5c1.2-0.9,14.1-10.8,25.3-10.8c1.9,0,188.4-2.3,218.9-2.8c2.4,0,4.7,0.4,6.7,1.3l17.6,7.4
				c1.4,0.6,2.8,0.8,4.2,0.8c2.8,0,5.5-1.1,7.6-3l6.1-5.8c0.1,0,0.2,0,0.2,0c0.1,0,0.2,0,0.3,0.1c26.5,14.7,42.2,41.9,42.2,72.8
				c0,46.2-37.6,83.8-83.8,83.8l-0.2,0l-5.1,0.2c-0.4,0-0.7-0.3-0.8-0.6l-2-12.2c-0.7-4.7-4.7-8.1-9.5-8.1c-2.6,0-5,1-6.9,2.9
				l-11.1,11.2c-2,1.9-8.6,7.1-13.6,7.1c-6.4,0-78.2-0.1-96.1-0.2l-14-61.9c-0.9-4-2.3-8-4.1-12l-8.7-18.9c-1.6-3.4-4.8-5.8-8.4-6.3
				l-19.5-3.3c-0.4-0.1-0.8-0.1-1.2-0.1c-3.8,0-7.9,2.8-9.6,5.6l-0.1,0.1l-12.6,22.8c-2.6,4.3-2.8,9.6-0.4,13.8
				c2.2,3.9,6.1,6.2,10.6,6.2c0.3,0,0.7,0,1,0l23.3-1.7l13.7,14.8c1.4,1.5,2.3,3.7,2.3,5.9l-0.4,30.8l-0.7,3.3l-2.9,1.4
				C345,220.6,338.6,221.5,332.1,221.5z"/>
		</g>
		<g>
			<defs>
				<rect id="SVGID_6_" x="-0.4" width="512.4" height="300"/>
			</defs>
			<clipPath id="SVGID_7_">
				<use xlink:href="#SVGID_6_"  style="overflow:visible;"/>
			</clipPath>
			<path class="st2" d="M254.8,99.9c0,0,11.1-23.8,47.5-28.5h259.9c0,0,29-0.6,43.5,28.5"/>
		</g>
		<g>
			<defs>
				<rect id="SVGID_8_" x="-0.4" width="512.4" height="300"/>
			</defs>
			<clipPath id="SVGID_9_">
				<use xlink:href="#SVGID_8_"  style="overflow:visible;"/>
			</clipPath>
			<polygon class="st3" points="443.5,56.3 447.2,58.3 443.6,60.6 			"/>
		</g>
	</g>
</g>
</svg>
