<?xml version="1.0" encoding="utf-8"?>
<!-- Generator: Adobe Illustrator 21.0.2, SVG Export Plug-In . SVG Version: 6.00 Build 0)  -->
<svg version="1.1" id="Layer_1" xmlns="http://www.w3.org/2000/svg" xmlns:xlink="http://www.w3.org/1999/xlink" x="0px" y="0px"
	 viewBox="0 0 928 530" style="enable-background:new 0 0 928 530;" xml:space="preserve">
<style type="text/css">
	.st0{opacity:0.3;}
	.st1{fill:none;stroke:#FFFFFF;stroke-width:4;stroke-linejoin:round;stroke-miterlimit:10;}
	.st2{fill:none;stroke:url(#SVGID_1_);stroke-width:4;stroke-linejoin:round;stroke-miterlimit:10;}
	.st3{fill:none;stroke:url(#SVGID_2_);stroke-width:4;stroke-linejoin:round;stroke-miterlimit:10;}
	.st4{fill:#FFFFFF;}
	.st5{fill:none;stroke:#FFFFFF;stroke-width:0.7169;stroke-linejoin:round;stroke-miterlimit:10;}
</style>
<g id="Livello_2">
</g>
<g>
	<g class="st0">
		<path class="st1" d="M353.4,183.9V94.2c0-18.5,15-33.5,33.5-33.5h38.5c13.8,0,27.4-3.5,39.5-10.2l42.5-24.9"/>
		<line class="st1" x1="148.5" y1="48" x2="134.5" y2="26.8"/>
		<linearGradient id="SVGID_1_" gradientUnits="userSpaceOnUse" x1="453.0317" y1="307.3646" x2="794.11" y2="307.3646">
			<stop  offset="0" style="stop-color:#FFFFFF"/>
			<stop  offset="1" style="stop-color:#FFFFFF;stop-opacity:0"/>
		</linearGradient>
		<path class="st2" d="M464.8,246l-8.9,15.1c-2.5,4.3,0.6,9.7,5.6,9.7H490c11,0,20,9,20,20V325c0,12.7,10.3,23.1,23.1,23.1h28.1
			c2.7,0,5.3,1.1,7.2,3l16.7,16.7l32.6-32.6c39.7-39.7,104.1-39.7,143.8,0l31.2,31.2"/>
		<linearGradient id="SVGID_2_" gradientUnits="userSpaceOnUse" x1="409.4645" y1="368.507" x2="571.2319" y2="368.507">
			<stop  offset="0" style="stop-color:#FFFFFF"/>
			<stop  offset="1" style="stop-color:#FFFFFF;stop-opacity:0"/>
		</linearGradient>
		<path class="st3" d="M410.9,294.5l7.7,8.1c2.5,2.7,6.1,4.2,9.8,4.2h34.3c0.1,0,0.2,0,0.3,0c13.9,0.1,25,11.6,25,25.5l0,5
			c0,14.7,11.9,26.6,26.6,26.6h38c9.3,0,16.8,7.5,16.8,16.8v9.8c0,4.9-1.9,9.6-5.4,13l-38.9,38.9"/>
	</g>
	<path class="st1" d="M353.6,214.8c0,15.5,12.7,28.1,28.1,28.1h32.1c2.8,0,5.4-1.5,6.8-4l7.9-13.9c6.7-11.8,19.2-19.1,32.8-19.1
		h11.1c5.8,0,9.6,6.1,7,11.3L464.8,246c-1.3,2.6-4,4.3-7,4.3h-4.4c-2.7,0-5.2,1.4-6.6,3.7l-24.3,38.9c-2.5,4.1-8.1,4.9-11.8,1.7
		l-9-8c-1.4-1.3-3.3-1.9-5.1-1.9h-17.7c-18.8,0-37.4-4.6-54.1-13.4l-47-24.9c-12.6-6.7-20.5-19.8-20.5-34v0c0-8.4-2.7-16.5-7.8-23.2
		l-64.5-85.6c-1-1.4-1.6-3-1.6-4.7V83.1c0-5.5-4.5-10-10-10h0c-5.5,0-10,4.5-10,10v17.8c0,1.6,0.5,3.1,1.4,4.4l45.7,66.8
		c3.5,5.2-0.2,12.2-6.4,12.2h0c-2.6,0-5-1.3-6.4-3.4l-47.9-70.3c-0.9-1.3-1.4-2.8-1.4-4.4V48h19.8c14.1,0,27.6,5.4,37.8,15.2l0,0
		c11.9,11.3,27.6,17.7,44,17.7h0c25.3,0,49.4,11,66,30.2l27.6,28.5c6.4,6.6,10,15.5,10,24.7V214.8z"/>
</g>
<g>
	<circle class="st4" cx="304.7" cy="165.8" r="1.6"/>
	<circle class="st4" cx="312.7" cy="175" r="1.6"/>
	<circle class="st4" cx="309.6" cy="179.6" r="1.6"/>
	<circle class="st4" cx="302.1" cy="200.6" r="1.6"/>
	<circle class="st4" cx="298.7" cy="228.5" r="1.6"/>
	<circle class="st4" cx="288.2" cy="235.7" r="1.6"/>
	<circle class="st4" cx="319.4" cy="240.4" r="1.6"/>
	<circle class="st4" cx="390.2" cy="272.8" r="1.6"/>
	<circle class="st4" cx="393.4" cy="271.2" r="1.6"/>
	<path class="st5" d="M291.4,224.5l-11.1,8.3c-2.1,1.5-2.7,4.4-1.3,6.6l0,0c0.8,1.2,2.1,2,3.5,2.1l39.1,6c2.3,0.2,4.4-0.8,5.6-2.8v0
		c1.7-2.7,0.9-6.3-1.7-8.1l-18.3-12.2C302.5,221.1,296.2,221.2,291.4,224.5z"/>
	<path class="st5" d="M308.6,158l11.6,13c2.1,2.3,2,5.8-0.1,8l-7.9,8.5c-0.7,0.8-1.2,1.7-1.4,2.7l-3.1,13.6
		c-0.7,3.1-3.8,5.1-6.9,4.5l0,0c-3.2-0.6-5.3-3.7-4.8-6.9l2.7-15.1c0.1-0.5,0.1-0.9,0.1-1.4l-1.3-22.5c-0.2-3,1.9-5.6,4.9-6.2
		l0.8-0.1C305.1,155.7,307.2,156.4,308.6,158z"/>
	<path class="st5" d="M397.2,276.6l-4.7,2c-3.4,1.4-7.4-0.2-8.9-3.6v0c-1.4-3.4,0.2-7.4,3.6-8.9l4.7-2c3.4-1.4,7.4,0.2,8.9,3.6v0
		C402.2,271.2,400.6,275.2,397.2,276.6z"/>
</g>
<path class="st5" d="M323.1,179.5h59.2c20.2,0,39.7-8,54-22.4l48.8-48.8c7.2-7.2,17-11.2,27.1-11.2l0,0"/>
<path class="st5" d="M451.4,142l-41,41c-11.1,11.1-17.4,26.2-17.4,41.9v41.2"/>
<line class="st5" x1="306.3" y1="245.5" x2="252.2" y2="299.6"/>
</svg>
