<svg id="circuit_electricity" data-name="circuit electricity" xmlns="http://www.w3.org/2000/svg" viewBox="0 0 755 451">
  <title>Artboard 1</title>
  <path class="electricity" d="M162,32.92l-20.09-1.79a10.48,10.48,0,0,0-11.25,9.15l-.63,6.1L118.17,71.72a25,25,0,0,0-2.42,12.93l1.47,25.24a9.94,9.94,0,0,0,10.62,9.36l8.31-.53A14.87,14.87,0,0,0,147,113.15a271.6,271.6,0,0,1,21.45-23.35c13.25-12.62,40.8-25.87,59.2-28.5,13.14-2,49.11-7.47,68-10.41a15.5,15.5,0,0,1,16.72,9.57l2.31,9.46a18.17,18.17,0,0,0,16.4,13.67L411,92a43.85,43.85,0,0,0,34.28-11.36l5.78-5.36a32.23,32.23,0,0,1,27.76-8c22.5,4.21,63,13.78,75.19,20.51,17.35,9.57,36.38,22.5,45.85,31.55s17,19.56,20.72,29.13c1.16,3-1.89,32.39-6.31,68.77-.32,2.63-4,10.31-4.21,13-8.1,65.09-16.4,142.6-16.4,142.6l-11,11.46a9.6,9.6,0,0,0-2.63,5.36l-3.15,22.71a4.6,4.6,0,0,0,1.16,3.68l6.84,7.26a4.61,4.61,0,0,0,3.26,1.37l11.57.21a2.7,2.7,0,0,0,2.63-2.21L638.7,118.2c.63-5.26,3.58-8,8.1-10.83l5.68-2.1c8.62-3.15,8.62-15.35.11-18.61l-5.15-2a8.88,8.88,0,0,0-2.52-.63l-11.46-1.16c-1.68-.21-5.68-1.05-7-2L598.53,60.15a18.22,18.22,0,0,1-2.21-1.79C592.54,55,571.4,40,484.54,18.51,385.8-5.78,221.64,10.1,221.64,10.1Z" style="fill: none;stroke: #ff1d25;stroke-linejoin: round;stroke-width: 7px"/>
</svg>
