<svg id="Layer_1" data-name="Layer 1" xmlns="http://www.w3.org/2000/svg" viewBox="0 0 755 490">
  <title>circuit_paris</title>
  <path id="circuit" d="M23.87,199.45l257.46-101a6.21,6.21,0,0,1,7.34,2.2l2.13,3a7.5,7.5,0,0,0,3.82,2.81l60.2,19.42a12.46,12.46,0,0,0,6.78.25l11.92-1.57a11.09,11.09,0,0,1,12.57,5.86l16.54,36.78a3.38,3.38,0,0,0,4.06,1.86c6.69-2,23.65-5.15,31.25,12.15,7.72,17.58-5.48,31-10.88,35.55a4.76,4.76,0,0,0-1.64,4.49l5.2,29a13.12,13.12,0,0,1,0,4.53l-3.34,19.54-2.38,29.49c-.17,2.13-1.53,5.58-3.51,6.39L151.23,417.66a7.85,7.85,0,0,1-10.11-4.17l-21.32-49.23a5.16,5.16,0,0,0-5-3.12c-10.83.46-43,.85-52.85-18.3-8.44-16.43-6-32.47-4.33-39.64a4.44,4.44,0,0,1,5-3.36l24,3.72a5.73,5.73,0,0,0,6.21-7.76L64.13,222.67,24,208.34A4.74,4.74,0,0,1,23.87,199.45Z" style="fill: none;stroke: #fff;stroke-linejoin: round;stroke-width: 5.726625978946686px"/>
  <path id="pit_lane" data-name="pit lane" d="M440.73,201.35s1.2-15.75,16.15-21.54,132.2-50.65,132.2-50.65,10-5.14,4.59-11.12-10.17,3.59-10.17,3.59-.4,3.39-8,6.18-126.82,48.65-126.82,48.65a16.2,16.2,0,0,1-13.56-1.2" style="fill: none;stroke: #fff;stroke-miterlimit: 10;stroke-width: 3.272357702255249px;opacity: 0.4000000059604645;isolation: isolate"/>
  <g id="circuit-2" data-name="circuit">
    <polygon points="335.76 347.07 329.33 346.17 333.4 340.94 335.76 347.07" style="fill: #ff1d25"/>
  </g>
  <path d="M517.68,159.93l31.73,69L448.83,268.19H435.15l1.9-15.24-5.67-31.11,6.8-6.38a30.47,30.47,0,0,0,9.26-29.09ZM146,427l16,58.5L316.5,446,309,364.5ZM581.2,123.64a9.5,9.5,0,0,1,4.45-10L561.82,54.18,488,82.49l29.9,65ZM598.79,117,707,76.27l-33.49-65L566.92,52.23,591,112.3A9.52,9.52,0,0,1,598.79,117ZM482.95,84.45l-95,36.46,18.29,41.5,7.71-.86A30.53,30.53,0,0,1,443,175.66l69.8-26.28ZM522.8,158l31.7,68.89L620.66,201l-27.81-69.41ZM712.36,86.64,598,129.71l27.78,69.35,120.33-47Z" style="fill: #540000;opacity: 0.05"/>
  <g id="emotion" style="opacity: 0.15;isolation: isolate">
    <polygon points="212.58 426.45 215.37 437.12 245.99 429.34 243.21 418.67 212.58 426.45" style="fill: #420000"/>
    <rect x="244.42" y="405.24" width="11.03" height="34.75" transform="matrix(0.97, -0.25, 0.25, 0.97, -98.65, 76.84)" style="fill: #420000"/>
  </g>
  <g id="paddock">
    <rect x="458.97" y="182.71" width="10.56" height="9.41" transform="translate(-36.23 174.12) rotate(-20.46)" style="fill: #420000;opacity: 0.15;isolation: isolate"/>
    <rect x="470.98" y="178.23" width="10.56" height="9.41" transform="translate(-33.9 178.03) rotate(-20.46)" style="fill: #420000;opacity: 0.15;isolation: isolate"/>
    <rect x="482.99" y="173.75" width="10.56" height="9.41" transform="translate(-31.58 181.95) rotate(-20.46)" style="fill: #420000;opacity: 0.15;isolation: isolate"/>
    <rect x="494.99" y="169.27" width="10.56" height="9.41" transform="translate(-29.25 185.86) rotate(-20.46)" style="fill: #420000;opacity: 0.15;isolation: isolate"/>
    <rect x="602.91" y="129.01" width="10.56" height="9.41" transform="translate(-8.37 221.05) rotate(-20.46)" style="fill: #420000;opacity: 0.15;isolation: isolate"/>
    <rect x="614.91" y="124.53" width="10.56" height="9.41" transform="translate(-6.05 224.96) rotate(-20.46)" style="fill: #420000;opacity: 0.15;isolation: isolate"/>
    <rect x="626.92" y="120.05" width="10.56" height="9.41" transform="translate(-3.72 228.88) rotate(-20.46)" style="fill: #420000;opacity: 0.15;isolation: isolate"/>
    <rect x="638.93" y="115.56" width="10.56" height="9.41" transform="translate(-1.4 232.79) rotate(-20.46)" style="fill: #420000;opacity: 0.15;isolation: isolate"/>
    <rect x="527.36" y="157.27" width="10.56" height="9.41" transform="translate(-22.47 204.31) rotate(-21.28)" style="fill: #420000;opacity: 0.15;isolation: isolate"/>
    <rect x="538.64" y="152.95" width="10.56" height="9.41" transform="translate(-20.13 208.11) rotate(-21.28)" style="fill: #420000;opacity: 0.15;isolation: isolate"/>
    <rect x="549.92" y="148.62" width="10.56" height="9.41" transform="translate(-17.79 211.91) rotate(-21.28)" style="fill: #420000;opacity: 0.15;isolation: isolate"/>
    <rect x="561.2" y="144.29" width="10.56" height="9.41" transform="translate(-15.45 215.71) rotate(-21.28)" style="fill: #420000;opacity: 0.15;isolation: isolate"/>
    <rect x="572.48" y="139.96" width="10.56" height="9.41" transform="translate(-13.11 219.51) rotate(-21.28)" style="fill: #420000;opacity: 0.15;isolation: isolate"/>
    <rect x="583.76" y="135.63" width="10.56" height="9.41" transform="translate(-10.78 223.31) rotate(-21.28)" style="fill: #420000;opacity: 0.15;isolation: isolate"/>
  </g>
</svg>
