<?xml version="1.0" encoding="utf-8"?>
<!-- Generator: Adobe Illustrator 21.0.2, SVG Export Plug-In . SVG Version: 6.00 Build 0)  -->
<svg version="1.1" id="Layer_1" xmlns="http://www.w3.org/2000/svg" xmlns:xlink="http://www.w3.org/1999/xlink" x="0px" y="0px"
	 viewBox="0 0 755 451" style="enable-background:new 0 0 755 451;" xml:space="preserve">
<style type="text/css">
	.st0{fill:none;stroke:#FFFFFF;stroke-width:2;stroke-miterlimit:10;}
</style>
<title>circuit_monaco_buildings</title>
<path id="building_paddock" class="st0" d="M199.8,42.7c2.3-2.3,2.3-6,0-8.3c-2.3-2.3-6-2.3-8.3,0c-2.3,2.3-2.3,6,0,8.3
	C193.8,45,197.5,45,199.8,42.7z M169.6,58.9c2.3-2.3,2.3-6,0-8.3s-6-2.3-8.3,0c-2.3,2.3-2.3,6,0,8.3
	C163.6,61.2,167.3,61.2,169.6,58.9z M254.7,30.9c2.3-2.3,2.3-6,0-8.3c-2.3-2.3-6-2.3-8.3,0c-2.3,2.3-2.3,6,0,8.3
	C248.6,33.2,252.4,33.2,254.7,30.9z M230,34.9c2.3-2.3,2.3-6,0-8.3s-6-2.3-8.3,0c-2.3,2.3-2.3,6,0,8.3
	C223.9,37.2,227.7,37.2,230,34.9C230,34.9,230,34.9,230,34.9L230,34.9z M281.4,28.6c2.3-2.3,2.3-6,0-8.3c-2.3-2.3-6-2.3-8.3,0
	c-2.3,2.3-2.3,6,0,8.3C275.3,30.9,279,30.9,281.4,28.6z M309.7,28.3c2.3-2.3,2.3-6,0-8.3c-2.3-2.3-6-2.3-8.3,0c-2.3,2.3-2.3,6,0,8.3
	c2.2,2.3,5.8,2.4,8.1,0.2C309.6,28.4,309.6,28.3,309.7,28.3z"/>
<path id="building_fans" class="st0" d="M237.5,86.5c2.3-2.3,2.3-6,0-8.3c-2.3-2.3-6-2.3-8.3,0c-2.3,2.3-2.3,6,0,8.3l0,0
	C231.5,88.8,235.2,88.8,237.5,86.5L237.5,86.5z M136,221c2.3-2.3,2.3-6,0-8.3c-2.3-2.3-6-2.3-8.3,0c-2.3,2.3-2.3,6,0,8.3l0,0
	C130,223.3,133.7,223.3,136,221z M140,330.1c2.3-2.3,2.3-6,0-8.3c-2.3-2.3-6-2.3-8.3,0c-2.3,2.3-2.3,6,0,8.3l0,0
	C134,332.4,137.7,332.5,140,330.1L140,330.1z M140,354.1c2.3-2.3,2.3-6,0-8.3c-2.3-2.3-6-2.3-8.3,0c-2.3,2.3-2.3,6,0,8.3l0,0
	C134,356.4,137.7,356.5,140,354.1L140,354.1z M200,101.6c2.3-2.3,2.3-6,0-8.3c-2.3-2.3-6-2.3-8.3,0c-2.3,2.3-2.3,6,0,8.3l0,0
	c2.3,2.3,6,2.3,8.2,0C199.9,101.6,199.9,101.6,200,101.6L200,101.6z M139.2,301.5c2.3-2.3,2.3-6,0-8.3c-2.3-2.3-6-2.3-8.3,0
	c-2.3,2.3-2.3,6,0,8.3l0,0C133.2,303.8,136.9,303.8,139.2,301.5z M138.1,260.2c2.3-2.3,2.3-6,0-8.3s-6-2.3-8.3,0
	c-2.3,2.3-2.3,6,0,8.3l0,0C132.1,262.5,135.8,262.5,138.1,260.2L138.1,260.2z"/>
<path id="building_facilities" class="st0" d="M374,28.3c2.3-2.3,2.3-6,0-8.3c-2.3-2.3-6-2.3-8.3,0c-2.3,2.3-2.3,6,0,8.3
	C368,30.6,371.7,30.6,374,28.3z M391.5,29.3c2.3-2.3,2.3-6,0-8.3c-2.3-2.3-6-2.3-8.3,0c-2.3,2.3-2.3,6,0,8.3
	C385.4,31.6,389.2,31.6,391.5,29.3z M338.4,27.4c2.3-2.3,2.3-6,0-8.3c-2.3-2.3-6-2.3-8.3,0c-2.3,2.3-2.3,6,0,8.3
	c2.2,2.3,5.9,2.4,8.2,0.1C338.3,27.5,338.3,27.5,338.4,27.4z M357,26.7c2.3-2.3,2.3-6,0-8.3c-2.3-2.3-6-2.3-8.3,0
	c-2.3,2.3-2.3,6,0,8.3C351,29,354.7,29,357,26.7z"/>
<path id="building_media" class="st0" d="M119.6,163.9c0-3.3-2.7-5.9-5.9-5.9s-6,2.7-6,5.9c0,3.3,2.7,5.9,5.9,5.9c0,0,0,0,0,0
	c3.2,0,5.9-2.6,5.9-5.8C119.6,164,119.6,164,119.6,163.9z M141.7,382.2c0-3.3-2.7-5.9-5.9-5.9c-3.3,0-5.9,2.7-5.9,5.9s2.7,6,5.9,6
	c0,0,0,0,0,0c3.2,0,5.9-2.6,5.9-5.8C141.7,382.3,141.7,382.2,141.7,382.2L141.7,382.2z M141.7,399c0-3.3-2.7-5.9-5.9-5.9
	c-3.3,0-5.9,2.7-5.9,5.9c0,3.3,2.7,6,5.9,6c0,0,0,0,0,0c3.2,0,5.9-2.6,5.9-5.8C141.7,399.1,141.7,399.1,141.7,399L141.7,399z"/>
</svg>
