<svg id="buildings" xmlns="http://www.w3.org/2000/svg" viewBox="0 0 755 451">
  <title>circuit_mexicocity_buildings</title>
  <path id="building_paddock" data-name="building paddock" d="M487.3,97a4,4,0,1,0-4,4A4,4,0,0,0,487.3,97ZM500,97a4,4,0,1,0-4,4A4,4,0,0,0,500,97Zm-50,0a4,4,0,1,0-4,4A4,4,0,0,0,450,97Zm84,0a4,4,0,1,0-4,4A4,4,0,0,0,534,97ZM412.7,97a4,4,0,1,0-4,4,4,4,0,0,0,4-4Zm-37.4,0a4,4,0,1,0-4,4A4,4,0,0,0,375.3,97Zm-38,0a4,4,0,1,0-4,4A4,4,0,0,0,337.3,97Zm240.1,6.3H268.1a3.59,3.59,0,0,1-3.6-3.6V94.1a3.59,3.59,0,0,1,3.6-3.6H577.4a3.59,3.59,0,0,1,3.6,3.6v5.6A3.59,3.59,0,0,1,577.4,103.3Z" style="fill: none;stroke: #fff;stroke-miterlimit: 10;stroke-width: 2px"/>
  <path id="building_fans" data-name="building fans" d="M697.3,154.5a4,4,0,1,0-4,4h0a4,4,0,0,0,4-4Zm0,24a4,4,0,1,0-4,4h0a4,4,0,0,0,4-4Zm0,17a4,4,0,1,0-4,4h0a4,4,0,0,0,4-4Zm0,27.2a4,4,0,1,0-4,4h0a4,4,0,0,0,4-4ZM615.8,224a4,4,0,1,0-4,4h0a4,4,0,0,0,4-4ZM474.3,265a4,4,0,1,0-4,4h0a4,4,0,0,0,4-4Zm0-64.5a4,4,0,1,0-4,4h0a4,4,0,0,0,4-4Zm0-85a4,4,0,1,0-4,4h0a4,4,0,0,0,4-4Zm30.2,0a4,4,0,1,0-4,4h0a4,4,0,0,0,4-4Zm30.2,0a4,4,0,1,0-4,4h0a4,4,0,0,0,4-4ZM528.3,265a4,4,0,1,0-4,4h0a4,4,0,0,0,4-4Zm-54,19.3a4,4,0,1,0-4,4h0a4,4,0,0,0,4-4ZM454,114.7a7.73,7.73,0,0,1,7.8-7.7l76.5.1a13.38,13.38,0,0,1,10.5,4.8l22.7,27a15.23,15.23,0,0,0,11.6,5.4l114.14.52a4.24,4.24,0,0,1,4.26,4.24v97.2a4.24,4.24,0,0,1-4.24,4.24H602.8a7.32,7.32,0,0,0-7.3,7.3v64.8l-122,37.1a14.88,14.88,0,0,1-7.9,2.6l-4.1.1a6.9,6.9,0,0,1-7-6.7L454,164.5Z" style="fill: none;stroke: #fff;stroke-miterlimit: 10;stroke-width: 2px"/>
  <path id="building_facilities" data-name="building facilities" d="M245,119a4,4,0,1,1,4-4A4,4,0,0,1,245,119Zm43.7-4.3a4,4,0,1,0-4,4,4,4,0,0,0,4-4Zm48.6.6a4,4,0,1,0-4,4A4,4,0,0,0,337.3,115.3Zm16,0a4,4,0,1,0-4,4A4,4,0,0,0,353.3,115.3Zm214,0a4,4,0,1,0-4,4A4,4,0,0,0,567.3,115.3Zm-170.8,0a4,4,0,1,0-4,4A4,4,0,0,0,396.5,115.3ZM577,123.7H234.3a4.27,4.27,0,0,1-4.3-4.3v-8.6a4.27,4.27,0,0,1,4.3-4.3H577a4.27,4.27,0,0,1,4.3,4.3v8.6A4.27,4.27,0,0,1,577,123.7ZM402.8,233.3a4,4,0,1,0-4,4,4,4,0,0,0,4-4Zm12-.3a4,4,0,1,0-4,4,4,4,0,0,0,4-4Zm11.6,9.5H395.7a5.12,5.12,0,0,1-5.1-5.1V206.8a5.12,5.12,0,0,1,5.1-5.1h30.7a5.12,5.12,0,0,1,5.1,5.1v30.6A5,5,0,0,1,426.4,242.5Z" style="fill: none;stroke: #fff;stroke-miterlimit: 10;stroke-width: 2px"/>
  <g id="building_media" data-name="building media">
    <path d="M338.8,229.3a4,4,0,1,0-4,4,4,4,0,0,0,4-4Z" style="fill: none;stroke: #fff;stroke-miterlimit: 10;stroke-width: 2px"/>
    <path d="M338.8,216a4,4,0,1,0-4,4,4,4,0,0,0,4-4Z" style="fill: none;stroke: #fff;stroke-miterlimit: 10;stroke-width: 2px"/>
    <rect x="324.1" y="185.1" width="46.9" height="54.4" rx="5.1" ry="5.1" style="fill: none;stroke: #fff;stroke-miterlimit: 10;stroke-width: 2px"/>
  </g>
</svg>
