<svg id="buildings" xmlns="http://www.w3.org/2000/svg" viewBox="0 0 755 377">
  <title>circuit_marrakech_buildings</title>
  <path id="building_media" d="M694.41,320l5.41,2.22a3,3,0,0,0,3.94-1.65L708.48,309a3,3,0,0,0-1.69-4l-5.4-2.12a3,3,0,0,0-3.89,1.65L692.76,316A3,3,0,0,0,694.41,320Z" style="fill: #fff"/>
  <path id="building_emotion" d="M498.74,244.69l-2.86,9a1.82,1.82,0,0,1-2.29,1.18l-9.1-2.9a1,1,0,0,1-.65-1.26l3.11-9.76a1.82,1.82,0,0,1,2.29-1.18l8.32,2.65A1.82,1.82,0,0,1,498.74,244.69Zm140.32,42.84L503.45,244.28a1.88,1.88,0,0,0-2.36,1.22L498,255.2a1,1,0,0,0,.65,1.26L635.09,300a1.88,1.88,0,0,0,2.36-1.22l2.83-8.87A1.88,1.88,0,0,0,639.06,287.53Z" style="fill: #fff"/>
  <path id="building_tribune_central" d="M496.26,277.05h7.63a0.86,0.86,0,0,1,.86.86v46.83a0.86,0.86,0,0,1-.86.86h-7.77a0.86,0.86,0,0,1-.86-0.86V278.05a1,1,0,0,1,1-1Z" transform="translate(60.99 686.12) rotate(-72.31)" style="fill: #fff"/>
  <rect id="building_tribune_atlas" x="463.3" y="202.86" width="9.5" height="51.94" rx="1" ry="1" transform="translate(659.99 713.18) rotate(-137.67)" style="fill: #fff"/>
  <path id="building_kid_zone" d="M516.79,34l18.93,6.38a1.35,1.35,0,0,1,.89,1.56l-15.3,71.43a1.35,1.35,0,0,1-1.52,1.05l-38.92-5.71a1.34,1.34,0,0,1-1.12-1.65c1.13-4.6,4.93-19.31,10.15-30.74,6-13.22,21.66-29.52,25.16-41.46A1.35,1.35,0,0,1,516.79,34Z" style="fill: #fff"/>
  <path id="building_food" d="M538.68,43.36l-14.71,70a1.6,1.6,0,0,0,1.31,1.91l25,4.06a1.6,1.6,0,0,0,1.82-1.23l14.52-64.65a1.6,1.6,0,0,0,0-.35V50.39a1.6,1.6,0,0,0-1.19-1.55l-24.85-6.7A1.6,1.6,0,0,0,538.68,43.36Z" style="fill: #fff"/>
  <path id="building_entertainment" d="M549.6,121.34l-69.52-10.59a1.6,1.6,0,0,0-1.8,1.2l-10.23,40.72a1.6,1.6,0,0,0,1.36,2l59.39,7.45a1.6,1.6,0,0,0,1.76-1.23l7-30.46a1.6,1.6,0,0,1,1.82-1.22l8.35,1.36a1.6,1.6,0,0,0,1.82-1.23l1.38-6A1.6,1.6,0,0,0,549.6,121.34Z" style="fill: #fff"/>
  <g id="building_e_sports">
    <path d="M542.27,153.9l-5.7-.87a1.54,1.54,0,0,0-1.74,1.18L533.28,161a1.54,1.54,0,0,0,1.32,1.87l5.74,0.69a1.54,1.54,0,0,0,1.69-1.19l1.51-6.58A1.54,1.54,0,0,0,542.27,153.9Z" style="fill: #fff"/>
    <g>
      <polygon points="540.99 144.13 541.41 142.39 537.68 141.81 537.28 143.55 540.99 144.13" style="fill: #fff"/>
      <polygon points="540.23 147.28 540.65 145.54 536.96 144.96 536.56 146.7 540.23 147.28" style="fill: #fff"/>
      <polygon points="541.74 140.98 542.16 139.24 538.4 138.65 538 140.4 541.74 140.98" style="fill: #fff"/>
      <polygon points="542.5 137.83 542.91 136.09 539.13 135.5 538.73 137.24 542.5 137.83" style="fill: #fff"/>
      <polygon points="539.48 150.43 539.9 148.69 536.23 148.11 535.83 149.86 539.48 150.43" style="fill: #fff"/>
      <polygon points="543.25 134.68 543.67 132.94 539.85 132.35 539.45 134.09 543.25 134.68" style="fill: #fff"/>
      <polygon points="543.59 139.46 543.17 141.2 546.75 141.76 547.15 140.02 543.59 139.46" style="fill: #fff"/>
      <polygon points="545.1 133.16 544.68 134.91 548.2 135.46 548.6 133.71 545.1 133.16" style="fill: #fff"/>
      <polygon points="544.35 136.31 543.93 138.05 547.47 138.61 547.87 136.87 544.35 136.31" style="fill: #fff"/>
      <polygon points="542.84 142.61 542.42 144.35 546.03 144.91 546.43 143.17 542.84 142.61" style="fill: #fff"/>
      <polygon points="541.33 148.91 540.91 150.65 544.58 151.22 544.98 149.48 541.33 148.91" style="fill: #fff"/>
      <polygon points="542.08 145.76 541.67 147.5 545.3 148.07 545.7 146.33 542.08 145.76" style="fill: #fff"/>
    </g>
  </g>
  <circle id="building_podium" cx="534.46" cy="199.56" r="6.95" style="fill: #fff"/>
  <path id="building_e_village" d="M531.79,208.81a9.63,9.63,0,0,1,2.91-18.87,1.45,1.45,0,0,0,1.43-1.14l4.85-21a1.58,1.58,0,0,0-1.34-1.92L468.14,157a1.58,1.58,0,0,0-1.71,1.15l-5.08,18.47a1.58,1.58,0,0,0,.56,1.67l33.21,25.5a4.85,4.85,0,0,1,.63,7.11l-10.58,11.63a1.58,1.58,0,0,0,.67,2.56L591,259.71a1.58,1.58,0,0,0,2-1l7.46-22.81a1.57,1.57,0,0,0-.94-2C589.74,230.31,532.79,209.1,531.79,208.81Z" style="fill: #fff"/>
</svg>
