<svg xmlns="http://www.w3.org/2000/svg" viewBox="0 0 755 451">
  <title>circuit_monaco_buildings</title>
    <path id="building_paddock" data-name="building paddock" d="M217.82,36.73a5.9,5.9,0,1,0-8.35,0A5.92,5.92,0,0,0,217.82,36.73ZM169.61,58.86a5.9,5.9,0,1,0-8.35,0A5.92,5.92,0,0,0,169.61,58.86ZM271.66,26.93a5.9,5.9,0,1,0-8.35,0A5.92,5.92,0,0,0,271.66,26.93ZM500.81,55.31a5.9,5.9,0,1,0-8.35,0A5.92,5.92,0,0,0,500.81,55.31Zm-263-22.54a5.9,5.9,0,1,0-8.35,0A5.92,5.92,0,0,0,237.85,32.77Zm63.76-5.32a5.9,5.9,0,1,0-8.35,0,5.92,5.92,0,0,0,8.35,0ZM362.44,25a5.9,5.9,0,1,0-8.35,0,5.74,5.74,0,0,0,8.35,0Z" style="fill: none;stroke: #fff;stroke-miterlimit: 10;stroke-width: 2px"/>
    <path id="building_fans" data-name="building fans" d="M213.85,95.17a5.9,5.9,0,1,0-8.35,0h0A5.83,5.83,0,0,0,213.85,95.17Zm23.69-8.66a5.9,5.9,0,1,0-8.35,0h0A5.92,5.92,0,0,0,237.54,86.51ZM136,221a5.9,5.9,0,1,0-8.35,0h0A5.92,5.92,0,0,0,136,221Zm4,109.15a5.9,5.9,0,1,0-8.35,0h0A5.92,5.92,0,0,0,140,330.16Zm52-224.55a5.9,5.9,0,1,0-8.35,0h0A5.83,5.83,0,0,0,191.94,105.6ZM260.6,82.86a5.9,5.9,0,1,0-8.35,0h0A5.83,5.83,0,0,0,260.6,82.86ZM139.25,301.46a5.9,5.9,0,1,0-8.35,0h0A5.92,5.92,0,0,0,139.25,301.46Zm-1.15-41.22a5.9,5.9,0,1,0-8.35,0h0A5.92,5.92,0,0,0,138.1,260.25Z" style="fill: none;stroke: #fff;stroke-miterlimit: 10;stroke-width: 2px"/>
    <path id="building_facilities" data-name="building facilities" d="M435,63.34a5.9,5.9,0,1,0-8.35,0A5.92,5.92,0,0,0,435,63.34ZM578.34,77.53a5.9,5.9,0,1,0-8.35,0,5.92,5.92,0,0,0,8.35,0ZM528.15,62.4a5.9,5.9,0,1,0-8.35,0,5.83,5.83,0,0,0,8.35,0ZM472,49.67a5.9,5.9,0,1,0-8.35,0,5.92,5.92,0,0,0,8.35,0Zm-95.89,84.42a5.89,5.89,0,0,0-11.69-1.46,5.89,5.89,0,0,0,11.69,1.46Zm17.63,2a5.89,5.89,0,1,0-6.57,5.11A6,6,0,0,0,393.75,136.07Z" style="fill: none;stroke: #fff;stroke-miterlimit: 10;stroke-width: 2px"/>
    <path id="building_media" data-name="building media" d="M119.63,163.93a5.95,5.95,0,1,0-5.95,5.95A5.88,5.88,0,0,0,119.63,163.93Zm0-19.62a5.95,5.95,0,1,0-5.95,5.95A5.88,5.88,0,0,0,119.63,144.32Z" style="fill: none;stroke: #fff;stroke-miterlimit: 10;stroke-width: 2px"/>
</svg>
