<svg id="circuit" xmlns="http://www.w3.org/2000/svg" viewBox="0 0 755 377">
  <title>circuit_marrakech</title>
  <g style="opacity: 0.4">
    <path d="M704.75,276.35l3,3.29,0.22,0.21a21.51,21.51,0,0,1,3.82,4.23l1.79,2.61a32.54,32.54,0,0,0,4.77,5.51l2.59,2.39,0.12,0.11c18,18.64-.87,49-25.55,41l-23.3-7.53L476.62,264.11l-19.9-6c-0.31-.11-10.16-5.2-10.47-5.32-6.66-2.79-20.92.44-21.48,0.73l-17.44,9.36" style="fill: none;stroke: #fff;stroke-miterlimit: 10;stroke-width: 4.4145783972443695px"/>
    <path d="M660.36,324.18l-5.72-2.05c-2.61-1-7.21-5.12-9.43-6.81l-3.26-2.47a30.06,30.06,0,0,0-8.9-4.65l-137-45" style="fill: none;stroke: #fff;stroke-miterlimit: 10;stroke-width: 4.4145783972443695px"/>
  </g>
  <path d="M48,223.58a144.29,144.29,0,0,0-9-22.3,8.33,8.33,0,0,1,2.26-10.39l30-23.61a19.18,19.18,0,0,0,4.13-4.48l5.08-7.65a5.44,5.44,0,0,1,6.34-2.39l207.46,67,98.23,31.65a22.17,22.17,0,0,0,14.37-.27l7.93-2.89,14.92-7.71a76.89,76.89,0,0,0,10.82-6.79l17-12.76a12.35,12.35,0,0,0,1.53-18.41l-5.16-5.41a13,13,0,0,1-3.15-12.45c5.63-20.58,21.69-79.4,24.2-89.91A101.6,101.6,0,0,1,492.8,56.37a202.24,202.24,0,0,0,12.34-18.76c1.63-2.83,3.9-8.31,3.9-8.31l1.21-3.19C522-4.82,567.2.2,571.84,33l1.79,12.63a44.6,44.6,0,0,1,.13,11.33l-3,25.63c-2.08,49.44,19.57,78.1,19.57,78.1l47.89,63.63a46.89,46.89,0,0,0,12.55,11.53l7.44,4.67a479.37,479.37,0,0,1,50.24,35.91c3.12,2.56,4.84,4,4.84,4l0.4,0.36,2.16,2,9.67,8.75L737.16,303c23,21.81,1.89,61.35-28.17,51.2L453,272.28l-35.8-8c-11.57-1.93-12.12,9.91-14,14.6,0,0-10.92,30.43-11.8,32.93L372,366.18a6,6,0,0,1-5.71,4l-352.2-3.43a8.14,8.14,0,0,1-4.84-14.62l5-3.83L16,346.91a108.3,108.3,0,0,0,33.74-50,111.75,111.75,0,0,0-.16-68.38C49.34,227.73,48.19,224.3,48,223.58Z" style="fill: none;stroke: #fff;stroke-linejoin: round;stroke-width: 11.605685349711612px"/>
  <polygon points="550.32 308.18 553.17 300.31 558.56 306.71 550.32 308.18" style="fill: #ff1d25"/>
</svg>
