<svg id="Layer_1" data-name="Layer 1" xmlns="http://www.w3.org/2000/svg" viewBox="0 0 661 416">
  <title>Artboard 1</title>
  <g>
    <g style="opacity: 0.30000001192092896">
      <path d="M221.36,157.85V68.16a33.48,33.48,0,0,1,33.48-33.48H293.3a81.58,81.58,0,0,0,39.54-10.22L375.37-.44" style="fill: none;stroke: #fff;stroke-linejoin: round;stroke-width: 4px"/>
      <line x1="16.45" y1="21.99" x2="2.51" y2="0.79" style="fill: none;stroke: #fff;stroke-linejoin: round;stroke-width: 4px"/>
      <path d="M332.8,220l-8.87,15.09a6.46,6.46,0,0,0,5.57,9.73H358a20,20,0,0,1,20,20V299a23.08,23.08,0,0,0,23.08,23.08h28.1a10.2,10.2,0,0,1,7.21,3L453,341.71l32.62-32.62a101.71,101.71,0,0,1,143.84,0h0l31.21,31.21" style="fill: none;stroke: #fff;stroke-linejoin: round;stroke-width: 4px"/>
      <path d="M278.91,268.55l7.65,8a13.49,13.49,0,0,0,9.78,4.2H330.9a25.39,25.39,0,0,1,25,25.53v5a26.58,26.58,0,0,0,26.57,26.59h38a16.75,16.75,0,0,1,16.75,16.75v9.77a18.45,18.45,0,0,1-5.4,13l-38.94,38.94" style="fill: none;stroke: #fff;stroke-linejoin: round;stroke-width: 4px"/>
    </g>
    <path d="M221.64,188.78a28.22,28.22,0,0,0,28.14,28.14h32.13a7.79,7.79,0,0,0,6.78-4L296.55,199a37.66,37.66,0,0,1,32.77-19h11.07a7.79,7.79,0,0,1,7,11.32L332.8,220a7.79,7.79,0,0,1-7,4.27h-4.42a7.79,7.79,0,0,0-6.61,3.66l-24.31,38.85a7.79,7.79,0,0,1-11.76,1.72l-9-8a7.79,7.79,0,0,0-5.15-1.94H246.91a115.64,115.64,0,0,1-54.06-13.41l-47-24.85a38.49,38.49,0,0,1-20.49-34h0a38.49,38.49,0,0,0-7.75-23.17L53.1,77.61a7.79,7.79,0,0,1-1.57-4.69V57.06a10,10,0,0,0-10-10h0a10,10,0,0,0-10,10v17.8a7.79,7.79,0,0,0,1.36,4.4L78.62,146a7.79,7.79,0,0,1-6.43,12.2h0a7.79,7.79,0,0,1-6.44-3.4L17.8,84.5a7.79,7.79,0,0,1-1.36-4.39V22H36.22A54.67,54.67,0,0,1,74,37.17h0a63.67,63.67,0,0,0,44,17.68h0A87.26,87.26,0,0,1,184,85l27.59,28.54a35.48,35.48,0,0,1,10,24.66Z" style="fill: none;stroke: #fff;stroke-linejoin: round;stroke-width: 4px"/>
  </g>
  <g>
    <circle cx="172.72" cy="139.78" r="1.61" style="fill: #fff"/>
    <circle cx="180.71" cy="149.01" r="1.61" style="fill: #fff"/>
    <circle cx="177.56" cy="153.59" r="1.61" style="fill: #fff"/>
    <circle cx="170.15" cy="174.57" r="1.61" style="fill: #fff"/>
    <circle cx="166.73" cy="202.45" r="1.61" style="fill: #fff"/>
    <circle cx="156.2" cy="209.71" r="1.61" style="fill: #fff"/>
    <circle cx="187.4" cy="214.39" r="1.61" style="fill: #fff"/>
    <circle cx="258.22" cy="246.78" r="1.61" style="fill: #fff"/>
    <circle cx="261.45" cy="245.16" r="1.61" style="fill: #fff"/>
    <path d="M159.4,198.49l-11.08,8.27a4.76,4.76,0,0,0-1.26,6.55h0a4.76,4.76,0,0,0,3.47,2.1l39.13,6a5.92,5.92,0,0,0,5.64-2.76h0a5.92,5.92,0,0,0-1.74-8.05l-18.29-12.21A14.13,14.13,0,0,0,159.4,198.49Z" style="fill: none;stroke: #fff;stroke-linejoin: round;stroke-width: 0.7168852090835571px"/>
    <path d="M176.57,132l11.61,13a6,6,0,0,1-.08,8l-7.93,8.52a6,6,0,0,0-1.44,2.72l-3.12,13.56a6,6,0,0,1-6.91,4.52h0a6,6,0,0,1-4.76-6.89l2.66-15.08a6,6,0,0,0,.08-1.37l-1.28-22.53a6,6,0,0,1,4.85-6.19l.78-.15A6,6,0,0,1,176.57,132Z" style="fill: none;stroke: #fff;stroke-linejoin: round;stroke-width: 0.7168852090835571px"/>
    <path d="M255.26,240.07l4.67-2a6.77,6.77,0,0,1,8.86,3.61h0a6.77,6.77,0,0,1-3.62,8.86l-4.67,2a6.77,6.77,0,0,1-8.86-3.61h0A6.77,6.77,0,0,1,255.26,240.07Z" style="fill: none;stroke: #fff;stroke-linejoin: round;stroke-width: 0.7168852090835571px"/>
  </g>
  <path d="M191.11,153.46h59.2a76.34,76.34,0,0,0,54-22.36l48.81-48.81a38.38,38.38,0,0,1,27.14-11.24h0" style="fill: none;stroke: #fff;stroke-linejoin: round;stroke-width: 0.7168852090835571px"/>
  <path d="M319.43,116l-41,41A59.31,59.31,0,0,0,261,198.94v39.31" style="fill: none;stroke: #fff;stroke-linejoin: round;stroke-width: 0.7168852090835571px"/>
  <line x1="174.34" y1="219.46" x2="120.23" y2="273.57" style="fill: none;stroke: #fff;stroke-linejoin: round;stroke-width: 0.7168852090835571px"/>
</svg>
