<?xml version="1.0" encoding="utf-8"?>
<!-- Generator: Adobe Illustrator 21.0.2, SVG Export Plug-In . SVG Version: 6.00 Build 0)  -->
<svg version="1.1" id="Layer_1" xmlns="http://www.w3.org/2000/svg" xmlns:xlink="http://www.w3.org/1999/xlink" x="0px" y="0px"
	 viewBox="0 0 40.2 40" style="enable-background:new 0 0 40.2 40;" xml:space="preserve">
<style type="text/css">
	.st0-wind{fill:none;stroke:#FFFFFF;stroke-width:3;stroke-linejoin:round;}
</style>
<title>icon_wind</title>
<path class="st0-wind" d="M20.2,13.8c2.7,0,4.8,2.2,4.8,4.8c0,2.7-2.2,4.8-4.8,4.8h-8v0.1H6.5c0,0-5.7-0.2-5.7-5.9c0,0,0.1-5.6,5.7-5.6
	c0-6.3,5.1-11.4,11.4-11.4c4.9,0,9.3,3.1,10.8,7.8l0,0c5.9,0,10.6,4.8,10.6,10.6s-4.8,10.6-10.6,10.6H14.3c-2.7,0-4.8,2.2-4.8,4.8
	c0,2.7,2.2,4.8,4.8,4.8"/>
</svg>
