<?xml version="1.0" encoding="utf-8"?>
<!-- Generator: Adobe Illustrator 19.2.1, SVG Export Plug-In . SVG Version: 6.00 Build 0)  -->
<svg version="1.1" id="Layer_1" xmlns="http://www.w3.org/2000/svg" xmlns:xlink="http://www.w3.org/1999/xlink" x="0px" y="0px"
	 viewBox="0 0 72.2 72.2" style="enable-background:new 0 0 72.2 72.2;" xml:space="preserve">
<style type="text/css">
	.st0{display:none;}
	.st1{display:inline;}
	.st2{opacity:0.4;fill:none;stroke:#000000;stroke-width:0.25;stroke-miterlimit:10;enable-background:new    ;}
	.st3{opacity:0.1;fill:none;stroke:#000000;stroke-width:0.25;stroke-miterlimit:10;enable-background:new    ;}
	.st4{fill:none;stroke:#0555FA;stroke-width:0.25;stroke-miterlimit:10;}
	.st5{fill:none;stroke:#FFFFFF;stroke-width:4;stroke-linejoin:round;stroke-miterlimit:10;}
</style>
<g id="Grids" class="st0">
	<g class="st1">
		<g>
			<rect x="0.1" y="0.1" class="st2" width="72" height="72"/>
			<line class="st3" x1="0.1" y1="68.1" x2="72.1" y2="68.1"/>
			<line class="st3" x1="0.1" y1="64.1" x2="72.1" y2="64.1"/>
			<line class="st3" x1="0.1" y1="60.1" x2="72.1" y2="60.1"/>
			<line class="st3" x1="0.1" y1="56.1" x2="72.1" y2="56.1"/>
			<line class="st3" x1="0.1" y1="52.1" x2="72.1" y2="52.1"/>
			<line class="st3" x1="0.1" y1="48.1" x2="72.1" y2="48.1"/>
			<line class="st3" x1="0.1" y1="44.1" x2="72.1" y2="44.1"/>
			<line class="st3" x1="0.1" y1="40.1" x2="72.1" y2="40.1"/>
			<line class="st3" x1="0.1" y1="36.1" x2="72.1" y2="36.1"/>
			<line class="st3" x1="0.1" y1="32.1" x2="72.1" y2="32.1"/>
			<line class="st3" x1="0.1" y1="28.1" x2="72.1" y2="28.1"/>
			<line class="st3" x1="0.1" y1="24.1" x2="72.1" y2="24.1"/>
			<line class="st3" x1="0.1" y1="20.1" x2="72.1" y2="20.1"/>
			<line class="st3" x1="0.1" y1="16.1" x2="72.1" y2="16.1"/>
			<line class="st3" x1="0.1" y1="12.1" x2="72.1" y2="12.1"/>
			<line class="st3" x1="0.1" y1="8.1" x2="72.1" y2="8.1"/>
			<line class="st3" x1="0.1" y1="4.1" x2="72.1" y2="4.1"/>
			<line class="st3" x1="68.1" y1="0.1" x2="68.1" y2="72.1"/>
			<line class="st3" x1="64.1" y1="0.1" x2="64.1" y2="72.1"/>
			<line class="st3" x1="60.1" y1="0.1" x2="60.1" y2="72.1"/>
			<line class="st3" x1="56.1" y1="0.1" x2="56.1" y2="72.1"/>
			<line class="st3" x1="52.1" y1="0.1" x2="52.1" y2="72.1"/>
			<line class="st3" x1="48.1" y1="0.1" x2="48.1" y2="72.1"/>
			<line class="st3" x1="44.1" y1="0.1" x2="44.1" y2="72.1"/>
			<line class="st3" x1="40.1" y1="0.1" x2="40.1" y2="72.1"/>
			<line class="st3" x1="36.1" y1="0.1" x2="36.1" y2="72.1"/>
			<line class="st3" x1="32.1" y1="0.1" x2="32.1" y2="72.1"/>
			<line class="st3" x1="28.1" y1="0.1" x2="28.1" y2="72.1"/>
			<line class="st3" x1="24.1" y1="0.1" x2="24.1" y2="72.1"/>
			<line class="st3" x1="20.1" y1="0.1" x2="20.1" y2="72.1"/>
			<line class="st3" x1="16.1" y1="0.1" x2="16.1" y2="72.1"/>
			<line class="st3" x1="12.1" y1="0.1" x2="12.1" y2="72.1"/>
			<line class="st3" x1="8.1" y1="0.1" x2="8.1" y2="72.1"/>
			<line class="st3" x1="4.1" y1="0.1" x2="4.1" y2="72.1"/>
		</g>
		<g>
			<polyline class="st4" points="2.1,70.1 2.1,2.1 70.1,2.1 			"/>
			<line class="st4" x1="2.1" y1="70.1" x2="70.1" y2="70.1"/>
			<line class="st4" x1="2.1" y1="66.1" x2="70.1" y2="66.1"/>
			<line class="st4" x1="2.1" y1="62.1" x2="70.1" y2="62.1"/>
			<line class="st4" x1="2.1" y1="58.1" x2="70.1" y2="58.1"/>
			<line class="st4" x1="2.1" y1="54.1" x2="70.1" y2="54.1"/>
			<line class="st4" x1="2.1" y1="50.1" x2="70.1" y2="50.1"/>
			<line class="st4" x1="2.1" y1="46.1" x2="70.1" y2="46.1"/>
			<line class="st4" x1="2.1" y1="42.1" x2="70.1" y2="42.1"/>
			<line class="st4" x1="2.1" y1="38.1" x2="70.1" y2="38.1"/>
			<line class="st4" x1="2.1" y1="34.1" x2="70.1" y2="34.1"/>
			<line class="st4" x1="2.1" y1="30.1" x2="70.1" y2="30.1"/>
			<line class="st4" x1="2.1" y1="26.1" x2="70.1" y2="26.1"/>
			<line class="st4" x1="2.1" y1="22.1" x2="70.1" y2="22.1"/>
			<line class="st4" x1="2.1" y1="18.1" x2="70.1" y2="18.1"/>
			<line class="st4" x1="2.1" y1="14.1" x2="70.1" y2="14.1"/>
			<line class="st4" x1="2.1" y1="10.1" x2="70.1" y2="10.1"/>
			<line class="st4" x1="2.1" y1="6.1" x2="70.1" y2="6.1"/>
			<line class="st4" x1="70.1" y1="2.1" x2="70.1" y2="70.1"/>
			<line class="st4" x1="66.1" y1="2.1" x2="66.1" y2="70.1"/>
			<line class="st4" x1="62.1" y1="2.1" x2="62.1" y2="70.1"/>
			<line class="st4" x1="58.1" y1="2.1" x2="58.1" y2="70.1"/>
			<line class="st4" x1="54.1" y1="2.1" x2="54.1" y2="70.1"/>
			<line class="st4" x1="50.1" y1="2.1" x2="50.1" y2="70.1"/>
			<line class="st4" x1="46.1" y1="2.1" x2="46.1" y2="70.1"/>
			<line class="st4" x1="42.1" y1="2.1" x2="42.1" y2="70.1"/>
			<line class="st4" x1="38.1" y1="2.1" x2="38.1" y2="70.1"/>
			<line class="st4" x1="34.1" y1="2.1" x2="34.1" y2="70.1"/>
			<line class="st4" x1="30.1" y1="2.1" x2="30.1" y2="70.1"/>
			<line class="st4" x1="26.1" y1="2.1" x2="26.1" y2="70.1"/>
			<line class="st4" x1="22.1" y1="2.1" x2="22.1" y2="70.1"/>
			<line class="st4" x1="18.1" y1="2.1" x2="18.1" y2="70.1"/>
			<line class="st4" x1="14.1" y1="2.1" x2="14.1" y2="70.1"/>
			<line class="st4" x1="10.1" y1="2.1" x2="10.1" y2="70.1"/>
			<line class="st4" x1="6.1" y1="2.1" x2="6.1" y2="70.1"/>
		</g>
	</g>
</g>
<path class="st5" d="M30.9,13.2c-11,2.6-19.2,12.5-19.2,24.3c0,13.8,11.2,24.9,24.9,24.9s24.9-11.2,24.9-24.9S50.4,12.6,36.7,12.6
	c0,2.6,0,24.9,0,24.9l9.6,9.6"/>
</svg>
