<svg id="Layer_1" data-name="Layer 1" xmlns="http://www.w3.org/2000/svg" viewBox="0 0 72.2 72.2"><title>icon_smartgrid_world</title><path d="M49,57.51L48.67,57V50.76A2.37,2.37,0,0,0,48,49.09l-2.47-2.47a2.37,2.37,0,0,0-1.67-.69H41.06a6.91,6.91,0,0,1-4.88-2h0a6.91,6.91,0,0,1,0-9.77l0.46-.46a6.91,6.91,0,0,1,4.88-2h5.71A2.37,2.37,0,0,0,48.91,31l2.34-2.34a2.37,2.37,0,0,0,0-3.35l-3-3a2.37,2.37,0,0,0-3.35,0L43.7,23.48a2.37,2.37,0,0,1-3.35,0h0a2.37,2.37,0,0,1,0-3.35l8.47-8.82a29,29,0,1,1-27.69,51,37.52,37.52,0,0,1-5.55-4.13" style="fill:none;stroke:#fff;stroke-linejoin:round;stroke-width:4px"/><path d="M42.14,8.85a29,29,0,0,0-26.55,49.3v-5.6a6.7,6.7,0,0,1,2-4.74h0a8.64,8.64,0,0,0,2.53-6.11h0a8.64,8.64,0,0,0-3.83-7.18L12,31.66l9.17-10.87h0A4.88,4.88,0,0,0,20,17.6L19.47,17" style="fill:none;stroke:#fff;stroke-linejoin:round;stroke-width:4px"/></svg>