<svg id="Layer_1" data-name="Layer 1" xmlns="http://www.w3.org/2000/svg" viewBox="0 0 55.94 67.14">
  <title>illustration_smartgrid_hand</title>
  <path d="M503.56,201.27l23.78-23.78a6.73,6.73,0,0,1,9.51,0h0a6.73,6.73,0,0,1,0,9.51l-12.59,12.59L535,210.3a10.17,10.17,0,0,1,0,14.38h0c-1.09,1.09-2.59,2.62-4,4.06a39.93,39.93,0,0,1-8.55,6.67l-1.64,1a23.14,23.14,0,0,1-28-3.65h0a23.14,23.14,0,0,1-5.43-24.15s6.33-12,7.88-13.56l6.28-6.28a8.37,8.37,0,0,1,11.84,0" transform="translate(-484.46 -173.93)" style="fill: #f7331d;stroke: #fff;stroke-miterlimit: 10;stroke-width: 3.1653745174408px"/>
</svg>
