<svg id="selected" xmlns="http://www.w3.org/2000/svg" xmlns:xlink="http://www.w3.org/1999/xlink" viewBox="0 0 214 214">
  <defs>
    <linearGradient id="linear-gradient" x1="36.64" y1="182.11" x2="160.64" y2="46.87" gradientTransform="translate(-0.23 0.28) rotate(-0.14)" gradientUnits="userSpaceOnUse">
      <stop offset="0" stop-color="#fff" stop-opacity="0"/>
      <stop offset="1" stop-color="#fff" stop-opacity="0.86"/>
    </linearGradient>
    <linearGradient id="linear-gradient-2" x1="105.48" y1="24.23" x2="168.48" y2="24.23" gradientTransform="translate(-0.23 0.28) rotate(-0.14)" gradientUnits="userSpaceOnUse">
      <stop offset="0" stop-color="#fff" stop-opacity="0"/>
      <stop offset="0.96" stop-color="#fff"/>
    </linearGradient>
    <linearGradient id="linear-gradient-3" x1="202.33" y1="55.82" x2="134.33" y2="170.32" gradientTransform="translate(-0.23 0.28) rotate(-0.14)" gradientUnits="userSpaceOnUse">
      <stop offset="0" stop-color="#fff" stop-opacity="0"/>
      <stop offset="1" stop-color="#fff" stop-opacity="0.8"/>
    </linearGradient>
  </defs>
  <title>illustration_energymix</title>
  <g id="donut_urban" data-name="donut urban">
    <path d="M107.17,178a71,71,0,0,1-1.84-142l-.09-36a107,107,0,1,0,64.89,193.37l-21.33-29A70.66,70.66,0,0,1,107.17,178Z" style="fill: url(#linear-gradient)"/>
    <path d="M105.33,36c.5,0,1,0,1.5,0,1.51,0,3,.05,4.5.14L111.24.09c-1.49-.06-3-.09-4.5-.09l-1.5,0q-2.89,0-5.75.25l.09,36.16C101.48,36.23,103.39,36.09,105.33,36Z" style="fill: #fff"/>
  </g>
  <g id="donut_temporary" data-name="donut temporary">
    <path d="M106.83,36a70.66,70.66,0,0,1,40.26,12.41L168.3,19.29A106.5,106.5,0,0,0,106.74,0l-1.5,0,.09,36C105.83,36,106.33,36,106.83,36Z" style="fill: url(#linear-gradient-2)"/>
    <path d="M147.09,48.41q2.42,1.66,4.69,3.52l21.17-29.18q-2.28-1.79-4.65-3.46c-1.63-1.14-3.3-2.22-5-3.27L142.08,45.28C143.8,46.26,145.47,47.3,147.09,48.41Z" style="fill: #fff"/>
  </g>
  <g id="donut_clean" data-name="donut clean">
    <path d="M214,106.74a106.87,106.87,0,0,0-45.7-87.45L147.09,48.41a71,71,0,0,1,1.71,116l21.33,29A106.85,106.85,0,0,0,214,106.74Z" style="fill: url(#linear-gradient-3)"/>
    <path d="M148.79,164.38q-2.37,1.73-4.89,3.26l21.51,29c1.6-1,3.18-2.12,4.72-3.24s3.21-2.42,4.76-3.7l-21.49-29Q151.17,162.64,148.79,164.38Z" style="fill: #fff"/>
  </g>
</svg>
