<svg id="Layer_7" data-name="Layer 7" xmlns="http://www.w3.org/2000/svg" viewBox="0 0 1024 415">
  <title>illustration_microgrid_esports</title>
  <path d="M860.1,48.6a7,7,0,1,0-.6,4.4l5.8,4,10.8-6.9-10.8-6.9-0.6-12.9-11.4,5.9-11.3-6-0.6,12.9L830.5,50l10.8,6.9,0.6,12.9,11.4-5.9,11.4,5.9,0.4-9.1" style="fill: none;stroke: #fff;stroke-linejoin: round;stroke-width: 3px"/>
  <polyline points="748 100 757.2 100 750 78.1 767.3 78.1 774.3 100 762.8 100" style="fill: none;stroke: #fff;stroke-linejoin: round;stroke-width: 3px"/>
  <polyline points="772.7 100 781.9 100 774.8 78.1 792 78.1 799 100 787.5 100" style="fill: none;stroke: #fff;stroke-linejoin: round;stroke-width: 3px"/>
  <polyline points="797.5 100 806.7 100 799.5 78.1 816.8 78.1 823.8 100 812.3 100" style="fill: none;stroke: #fff;stroke-linejoin: round;stroke-width: 3px"/>
  <path d="M736.9,148.2h0a65.94,65.94,0,0,0-66,66v11" style="fill: none;stroke: #fff;stroke-miterlimit: 10"/>
</svg>
