<svg id="Layer_7" data-name="Layer 7" xmlns="http://www.w3.org/2000/svg" viewBox="0 0 1024 415">
  <title>Artboard 1</title>
  <path d="M752.5,174v-2.8a15.2,15.2,0,1,0-12.2,0V177h12.1v3a3,3,0,0,1-3,3h-6.1a3,3,0,0,1-3-3" style="fill: none;stroke: #fff;stroke-linejoin: round;stroke-width: 3px"/>
  <path d="M547.8,333.7l1.3-5.2c.4-1.5,1.4-3.1,3.1-3.1h15.1c1.7,0,2.5,1.3,3.1,3.1l2.5,9.1H543a3.12,3.12,0,0,0-3.1,3.1v9.1a3.12,3.12,0,0,0,3.1,3.1h3.3a4,4,0,0,0-.3,1.5,4.6,4.6,0,1,0,9.2,0,4,4,0,0,0-.3-1.5h9.5a4,4,0,0,0-.3,1.5,4.6,4.6,0,1,0,9.2,0,4,4,0,0,0-.3-1.5h3.2a3.12,3.12,0,0,0,3.1-3.1v-9.1a3.12,3.12,0,0,0-3.1-3.1" style="fill: none;stroke: #fff;stroke-linejoin: round;stroke-width: 3px"/>
  <polyline points="751 271.4 751 260.7 741.9 260.7 741.9 275.9 760.1 275.9 760.1 253.1 764.7 253.1 764.7 251.6 758.6 246.6 758.6 237.9 752.5 237.9 752.5 241 746.5 236.4 728.2 251.6 728.2 253.1 732.8 253.1 732.8 275.9 737.3 275.9" style="fill: none;stroke: #fff;stroke-linejoin: round;stroke-width: 3px"/>
  <path d="M654.2,342.1V324.7h31.6v22.1H654.2l-4.6,10.3a1.6,1.6,0,0,0,1.4,2.3h37.9a1.57,1.57,0,0,0,1.4-2.3l-2.4-6.1" style="fill: none;stroke: #fff;stroke-linejoin: round;stroke-width: 3px"/>
  <g style="opacity: 0.30000001192092896">
    <path d="M656.8,309.9a69.71,69.71,0,0,0-80.8,0" style="fill: none;stroke: #fff;stroke-miterlimit: 10;stroke-width: 2px"/>
    <path d="M576,309.8a69.58,69.58,0,0,0-57.1-57.1" style="fill: none;stroke: #fff;stroke-miterlimit: 10;stroke-width: 2px"/>
    <path d="M518.9,252.6a69.71,69.71,0,0,0,0-80.8" style="fill: none;stroke: #fff;stroke-miterlimit: 10;stroke-width: 2px"/>
    <path d="M518.9,171.8A69.58,69.58,0,0,0,576,114.7" style="fill: none;stroke: #fff;stroke-miterlimit: 10;stroke-width: 2px"/>
    <path d="M576.1,114.7a69.71,69.71,0,0,0,80.8,0" style="fill: none;stroke: #fff;stroke-miterlimit: 10;stroke-width: 2px"/>
    <path d="M656.9,114.7A69.58,69.58,0,0,0,714,171.8" style="fill: none;stroke: #fff;stroke-miterlimit: 10;stroke-width: 2px"/>
    <path d="M714.1,171.9a69.71,69.71,0,0,0,0,80.8" style="fill: none;stroke: #fff;stroke-miterlimit: 10;stroke-width: 2px"/>
    <path d="M714,252.7a69.58,69.58,0,0,0-57.1,57.1" style="fill: none;stroke: #fff;stroke-miterlimit: 10;stroke-width: 2px"/>
    <path d="M713.9,252.8a253.5,253.5,0,0,0-195,0" style="fill: none;stroke: #fff;stroke-miterlimit: 10;stroke-width: 2px"/>
    <path d="M519,171.7a252.84,252.84,0,0,0,97.5,19.5A251,251,0,0,0,714,171.7" style="fill: none;stroke: #fff;stroke-miterlimit: 10;stroke-width: 2px"/>
    <path d="M657,114.8a253.5,253.5,0,0,0,0,195" style="fill: none;stroke: #fff;stroke-miterlimit: 10;stroke-width: 2px"/>
    <path d="M576,114.7a128.39,128.39,0,0,0,109,60.5,125.78,125.78,0,0,0,29-3.3h0" style="fill: none;stroke: #fff;stroke-miterlimit: 10;stroke-width: 2px"/>
    <path d="M714.1,171.8h0a253.71,253.71,0,0,0-138,138h0" style="fill: none;stroke: #fff;stroke-miterlimit: 10;stroke-width: 2px"/>
    <path d="M576,114.7h0a253.71,253.71,0,0,0,138,138h0" style="fill: none;stroke: #fff;stroke-miterlimit: 10;stroke-width: 2px"/>
    <path d="M656.9,114.7h0a125.78,125.78,0,0,0-3.3,29,128.39,128.39,0,0,0,60.5,109" style="fill: none;stroke: #fff;stroke-miterlimit: 10;stroke-width: 2px"/>
    <path d="M518.9,171.8h0a126.64,126.64,0,0,0,29.1,3.3,128.39,128.39,0,0,0,109-60.5h0" style="fill: none;stroke: #fff;stroke-miterlimit: 10;stroke-width: 2px"/>
    <path d="M576,309.9h0a125.78,125.78,0,0,0,3.3-29,128.39,128.39,0,0,0-60.5-109" style="fill: none;stroke: #fff;stroke-miterlimit: 10;stroke-width: 2px"/>
    <path d="M656.9,309.9a128.39,128.39,0,0,0-109-60.5,125.78,125.78,0,0,0-29,3.3h0" style="fill: none;stroke: #fff;stroke-miterlimit: 10;stroke-width: 2px"/>
    <path d="M714.1,252.7h0a126.64,126.64,0,0,0-29.1-3.3,128.39,128.39,0,0,0-109,60.5h0" style="fill: none;stroke: #fff;stroke-miterlimit: 10;stroke-width: 2px"/>
    <path d="M575.9,309.8a253.5,253.5,0,0,0,0-195" style="fill: none;stroke: #fff;stroke-miterlimit: 10;stroke-width: 2px"/>
    <path d="M518.9,252.7h0a253.71,253.71,0,0,0,138-138h0" style="fill: none;stroke: #fff;stroke-miterlimit: 10;stroke-width: 2px"/>
    <path d="M656.9,309.9h0a253.71,253.71,0,0,0-138-138h0" style="fill: none;stroke: #fff;stroke-miterlimit: 10;stroke-width: 2px"/>
  </g>
  <g>
    <circle cx="615.9" cy="212.2" r="26.3" style="fill: #f7331d"/>
    <path d="M606,235.3a25.65,25.65,0,1,0-8.1-5.8,2.56,2.56,0,0,0,4.4-1.6h0v-3c0-7.2,4.3-13.3,10.5-14.8a8.17,8.17,0,0,1-2.9-6.5c0-4.2,2.7-7.6,6.1-7.6s6.1,3.4,6.1,7.6a8.16,8.16,0,0,1-2.9,6.5c5.2,1.3,10.5,7,10.5,11.8v1.8" style="fill: none;stroke: #fff;stroke-linejoin: round;stroke-width: 3px"/>
  </g>
  <g style="isolation: isolate">
    <text transform="translate(489.77 79.67)" style="isolation: isolate;font-size: 14px;fill: #fff;font-family: UniversLTPro-55Roman, Univers LT Pro;letter-spacing: -0.019008091517857144em">S</text>
    <text transform="translate(498.83 79.67)" style="isolation: isolate;font-size: 14px;fill: #fff;font-family: UniversLTPro-55Roman, Univers LT Pro">olar</text>
    <text transform="translate(482.5 96.47)" style="isolation: isolate;font-size: 14px;fill: #fff;font-family: UniversLTPro-55Roman, Univers LT Pro">power</text>
  </g>
  <g style="isolation: isolate">
    <text transform="translate(701.97 350.57)" style="isolation: isolate;font-size: 14px;fill: #fff;font-family: UniversLTPro-55Roman, Univers LT Pro;letter-spacing: -0.05500139508928571em">W</text>
    <text transform="translate(715.2 350.57)" style="isolation: isolate;font-size: 14px;fill: #fff;font-family: UniversLTPro-55Roman, Univers LT Pro">orkplaces</text>
  </g>
  <text transform="translate(776.17 263.27)" style="isolation: isolate;font-size: 14px;fill: #fff;font-family: UniversLTPro-55Roman, Univers LT Pro">Houses</text>
  <text transform="translate(702.2 86.37)" style="isolation: isolate;font-size: 14px;fill: #fff;font-family: UniversLTPro-55Roman, Univers LT Pro">Storage</text>
  <g style="isolation: isolate">
    <text transform="translate(776.57 159.57)" style="isolation: isolate;font-size: 14px;fill: #fff;font-family: UniversLTPro-55Roman, Univers LT Pro;letter-spacing: -0.018973214285714284em">P</text>
    <text transform="translate(784.84 159.57)" style="isolation: isolate;font-size: 14px;fill: #fff;font-family: UniversLTPro-55Roman, Univers LT Pro">ub</text>
    <text transform="translate(801.95 159.57)" style="isolation: isolate;font-size: 14px;fill: #fff;font-family: UniversLTPro-55Roman, Univers LT Pro">l</text>
    <text transform="translate(805.86 159.57)" style="isolation: isolate;font-size: 14px;fill: #fff;font-family: UniversLTPro-55Roman, Univers LT Pro">ic</text>
    <text transform="translate(776.57 176.37)" style="isolation: isolate;font-size: 14px;fill: #fff;font-family: UniversLTPro-55Roman, Univers LT Pro">l</text>
    <text transform="translate(780.48 176.37)" style="isolation: isolate;font-size: 14px;fill: #fff;font-family: UniversLTPro-55Roman, Univers LT Pro">igh</text>
    <text transform="translate(801.48 176.37)" style="isolation: isolate;font-size: 14px;fill: #fff;font-family: UniversLTPro-55Roman, Univers LT Pro">t</text>
    <text transform="translate(806.15 176.37)" style="isolation: isolate;font-size: 14px;fill: #fff;font-family: UniversLTPro-55Roman, Univers LT Pro">ing</text>
  </g>
  <g style="isolation: isolate">
    <text transform="translate(407.97 159.87)" style="isolation: isolate;font-size: 14px;fill: #fff;font-family: UniversLTPro-55Roman, Univers LT Pro">Wind</text>
    <text transform="translate(400.97 176.67)" style="isolation: isolate;font-size: 14px;fill: #fff;font-family: UniversLTPro-55Roman, Univers LT Pro">power</text>
  </g>
  <g style="isolation: isolate">
    <text transform="translate(389.68 256.37)" style="isolation: isolate;font-size: 14px;fill: #fff;font-family: UniversLTPro-55Roman, Univers LT Pro">Biomass</text>
    <text transform="translate(404.46 273.17)" style="isolation: isolate;font-size: 14px;fill: #fff;font-family: UniversLTPro-55Roman, Univers LT Pro">power</text>
  </g>
  <g style="isolation: isolate">
    <text transform="translate(456.49 349.37)" style="isolation: isolate;font-size: 14px;fill: #fff;font-family: UniversLTPro-55Roman, Univers LT Pro">E-mobi</text>
    <text transform="translate(503.92 349.37)" style="isolation: isolate;font-size: 14px;fill: #fff;font-family: UniversLTPro-55Roman, Univers LT Pro;letter-spacing: 0.0009765625em">l</text>
    <text transform="translate(507.83 349.37)" style="isolation: isolate;font-size: 14px;fill: #fff;font-family: UniversLTPro-55Roman, Univers LT Pro">ity</text>
  </g>
  <path d="M563.73,90.07a8,8,0,0,1-5.9.9,8.34,8.34,0,1,1,9.9-6.4,8,8,0,0,1-1.8,3.7l4.9,2.8,9.9-1.3-7.3-6.9,7.3-6.9-9.9-1.3,1.8-9.8-8.8,4.8-4.3-9-4.3,9-8.8-4.8,1.8,9.8-9.9,1.3,7.3,6.9-7.3,6.9,9.9,1.3-1.8,9.8,8.8-4.8,4.3,9,4.3-9,8.8,4.8-1.4-6.1" style="fill: none;stroke: #fff;stroke-linejoin: round;stroke-width: 3px"/>
  <path d="M673.87,66.13h6.6v35.5h-19.9V66.13h5v-1.6a3.17,3.17,0,0,1,3.2-3.3h5.1a1.49,1.49,0,0,1,1.6,1.6" style="fill: none;stroke: #fff;stroke-linejoin: round;stroke-width: 3px"/>
  <path d="M479.66,157.15a4.82,4.82,0,0,1,0,9.64h-8v.06H466s-5.66-.24-5.66-5.88c0,0,.08-5.57,5.66-5.57a11.39,11.39,0,0,1,22.2-3.6h0a10.62,10.62,0,0,1,0,21.25H473.79a4.82,4.82,0,0,0,0,9.64" style="fill: none;stroke: #fff;stroke-linejoin: round;stroke-width: 3px"/>
  <path d="M482.7,253l-10.38,10.38-.45-.39c-3.52-2.92-3.49-7.76-3.44-8.52,0-6.31,6.21-10.12,11.43-11.43,6-1.49,16.13-5.3,16.13-5.3s-4.28,10-4.41,18-5.73,14-14.2,14a15.26,15.26,0,0,1-8.69-2.7l0,0-9,9" style="fill: none;stroke: #fff;stroke-linejoin: round;stroke-width: 3px"/>
</svg>
