<svg id="bg_car_powertrain" data-name="bg car powertrain" xmlns="http://www.w3.org/2000/svg" viewBox="0 0 1024 415"><title>illustration_powertrain_bgcar</title><g style="opacity:0.3"><circle cx="817.02" cy="286.58" r="77.32" style="fill:none;stroke:#fff;stroke-linejoin:round;stroke-width:4px"/><path d="M970.9,294.21h33.32V266.33H956.65V237.86L977,204.24V170.66l-30.52-7.12H876.69v45.71A97.83,97.83,0,0,1,911.3,312.19L956.65,294V280.7" style="fill:none;stroke:#fff;stroke-linejoin:round;stroke-width:4px"/><path d="M675.94,237.86c-40.59-10.75-139.81-28.6-171-28.6H471.76c-27.53,0-33.63,16.34-69.24,16.34H366.91l-2.55-.17a5.55,5.55,0,0,1-5.19-5.54V203.11h14.67" style="fill:none;stroke:#fff;stroke-linejoin:round;stroke-width:4px"/><path d="M719.35,286.58a97.25,97.25,0,0,0,20.34,59.68l-32.29,11H411.87" style="fill:none;stroke:#fff;stroke-linejoin:round;stroke-width:4px"/><path d="M514.1,199.09V178.8L505,132h39.68s34.59,24.42,63.08,46.8c63.08,13.23,111.65,38.61,111.65,38.61h28.72a97.61,97.61,0,0,0-24.8,41.69q-1,3.56-1.82,7.23a321,321,0,0,0-66.54-7.24H500.53a17.29,17.29,0,0,0-17.29,17.29h0V312a17.29,17.29,0,0,0,17.29,17.29h131.1a266.78,266.78,0,0,0,47.4-4.24l21.25-3.84" style="fill:none;stroke:#fff;stroke-linejoin:round;stroke-width:4px"/><circle cx="817.02" cy="286.58" r="50.44" style="fill:none;stroke:#fff;stroke-linejoin:round;stroke-width:4px"/></g></svg>