<svg id="Layer_7" data-name="Layer 7" xmlns="http://www.w3.org/2000/svg" viewBox="0 0 1024 415">
  <title>Artboard 1</title>
  <path d="M566.4,80.2a7,7,0,1,0-.6,4.4l5.8,4,10.8-6.9-10.8-6.9-.6-13-11.4,5.9-11.4-5.9-.6,12.9-10.8,6.9,10.8,6.9.6,12.9,11.4-5.9,11.4,5.9.4-9.1" style="fill: none;stroke: #fff;stroke-linejoin: round;stroke-width: 3px"/>
  <path d="M473.1,272.1a22.06,22.06,0,0,1-7-15.9c0-8.2,4.8-15.3,12.1-19.8,7.3,4.5,12.1,11.6,12.1,19.8s-4.8,15.2-12.1,19.6V250.1" style="fill: none;stroke: #fff;stroke-linejoin: round;stroke-width: 3px"/>
  <path d="M674.6,63.4a1.54,1.54,0,0,0-1.5-1.5H667a1.54,1.54,0,0,0-1.5,1.5v4.5H658a1.54,1.54,0,0,0-1.5,1.5V99.7a1.54,1.54,0,0,0,1.5,1.5h24.3a1.54,1.54,0,0,0,1.5-1.5V69.4a1.54,1.54,0,0,0-1.5-1.5H670" style="fill: none;stroke: #fff;stroke-linejoin: round;stroke-width: 3px"/>
  <path d="M752.5,174v-2.8a15.09,15.09,0,0,0,9.1-14.6,15.21,15.21,0,0,0-30.4.7,15.07,15.07,0,0,0,9.1,13.9V177h12.1v3a3,3,0,0,1-3,3h-6.1a3,3,0,0,1-3-3" style="fill: none;stroke: #fff;stroke-linejoin: round;stroke-width: 3px"/>
  <path d="M547.8,333.7l1.3-5.2c.4-1.5,1.4-3.1,3.1-3.1h15.1c1.7,0,2.5,1.3,3.1,3.1l2.5,9.1H543a3.12,3.12,0,0,0-3.1,3.1v9.1a3.12,3.12,0,0,0,3.1,3.1h3.3a4,4,0,0,0-.3,1.5,4.6,4.6,0,1,0,9.2,0,4,4,0,0,0-.3-1.5h9.5a4,4,0,0,0-.3,1.5,4.6,4.6,0,1,0,9.2,0,4,4,0,0,0-.3-1.5h3.2a3.12,3.12,0,0,0,3.1-3.1v-9.1a3.12,3.12,0,0,0-3.1-3.1" style="fill: none;stroke: #fff;stroke-linejoin: round;stroke-width: 3px"/>
  <polyline points="751 271.4 751 260.7 741.9 260.7 741.9 275.9 760.1 275.9 760.1 253.1 764.7 253.1 764.7 251.6 758.6 246.6 758.6 237.9 752.5 237.9 752.5 241 746.5 236.4 728.2 251.6 728.2 253.1 732.8 253.1 732.8 275.9 737.3 275.9" style="fill: none;stroke: #fff;stroke-linejoin: round;stroke-width: 3px"/>
  <path d="M483.5,165.5a8.29,8.29,0,0,1,.8,3.6h.1a15.8,15.8,0,0,1,5.7,2.4,20.5,20.5,0,0,1,7.9,10.6,15.91,15.91,0,0,1-12-2.5,19.68,19.68,0,0,1-4.7-4.4l-.1-.1a5.31,5.31,0,0,1-6.2,0l-.1.1a19.68,19.68,0,0,1-4.7,4.4,16.37,16.37,0,0,1-12,2.5,20,20,0,0,1,7.9-10.6,16.56,16.56,0,0,1,5.7-2.4h.1A7.38,7.38,0,0,1,475,163a5.45,5.45,0,0,1,6,0l.1-.2a24.82,24.82,0,0,0,1-6.8,22.19,22.19,0,0,0-4.1-13.1,22,22,0,0,0-4.1,13.1,28.25,28.25,0,0,0,.2,2.9" style="fill: none;stroke: #fff;stroke-linejoin: round;stroke-width: 3px"/>
  <path d="M654.2,342.1V324.7h31.6v22.1H654.2l-4.6,10.3a1.6,1.6,0,0,0,1.4,2.3h37.9a1.57,1.57,0,0,0,1.4-2.3l-2.4-6.1" style="fill: none;stroke: #fff;stroke-linejoin: round;stroke-width: 3px"/>
  <g style="opacity: 0.30000001192092896">
    <path d="M656.8,309.9a69.71,69.71,0,0,0-80.8,0" style="fill: none;stroke: #fff;stroke-miterlimit: 10;stroke-width: 2px"/>
    <path d="M576,309.8a69.58,69.58,0,0,0-57.1-57.1" style="fill: none;stroke: #fff;stroke-miterlimit: 10;stroke-width: 2px"/>
    <path d="M518.9,252.6a69.71,69.71,0,0,0,0-80.8" style="fill: none;stroke: #fff;stroke-miterlimit: 10;stroke-width: 2px"/>
    <path d="M518.9,171.8A69.58,69.58,0,0,0,576,114.7" style="fill: none;stroke: #fff;stroke-miterlimit: 10;stroke-width: 2px"/>
    <path d="M576.1,114.7a69.71,69.71,0,0,0,80.8,0" style="fill: none;stroke: #fff;stroke-miterlimit: 10;stroke-width: 2px"/>
    <path d="M656.9,114.7A69.58,69.58,0,0,0,714,171.8" style="fill: none;stroke: #fff;stroke-miterlimit: 10;stroke-width: 2px"/>
    <path d="M714.1,171.9a69.71,69.71,0,0,0,0,80.8" style="fill: none;stroke: #fff;stroke-miterlimit: 10;stroke-width: 2px"/>
    <path d="M714,252.7a69.58,69.58,0,0,0-57.1,57.1" style="fill: none;stroke: #fff;stroke-miterlimit: 10;stroke-width: 2px"/>
    <path d="M713.9,252.8a253.5,253.5,0,0,0-195,0" style="fill: none;stroke: #fff;stroke-miterlimit: 10;stroke-width: 2px"/>
    <path d="M519,171.7a252.84,252.84,0,0,0,97.5,19.5A251,251,0,0,0,714,171.7" style="fill: none;stroke: #fff;stroke-miterlimit: 10;stroke-width: 2px"/>
    <path d="M657,114.8a253.5,253.5,0,0,0,0,195" style="fill: none;stroke: #fff;stroke-miterlimit: 10;stroke-width: 2px"/>
    <path d="M576,114.7a128.39,128.39,0,0,0,109,60.5,125.78,125.78,0,0,0,29-3.3h0" style="fill: none;stroke: #fff;stroke-miterlimit: 10;stroke-width: 2px"/>
    <path d="M714.1,171.8h0a253.71,253.71,0,0,0-138,138h0" style="fill: none;stroke: #fff;stroke-miterlimit: 10;stroke-width: 2px"/>
    <path d="M576,114.7h0a253.71,253.71,0,0,0,138,138h0" style="fill: none;stroke: #fff;stroke-miterlimit: 10;stroke-width: 2px"/>
    <path d="M656.9,114.7h0a125.78,125.78,0,0,0-3.3,29,128.39,128.39,0,0,0,60.5,109" style="fill: none;stroke: #fff;stroke-miterlimit: 10;stroke-width: 2px"/>
    <path d="M518.9,171.8h0a126.64,126.64,0,0,0,29.1,3.3,128.39,128.39,0,0,0,109-60.5h0" style="fill: none;stroke: #fff;stroke-miterlimit: 10;stroke-width: 2px"/>
    <path d="M576,309.9h0a125.78,125.78,0,0,0,3.3-29,128.39,128.39,0,0,0-60.5-109" style="fill: none;stroke: #fff;stroke-miterlimit: 10;stroke-width: 2px"/>
    <path d="M656.9,309.9a128.39,128.39,0,0,0-109-60.5,125.78,125.78,0,0,0-29,3.3h0" style="fill: none;stroke: #fff;stroke-miterlimit: 10;stroke-width: 2px"/>
    <path d="M714.1,252.7h0a126.64,126.64,0,0,0-29.1-3.3,128.39,128.39,0,0,0-109,60.5h0" style="fill: none;stroke: #fff;stroke-miterlimit: 10;stroke-width: 2px"/>
    <path d="M575.9,309.8a253.5,253.5,0,0,0,0-195" style="fill: none;stroke: #fff;stroke-miterlimit: 10;stroke-width: 2px"/>
    <path d="M518.9,252.7h0a253.71,253.71,0,0,0,138-138h0" style="fill: none;stroke: #fff;stroke-miterlimit: 10;stroke-width: 2px"/>
    <path d="M656.9,309.9h0a253.71,253.71,0,0,0-138-138h0" style="fill: none;stroke: #fff;stroke-miterlimit: 10;stroke-width: 2px"/>
  </g>
  <g>
    <circle cx="615.9" cy="212.2" r="26.3" style="fill: #f7331d"/>
    <path d="M606,235.3a25.65,25.65,0,1,0-8.1-5.8,2.56,2.56,0,0,0,4.4-1.6h0v-3c0-7.2,4.3-13.3,10.5-14.8a8.17,8.17,0,0,1-2.9-6.5c0-4.2,2.7-7.6,6.1-7.6s6.1,3.4,6.1,7.6a8.16,8.16,0,0,1-2.9,6.5c5.2,1.3,10.5,7,10.5,11.8v1.8" style="fill: none;stroke: #fff;stroke-linejoin: round;stroke-width: 3px"/>
  </g>
  <text transform="translate(489.77 79.67)" style="font-size: 14px;fill: #fff;font-family: UniversLTPro-55Roman, Univers LT Pro"><tspan style="letter-spacing: -0.019984654017857144em">S</tspan><tspan x="9.06" y="0">olar</tspan><tspan x="-7.27" y="16.8">power</tspan></text>
  <text transform="translate(701.97 350.57)" style="font-size: 14px;fill: #fff;font-family: UniversLTPro-55Roman, Univers LT Pro;letter-spacing: -0.05500139508928571em">W<tspan x="13.23" y="0" style="letter-spacing: 0.00003487723214285714em">orkplaces</tspan></text>
  <text transform="translate(776.17 263.27)" style="font-size: 14px;fill: #fff;font-family: UniversLTPro-55Roman, Univers LT Pro">Houses</text>
  <text transform="translate(702.2 86.37)" style="font-size: 14px;fill: #fff;font-family: UniversLTPro-55Roman, Univers LT Pro">Storage</text>
  <text transform="translate(776.57 159.57)" style="font-size: 14px;fill: #fff;font-family: UniversLTPro-55Roman, Univers LT Pro"><tspan style="letter-spacing: -0.019984654017857144em">P</tspan><tspan x="8.27" y="0" style="letter-spacing: 0.00003487723214285714em">ub</tspan><tspan x="25.38" y="0" style="letter-spacing: 0.0009765625em">l</tspan><tspan x="29.29" y="0">ic</tspan><tspan x="0" y="16.8" style="letter-spacing: 0.0009765625em">l</tspan><tspan x="3.91" y="16.8">igh</tspan><tspan x="24.91" y="16.8" style="letter-spacing: 0.0009765625em">t</tspan><tspan x="29.58" y="16.8">ing</tspan></text>
  <text transform="translate(407.97 159.87)" style="font-size: 14px;fill: #fff;font-family: UniversLTPro-55Roman, Univers LT Pro">Wind<tspan x="-7" y="16.8">power</tspan></text>
  <text transform="translate(389.68 256.37)" style="font-size: 14px;fill: #fff;font-family: UniversLTPro-55Roman, Univers LT Pro">Biomass<tspan x="14.78" y="16.8">power</tspan></text>
  <text transform="translate(456.49 349.37)" style="font-size: 14px;fill: #fff;font-family: UniversLTPro-55Roman, Univers LT Pro">E-mobi<tspan x="47.43" y="0" style="letter-spacing: 0.0010114397321428572em">l</tspan><tspan x="51.34" y="0" style="letter-spacing: -0.00003487723214285714em">ity</tspan></text>
</svg>
