<svg xmlns="http://www.w3.org/2000/svg" xmlns:xlink="http://www.w3.org/1999/xlink" viewBox="0 0 1024 400">
  <defs>
    <linearGradient id="linear-gradient" x1="210.39" y1="203.75" x2="730.91" y2="203.75" gradientTransform="translate(941.3 407.5) rotate(-180)" gradientUnits="userSpaceOnUse">
      <stop offset="0" stop-color="#fff" stop-opacity="0"/>
      <stop offset="1" stop-color="#fff" stop-opacity="0.67"/>
    </linearGradient>
    <clipPath id="clip-path">
      <path d="M346.43,200.4A154.39,154.39,0,1,0,500.82,46,154.39,154.39,0,0,0,346.43,200.4" style="fill: none"/>
    </clipPath>
  </defs>
  <title>illustration_enel_world</title>
  <g id="cursor">
    <rect x="210.39" y="140.75" width="520.52" height="126" transform="translate(941.3 407.5) rotate(180)" style="fill: url(#linear-gradient)"/>
    <rect x="688.9" y="140.75" width="42.01" height="126" style="fill: #fff"/>
  </g>
  <g id="world">
    <g>
      <circle cx="500.82" cy="200.4" r="154.39" style="fill: #f23507;stroke: #fff;stroke-linejoin: round;stroke-width: 4px"/>
      <g style="opacity: 0.3">
        <g style="clip-path: url(#clip-path)">
          <path d="M389,178.84h-6.54a6.56,6.56,0,0,1,5.81-6.5.61.61,0,0,1,.74.66Z" style="fill: none;stroke: #fff;stroke-linejoin: round;stroke-width: 4px"/>
          <path d="M458.52,162.75h9a11.55,11.55,0,0,0,8.17-3.38l6.73-6.73a2.48,2.48,0,0,1,1.76-.73h9.43a2.48,2.48,0,0,1,1.75.73l9.64,9.64a2.48,2.48,0,0,0,3.51-3.51l-1.67-1.67a2.48,2.48,0,0,1,1.75-4.24h.64a2.49,2.49,0,0,1,1.76.73l6.45,6.45a2.48,2.48,0,0,0,3.51,0l14.13-14.13a10,10,0,0,1,7.1-2.94h8.21a2.48,2.48,0,0,1,1.75.73l3.67,3.66a4.34,4.34,0,0,1-3.07,7.41H534.82a5.74,5.74,0,1,0,0,11.48h11.55a2.48,2.48,0,0,1,2.48,2.48v4.15a2.48,2.48,0,0,1-.73,1.75l-3,3a2.48,2.48,0,0,0,1.76,4.23h3.83a2.48,2.48,0,0,1,1.75.73l26.88,26.88a11.72,11.72,0,0,0,16.57,0l8.92-8.92a5.9,5.9,0,0,0-4.17-10.07H589.12a2.48,2.48,0,0,1-1.75-.73l-4.93-4.93a2.48,2.48,0,0,1,1.76-4.24h.64a2.48,2.48,0,0,1,1.75.73l2.69,2.69a2.48,2.48,0,0,0,1.76.73h26.33a2.48,2.48,0,0,1,1.76.73l20.17,20.17a2.48,2.48,0,0,0,3.51,0l4.7-4.7a2.48,2.48,0,0,0,.73-1.76V179.73A2.48,2.48,0,0,1,649,178l9.31-9.31a2.48,2.48,0,0,0,.73-1.75V62.84a2.48,2.48,0,0,0-2.48-2.48H560.58a19.06,19.06,0,0,0-19.06,19.06V89a2.48,2.48,0,0,1-.73,1.75l-11.4,11.4a2.48,2.48,0,0,1-3.51,0l-3.58-3.58a2.48,2.48,0,0,1-.73-1.75V92.18a2.48,2.48,0,0,0-2.48-2.48h-6.22a2.48,2.48,0,0,0-1.76.73L491.76,109.8a2.48,2.48,0,0,0,0,3.51l8.77,8.77a2.48,2.48,0,0,0,3.51,0l5.17-5.17a2.48,2.48,0,0,0,.73-1.75v-5.92a2.48,2.48,0,0,1,.73-1.76l1.61-1.61a2.48,2.48,0,0,1,3.51,0L523,113a2.48,2.48,0,0,1,0,3.51l-13.1,13.1a2.48,2.48,0,0,1-1.75.73h-11.5a2.48,2.48,0,0,1-1.75-.73l-2.45-2.45a2.48,2.48,0,0,0-4.24,1.75v.56a2.48,2.48,0,0,1-.73,1.76l-5.68,5.68a2.48,2.48,0,0,1-1.75.73h-7.46a2.48,2.48,0,0,0-2.48,2.48v4.17a2.48,2.48,0,0,1-2.48,2.48h-9.07a2.48,2.48,0,0,0-2.48,2.48v11A2.48,2.48,0,0,0,458.52,162.75Z" style="fill: none;stroke: #fff;stroke-linejoin: round;stroke-width: 4px"/>
          <path d="M478,119.37v8.83a2.65,2.65,0,0,1-2.65,2.65h-1.55a2.65,2.65,0,0,1-2.65-2.65v-7.6a2.65,2.65,0,0,1,1-2.08l1.55-1.22A2.65,2.65,0,0,1,478,119.37Z" style="fill: none;stroke: #fff;stroke-linejoin: round;stroke-width: 4px"/>
          <path d="M466,127.21v1.24a1.83,1.83,0,0,1-1.83,1.83H462a1.83,1.83,0,0,1-.93-3.4l2.1-1.24A1.83,1.83,0,0,1,466,127.21Z" style="fill: none;stroke: #fff;stroke-linejoin: round;stroke-width: 4px"/>
          <path d="M451.29,90l16.4-16.4a4.34,4.34,0,0,1,3.07-1.27h12.84a4.34,4.34,0,0,1,4.34,4.34v4.23A4.34,4.34,0,0,1,486.66,84l-8.23,8.23a4.34,4.34,0,0,1-2.27,1.2l-21,3.94A4.34,4.34,0,0,1,451.29,90Z" style="fill: none;stroke: #fff;stroke-linejoin: round;stroke-width: 4px"/>
          <path d="M430.83,86.29v4.07a6.88,6.88,0,0,1-2,4.87L411,113a6.89,6.89,0,0,1-4.87,2H380.94a6.88,6.88,0,0,1-6.88-6.89V81.45a6.88,6.88,0,0,1,7.65-6.84l43,4.83A6.89,6.89,0,0,1,430.83,86.29Z" style="fill: none;stroke: #fff;stroke-linejoin: round;stroke-width: 4px"/>
          <path d="M353.43,187.1,364.38,198a10.72,10.72,0,0,1,3.14,7.58v15.52a10.72,10.72,0,0,0,3.14,7.58l12.78,12.78a10.72,10.72,0,0,1,3.14,7.58v28.52a10.72,10.72,0,0,1-3.14,7.58l-7.8,7.8a10.72,10.72,0,0,1-15.16,0l-26.8-26.8a10.72,10.72,0,0,1-3.14-7.58V194.18a10.72,10.72,0,0,1,11.9-10.66l4.6.51A10.72,10.72,0,0,1,353.43,187.1Z" style="fill: none;stroke: #fff;stroke-linejoin: round;stroke-width: 4px"/>
          <path d="M458.68,245.69h11.71A22.33,22.33,0,0,1,492.72,268v2.31a8.29,8.29,0,0,0,2.43,5.86l7.1,7.1a8.29,8.29,0,0,1,2.43,5.86v29a8.29,8.29,0,0,0,2.43,5.86l10.05,10.05a8.29,8.29,0,0,0,5.86,2.43h6.77a8.29,8.29,0,0,0,5.86-2.43l18.49-18.49a12.85,12.85,0,0,0,3.76-9.09,12.85,12.85,0,0,1,3.76-9.09L574.08,285a8.29,8.29,0,0,0,2.43-5.86V263.8a8.29,8.29,0,0,1,2.43-5.86l16.56-16.56a8.3,8.3,0,0,0,2.43-5.87v-2.58a8.29,8.29,0,0,0-8.29-8.29h-2.58a8.29,8.29,0,0,1-5.86-2.43l-39.8-39.8a8.3,8.3,0,0,0-5.86-2.43H520.08a8.3,8.3,0,0,0-5.86,2.43,8.29,8.29,0,0,1-11.73,0l-11.16-11.16a8.29,8.29,0,0,0-5.87-2.43H462a8.29,8.29,0,0,0-5.86,2.43l-24.33,24.33a8.29,8.29,0,0,0-2.43,5.86v15a29.28,29.28,0,0,0,29.28,29.28Z" style="fill: none;stroke: #fff;stroke-linejoin: round;stroke-width: 4px"/>
          <path d="M589.37,292.9v6.4a3.08,3.08,0,0,1-.9,2.17L580,310a3.07,3.07,0,0,1-5.25-2.17v-6a3.07,3.07,0,0,1,.85-2.12l8.52-8.9A3.07,3.07,0,0,1,589.37,292.9Z" style="fill: none;stroke: #fff;stroke-linejoin: round;stroke-width: 4px"/>
        </g>
      </g>
    </g>
  </g>
  <g id="lines">
    <g style="opacity: 0.5">
      <path d="M425.19,49.18c0-58.2,101.26-71.88,101.26,60" style="fill: none;stroke: #fff;stroke-linejoin: round;stroke-width: 2px"/>
      <path d="M666,209.56c65-78.07-66-202.74-139.53-100.42" style="fill: none;stroke: #fff;stroke-linejoin: round;stroke-width: 2px"/>
      <path d="M666,209.56c65-78.07-93.47-118.77-167-16.45" style="fill: none;stroke: #fff;stroke-linejoin: round;stroke-width: 2px"/>
      <path d="M589.64,224.63c12.06-20.95-45.34-92.51-90.69-20" style="fill: none;stroke: #fff;stroke-linejoin: round;stroke-width: 2px"/>
      <path d="M408.87,170.16C364.5,93,492.68,35,527.45,109.14" style="fill: none;stroke: #fff;stroke-linejoin: round;stroke-width: 2px"/>
      <path d="M408.87,170.16c-9.82-70,75.8-30.12,79.21,25.05" style="fill: none;stroke: #fff;stroke-linejoin: round;stroke-width: 2px"/>
      <path d="M368.87,299.43c-90.87-17.12-57.5-161.12,40-129.27" style="fill: none;stroke: #fff;stroke-linejoin: round;stroke-width: 2px"/>
      <path d="M368.87,299.43C358,364,475.82,360,475.82,304.32" style="fill: none;stroke: #fff;stroke-linejoin: round;stroke-width: 2px"/>
      <path d="M586.17,229c19.7,61.45-90.51,149-110.35,75.33" style="fill: none;stroke: #fff;stroke-linejoin: round;stroke-width: 2px"/>
    </g>
  </g>
  <g id="electricity">
    <path class="electricity" d="M425.19,49.18c0-58.2,101.26-71.88,101.26,60" style="fill: none;stroke: #fff;stroke-linecap: round;stroke-linejoin: round;stroke-width: 5px"/>
    <path class="electricity" d="M666,209.56c65-78.07-66-202.74-139.53-100.42" style="fill: none;stroke: #fff;stroke-linecap: round;stroke-linejoin: round;stroke-width: 5px"/>
    <path class="electricity" d="M666,209.56c65-78.07-93.47-118.77-167-16.45" style="fill: none;stroke: #fff;stroke-linecap: round;stroke-linejoin: round;stroke-width: 5px"/>
    <path class="electricity" d="M589.64,224.63c12.06-20.95-45.34-92.51-90.69-20" style="fill: none;stroke: #fff;stroke-linecap: round;stroke-linejoin: round;stroke-width: 5px"/>
    <path class="electricity" d="M408.87,170.16C364.5,93,492.68,35,527.45,109.14" style="fill: none;stroke: #fff;stroke-linecap: round;stroke-linejoin: round;stroke-width: 5px"/>
    <path class="electricity" d="M408.87,170.16c-9.82-70,75.8-30.12,79.21,25.05" style="fill: none;stroke: #fff;stroke-linecap: round;stroke-linejoin: round;stroke-width: 5px"/>
    <path class="electricity" d="M368.87,299.43c-90.87-17.12-57.5-161.12,40-129.27" style="fill: none;stroke: #fff;stroke-linecap: round;stroke-linejoin: round;stroke-width: 5px"/>
    <path class="electricity" d="M368.87,299.43C358,364,475.82,360,475.82,304.32" style="fill: none;stroke: #fff;stroke-linecap: round;stroke-linejoin: round;stroke-width: 5px"/>
    <path class="electricity" d="M586.17,229c19.7,61.45-90.51,149-110.35,75.33" style="fill: none;stroke: #fff;stroke-linecap: round;stroke-linejoin: round;stroke-width: 5px"/>
  </g>
  <g id="people">
    <g>
      <path d="M574.37,213l1.3-5.2c.4-1.5,1.4-3.1,3.1-3.1h15.1c1.7,0,2.5,1.3,3.1,3.1l2.5,9.1h-29.9a3.12,3.12,0,0,0-3.1,3.1v9.1a3.12,3.12,0,0,0,3.1,3.1h3.3a4,4,0,0,0-.3,1.5,4.6,4.6,0,0,0,9.2,0,4,4,0,0,0-.3-1.5H591a4,4,0,0,0-.3,1.5,4.6,4.6,0,1,0,9.2,0,4,4,0,0,0-.3-1.5h3.2a3.12,3.12,0,0,0,3.1-3.1V220a3.12,3.12,0,0,0-3.1-3.1" style="fill: #f7331d"/>
      <path d="M574.37,213l1.3-5.2c.4-1.5,1.4-3.1,3.1-3.1h15.1c1.7,0,2.5,1.3,3.1,3.1l2.5,9.1h-29.9a3.12,3.12,0,0,0-3.1,3.1v9.1a3.12,3.12,0,0,0,3.1,3.1h3.3a4,4,0,0,0-.3,1.5,4.6,4.6,0,0,0,9.2,0,4,4,0,0,0-.3-1.5H591a4,4,0,0,0-.3,1.5,4.6,4.6,0,1,0,9.2,0,4,4,0,0,0-.3-1.5h3.2a3.12,3.12,0,0,0,3.1-3.1V220a3.12,3.12,0,0,0-3.1-3.1" style="fill: none;stroke: #fff;stroke-linejoin: round;stroke-width: 3px"/>
    </g>
    <g>
      <polyline points="417.97 180.86 417.97 170.16 408.87 170.16 408.87 185.36 427.07 185.36 427.07 162.56 431.67 162.56 431.67 161.06 425.57 156.06 425.57 147.36 419.47 147.36 419.47 150.46 413.47 145.86 395.17 161.06 395.17 162.56 399.77 162.56 399.77 185.36 404.27 185.36" style="fill: #f7331d"/>
      <polyline points="417.97 180.86 417.97 170.16 408.87 170.16 408.87 185.36 427.07 185.36 427.07 162.56 431.67 162.56 431.67 161.06 425.57 156.06 425.57 147.36 419.47 147.36 419.47 150.46 413.47 145.86 395.17 161.06 395.17 162.56 399.77 162.56 399.77 185.36 404.27 185.36" style="fill: none;stroke: #fff;stroke-linejoin: round;stroke-width: 3px"/>
    </g>
    <g>
      <path d="M459.4,290.48v-17.4H491v22.1H459.4l-4.6,10.3a1.6,1.6,0,0,0,1.4,2.3h37.9a1.57,1.57,0,0,0,1.4-2.3l-2.4-6.1" style="fill: #f7331d"/>
      <path d="M459.4,290.48v-17.4H491v22.1H459.4l-4.6,10.3a1.6,1.6,0,0,0,1.4,2.3h37.9a1.57,1.57,0,0,0,1.4-2.3l-2.4-6.1" style="fill: none;stroke: #fff;stroke-linejoin: round;stroke-width: 3px"/>
    </g>
    <g>
      <circle cx="421.89" cy="51.28" r="26.3" style="fill: #f7331d"/>
      <path d="M412,74.38a25.65,25.65,0,1,0-8.1-5.8,2.56,2.56,0,0,0,4.4-1.6h0V64c0-7.2,4.3-13.3,10.5-14.8a8.17,8.17,0,0,1-2.9-6.5c0-4.2,2.7-7.6,6.1-7.6s6.1,3.4,6.1,7.6a8.16,8.16,0,0,1-2.9,6.5c5.2,1.3,10.5,7,10.5,11.8v1.8" style="fill: none;stroke: #fff;stroke-linejoin: round;stroke-width: 3px"/>
    </g>
    <g>
      <circle cx="368.87" cy="299.43" r="26.3" style="fill: #f7331d"/>
      <path d="M359,322.53a25.65,25.65,0,1,0-8.1-5.8,2.56,2.56,0,0,0,4.4-1.6h0v-3c0-7.2,4.3-13.3,10.5-14.8a8.17,8.17,0,0,1-2.9-6.5c0-4.2,2.7-7.6,6.1-7.6s6.1,3.4,6.1,7.6a8.16,8.16,0,0,1-2.9,6.5c5.2,1.3,10.5,7,10.5,11.8v1.8" style="fill: none;stroke: #fff;stroke-linejoin: round;stroke-width: 3px"/>
    </g>
    <g>
      <circle cx="495.65" cy="195.21" r="26.3" style="fill: #f7331d"/>
      <path d="M485.75,218.31a25.65,25.65,0,1,0-8.1-5.8,2.56,2.56,0,0,0,4.4-1.6h0v-3c0-7.2,4.3-13.3,10.5-14.8a8.17,8.17,0,0,1-2.9-6.5c0-4.2,2.7-7.6,6.1-7.6s6.1,3.4,6.1,7.6a8.16,8.16,0,0,1-2.9,6.5c5.2,1.3,10.5,7,10.5,11.8v1.8" style="fill: none;stroke: #fff;stroke-linejoin: round;stroke-width: 3px"/>
    </g>
    <g>
      <circle cx="662.67" cy="211.66" r="26.3" style="fill: #f7331d"/>
      <path d="M652.77,234.76a25.65,25.65,0,1,0-8.1-5.8,2.56,2.56,0,0,0,4.4-1.6h0v-3c0-7.2,4.3-13.3,10.5-14.8a8.17,8.17,0,0,1-2.9-6.5c0-4.2,2.7-7.6,6.1-7.6s6.1,3.4,6.1,7.6a8.16,8.16,0,0,1-2.9,6.5c5.2,1.3,10.5,7,10.5,11.8v1.8" style="fill: none;stroke: #fff;stroke-linejoin: round;stroke-width: 3px"/>
    </g>
    <g>
      <path d="M539.16,86H513.07a1.61,1.61,0,0,0-1.63,1.63v39.93a1.61,1.61,0,0,0,1.63,1.63h26.09a1.61,1.61,0,0,0,1.63-1.63v-40A1.67,1.67,0,0,0,539.16,86Z" style="fill: #f7331d"/>
      <path d="M539.16,86H513.07a1.61,1.61,0,0,0-1.63,1.63v39.93a1.61,1.61,0,0,0,1.63,1.63h26.09a1.61,1.61,0,0,0,1.63-1.63v-40A1.67,1.67,0,0,0,539.16,86Z" style="fill: none;stroke: #fff;stroke-linejoin: round;stroke-width: 3px"/>
      <path d="M541.18,98.57a2.84,2.84,0,0,0-2.83,2.78h0v1a.62.62,0,0,1-.6.65h-.11a.65.65,0,0,1-.65-.6h0V99.66a2.85,2.85,0,0,0-2.83-2.83,2.88,2.88,0,0,0-2.83,2.83v6.59a.65.65,0,0,1-.6.65h-.16a.65.65,0,0,1-.65-.6h0V96.12a2.83,2.83,0,0,0-5.67,0V101a.65.65,0,0,1-1.31,0V100a2.84,2.84,0,0,0-2.78-2.83H520a2.84,2.84,0,0,0-2.83,2.78h0v6.7a.62.62,0,0,1-.6.65h-.11a.65.65,0,0,1-.65-.6h0V93.51A2.81,2.81,0,0,0,513,90.67H513a3,3,0,0,0-1.36.38v9.64a2.79,2.79,0,0,0,.71-1.85V93.51a.62.62,0,0,1,.6-.65H513a.65.65,0,0,1,.65.6h0v13.29a2.85,2.85,0,0,0,2.83,2.83,2.88,2.88,0,0,0,2.83-2.83V100.1a.65.65,0,0,1,.6-.65H520a.65.65,0,0,1,.65.6h0v1a2.83,2.83,0,0,0,5.67,0V96.18a.65.65,0,0,1,1.31,0v10.13a2.84,2.84,0,0,0,2.78,2.83h.11a2.84,2.84,0,0,0,2.83-2.78h0v-6.7A.62.62,0,0,1,534,99h.11a.65.65,0,0,1,.65.6h0v2.72a2.85,2.85,0,0,0,2.83,2.83,2.88,2.88,0,0,0,2.83-2.83v-.93a.65.65,0,0,1,.6-.65h.05Z" style="fill: #fff"/>
      <circle id="smartmeter_point_racetrack" data-name="smartmeter point racetrack" cx="520.1" cy="120.58" r="1.42" style="fill: #fff"/>
      <path d="M519.44,124.23h6.21a3.65,3.65,0,0,0,3.65-3.65h0a3.65,3.65,0,0,0-3.65-3.65h-6.21a3.65,3.65,0,0,0-3.65,3.65h0a3.65,3.65,0,0,0,3.65,3.65Z" style="fill: none;stroke: #fff;stroke-linejoin: round;stroke-width: 3px"/>
    </g>
  </g>
</svg>
