<svg id="selected" xmlns="http://www.w3.org/2000/svg" xmlns:xlink="http://www.w3.org/1999/xlink" viewBox="0 0 214 214"><defs><style>.cls-1-donut{fill:url(#linear-gradient);}.cls-2-donut{fill:#fff;}.cls-3-donut{fill:url(#linear-gradient-2);}</style>
<linearGradient id="linear-gradient" x1="105.85" y1="199.36" x2="106.85" y2="7.36" gradientUnits="userSpaceOnUse"><stop offset="0" stop-color="#fff" stop-opacity="0.3"/><stop offset="0.33" stop-color="#fff" stop-opacity="0.54"/><stop offset="0.64" stop-color="#fff" stop-opacity="0.74"/><stop offset="0.87" stop-color="#fff" stop-opacity="0.86"/><stop offset="1" stop-color="#fff" stop-opacity="0.9"/></linearGradient>
<linearGradient id="linear-gradient-2" x1="143.93" y1="26.71" x2="202.24" y2="108.56" gradientUnits="userSpaceOnUse"><stop offset="0" stop-color="#fff" stop-opacity="0.3"/><stop offset="0.33" stop-color="#fff" stop-opacity="0.54"/><stop offset="0.64" stop-color="#fff" stop-opacity="0.74"/><stop offset="0.87" stop-color="#fff" stop-opacity="0.86"/><stop offset="1" stop-color="#fff" stop-opacity="0.9"/></linearGradient></defs><title>illustration_energymix</title><g id="donut_temporary" data-name="donut temporary"><path class="cls-1-donut" d="M107,179.5a72,72,0,0,1-6.5-143.69V0.7A107,107,0,1,0,212.56,125l-34.94-3.49A72.11,72.11,0,0,1,107,179.5Z" transform="translate(0 -0.5)"/><path class="cls-2-donut" d="M107,35.5q3.27,0,6.5.3V0.7q-3.24-.2-6.5-0.2c-2.18,0-4.35.07-6.5,0.2v35.1C102.64,35.61,104.81,35.5,107,35.5Z" transform="translate(0 -0.5)"/></g><g id="donut_clean" data-name="donut clean"><path class="cls-3-donut" d="M197.47,50.37c-1.13-1.79-2.31-3.56-3.55-5.29s-2.64-3.55-4-5.26A107.4,107.4,0,0,0,113.5.7V35.8a72.32,72.32,0,0,1,47.89,24.53q2.16,2.49,4.11,5.19c1.25,1.74,2.41,3.53,3.49,5.36a71.47,71.47,0,0,1,10,36.63,72.25,72.25,0,0,1-.8,10.71c0.19-1,.35-2,0.45-3q0.33-3.31.36-6.61l34.89,3.5c0.06-1.51.1-3,.1-4.56A106.21,106.21,0,0,0,197.47,50.37Z" transform="translate(0 -0.5)"/><path class="cls-2-donut" d="M179,108.55q0,3.3-.36,6.61c-0.1,1-.27,2-0.45,3s-0.36,2.2-.58,3.29L212.56,125a107,107,0,0,0,1.33-12.93Z" transform="translate(0 -0.5)"/></g></svg>