<svg id="Layer_1" data-name="Layer 1" xmlns="http://www.w3.org/2000/svg" viewBox="0 0 285 276">
  <title>paddock_cars</title>
  <g style="opacity: 0.3">
    <g>
      <path d="M87.38,57.7h0a35.49,35.49,0,0,0,4.33,17l.51.93.24.23q1-.09,1.94-.14l2.51-.14a1.2,1.2,0,0,1,1.25,1.2v7.64a1.2,1.2,0,0,1-1.48,1.16l-17-4.47a1.32,1.32,0,0,1,0-2.55V54.95" style="fill: none;stroke: #fff;stroke-linejoin: round;stroke-width: 2px"/>
      <path d="M87.38,43.54h0a35.49,35.49,0,0,1,4.33-17l.51-.93.24-.23q1,.09,1.94.14l2.51.14a1.2,1.2,0,0,0,1.25-1.2V16.84a1.2,1.2,0,0,0-1.48-1.16l-17,4.47a1.32,1.32,0,0,0,0,2.55V46.3" style="fill: none;stroke: #fff;stroke-linejoin: round;stroke-width: 2px"/>
      <path d="M257.47,72.3a61.7,61.7,0,0,1-4.06-18.11h0c-12.48,0-19.88,5.52-25.19,8.59s-14.89,7.08-22.71,7.08A130.88,130.88,0,0,1,174.05,66" style="fill: none;stroke: #fff;stroke-linejoin: round;stroke-width: 2px"/>
      <g>
        <path d="M112.88,72.3l-2.28-9.56a12.43,12.43,0,0,0-5-6.64L105.4,56" style="fill: none;stroke: #fff;stroke-linejoin: round;stroke-width: 2px"/>
        <path d="M229.08,83.73v-6.9a1.68,1.68,0,0,1,1.68-1.68s.07-.39,12.51-.39,12.51.39,12.51.39a1.68,1.68,0,0,1,1.68,1.68V85.7a1.68,1.68,0,0,1-1.68,1.68s0,.39-12.51.39-12.51-.39-12.51-.39a1.68,1.68,0,0,1-1.68-1.68s-2,.24-3.47.24c-22.32,0-25.16-2.2-34.41-4.59-5.43-1.4-10.16-4.69-11.57-10.12h0A7.18,7.18,0,0,0,174.05,66a427.36,427.36,0,0,0-42.31-7.59h0a13,13,0,0,0-5.55,5.4l-7.54,10.79c8.73.06,8.78.36,8.78.36A1.61,1.61,0,0,1,129,76.56v7.77a1.61,1.61,0,0,1-1.61,1.61s0,.37-12,.37-12-.37-12-.37a1.61,1.61,0,0,1-1.61-1.61V76.56A1.61,1.61,0,0,1,103.48,75s.06-.37,12-.37v-16" style="fill: none;stroke: #fff;stroke-linejoin: round;stroke-width: 2px"/>
      </g>
      <g>
        <path d="M112.88,28.75l-2.28,9.56a13.11,13.11,0,0,1-5.07,6.9h-.13q-13.91.91-27.87.91H74.42A3.42,3.42,0,0,0,71,49.56v2a3.42,3.42,0,0,0,3.42,3.42h3.12a427.36,427.36,0,0,1,50.7,3" style="fill: none;stroke: #fff;stroke-linejoin: round;stroke-width: 2px"/>
        <path d="M128.24,40.08a14.36,14.36,0,0,1-2.07-2.83l-7.54-10.79c8.73-.06,8.78-.36,8.78-.36A1.61,1.61,0,0,0,129,24.49V16.72a1.61,1.61,0,0,0-1.61-1.61s0-.37-12-.37-12,.37-12,.37a1.61,1.61,0,0,0-1.61,1.61v7.77a1.61,1.61,0,0,0,1.61,1.61s.06.37,12,.37v16s-.06,2,0,2a426.78,426.78,0,0,0,58.61-9.36,7.18,7.18,0,0,0,5.58-5.25h0c1.41-5.43,6.14-8.72,11.57-10.12,9.25-2.39,12.09-4.59,34.41-4.59" style="fill: none;stroke: #fff;stroke-linejoin: round;stroke-width: 2px"/>
      </g>
      <path d="M172.57,33.46l2-10.49a1.3,1.3,0,0,0-1.28-1.49h-8a5.51,5.51,0,0,0-5.2,3.68L155.22,39l0-7a.85.85,0,0,0-1.39-.65L151.85,33a2.54,2.54,0,0,0,.61,4.27h0" style="fill: none;stroke: #fff;stroke-linejoin: round;stroke-width: 2px"/>
      <path d="M172.57,67.66l2,10.49a1.3,1.3,0,0,1-1.28,1.49h-8a5.51,5.51,0,0,1-5.2-3.68l-4.87-13.86,0,7a.85.85,0,0,1-1.39.65l-1.95-1.64a2.54,2.54,0,0,1,.61-4.27h0" style="fill: none;stroke: #fff;stroke-linejoin: round;stroke-width: 2px"/>
      <polyline points="271.1 45.03 271.1 27.98 260.5 27.98 260.5 46.89 260.5 50.45 260.5 73.09 262.64 73.09" style="fill: none;stroke: #fff;stroke-linejoin: round;stroke-width: 2px"/>
      <path d="M260.73,77.84a4.75,4.75,0,0,0,4.75-4.75h5.62V54.18l5.39-.25V47.38l-5.39-.25v4.73" style="fill: none;stroke: #fff;stroke-linejoin: round;stroke-width: 2px"/>
      <path d="M174.05,35.09a130.88,130.88,0,0,1,31.46-3.88c7.81,0,17.39,4,22.71,7.08s12.72,8.59,25.19,8.59h0a61.7,61.7,0,0,1,4.06-18.11" style="fill: none;stroke: #fff;stroke-linejoin: round;stroke-width: 2px"/>
      <path d="M187.1,48.76a3.26,3.26,0,0,1,2.69-1.42c1.8,0,7,1.46,7,3.26s-5.18,3.26-7,3.26a3.26,3.26,0,0,1-3.26-3.26" style="fill: none;stroke: #fff;stroke-linejoin: round;stroke-width: 2px"/>
      <path d="M157.49,42l-4.9.77a3.85,3.85,0,0,0-3.29,3.81v7.83a3.85,3.85,0,0,0,3.29,3.81l7.3,1.07,1.35-1A6.41,6.41,0,0,1,165,57.1h13.74a3.61,3.61,0,0,0,3.61-3.61V47.59A3.61,3.61,0,0,0,178.78,44H165a6.41,6.41,0,0,1-3.79-1.24l-1.35-1S171.79,39,190.2,39c15.3,0,31.42,6.66,36.43,8.92a2.68,2.68,0,0,1,1.58,2.45h0v.31h0a2.68,2.68,0,0,1-1.58,2.45c-5,2.25-21.14,8.92-36.43,8.92a164,164,0,0,1-27.27-2.14" style="fill: none;stroke: #fff;stroke-linejoin: round;stroke-width: 2px"/>
      <path d="M264.6,25.23a4.74,4.74,0,0,0-3.87-2l-3.26.07v.93a1.68,1.68,0,0,1-1.68,1.68s-.07.39-12.51.39-12.51-.39-12.51-.39a1.68,1.68,0,0,1-1.68-1.68V15.38a1.68,1.68,0,0,1,1.68-1.68s0-.39,12.51-.39,12.51.39,12.51.39a1.68,1.68,0,0,1,1.68,1.68v5.75" style="fill: none;stroke: #fff;stroke-linejoin: round;stroke-width: 2px"/>
    </g>
    <g style="opacity: 0.30000000000000004">
      <g>
        <circle cx="145.44" cy="123.07" r="13.58" transform="translate(-37.07 177.73) rotate(-56.91)" style="fill: none;stroke: #fff;stroke-linejoin: round;stroke-width: 2px"/>
        <circle cx="145.44" cy="123.07" r="5.1" transform="translate(-37.07 177.73) rotate(-56.91)" style="fill: none;stroke: #fff;stroke-linejoin: round;stroke-width: 2px"/>
        <g>
          <circle cx="146.78" cy="121.01" r="0.12" transform="translate(-34.74 177.92) rotate(-56.91)" style="fill: none;stroke: #fff;stroke-linejoin: round;stroke-width: 2px"/>
          <circle cx="144.1" cy="125.13" r="0.12" transform="translate(-39.41 177.54) rotate(-56.91)" style="fill: none;stroke: #fff;stroke-linejoin: round;stroke-width: 2px"/>
        </g>
        <g>
          <circle cx="147.5" cy="124.41" r="0.12" transform="translate(-37.26 180.06) rotate(-56.91)" style="fill: none;stroke: #fff;stroke-linejoin: round;stroke-width: 2px"/>
          <circle cx="143.38" cy="121.72" r="0.12" transform="translate(-36.88 175.39) rotate(-56.91)" style="fill: none;stroke: #fff;stroke-linejoin: round;stroke-width: 2px"/>
        </g>
      </g>
    </g>
    <rect x="183.8" y="96.49" width="23.95" height="23.95" rx="6.82" ry="6.82" style="fill: none;stroke: #fff;stroke-linejoin: round;stroke-width: 2px"/>
    <path d="M207.36,108.11h3.34a5.82,5.82,0,0,0,5.82-5.82V77.84" style="fill: none;stroke: #fff;stroke-linejoin: round;stroke-width: 2px"/>
    <g>
      <circle cx="197.97" cy="114.8" r="0.99" style="fill: #fff"/>
      <circle cx="202.16" cy="112.32" r="0.99" style="fill: #fff"/>
      <circle cx="197.97" cy="109.99" r="0.99" style="fill: #fff"/>
    </g>
    <g>
      <path d="M36.43,126.32h0a35.49,35.49,0,0,0-8.95,15.07l-.3,1v.33q.75.62,1.47,1.27l1.87,1.68a1.2,1.2,0,0,1,0,1.73l-5.4,5.4a1.2,1.2,0,0,1-1.87-.23l-8.85-15.17a1.32,1.32,0,0,1,1.79-1.82l16.69-16.69" style="fill: none;stroke: #fff;stroke-linejoin: round;stroke-width: 2px"/>
      <path d="M46.44,116.31h0a35.49,35.49,0,0,1,15.07-8.95l1-.3h.33q.62.75,1.27,1.47l1.68,1.87a1.2,1.2,0,0,0,1.73,0l5.4-5.4a1.2,1.2,0,0,0-.23-1.87L57.55,94.32a1.32,1.32,0,0,0-1.82,1.79L39,112.8" style="fill: none;stroke: #fff;stroke-linejoin: round;stroke-width: 2px"/>
      <path d="M146.38,256.91a61.7,61.7,0,0,1,9.94-15.68h0c-8.82-8.82-18-10.16-23.89-11.74s-15.54-5.52-21.06-11a130.88,130.88,0,0,1-19.51-25" style="fill: none;stroke: #fff;stroke-linejoin: round;stroke-width: 2px"/>
      <g>
        <path d="M44.14,154.67l5.15-8.37a12.43,12.43,0,0,0,1.15-8.25l0-.22" style="fill: none;stroke: #fff;stroke-linejoin: round;stroke-width: 2px"/>
        <path d="M118.22,244.92,123.1,240a1.68,1.68,0,0,1,2.38,0s.32-.23,9.12,8.57,8.57,9.12,8.57,9.12a1.68,1.68,0,0,1,0,2.38l-.51.51-5.25,5.25-.51.51a1.68,1.68,0,0,1-2.38,0s-.27.27-9.12-8.57-8.57-9.12-8.57-9.12a1.68,1.68,0,0,1,0-2.38s-1.6-1.26-2.62-2.29C98.43,228.25,98,224.69,93.12,216.46c-2.85-4.83-3.87-10.5-1-15.34h0a7.18,7.18,0,0,0-.24-7.66,427.36,427.36,0,0,0-24.55-35.28l0,0a13,13,0,0,0-7.74-.1l-13,2.3c6.13,6.22,6,6.47,6,6.47a1.61,1.61,0,0,1,0,2.28L47,174.59a1.61,1.61,0,0,1-2.28,0s-.26.26-8.72-8.2-8.2-8.72-8.2-8.72a1.61,1.61,0,0,1,0-2.28l5.49-5.49a1.61,1.61,0,0,1,2.28,0s.31-.22,8.72,8.2l11.32-11.32" style="fill: none;stroke: #fff;stroke-linejoin: round;stroke-width: 2px"/>
      </g>
      <g>
        <path d="M74.93,123.87,66.56,129a13.11,13.11,0,0,1-8.46,1.29l-.1-.08q-10.48-9.19-20.35-19.06l-2.2-2.2a3.42,3.42,0,0,0-4.84,0l-.65.65-.08.08-.65.65a3.42,3.42,0,0,0,0,4.84l2.2,2.2a427.36,427.36,0,0,1,33.71,38" style="fill: none;stroke: #fff;stroke-linejoin: round;stroke-width: 2px"/>
        <path d="M77.78,142.75a14.36,14.36,0,0,1,.54-3.47l2.3-13c6.22,6.13,6.47,6,6.47,6a1.61,1.61,0,0,0,2.28,0l5.49-5.49a1.61,1.61,0,0,0,0-2.28s.26-.26-8.2-8.72-8.72-8.2-8.72-8.2a1.61,1.61,0,0,0-2.28,0l-5.49,5.49a1.61,1.61,0,0,0,0,2.28s-.22.31,8.2,8.72L67,135.4s-1.44,1.36-1.4,1.4a426.78,426.78,0,0,0,48.06,34.82,7.18,7.18,0,0,0,7.66.24h0c4.84-2.85,10.5-1.83,15.34,1,8.23,4.85,11.79,5.31,27.57,21.09" style="fill: none;stroke: #fff;stroke-linejoin: round;stroke-width: 2px"/>
      </g>
      <path d="M113.81,169.42l8.81-6a1.3,1.3,0,0,0,.15-2l-5.64-5.64a5.51,5.51,0,0,0-6.28-1.07l-13.24,6.36,4.94-5a.85.85,0,0,0-.53-1.44l-2.54-.21a2.54,2.54,0,0,0-2.59,3.45h0" style="fill: none;stroke: #fff;stroke-linejoin: round;stroke-width: 2px"/>
      <path d="M89.63,193.6l-6,8.81a1.3,1.3,0,0,1-2,.15L76,196.92a5.51,5.51,0,0,1-1.07-6.28l6.36-13.24-5,4.94a.85.85,0,0,1-1.44-.53l-.21-2.54a2.54,2.54,0,0,1,3.45-2.59h0" style="fill: none;stroke: #fff;stroke-linejoin: round;stroke-width: 2px"/>
      <polyline points="175.29 247.27 187.35 235.21 179.85 227.71 166.49 241.08 163.97 243.6 147.96 259.61 149.47 261.13" style="fill: none;stroke: #fff;stroke-linejoin: round;stroke-width: 2px"/>
      <path d="M144.76,263.13a4.75,4.75,0,0,0,6.72,0l4,4,13.37-13.37,4,3.64,4.63-4.63-3.64-4-3.34,3.34" style="fill: none;stroke: #fff;stroke-linejoin: round;stroke-width: 2px"/>
      <path d="M113.7,171.62a130.88,130.88,0,0,1,25,19.51c5.52,5.52,9.46,15.13,11,21.06s2.92,15.07,11.74,23.89h0a61.7,61.7,0,0,1,15.68-9.94" style="fill: none;stroke: #fff;stroke-linejoin: round;stroke-width: 2px"/>
      <path d="M113.26,190.5a3.26,3.26,0,0,1,2.9.9c1.27,1.27,3.9,6,2.63,7.24s-6-1.36-7.24-2.63a3.26,3.26,0,0,1,0-4.61" style="fill: none;stroke: #fff;stroke-linejoin: round;stroke-width: 2px"/>
      <path d="M97.08,164.82l-4-2.92a3.85,3.85,0,0,0-5,.37L85.34,165l-.12.12-2.71,2.71a3.85,3.85,0,0,0-.37,5l4.41,5.92,1.66.26a6.41,6.41,0,0,1,3.56,1.8l9.72,9.72a3.61,3.61,0,0,0,5.11,0l.62-.62,1.42-1.42,2.12-2.12a3.61,3.61,0,0,0,0-5.11L101,171.52a6.41,6.41,0,0,1-1.8-3.56L99,166.31s10.35,6.49,23.36,19.5c10.82,10.82,17.5,26.93,19.45,32.07a2.68,2.68,0,0,1-.61,2.85h0l-.22.22h0a2.68,2.68,0,0,1-2.85.61c-5.14-2-21.25-8.64-32.07-19.45a164,164,0,0,1-17.76-20.8" style="fill: none;stroke: #fff;stroke-linejoin: round;stroke-width: 2px"/>
      <path d="M184.7,228.67a4.74,4.74,0,0,0-1.33-4.15L181,222.27l-.66.66a1.68,1.68,0,0,1-2.38,0s-.32.23-9.12-8.57-8.57-9.12-8.57-9.12a1.68,1.68,0,0,1,0-2.38l6.27-6.27a1.68,1.68,0,0,1,2.38,0s.27-.27,9.12,8.57,8.57,9.12,8.57,9.12a1.68,1.68,0,0,1,0,2.38l-4.07,4.07" style="fill: none;stroke: #fff;stroke-linejoin: round;stroke-width: 2px"/>
    </g>
  </g>
</svg>
