<?xml version="1.0" encoding="utf-8"?>
<!-- Generator: Adobe Illustrator 19.2.1, SVG Export Plug-In . SVG Version: 6.00 Build 0)  -->
<svg version="1.1" id="Layer_1" xmlns="http://www.w3.org/2000/svg" xmlns:xlink="http://www.w3.org/1999/xlink" x="0px" y="0px"
	 viewBox="0 0 407 333" style="enable-background:new 0 0 407 333;" xml:space="preserve">
<style type="text/css">
	.sme-text-st0{fill:#FFFFFF;}
</style>
<title>smartgrid_marrakech</title>
<g>
	<g>
		<path class="sme-text-st0" d="M306.4,257.3h3.6c0.5,0,1.6,0,2.3,0.5c0.8,0.5,1.1,1.2,1.1,2.1c0,0.7-0.3,1.3-0.7,1.8
			c-0.4,0.4-0.9,0.6-1.2,0.7c1,0.3,1.4,0.7,1.5,1.9c0.1,1.2,0.2,2.1,0.6,3.2h-1.5c-0.2-0.7-0.4-1.9-0.5-2.7
			c-0.2-1.5-0.5-1.9-2.2-1.9h-1.8v4.6h-1.4V257.3z M307.8,261.6h2.2c0.2,0,1,0,1.3-0.2c0.2-0.1,0.7-0.5,0.7-1.3c0-1.6-1.5-1.6-2-1.6
			h-2.2V261.6z"/>
		<path class="sme-text-st0" d="M319.8,267.4c-0.1-0.3-0.1-0.7-0.1-1.1c-0.6,1.2-1.6,1.3-2.2,1.3c-1.6,0-2.5-0.9-2.5-2.1
			c0-0.6,0.2-1.5,1.2-2.1c0.8-0.4,1.9-0.5,2.4-0.5c0.3,0,0.5,0,1,0c0-0.9,0-1.2-0.3-1.6c-0.3-0.3-0.8-0.5-1.2-0.5
			c-1.3,0-1.4,0.9-1.4,1.2h-1.3c0-0.4,0.1-0.9,0.5-1.3c0.5-0.6,1.5-0.8,2.3-0.8c1,0,2.1,0.3,2.5,1c0.2,0.4,0.2,0.8,0.2,1.1l-0.1,3.4
			c0,0.1,0,1.1,0.1,1.8H319.8z M318.9,263.9c-0.5,0-2.5,0-2.5,1.4c0,0.4,0.3,1.2,1.5,1.2c0.7,0,1.2-0.3,1.5-0.8
			c0.3-0.5,0.3-0.9,0.3-1.8C319.4,264,319.2,263.9,318.9,263.9z"/>
		<path class="sme-text-st0" d="M327.3,262.6c0-0.3-0.1-1.5-1.4-1.5c-1.8,0-1.8,2.1-1.8,2.6c0,1.4,0.3,2.8,1.8,2.8c1.1,0,1.5-0.8,1.5-1.5h1.3
			c-0.1,1.4-1.1,2.5-2.8,2.5c-0.5,0-1.6-0.1-2.3-0.9c-0.4-0.5-0.8-1.2-0.8-2.7c0-2.9,1.8-3.8,3.2-3.8c0.5,0,1.5,0.1,2.2,0.9
			c0.5,0.6,0.6,1.2,0.6,1.6H327.3z"/>
		<path class="sme-text-st0" d="M331.1,264.1c0,1.5,0.6,2.5,2,2.5c0.9,0,1.5-0.4,1.7-1.5h1.3c0,0.4-0.1,0.9-0.6,1.5c-0.3,0.4-1,0.9-2.4,0.9
			c-2.2,0-3.3-1.4-3.3-3.6c0-1.4,0.3-2.5,1.4-3.3c0.7-0.5,1.5-0.5,1.9-0.5c3.2,0,3.1,2.8,3.1,3.9H331.1z M334.8,263.2
			c0-0.7-0.1-2.1-1.7-2.1c-0.9,0-1.9,0.5-1.9,2.1H334.8z"/>
		<path class="sme-text-st0" d="M342.1,262.6c0-0.3-0.1-1.5-1.4-1.5c-1.8,0-1.8,2.1-1.8,2.6c0,1.4,0.3,2.8,1.8,2.8c1.1,0,1.5-0.8,1.5-1.5h1.3
			c-0.1,1.4-1.1,2.5-2.8,2.5c-0.5,0-1.6-0.1-2.3-0.9c-0.4-0.5-0.8-1.2-0.8-2.7c0-2.9,1.8-3.8,3.2-3.8c0.5,0,1.5,0.1,2.2,0.9
			c0.5,0.6,0.6,1.2,0.6,1.6H342.1z"/>
		<path class="sme-text-st0" d="M349.4,267.4c-0.1-0.3-0.1-0.7-0.1-1.1c-0.6,1.2-1.6,1.3-2.2,1.3c-1.6,0-2.5-0.9-2.5-2.1
			c0-0.6,0.2-1.5,1.2-2.1c0.8-0.4,1.9-0.5,2.4-0.5c0.3,0,0.5,0,1,0c0-0.9,0-1.2-0.3-1.6c-0.3-0.3-0.8-0.5-1.2-0.5
			c-1.3,0-1.4,0.9-1.4,1.2H345c0-0.4,0.1-0.9,0.5-1.3c0.5-0.6,1.5-0.8,2.3-0.8c1,0,2.1,0.3,2.5,1c0.2,0.4,0.2,0.8,0.2,1.1l-0.1,3.4
			c0,0.1,0,1.1,0.1,1.8H349.4z M348.4,263.9c-0.5,0-2.5,0-2.5,1.4c0,0.4,0.3,1.2,1.5,1.2c0.7,0,1.2-0.3,1.5-0.8
			c0.3-0.5,0.3-0.9,0.3-1.8C349,264,348.8,263.9,348.4,263.9z"/>
		<path class="sme-text-st0" d="M352.9,261.8c0-0.5,0-1-0.1-1.4h1.3l0,1.4c0.3-1,1.1-1.3,1.7-1.4c0.4-0.1,0.7,0,0.9,0v1.3
			c-0.1,0-0.2,0-0.3-0.1c-0.1,0-0.2,0-0.4,0c-1.6,0-1.9,0.9-1.9,2.1v3.7h-1.3V261.8z"/>
		<path class="sme-text-st0" d="M359.3,265.3c0,0.5,0.3,1.3,1.5,1.3c0.5,0,1-0.1,1.2-0.4c0.1-0.2,0.2-0.4,0.2-0.7c0-0.7-0.5-0.8-1.5-1.1
			c-1.5-0.3-2.7-0.6-2.7-2.1c0-1.3,1.1-2.1,2.7-2.1c0.9,0,2.1,0.3,2.5,1.1c0.2,0.4,0.2,0.7,0.2,1h-1.3c0-1.1-0.9-1.1-1.4-1.1
			c-0.2,0-1.4,0-1.4,1c0,0.6,0.6,0.8,1,0.9c1.9,0.5,2.4,0.6,2.8,1c0.4,0.4,0.5,0.9,0.5,1.3c0,0.8-0.4,1.5-1,1.8
			c-0.6,0.4-1.4,0.5-2.1,0.5c-1.4,0-2.8-0.6-2.7-2.3H359.3z"/>
	</g>
</g>
<g>
	<g>
		<path class="sme-text-st0" d="M44.4,250.5h6.3v1.2h-4.9v3.2h4.7v1.2h-4.7v3.4h5.1v1.2h-6.5V250.5z"/>
		<path class="sme-text-st0" d="M53.1,254.5l0-0.9h1.3v1c0.7-1.1,1.6-1.2,2.2-1.2c1.6,0,2,0.8,2.3,1.3c0.2-0.4,0.8-1.3,2.4-1.3
			c1,0,2.6,0.4,2.6,2.5v4.7h-1.3v-4.5c0-0.6-0.1-0.9-0.2-1.1c-0.2-0.3-0.7-0.6-1.3-0.6c-0.9,0-1.3,0.5-1.5,0.7
			c-0.3,0.4-0.3,1.2-0.3,1.5v3.9h-1.3V256c0-0.9-0.5-1.5-1.5-1.5c-0.9,0-1.4,0.6-1.5,0.8c-0.3,0.4-0.3,1-0.3,1.4v4h-1.3V254.5z"/>
		<path class="sme-text-st0" d="M69.4,253.4c2.8,0,3.4,2.2,3.4,3.7c0,2.1-1.2,3.8-3.6,3.8c-2.3,0-3.5-1.6-3.5-3.7
			C65.8,255.5,66.7,253.4,69.4,253.4z M69.3,259.9c1,0,2.1-0.7,2.1-2.8c0-1.8-0.8-2.7-2-2.7c-0.8,0-2.2,0.5-2.2,2.7
			C67.2,258.6,67.8,259.9,69.3,259.9z"/>
		<path class="sme-text-st0" d="M73.8,253.6h1.2v-1.5l1.3-0.4v1.9H78v1h-1.6v4.2c0,0.4,0,0.9,0.9,0.9c0.3,0,0.5,0,0.6-0.1v1
			c-0.2,0-0.6,0.1-1.1,0.1c-1.2,0-1.8-0.4-1.8-1.5v-4.7h-1.2V253.6z"/>
		<path class="sme-text-st0" d="M79.5,250.5H81v1.4h-1.6V250.5z M79.6,253.6h1.3v7h-1.3V253.6z"/>
		<path class="sme-text-st0" d="M86.5,253.4c2.8,0,3.4,2.2,3.4,3.7c0,2.1-1.2,3.8-3.6,3.8c-2.3,0-3.5-1.6-3.5-3.7
			C83,255.5,83.8,253.4,86.5,253.4z M86.4,259.9c1,0,2.1-0.7,2.1-2.8c0-1.8-0.8-2.7-2-2.7c-0.8,0-2.2,0.5-2.2,2.7
			C84.3,258.6,84.9,259.9,86.4,259.9z"/>
		<path class="sme-text-st0" d="M92.1,254.4l0-0.8h1.3l0,1.1c0.2-0.3,0.7-1.3,2.3-1.3c0.6,0,2.5,0.2,2.5,2.4v4.8h-1.3v-4.5
			c0-0.5-0.1-0.9-0.4-1.2c-0.3-0.3-0.8-0.5-1.2-0.5c-1,0-1.8,0.7-1.8,2.1v4h-1.3V254.4z"/>
		<path class="sme-text-st0" d="M76.3,270.1c-0.1-0.4-0.2-1.8-2.2-1.8c-2.4,0-2.9,2.5-2.9,4.2c0,1.9,0.5,4,2.9,4c0.6,0,1.2-0.2,1.6-0.6
			c0.4-0.4,0.4-0.8,0.5-1.1h1.5c-0.2,2-2,2.8-3.8,2.8c-3.6,0-4.2-3.1-4.2-5.1c0-2.1,0.8-5.3,4.4-5.3c1.4,0,3.4,0.6,3.6,2.9H76.3z"/>
		<path class="sme-text-st0" d="M79.6,267.3h1.3v10.1h-1.3V267.3z"/>
		<path class="sme-text-st0" d="M84.7,270.4v4.5c0,0.7,0.2,1.6,1.5,1.6c0.7,0,1.3-0.2,1.7-0.8c0.3-0.4,0.3-1,0.3-1.3v-4h1.4v5.7
			c0,0.1,0,0.9,0,1.3h-1.4l0-1.2c-0.3,0.5-0.7,1.3-2.2,1.3c-1.7,0-2.5-1-2.5-2.4v-4.7H84.7z"/>
		<path class="sme-text-st0" d="M93.3,271.4c0.2-0.3,0.7-1.2,2.3-1.2c0.7,0,1.6,0.2,2.2,0.9c0.4,0.4,0.8,1.1,0.8,2.6c0,1.4-0.3,2.1-0.7,2.6
			c-0.6,0.8-1.5,1.2-2.5,1.2c-0.3,0-1,0-1.6-0.4c-0.4-0.3-0.5-0.5-0.7-0.7l0,1.1H92l0-1.3v-8.9h1.3V271.4z M95.3,271.1
			c-2,0-2,2.4-2,2.8c0,0.5,0,2.7,2,2.7c1.6,0,2-1.6,2-2.7C97.3,273.1,97.2,271.1,95.3,271.1z"/>
	</g>
</g>
<g>
	<g>
		<path class="sme-text-st0" d="M232.2,54.6c0,0.7,0.1,2,2.4,2c2.1,0,2.4-1.3,2.4-1.8c0-1.1-0.9-1.4-2.3-1.7c-1.5-0.4-2.2-0.5-2.7-0.9
			c-0.8-0.6-1.1-1.3-1.1-2c0-2.1,1.9-3,3.9-3c0.7,0,2,0.1,2.8,1c0.6,0.6,0.6,1.3,0.6,1.7h-1.5c-0.1-1.3-1.1-1.5-2.1-1.5
			c-1.4,0-2.2,0.6-2.2,1.6c0,0.9,0.6,1.2,1.8,1.5c2.4,0.6,2.7,0.7,3.3,1.1c0.9,0.6,1,1.6,1,2c0,1.8-1.4,3.2-4,3.2
			c-0.8,0-2.3-0.1-3.1-1.1c-0.6-0.7-0.6-1.6-0.6-2H232.2z"/>
		<path class="sme-text-st0" d="M243.3,50.4c2.8,0,3.4,2.2,3.4,3.7c0,2.1-1.2,3.8-3.6,3.8c-2.3,0-3.5-1.6-3.5-3.7
			C239.7,52.4,240.5,50.4,243.3,50.4z M243.2,56.9c1,0,2.1-0.7,2.1-2.8c0-1.8-0.8-2.7-2-2.7c-0.8,0-2.2,0.5-2.2,2.7
			C241.1,55.5,241.7,56.9,243.2,56.9z"/>
		<path class="sme-text-st0" d="M248.8,47.5h1.3v10.1h-1.3V47.5z"/>
		<path class="sme-text-st0" d="M257,57.6c-0.1-0.4-0.1-0.7-0.1-1.1c-0.6,1.2-1.6,1.3-2.2,1.3c-1.6,0-2.5-0.9-2.5-2.1c0-0.6,0.2-1.5,1.2-2.1
			c0.8-0.4,1.9-0.5,2.4-0.5c0.3,0,0.5,0,1,0c0-0.9,0-1.2-0.3-1.6c-0.3-0.4-0.8-0.5-1.2-0.5c-1.3,0-1.4,0.9-1.4,1.2h-1.3
			c0-0.4,0.1-0.9,0.5-1.3c0.5-0.6,1.5-0.8,2.3-0.8c1,0,2.1,0.3,2.5,1c0.2,0.4,0.2,0.8,0.2,1.1l-0.1,3.4c0,0.1,0,1.1,0.1,1.8H257z
			 M256.1,54.1c-0.5,0-2.5,0-2.5,1.4c0,0.4,0.3,1.2,1.5,1.2c0.7,0,1.2-0.3,1.5-0.8c0.3-0.5,0.3-0.9,0.3-1.8
			C256.6,54.2,256.4,54.1,256.1,54.1z"/>
		<path class="sme-text-st0" d="M260.5,52c0-0.5,0-1-0.1-1.4h1.3l0,1.4c0.3-1,1.1-1.3,1.7-1.4c0.4-0.1,0.7,0,0.9,0v1.3c-0.1,0-0.2,0-0.3-0.1
			c-0.1,0-0.2,0-0.4,0c-1.6,0-1.9,0.9-1.9,2.1v3.7h-1.3V52z"/>
		<path class="sme-text-st0" d="M231.1,68.5c0-0.3,0-0.5,0-1.1h1.3l0,1.2c0.7-1.1,1.8-1.3,2.4-1.3c1.5,0,3,1,3,3.6c0,2.6-1.5,3.8-3.2,3.8
			c-1,0-1.8-0.4-2.2-1.1v3.5h-1.3V68.5z M234.4,73.7c0.3,0,1-0.1,1.5-0.7c0.5-0.7,0.6-1.7,0.6-2.2c0-1.3-0.4-2.6-1.9-2.6
			c-2.1,0-2.1,2.2-2.1,2.9C232.4,71.9,232.5,73.7,234.4,73.7z"/>
		<path class="sme-text-st0" d="M242.8,67.2c2.8,0,3.4,2.2,3.4,3.7c0,2.1-1.2,3.8-3.6,3.8c-2.3,0-3.5-1.6-3.5-3.7
			C239.2,69.2,240,67.2,242.8,67.2z M242.7,73.7c1,0,2.1-0.7,2.1-2.8c0-1.8-0.8-2.7-2-2.7c-0.8,0-2.2,0.5-2.2,2.7
			C240.6,72.3,241.2,73.7,242.7,73.7z"/>
		<path class="sme-text-st0" d="M248.7,67.4l1.7,5.6l1.8-5.6h1.7l1.6,5.5l1.8-5.5h1.4l-2.5,7h-1.5l-1.7-5.8l-1.8,5.8h-1.6l-2.3-7H248.7z"/>
		<path class="sme-text-st0" d="M260.8,71.1c0,1.5,0.6,2.5,2,2.5c0.9,0,1.5-0.4,1.7-1.5h1.3c0,0.4-0.1,0.9-0.6,1.5c-0.3,0.4-1,0.9-2.4,0.9
			c-2.2,0-3.3-1.4-3.3-3.6c0-1.4,0.3-2.5,1.4-3.3c0.7-0.5,1.5-0.5,1.9-0.5c3.2,0,3.1,2.8,3.1,3.9H260.8z M264.5,70.2
			c0-0.7-0.1-2.1-1.7-2.1c-0.9,0-1.9,0.5-1.9,2.1H264.5z"/>
		<path class="sme-text-st0" d="M267.8,68.8c0-0.5,0-1-0.1-1.4h1.3l0,1.4c0.3-1,1.1-1.3,1.7-1.4c0.4-0.1,0.7,0,0.9,0v1.3
			c-0.1,0-0.2,0-0.3-0.1c-0.1,0-0.2,0-0.4,0c-1.6,0-1.9,0.9-1.9,2.1v3.7h-1.3V68.8z"/>
	</g>
</g>
<g>
	<g>
		<path class="sme-text-st0" d="M336.5,137.7v-8.9h-3.4v-1.2h8.2v1.2h-3.4v8.9H336.5z"/>
		<path class="sme-text-st0" d="M341.4,132.1c0-0.5,0-1-0.1-1.4h1.3l0,1.4c0.3-1,1.1-1.3,1.7-1.4c0.4-0.1,0.7,0,0.9,0v1.3
			c-0.1,0-0.2,0-0.3-0.1c-0.1,0-0.2,0-0.4,0c-1.6,0-1.9,0.9-1.9,2.1v3.7h-1.3V132.1z"/>
		<path class="sme-text-st0" d="M351,137.7c-0.1-0.4-0.1-0.7-0.1-1.1c-0.6,1.2-1.6,1.3-2.2,1.3c-1.6,0-2.5-0.9-2.5-2.1c0-0.6,0.2-1.5,1.2-2.1
			c0.8-0.4,1.9-0.5,2.4-0.5c0.3,0,0.5,0,1,0c0-0.9,0-1.2-0.3-1.6c-0.3-0.4-0.8-0.5-1.2-0.5c-1.3,0-1.4,0.9-1.4,1.2h-1.3
			c0-0.4,0.1-0.9,0.5-1.3c0.5-0.6,1.5-0.8,2.3-0.8c1,0,2.1,0.3,2.5,1c0.2,0.4,0.2,0.8,0.2,1.1l-0.1,3.4c0,0.1,0,1.1,0.1,1.8H351z
			 M350.1,134.3c-0.5,0-2.5,0-2.5,1.4c0,0.4,0.3,1.2,1.5,1.2c0.7,0,1.2-0.3,1.5-0.8c0.3-0.5,0.3-0.9,0.3-1.8
			C350.6,134.3,350.4,134.3,350.1,134.3z"/>
		<path class="sme-text-st0" d="M359.4,127.6h1.3v9c0,0.2,0,0.8,0.1,1.1h-1.3l0-1.1c-0.1,0.2-0.3,0.5-0.6,0.7c-0.6,0.4-1.3,0.5-1.7,0.5
			c-0.9,0-3-0.5-3-3.6c0-2.7,1.5-3.8,3.2-3.8c1.5,0,2,0.9,2.2,1.2V127.6z M358.9,132.2c-0.3-0.4-0.8-0.7-1.5-0.7
			c-1.9,0-1.9,2.3-1.9,2.8c0,1.2,0.3,2.7,1.9,2.7c2.1,0,2.1-2.3,2.1-2.8C359.4,133.1,359.2,132.5,358.9,132.2z"/>
		<path class="sme-text-st0" d="M362.9,127.6h1.6v1.4h-1.6V127.6z M363.1,130.7h1.3v7h-1.3V130.7z"/>
		<path class="sme-text-st0" d="M365.9,130.7h1.2v-1.5l1.3-0.4v1.9h1.6v1h-1.6v4.2c0,0.4,0,0.9,0.9,0.9c0.3,0,0.5,0,0.6-0.1v1
			c-0.2,0-0.6,0.1-1.1,0.1c-1.2,0-1.8-0.4-1.8-1.5v-4.7h-1.2V130.7z"/>
		<path class="sme-text-st0" d="M371.5,127.6h1.6v1.4h-1.6V127.6z M371.6,130.7h1.3v7h-1.3V130.7z"/>
		<path class="sme-text-st0" d="M378.6,130.5c2.8,0,3.4,2.2,3.4,3.7c0,2.1-1.2,3.8-3.6,3.8c-2.3,0-3.5-1.6-3.5-3.7
			C375,132.6,375.8,130.5,378.6,130.5z M378.5,137c1,0,2.1-0.7,2.1-2.8c0-1.8-0.8-2.7-2-2.7c-0.8,0-2.2,0.5-2.2,2.7
			C376.4,135.7,377,137,378.5,137z"/>
		<path class="sme-text-st0" d="M384.1,131.5l0-0.8h1.3l0,1.1c0.2-0.3,0.7-1.3,2.3-1.3c0.6,0,2.5,0.2,2.5,2.4v4.8h-1.3v-4.5
			c0-0.5-0.1-0.9-0.4-1.2c-0.3-0.3-0.8-0.5-1.2-0.5c-1,0-1.8,0.7-1.8,2.1v4h-1.3V131.5z"/>
		<path class="sme-text-st0" d="M396.9,137.7c-0.1-0.4-0.1-0.7-0.1-1.1c-0.6,1.2-1.6,1.3-2.2,1.3c-1.6,0-2.5-0.9-2.5-2.1
			c0-0.6,0.2-1.5,1.2-2.1c0.8-0.4,1.9-0.5,2.4-0.5c0.3,0,0.5,0,1,0c0-0.9,0-1.2-0.3-1.6c-0.3-0.4-0.8-0.5-1.2-0.5
			c-1.3,0-1.4,0.9-1.4,1.2h-1.3c0-0.4,0.1-0.9,0.5-1.3c0.5-0.6,1.5-0.8,2.3-0.8c1,0,2.1,0.3,2.5,1c0.2,0.4,0.2,0.8,0.2,1.1L398,136
			c0,0.1,0,1.1,0.1,1.8H396.9z M396,134.3c-0.5,0-2.5,0-2.5,1.4c0,0.4,0.3,1.2,1.5,1.2c0.7,0,1.2-0.3,1.5-0.8
			c0.3-0.5,0.3-0.9,0.3-1.8C396.5,134.3,396.3,134.3,396,134.3z"/>
		<path class="sme-text-st0" d="M400.4,127.6h1.3v10.1h-1.3V127.6z"/>
		<path class="sme-text-st0" d="M334,148.6c0-0.3,0-0.5,0-1.1h1.3l0,1.2c0.7-1.1,1.8-1.3,2.4-1.3c1.5,0,3,1,3,3.6c0,2.6-1.5,3.8-3.2,3.8
			c-1,0-1.8-0.4-2.2-1.1v3.5H334V148.6z M337.2,153.8c0.3,0,1-0.1,1.5-0.7c0.5-0.7,0.6-1.7,0.6-2.2c0-1.3-0.4-2.6-1.9-2.6
			c-2.1,0-2.1,2.2-2.1,2.9C335.3,152.1,335.4,153.8,337.2,153.8z"/>
		<path class="sme-text-st0" d="M345.7,147.3c2.8,0,3.4,2.2,3.4,3.7c0,2.1-1.2,3.8-3.6,3.8c-2.3,0-3.5-1.6-3.5-3.7
			C342.1,149.4,342.9,147.3,345.7,147.3z M345.6,153.8c1,0,2.1-0.7,2.1-2.8c0-1.8-0.8-2.7-2-2.7c-0.8,0-2.2,0.5-2.2,2.7
			C343.5,152.5,344.1,153.8,345.6,153.8z"/>
		<path class="sme-text-st0" d="M351.5,147.5l1.7,5.6l1.8-5.6h1.7l1.6,5.5l1.8-5.5h1.4l-2.5,7h-1.5l-1.7-5.8l-1.8,5.8h-1.6l-2.3-7H351.5z"/>
		<path class="sme-text-st0" d="M363.6,151.2c0,1.5,0.6,2.5,2,2.5c0.9,0,1.5-0.4,1.7-1.5h1.3c0,0.4-0.1,0.9-0.6,1.5c-0.3,0.4-1,0.9-2.4,0.9
			c-2.2,0-3.3-1.4-3.3-3.6c0-1.4,0.3-2.5,1.4-3.3c0.7-0.5,1.5-0.5,1.9-0.5c3.2,0,3.1,2.8,3.1,3.9H363.6z M367.3,150.3
			c0-0.7-0.1-2.1-1.7-2.1c-0.9,0-1.9,0.5-1.9,2.1H367.3z"/>
		<path class="sme-text-st0" d="M370.7,148.9c0-0.5,0-1-0.1-1.4h1.3l0,1.4c0.3-1,1.1-1.3,1.7-1.4c0.4-0.1,0.7,0,0.9,0v1.3
			c-0.1,0-0.2,0-0.3-0.1c-0.1,0-0.2,0-0.4,0c-1.6,0-1.9,0.9-1.9,2.1v3.7h-1.3V148.9z"/>
	</g>
</g>
<g>
	<g>
		<path class="sme-text-st0" d="M15.2,143.4c0,0.7,0.1,2,2.4,2c2.1,0,2.4-1.3,2.4-1.8c0-1.1-0.9-1.4-2.3-1.7c-1.5-0.4-2.2-0.5-2.7-0.9
			c-0.8-0.6-1.1-1.3-1.1-2c0-2.1,1.9-3,3.9-3c0.7,0,2,0.1,2.8,1c0.6,0.6,0.6,1.3,0.6,1.7h-1.5c-0.1-1.3-1.1-1.5-2.1-1.5
			c-1.4,0-2.2,0.6-2.2,1.6c0,0.9,0.6,1.2,1.8,1.5c2.4,0.6,2.7,0.7,3.3,1.1c0.9,0.6,1,1.6,1,2c0,1.8-1.4,3.2-4,3.2
			c-0.8,0-2.3-0.1-3.1-1.1c-0.6-0.7-0.6-1.6-0.6-2H15.2z"/>
		<path class="sme-text-st0" d="M22.4,139.3h1.2v-1.5l1.3-0.4v1.9h1.6v1H25v4.2c0,0.4,0,0.9,0.9,0.9c0.3,0,0.5,0,0.6-0.1v1
			c-0.2,0-0.6,0.1-1.1,0.1c-1.2,0-1.8-0.4-1.8-1.5v-4.7h-1.2V139.3z"/>
		<path class="sme-text-st0" d="M31.2,139.1c2.8,0,3.4,2.2,3.4,3.7c0,2.1-1.2,3.8-3.6,3.8c-2.3,0-3.5-1.6-3.5-3.7
			C27.6,141.2,28.4,139.1,31.2,139.1z M31.1,145.6c1,0,2.1-0.7,2.1-2.8c0-1.8-0.8-2.7-2-2.7c-0.8,0-2.2,0.5-2.2,2.7
			C29,144.3,29.6,145.6,31.1,145.6z"/>
		<path class="sme-text-st0" d="M36.8,140.7c0-0.5,0-1-0.1-1.4H38l0,1.4c0.3-1,1.1-1.3,1.7-1.4c0.4-0.1,0.7,0,0.9,0v1.3c-0.1,0-0.2,0-0.3-0.1
			c-0.1,0-0.2,0-0.4,0c-1.6,0-1.9,0.9-1.9,2.1v3.7h-1.3V140.7z"/>
		<path class="sme-text-st0" d="M46.4,146.3c-0.1-0.4-0.1-0.7-0.1-1.1c-0.6,1.2-1.6,1.3-2.2,1.3c-1.6,0-2.5-0.9-2.5-2.1
			c0-0.6,0.2-1.5,1.2-2.1c0.8-0.4,1.9-0.5,2.4-0.5c0.3,0,0.5,0,1,0c0-0.9,0-1.2-0.3-1.6c-0.3-0.4-0.8-0.5-1.2-0.5
			c-1.3,0-1.4,0.9-1.4,1.2h-1.3c0-0.4,0.1-0.9,0.5-1.3c0.5-0.6,1.5-0.8,2.3-0.8c1,0,2.1,0.3,2.5,1c0.2,0.4,0.2,0.8,0.2,1.1l-0.1,3.4
			c0,0.1,0,1.1,0.1,1.8H46.4z M45.5,142.9c-0.5,0-2.5,0-2.5,1.4c0,0.4,0.3,1.2,1.5,1.2c0.7,0,1.2-0.3,1.5-0.8
			c0.3-0.5,0.3-0.9,0.3-1.8C46,142.9,45.9,142.9,45.5,142.9z"/>
		<path class="sme-text-st0" d="M51.2,146.9c0.1,0.8,0.4,1.4,1.6,1.4c1.8,0,1.9-1.3,1.9-3.2c-0.6,1.2-1.9,1.2-2.3,1.2c-0.6,0-1.6-0.1-2.2-0.9
			c-0.6-0.7-0.8-1.7-0.8-2.6c0-2.4,1.4-3.5,3.1-3.5c1.4,0,1.9,0.7,2.2,1.1l0-1h1.3l0,1.3l0,4.4c0,1.7-0.1,2.4-0.3,2.9
			c-0.6,1.1-2,1.3-2.9,1.3c-2.8,0-2.9-1.3-3-2.3H51.2z M54.3,144.5c0.3-0.4,0.5-0.7,0.5-2c0-0.9-0.2-1.4-0.5-1.8
			c-0.4-0.4-0.9-0.6-1.5-0.6c-1.7,0-1.9,1.7-1.9,2.6c0,1.1,0.3,2.5,1.9,2.5C53.5,145.2,53.9,145,54.3,144.5z"/>
		<path class="sme-text-st0" d="M59.3,143.1c0,1.5,0.6,2.5,2,2.5c0.9,0,1.5-0.4,1.7-1.5h1.3c0,0.4-0.1,0.9-0.6,1.5c-0.3,0.4-1,0.9-2.4,0.9
			c-2.2,0-3.3-1.4-3.3-3.6c0-1.4,0.3-2.5,1.4-3.3c0.7-0.5,1.5-0.5,1.9-0.5c3.2,0,3.1,2.8,3.1,3.9H59.3z M63,142.1
			c0-0.7-0.1-2.1-1.7-2.1c-0.9,0-1.9,0.5-1.9,2.1H63z"/>
	</g>
</g>
</svg>
